<svg width="396" height="269" viewBox="0 0 396 269" fill="none" xmlns="http://www.w3.org/2000/svg">
  <g filter="url(#filter0_d)">
    <path d="M24 34C24 27.3726 29.3726 22 36 22H360C366.627 22 372 27.3726 372 34V231C372 237.627 366.627 243 360 243H36C29.3726 243 24 237.627 24 231V34Z" fill="#FDFDFD"/>
  </g>
    <rect x="48" y="57" width="300" height="56" rx="2" fill="white"/>
    <rect x="48.5" y="57.5" width="299" height="55" rx="1.5" stroke="black" fill="#0000" stroke-opacity="0.1"/>
  <path d="M276.2 92H285.717V89.7912H278.835V85.821H285.17V83.6122H278.835V79.6634H285.661V77.4545H276.2V92ZM287.71 79.6634H292.205V92H294.819V79.6634H299.315V77.4545H287.71V79.6634ZM301.552 92H304.187V85.821H310.927V92H313.569V77.4545H310.927V83.6122H304.187V77.4545H301.552V92Z" fill="black"/>
  <path d="M332 84L328 88L324 84" stroke="black" stroke-width="1.8" stroke-linecap="round"/>
  <path opacity="0.2" d="M66 86C66 81.5817 69.5817 78 74 78H103C107.418 78 111 81.5817 111 86V86C111 90.4183 107.418 94 103 94H74C69.5817 94 66 90.4183 66 86V86Z" fill="#103A49"/>
    <rect x="49" y="143" width="298" height="54" rx="1" fill="white" stroke="#6144E5" stroke-width="2"/>
    <rect x="254" y="186" width="86" height="25" fill="white"/>
  <path d="M274.849 177H280.737C284.067 177 285.701 175.303 285.701 173.037C285.701 170.835 284.138 169.543 282.59 169.464V169.322C284.011 168.989 285.133 167.994 285.133 166.226C285.133 164.06 283.57 162.455 280.417 162.455H274.849V177ZM277.484 174.798V170.537H280.388C282.015 170.537 283.023 171.531 283.023 172.831C283.023 173.989 282.228 174.798 280.317 174.798H277.484ZM277.484 168.641V164.628H280.147C281.695 164.628 282.498 165.445 282.498 166.567C282.498 167.845 281.461 168.641 280.09 168.641H277.484ZM287.354 164.663H291.85V177H294.463V164.663H298.959V162.455H287.354V164.663ZM313.022 167.362C312.574 164.131 310.088 162.256 306.864 162.256C303.064 162.256 300.202 165.026 300.202 169.727C300.202 174.422 303.029 177.199 306.864 177.199C310.323 177.199 312.617 174.962 313.022 172.185L310.365 172.17C310.032 173.875 308.64 174.834 306.9 174.834C304.542 174.834 302.851 173.065 302.851 169.727C302.851 166.446 304.527 164.621 306.907 164.621C308.675 164.621 310.06 165.622 310.365 167.362H313.022Z" fill="black"/>
  <path d="M332 169L328 173L324 169" stroke="black" stroke-width="1.8" stroke-linecap="round"/>
  <path opacity="0.2" d="M260 197.5C260 195.015 262.015 193 264.5 193H327.5C329.985 193 332 195.015 332 197.5V197.5C332 199.985 329.985 202 327.5 202H264.5C262.015 202 260 199.985 260 197.5V197.5Z" fill="#103A49"/>
  <path opacity="0.2" d="M67 171C67 166.582 70.5817 163 75 163H104C108.418 163 112 166.582 112 171V171C112 175.418 108.418 179 104 179H75C70.5817 179 67 175.418 67 171V171Z" fill="#103A49"/>
    <rect x="58" y="129" width="71" height="25" fill="white"/>
  <path d="M64.3089 136.091L68.288 143.143V147H70.5785V143.143L74.5575 136.091H71.9741L69.4865 140.789H69.38L66.8924 136.091H64.3089ZM77.7722 147.16C80.2544 147.16 81.7992 145.461 81.7992 142.941C81.7992 140.406 80.2544 138.712 77.7722 138.712C75.29 138.712 73.7452 140.406 73.7452 142.941C73.7452 145.461 75.29 147.16 77.7722 147.16ZM77.7828 145.402C76.6376 145.402 76.0517 144.353 76.0517 142.925C76.0517 141.498 76.6376 140.443 77.7828 140.443C78.9068 140.443 79.4927 141.498 79.4927 142.925C79.4927 144.353 78.9068 145.402 77.7828 145.402ZM88.5215 143.516C88.5268 144.614 87.7757 145.189 86.9608 145.189C86.1032 145.189 85.5492 144.587 85.5439 143.623V138.818H83.2747V144.028C83.28 145.94 84.3986 147.107 86.0446 147.107C87.275 147.107 88.1593 146.473 88.5268 145.514H88.612V147H90.7907V138.818H88.5215V143.516ZM99.7635 150.239C102.102 150.239 103.764 149.173 103.764 147.08V138.818H101.511V140.192H101.425C101.122 139.527 100.456 138.712 99.087 138.712C97.2919 138.712 95.7738 140.107 95.7738 142.893C95.7738 145.615 97.2493 146.883 99.0923 146.883C100.397 146.883 101.127 146.228 101.425 145.551H101.521V147.048C101.521 148.172 100.802 148.609 99.8168 148.609C98.8153 148.609 98.3093 148.172 98.1229 147.676L96.0241 147.959C96.2958 149.248 97.5582 150.239 99.7635 150.239ZM99.8114 145.178C98.6982 145.178 98.0909 144.294 98.0909 142.882C98.0909 141.492 98.6875 140.517 99.8114 140.517C100.914 140.517 101.532 141.45 101.532 142.882C101.532 144.326 100.903 145.178 99.8114 145.178ZM109.298 147.16C111.322 147.16 112.686 146.174 113.006 144.656L110.907 144.518C110.678 145.141 110.092 145.466 109.336 145.466C108.201 145.466 107.482 144.715 107.482 143.495V143.49H113.054V142.866C113.054 140.086 111.37 138.712 109.208 138.712C106.8 138.712 105.239 140.422 105.239 142.946C105.239 145.54 106.779 147.16 109.298 147.16ZM107.482 142.083C107.53 141.151 108.238 140.406 109.245 140.406C110.23 140.406 110.912 141.109 110.918 142.083H107.482ZM118.886 138.818H117.347V136.858H115.078V138.818H113.959V140.523H115.078V144.784C115.067 146.387 116.159 147.181 117.805 147.112C118.391 147.091 118.806 146.973 119.036 146.899L118.679 145.21C118.567 145.232 118.327 145.285 118.114 145.285C117.661 145.285 117.347 145.114 117.347 144.486V140.523H118.886V138.818Z" fill="black" fill-opacity="0.8"/>
    <rect x="58" y="51" width="50" height="25" fill="white"/>
  <path d="M64.3089 53.0909L68.288 60.1435V64H70.5785V60.1435L74.5575 53.0909H71.9741L69.4865 57.7891H69.38L66.8924 53.0909H64.3089ZM77.7722 64.1598C80.2544 64.1598 81.7992 62.4606 81.7992 59.9411C81.7992 57.4055 80.2544 55.7116 77.7722 55.7116C75.29 55.7116 73.7452 57.4055 73.7452 59.9411C73.7452 62.4606 75.29 64.1598 77.7722 64.1598ZM77.7828 62.402C76.6376 62.402 76.0517 61.3526 76.0517 59.9251C76.0517 58.4975 76.6376 57.4428 77.7828 57.4428C78.9068 57.4428 79.4927 58.4975 79.4927 59.9251C79.4927 61.3526 78.9068 62.402 77.7828 62.402ZM88.5215 60.5163C88.5268 61.6136 87.7757 62.1889 86.9608 62.1889C86.1032 62.1889 85.5492 61.587 85.5439 60.6229V55.8182H83.2747V61.0277C83.28 62.94 84.3986 64.1065 86.0446 64.1065C87.275 64.1065 88.1593 63.4727 88.5268 62.5138H88.612V64H90.7907V55.8182H88.5215V60.5163ZM96.0774 67.0682H98.3466V62.6896H98.4158C98.7301 63.3714 99.4173 64.1332 100.738 64.1332C102.603 64.1332 104.057 62.6577 104.057 59.9197C104.057 57.1072 102.539 55.7116 100.744 55.7116C99.3746 55.7116 98.7195 56.5266 98.4158 57.1925H98.3146V55.8182H96.0774V67.0682ZM98.2987 59.9091C98.2987 58.4496 98.9165 57.5174 100.019 57.5174C101.143 57.5174 101.74 58.4922 101.74 59.9091C101.74 61.3366 101.132 62.3274 100.019 62.3274C98.9272 62.3274 98.2987 61.3686 98.2987 59.9091ZM107.903 64.1545C109.112 64.1545 109.895 63.6271 110.294 62.8654H110.358V64H112.51V58.4815C112.51 56.532 110.859 55.7116 109.037 55.7116C107.077 55.7116 105.788 56.6491 105.474 58.1406L107.572 58.3111C107.727 57.7678 108.212 57.3683 109.027 57.3683C109.799 57.3683 110.241 57.7571 110.241 58.4283V58.4602C110.241 58.9876 109.682 59.0568 108.26 59.1953C106.64 59.3445 105.186 59.8878 105.186 61.7148C105.186 63.3342 106.342 64.1545 107.903 64.1545ZM108.553 62.5884C107.855 62.5884 107.354 62.2635 107.354 61.6403C107.354 61.0011 107.881 60.6868 108.68 60.5749C109.176 60.5057 109.985 60.3885 110.257 60.2074V61.0756C110.257 61.9332 109.549 62.5884 108.553 62.5884ZM115.379 67.0682C117.067 67.0682 117.962 66.2053 118.426 64.8842L121.606 55.8288L119.203 55.8182L117.493 61.8267H117.408L115.714 55.8182H113.328L116.263 64.2344L116.13 64.5806C115.831 65.3477 115.262 65.3849 114.463 65.1399L113.951 66.8338C114.276 66.9723 114.803 67.0682 115.379 67.0682Z" fill="#103A49"/>
  <defs>
    <filter id="filter0_d" x="0" y="0" width="396" height="269" filterUnits="userSpaceOnUse" color-interpolation-filters="sRGB">
      <feFlood flood-opacity="0" result="BackgroundImageFix"/>
      <feColorMatrix in="SourceAlpha" type="matrix" values="0 0 0 0 0 0 0 0 0 0 0 0 0 0 0 0 0 0 127 0"/>
      <feOffset dy="2"/>
      <feGaussianBlur stdDeviation="12"/>
      <feColorMatrix type="matrix" values="0 0 0 0 0 0 0 0 0 0 0 0 0 0 0 0 0 0 0.08 0"/>
      <feBlend mode="normal" in2="BackgroundImageFix" result="effect1_dropShadow"/>
      <feBlend mode="normal" in="SourceGraphic" in2="effect1_dropShadow" result="shape"/>
    </filter>
  </defs>
</svg>