<?xml version="1.0" encoding="utf-8"?><svg version="1.1" xmlns="http://www.w3.org/2000/svg" xmlns:xlink="http://www.w3.org/1999/xlink" x="0px" y="0px" viewBox="0 0 98.92 122.88" style="enable-background:new 0 0 98.92 122.88" xml:space="preserve"><g><path fill="#f1972e" stroke="bisque" d="M78.77,0c-3.29,39.36-48.34,13.5-65.45,46.28c-2.42,5.34-4.03,10.29-4.8,14.84c-1.26,1.55-2.42,3.22-3.45,5 c-5.22,9.05-6.28,19.35-3.78,28.71c2.51,9.35,8.58,17.75,17.63,22.97c9.05,5.22,19.35,6.28,28.71,3.78 c9.35-2.51,17.75-8.58,22.97-17.63c2.31-4,3.8-8.24,4.54-12.54c5.32-3.1,10.02-7.48,13.62-13.28c6.08-14.12-5.01-25.38,10.17-35.32 c-9.38-4.72-15.1,0.16-20.58,9.7c-5.93,12.88-28.14-2.37-7.32-10.29C88.92,35.42,87.29,14.45,78.77,0L78.77,0L78.77,0z M37.02,84.91c0.11,0,0.23,0,0.34,0.01l13.03-9.76c1.51-1.13,3.66-0.83,4.79,0.68c1.13,1.51,0.83,3.66-0.68,4.79L41.6,90.3 c-0.36,2.21-2.27,3.9-4.58,3.9c-2.56,0-4.64-2.08-4.64-4.64c0-0.49,0.08-0.96,0.22-1.41L19.33,77.89 c-0.84-0.65-0.99-1.85-0.35-2.69c0.65-0.84,1.85-0.99,2.69-0.35l13.5,10.44C35.74,85.05,36.36,84.91,37.02,84.91L37.02,84.91z M53.96,57.11c16.06,9.27,21.08,28,11.8,44.06c-9.27,16.06-28,21.08-44.06,11.81c-16.06-9.27-21.08-28-11.8-44.06 C19.18,52.86,37.9,47.84,53.96,57.11L53.96,57.11z"/></g></svg>