<svg xmlns="http://www.w3.org/2000/svg" viewBox="0 0 788 788">
  <path fill="#f7941d" d="M287 .2H-.5v289.5A408.7 408.7 0 0 1 287 .2zM788.5 289.7V.2H501a408.7 408.7 0 0 1 287.5 289.5zM501 787.8h287.5V498.3A408.7 408.7 0 0 1 501 787.8zM-.5 498.3v289.5H287A408.7 408.7 0 0 1-.5 498.3z"/>
  <circle fill="#f7941d" cx="394" cy="394" r="335"/>
  <path d="M551.1 408l-.2-.4-.3-1.2v-.1h-.1v-.1a68.4 68.4 0 0 0-22.4-33.5l-1-.8-.4-.3-.3-.2-.2-.1-.3-.3h-.1l-.3-.3h-.2l-.3-.3-.1-.1-.3-.3h-.2l-.4-.3h-.1l-.2-.4-.2-.1-.3-.2-.2-.2-.4-.2-.1-.1-.4-.2-.2-.2-.3-.2-.2-.2-.4-.2-.2-.1-.3-.3h-.2l-.4-.3-.2-.2-.4-.2-.2-.1-.4-.2-.2-.1-.4-.3h-.2l-.4-.3-.3-.1-.4-.3-.2-.1-.4-.3h-.3l-.4-.3-.2-.2-.5-.2-.2-.2-.5-.2-.3-.2-.7-.4a95.5 95.5 0 0 0-30.6-9.6 85.6 85.6 0 0 0 8.2-10.3l.4-.6.2-.3.3-.4.1-.2.2-.4.2-.1.2-.4.1-.2.3-.4.1-.2.2-.4.2-.1.2-.4.1-.2.2-.4.1-.1.2-.4.1-.2.2-.3.1-.2.2-.4.1-.1.2-.4v-.2l.3-.3v-.2l.3-.3v-.2l.3-.3v-.2l.2-.3.1-.1.2-.4v-.1l.2-.3.1-.2.2-.3v-.1l.2-.3v-.2l.2-.3v-.1l.2-.3v-.2l.2-.3.1-.1.2-.4.2-.4.4-1a60.8 60.8 0 0 0 3.1-35.7v-.2h-.1l-.3-1v-.2l-.1-.3-.4-1.4-.4-1.4-.1-.3-.4-1v-.2a60.8 60.8 0 0 0-20-29.8l-.8-.7-.4-.3-.3-.2-.2-.1-.2-.2-.1-.1-.3-.2-.1-.1-.3-.2-.2-.1-.3-.2v-.2l-.4-.2h-.1l-.3-.3-.2-.1-.3-.2-.2-.1-.3-.2-.1-.1-.3-.2-.2-.1-.3-.2-.2-.1-.3-.2-.2-.1-.3-.2-.2-.1-.3-.2-.2-.1-.3-.3h-.2l-.4-.3h-.1l-.4-.3-.2-.1-.4-.2-.2-.1-.3-.2-.2-.2-.4-.2-.2-.1-.4-.3h-.2l-.4-.3-.2-.1-.4-.2-.3-.2-.7-.3a91.9 91.9 0 0 0-64.9-6.4l-6 1.6-15.5-59.9-35.7 9.2 15.3 59.6-28.5 7.3-15.3-59.4L280 210l15.4 59.7-73.6 18.9 9.8 38 29.6-7.6a18.3 18.3 0 0 1 22.4 13.2l41.1 160a12.2 12.2 0 0 1-8.8 15l-26 6.6 1.6 45.2 73.4-18.8 15.5 59.5 35.7-9.1-15.4-59.7 28.6-7.4 15.3 59.7 35.6-9.1-15.4-60 14.9-3.8a103.5 103.5 0 0 0 60.5-41.5l.5-.7.2-.3.3-.4.1-.2.3-.5.1-.2.3-.4.1-.3.3-.4v-.2l.3-.4.2-.3.2-.4.1-.2.2-.4.1-.2.3-.4v-.2l.3-.4.1-.2.3-.4v-.2l.3-.4v-.2l.3-.4.1-.2.2-.4.1-.2.2-.3.1-.2.2-.4v-.2l.3-.3v-.2l.2-.3.1-.2.2-.4.1-.1.2-.4.1-.1.2-.4v-.2l.2-.3.1-.2.2-.3v-.2l.2-.3.2-.5.5-1.2a68.5 68.5 0 0 0 3.5-40.1v-.2h-.1l-.3-1.2v-.2h-.1v-.2l-.1-.1-.4-1.6-.2-1.5zM341.6 300.8l39.6-10c13.2-3.4 26.1-2.1 36.3 2.8l.3.1h.2l.2.2.3.2h.1l.2.1h.1l.2.2h.1l.2.2h.1l.2.1h.1l.2.2h.1l.2.2h.1l.3.1.2.2h.1l.2.2h.1l.2.2.3.1.2.2h.1l.2.1.3.2.2.1v.1l.3.1.2.2h.2v.1l.2.1.2.2.3.1.2.2.5.3a30.7 30.7 0 0 1 10.9 15.6v.1l.2.5v.2l.3.8a4.4 4.4 0 0 1 .1.8l.1.1a2.6 2.6 0 0 0 .2.6 30.9 30.9 0 0 1-2 19l-.2.5-.2.3v.2h-.1V337l-.2.2-.1.2v.1l-.1.2-.2.2v.1l-.1.2-.1.2v.1l-.2.2-.1.3-.2.2v.1l-.2.2v.1l-.2.2-.1.3h-.1l-.1.2v.1l-.2.2v.1l-.2.2v.1l-.2.2-.2.3-.2.3-.2.2v.1l-.2.2v.1l-.2.2-.1.2-.2.3a53.6 53.6 0 0 1-30.5 20c-8.3 2-33.4 8.7-39.5 10.2zM481 423.6v.1h.1l.1.6v.1h.1a31.7 31.7 0 0 1-2.9 20.7l-.3.6-.1.3-.2.2-.1.2v.1l-.2.2v.1l-.1.2h-.1l-.1.3-.2.2v.1l-.2.2v.1l-.2.2-.2.3-.1.3-.2.2v.1l-.2.2v.1l-.2.2v.1l-.2.2v.1l-.2.2v.1l-.2.3-.2.3-.1.1-.1.2-.1.1-.2.3v.1l-.2.2-.1.2-.2.2v.1l-.3.3-.2.3-.2.2-.2.3a67.5 67.5 0 0 1-36.4 22.5l-46.8 12.2-20.3-78.7c7.3-2 37-9.4 46.9-12 15.6-4 31-2.8 42.8 2.2l.3.2h.2l.3.2h.1l.3.2h.1l.3.1h.1l.3.2.3.2h.1l.3.1v.1l.3.1h.1l.3.2.3.2.3.1.3.2.3.2.3.1.3.2h.1l.2.2h.1l.2.1h.1l.2.2h.1l.2.2.3.2.2.1.1.1.2.1h.1l.2.2.3.2.2.1.6.4a31.8 31.8 0 0 1 12.5 16.8v.1l.3.6v.2l.3.8c.1 0 .2.4.1.7z" fill="#fff"/>
</svg>
