<svg width="34" height="33" viewBox="0 0 34 33" fill="none" xmlns="http://www.w3.org/2000/svg">
<path d="M20.4558 11.2693V7.10405H29.9808V0.757568H4.04388V7.10405H13.57V11.266C5.82804 11.6216 0.00683594 13.1548 0.00683594 14.9916C0.00683594 16.8284 5.83084 18.3617 13.57 18.7196V32.0616H20.458V18.7185C28.186 18.3617 33.9955 16.8296 33.9955 14.9944C33.9955 13.1593 28.186 11.6272 20.458 11.2704L20.4558 11.2693ZM20.458 17.5884V17.585C20.2637 17.5973 19.2652 17.6573 17.042 17.6573C15.2646 17.6573 14.0141 17.6069 13.5734 17.5839V17.5895C6.73356 17.2865 1.62804 16.0954 1.62804 14.6702C1.62804 13.245 6.73412 12.0556 13.5734 11.752V16.4028C14.0214 16.4336 15.3027 16.5093 17.0712 16.5093C19.1952 16.5093 20.2632 16.4208 20.4592 16.4028V11.752C27.2856 12.0561 32.3793 13.2484 32.3793 14.6685C32.3793 16.0887 27.2833 17.2815 20.4592 17.5856" fill="#53AE94"/>
</svg>
