<svg width="7" height="13" viewBox="0 0 7 13" fill="none" xmlns="http://www.w3.org/2000/svg">
    <path d="M1.509 12.274V11H0.17V1.718H1.509V0.404999H2.38V1.718H2.406C2.70933 1.718 2.98667 1.731 3.238 1.757V0.404999H4.109V1.9C4.66367 2.03867 5.07967 2.28133 5.357 2.628C5.643 2.97467 5.786 3.45567 5.786 4.071C5.786 4.59967 5.69067 5.046 5.5 5.41C5.30933 5.774 5.03633 5.995 4.681 6.073V6.138C4.93233 6.19867 5.15767 6.307 5.357 6.463C5.55633 6.619 5.71667 6.84433 5.838 7.139C5.95933 7.43367 6.02 7.82367 6.02 8.309C6.02 8.96767 5.851 9.518 5.513 9.96C5.175 10.3933 4.707 10.6923 4.109 10.857V12.274H3.238V11C3.16 11 3.07767 11 2.991 11H2.38V12.274H1.509ZM2.133 5.397H2.627C3.06033 5.397 3.35933 5.306 3.524 5.124C3.68867 4.942 3.771 4.67767 3.771 4.331C3.771 3.97567 3.67133 3.72 3.472 3.564C3.27267 3.408 2.95633 3.33 2.523 3.33H2.133V5.397ZM2.133 6.957V9.375H2.77C3.22067 9.375 3.53267 9.26233 3.706 9.037C3.888 8.803 3.979 8.49533 3.979 8.114C3.979 7.76733 3.888 7.49 3.706 7.282C3.524 7.06533 3.19033 6.957 2.705 6.957H2.133Z" fill="#8E9AA3"/>
</svg>