<svg width="11" height="29" viewBox="0 0 11 29" fill="none" xmlns="http://www.w3.org/2000/svg">
<path d="M1.14583 24.0286H2.29167V15.8464H1.14583C0.51299 15.8464 0 15.3392 0 14.7136V12.0078C0 11.3822 0.51299 10.875 1.14583 10.875H7.5625C8.19534 10.875 8.70833 11.3822 8.70833 12.0078V24.0286H9.85417C10.487 24.0286 11 24.5358 11 25.1614V27.8672C11 28.4928 10.487 29 9.85417 29H1.14583C0.51299 29 0 28.4928 0 27.8672V25.1614C0 24.5358 0.51299 24.0286 1.14583 24.0286ZM5.5 0C3.2218 0 1.375 1.82581 1.375 4.07812C1.375 6.33044 3.2218 8.15625 5.5 8.15625C7.7782 8.15625 9.625 6.33044 9.625 4.07812C9.625 1.82581 7.77815 0 5.5 0Z" fill="white"/>
</svg>
