<svg xmlns="http://www.w3.org/2000/svg" x="0px" y="0px"
width="50" height="50"
viewBox="0 0 172 172"
style=" fill:#000000;"><g fill="none" fill-rule="nonzero" stroke="none" stroke-width="1" stroke-linecap="butt" stroke-linejoin="miter" stroke-miterlimit="10" stroke-dasharray="" stroke-dashoffset="0" font-family="none" font-weight="none" font-size="none" text-anchor="none" style="mix-blend-mode: normal"><path d="M0,172v-172h172v172z" fill="none"></path><g fill="#9b59b6"><path d="M91.805,0l-55.04,17.2c-1.37062,0.68531 -2.365,2.06938 -2.365,3.44v134.16c0,1.72 1.075,3.09063 2.795,3.44l55.04,13.76h0.645c0.68531,0 1.35719,-0.29562 2.0425,-0.645c0.68531,-0.68531 1.3975,-1.76031 1.3975,-2.795v-165.12c0,-1.03469 -0.71219,-2.10969 -1.3975,-2.795c-1.03469,-0.68531 -2.08281,-0.645 -3.1175,-0.645zM103.2,13.76v6.88h27.52v130.72h-27.52v6.88h30.96c1.89469,0 3.44,-1.54531 3.44,-3.44v-137.6c0,-1.89469 -1.54531,-3.44 -3.44,-3.44zM82.56,82.56c2.06938,0 3.44,2.40531 3.44,5.16c0,2.75469 -1.37062,5.16 -3.44,5.16c-2.06937,0 -3.44,-2.40531 -3.44,-5.16c0,-2.75469 1.37063,-5.16 3.44,-5.16z"></path></g></g></svg>
