<?xml version="1.0" encoding="iso-8859-1"?>
<svg version="1.1" xmlns="http://www.w3.org/2000/svg" xmlns:xlink="http://www.w3.org/1999/xlink" x="0px" y="0px" viewBox="0 0 512 512" style="enable-background:new 0 0 512 512;" xml:space="preserve">
<g>
	<path fill="#f6b153" d="M336.655,202.803c33.946-30.949,79.852-72.806,84.036-172.803H451V0H61v30h30.309
		c4.184,99.997,50.09,141.854,84.036,172.803C198.116,223.564,211,236.271,211,256s-12.884,32.436-35.655,53.197
		C141.399,340.146,95.493,382.003,91.309,482H61v30h390v-30h-30.309c-4.184-99.997-50.09-141.854-84.036-172.803
		C313.884,288.436,301,275.729,301,256S313.884,223.564,336.655,202.803z M241,368.438c-4.633,0.956-9.21,2.347-13.677,4.195
		l-91.877,38.019c15.004-38.15,39.17-60.193,60.111-79.285C218.927,310.06,241,289.935,241,256V368.438z M316.443,331.367
		c20.941,19.092,45.106,41.135,60.111,79.284l-91.877-38.019c-4.467-1.848-9.044-3.239-13.677-4.195V256
		C271,289.935,293.073,310.06,316.443,331.367z M134.919,100c-7.253-18.899-12.262-41.718-13.573-70h269.307
		c-1.311,28.282-6.319,51.101-13.573,70H134.919z"/>
</g>
</svg>
