<svg width="8" height="12" viewBox="0 0 8 12" fill="none" xmlns="http://www.w3.org/2000/svg">
<path d="M7.12842 8.40723C7.12842 8.6709 7.07715 8.92969 6.97461 9.18359C6.87207 9.43262 6.72559 9.66455 6.53516 9.87939C6.34961 10.0942 6.12012 10.2871 5.84668 10.458C5.57812 10.6289 5.27539 10.7607 4.93848 10.8535V11.7617H4.13281V10.9854C4.06934 10.9951 4.00586 11 3.94238 11H3.54688V11.7617H2.73389V10.8682C2.4165 10.7803 2.12598 10.6533 1.8623 10.4873C1.59863 10.3213 1.36914 10.1211 1.17383 9.88672C0.978516 9.64746 0.827148 9.37646 0.719727 9.07373C0.612305 8.76611 0.558594 8.4292 0.558594 8.06299H1.94287C1.94287 8.37061 2.00879 8.66357 2.14062 8.94189C2.27734 9.22021 2.4751 9.44727 2.73389 9.62305V6.33447C2.4165 6.23193 2.12354 6.1123 1.85498 5.97559C1.58643 5.83887 1.35449 5.67529 1.15918 5.48486C0.963867 5.29443 0.8125 5.07227 0.705078 4.81836C0.597656 4.56445 0.543945 4.26904 0.543945 3.93213C0.543945 3.61963 0.597656 3.33643 0.705078 3.08252C0.8125 2.82861 0.961426 2.604 1.15186 2.40869C1.34717 2.2085 1.5791 2.04248 1.84766 1.91064C2.11621 1.77393 2.41162 1.66895 2.73389 1.5957V0.709473H3.54688V1.49316H3.97168C4.02539 1.49316 4.0791 1.49805 4.13281 1.50781V0.709473H4.93848V1.625C5.22168 1.69824 5.48535 1.80322 5.72949 1.93994C5.97363 2.07178 6.18848 2.23535 6.37402 2.43066C6.55957 2.62109 6.71094 2.84082 6.82812 3.08984C6.94531 3.33887 7.021 3.61475 7.05518 3.91748H5.82471C5.78076 3.66846 5.68311 3.44141 5.53174 3.23633C5.38037 3.02637 5.18262 2.85547 4.93848 2.72363V5.82178C5.65137 6.06592 6.19336 6.40283 6.56445 6.83252C6.94043 7.26221 7.12842 7.78711 7.12842 8.40723ZM4.13281 6.72266L3.54688 6.54688V9.92334C3.58594 9.93311 3.62256 9.93799 3.65674 9.93799H3.94971C4.0083 9.93799 4.06934 9.93311 4.13281 9.92334V6.72266ZM4.13281 5.5874C4.13281 5.26025 4.13037 4.93555 4.12549 4.61328C4.12549 4.29102 4.12305 3.99316 4.11816 3.71973C4.11816 3.44141 4.11328 3.19482 4.10352 2.97998C4.09863 2.76025 4.09131 2.58936 4.08154 2.46729H4.04492C3.99609 2.45752 3.94971 2.4502 3.90576 2.44531C3.86182 2.44043 3.81543 2.43799 3.7666 2.43799H3.54688V5.38965C3.63477 5.42871 3.72754 5.46289 3.8252 5.49219C3.92285 5.52148 4.02539 5.55322 4.13281 5.5874ZM2.73389 2.62842C2.47021 2.75537 2.27734 2.93115 2.15527 3.15576C2.0332 3.37549 1.97217 3.61963 1.97217 3.88818C1.97217 4.01514 1.98193 4.13232 2.00146 4.23975C2.02588 4.34229 2.06738 4.44238 2.12598 4.54004C2.18457 4.63281 2.2627 4.72314 2.36035 4.81104C2.45801 4.89404 2.58252 4.97705 2.73389 5.06006V2.62842ZM5.6416 8.31201C5.6416 8.07764 5.58789 7.86279 5.48047 7.66748C5.37793 7.46729 5.19727 7.28418 4.93848 7.11816V9.6377C5.1875 9.48145 5.36572 9.28369 5.47314 9.04443C5.58545 8.80518 5.6416 8.56104 5.6416 8.31201Z" fill="#8E9AA3"/>
</svg>
