<?xml version="1.0" encoding="UTF-8"?>
<svg width="2332px" height="524px" viewBox="0 0 2332 524" version="1.1" xmlns="http://www.w3.org/2000/svg" xmlns:xlink="http://www.w3.org/1999/xlink">
    <!-- Generator: Sketch 46.2 (44496) - http://www.bohemiancoding.com/sketch -->
    <title>Group</title>
    <desc>Created with Sketch.</desc>
    <defs>
        <linearGradient x1="95.2057352%" y1="6.58631132%" x2="15.8218724%" y2="81.9366702%" id="linearGradient-1">
            <stop stop-color="#01C1D2" offset="0%"></stop>
            <stop stop-color="#009EB5" offset="22.4874364%"></stop>
            <stop stop-color="#007BB7" offset="58.4178375%"></stop>
            <stop stop-color="#384D78" offset="86.791684%"></stop>
            <stop stop-color="#483B6B" offset="100%"></stop>
        </linearGradient>
        <path d="M11.3208711,46.856821 C65.7224852,15.6189403 134.732309,0 218.350341,0 C301.968374,0 370.978198,15.6189405 425.379812,46.8568214 L425.379812,46.8568218 C432.633676,51.022054 436.897926,58.9405645 436.383083,67.2893755 L425.179603,248.96739 L425.179603,248.96739 C420.576802,323.607381 380.848792,391.641743 318.105948,432.331416 L230.320809,489.261392 L230.320809,489.261392 C223.039095,493.983692 213.661587,493.983692 206.379874,489.261392 L118.594735,432.331416 L118.594735,432.331416 C55.8518904,391.641743 16.1238805,323.607381 11.5210799,248.96739 L0.317599593,67.2893747 L0.317600079,67.2893747 C-0.197243393,58.9405637 4.06700664,51.0220532 11.3208711,46.856821 Z" id="path-2"></path>
    </defs>
    <g id="Main_remake" stroke="none" stroke-width="1" fill="none" fill-rule="evenodd">
        <g id="Logo-Copy" transform="translate(-411.000000, -1290.000000)">
            <g id="Group" transform="translate(427.000000, 1301.000000)">
                <path d="M820.930018,453.200001 L787.831017,374.659999 L636.922014,374.659999 L603.823013,453.200001 L524.722011,453.200001 L686.851015,71.1589925 L741.829016,71.1589925 L899.470019,453.200001 L820.930018,453.200001 Z M659.923014,315.193998 L766.513017,315.193998 L713.779015,180.553995 L659.923014,315.193998 Z M1143.86535,79.0129927 L936.295342,79.0129927 L936.295342,453.200001 L1143.86535,453.200001 L1143.86535,390.367999 L1009.22534,390.367999 L1009.22534,288.265997 L1138.25535,288.265997 L1138.25535,225.433996 L1009.22534,225.433996 L1009.22534,141.844994 L1143.86535,141.844994 L1143.86535,79.0129927 Z M1207.61867,79.0129927 L1315.89167,79.0129927 C1367.50367,79.0129927 1393.87067,92.4769929 1411.26167,107.062993 C1439.87267,131.185994 1448.28767,163.162994 1448.28767,191.212995 C1448.28767,227.677996 1433.70167,259.654997 1404.52967,279.289997 C1394.99267,286.021997 1381.52867,292.192997 1363.57667,295.558997 L1480.26468,453.200001 L1389.38267,453.200001 L1289.52467,302.851998 L1280.54867,302.851998 L1280.54867,453.200001 L1207.61867,453.200001 L1207.61867,79.0129927 Z M1280.54867,138.478994 L1280.54867,251.239996 L1301.30567,251.239996 C1315.33067,251.239996 1373.11367,249.556996 1373.11367,194.578995 C1373.11367,139.039994 1315.89167,138.478994 1302.42767,138.478994 L1280.54867,138.478994 Z M1704.464,70.5979925 C1822.274,70.5979925 1904.18001,152.503994 1904.18001,266.386997 C1904.18001,380.269999 1822.274,461.615001 1704.464,461.615001 C1586.654,461.615001 1504.748,380.269999 1504.748,266.386997 C1504.748,152.503994 1586.654,70.5979925 1704.464,70.5979925 Z M1704.464,395.417 C1777.394,395.417 1829.006,342.121998 1829.006,266.386997 C1829.006,190.651995 1777.394,136.795994 1704.464,136.795994 C1631.534,136.795994 1579.922,190.651995 1579.922,266.386997 C1579.922,342.121998 1631.534,395.417 1704.464,395.417 Z M2037.49733,453.200001 L2037.49733,200.188995 L2265.26334,460.493001 L2315.75334,460.493001 L2315.75334,79.0129927 L2242.82333,79.0129927 L2242.82333,330.901998 L2015.05733,70.5979925 L1964.56733,70.5979925 L1964.56733,453.200001 L2037.49733,453.200001 Z" id="AERON" fill="#FFFFFF"></path>
                <g id="logo">
                    <g id="Oval" transform="translate(0.000000, 4.500000)">
                        <mask id="mask-3" fill="white">
                            <use xlink:href="#path-2"></use>
                        </mask>
                        <g id="Mask">
                            <use fill="url(#linearGradient-1)" fill-rule="evenodd" xlink:href="#path-2"></use>
                            <path stroke="#FFFFFF" stroke-width="15.4000003" d="M7.48661497,40.1793602 C63.1535956,8.21489505 133.471049,-7.70000017 218.350341,-7.70000017 C303.229634,-7.70000017 373.547088,8.21489519 429.214069,40.1793608 C439.006785,45.8024248 444.763523,56.492414 444.068484,67.7633087 L432.865004,249.441323 C428.111931,326.518158 387.086882,396.773704 322.295611,438.791813 L234.510473,495.721788 C224.680159,502.096894 212.020523,502.096894 202.19021,495.721788 L114.405071,438.791813 C49.6138002,396.773704 8.58875151,326.518158 3.83567884,249.441323 L-7.36780152,67.7633075 C-8.06283955,56.4924126 -2.30610193,45.8024236 7.48661497,40.1793602 Z"></path>
                        </g>
                    </g>
                    <path d="M9.90000021,44.7763525 L209.479959,405.800512 L209.479959,405.800512 C212.419167,411.117304 219.111979,413.044717 224.428772,410.105509 C226.257515,409.09455 227.760478,407.583624 228.761758,405.749564 L426.800009,43.000001" id="Path-11" stroke="#FFFFFF" stroke-width="11.0000002"></path>
                    <path d="M25.3000005,1.57204695 L214.575553,339.921014 L214.575553,339.921014 C216.35512,343.102169 220.37658,344.23838 223.557735,342.458812 C224.647928,341.848948 225.542661,340.942215 226.137948,339.843993 L410.300009,0.0904423698" id="Path-11-Copy" stroke="#FFFFFF" stroke-width="11.0000002" transform="translate(217.800005, 171.695225) scale(1, -1) translate(-217.800005, -171.695225) "></path>
                    <circle id="Oval-3" fill="#FFFFFF" cx="335.500007" cy="206.900005" r="24.2000005"></circle>
                    <circle id="Oval-3-Copy-2" fill="#FFFFFF" cx="218.900005" cy="414.800009" r="24.2000005"></circle>
                    <circle id="Oval-3-Copy" fill="#FFFFFF" cx="96.8000021" cy="206.900005" r="24.2000005"></circle>
                    <path d="M218.900005,417.550009 L218.900005,498.950011" id="Line" stroke="#FFFFFF" stroke-width="11.0000002" stroke-linecap="square"></path>
                    <path d="M48.400001,378.626097 C64.6831006,382.466721 122.026491,396.358025 220.430173,420.300009 L391.600008,375.200008" id="Path-12" stroke="#FFFFFF" stroke-width="11.0000002"></path>
                    <path d="M305.800007,208.550005 C305.800007,201.55632 299.678506,195.436846 292.682506,195.436846 L244.585005,195.436846 L200.860004,125.500003 L184.441453,132.997665 L205.232504,195.436846 L157.135003,195.436846 L144.017503,177.952635 L130.900003,177.952635 L139.645003,208.550005 L130.900003,239.147374 L144.017503,239.147374 L157.135003,221.663163 L205.232504,221.663163 L183.343906,283.031249 L200.860004,291.600006 L244.585005,221.663163 L292.682506,221.663163 C299.678506,221.663163 305.800007,215.543689 305.800007,208.550005 Z" id="Shape" fill="#FFFFFF" fill-rule="nonzero" transform="translate(218.350005, 208.550005) rotate(-90.000000) translate(-218.350005, -208.550005) "></path>
                </g>
            </g>
        </g>
    </g>
</svg>