<svg xmlns="http://www.w3.org/2000/svg" width="16" height="21">
  <path d="M13.2 4.5c-.8-2-2.7-2.1-5-1.7L7.4 0 5.7.5l.8 2.7-1.4.5L4.3.9l-1.7.5.8 2.8-1 .3-2.4.7L.5 7l1.2-.3c.7-.2 1 .1 1.2.4l1 3.2H4h-.1l1.3 4.5c0 .3 0 .7-.5.8l-1.3.3.3 2.2 2.2-.7 1.2-.3.8 2.9 1.8-.5-.8-2.9a65.7 65.7 0 0 0 1.3-.3L11 19l1.7-.5-.8-2.9c2.9-1 4.7-2.3 4.1-5-.4-2.3-1.7-3-3.4-2.9.8-.8 1.2-1.8.6-3.3zm-.6 6.8c.6 2.1-3.1 3-4.3 3.3l-1-3.8c1-.3 4.6-1.7 5.3.5zm-2.4-5c.6 1.8-2.5 2.5-3.5 2.8l-1-3.4c1-.3 4-1.5 4.5.5z" fill="#fff"/>
</svg>
