<svg id="Layer_1" xmlns="http://www.w3.org/2000/svg"
  viewBox="0 0 418 418" width="2500" height="2500">
  <style>.st0{fill:none}</style>
  <path fill="#000000" d="M418 209c0 115.4-93.6 209-209 209S0 324.4 0 209 93.6 0 209 0s209 93.6 209 209z"/>
  <path fill="#ffffff" d="M0 209C0 93.6 93.6 0 209 0s209 93.6 209 209c0 59.6-24.9 113.3-64.9 151.4C293.6 255.9 245.2 139.6 209 10V8.2c-36.3 130-84.9 246.8-144.8 351.6C24.6 321.7 0 268.2 0 209zm208.8 2c-13 64-37.7 128.5-73.3 193.7 47.1 17.6 99 17.7 146.2.3-35.6-65.3-60.1-130-72.9-194z"/>
</svg>
