<?xml version="1.0" encoding="utf-8"?>
<svg xmlns="http://www.w3.org/2000/svg" viewBox="0 0 2000 2000" width="2000" height="2000"><circle cx="1000" cy="1000" r="1000" fill="#1a53f0"/><path d="M803.2,1135.44c-127.71,0-231.24,103.83-231.24,231.91s103.54,231.91,231.25,231.91,231.25-103.83,231.25-231.91-103.53-231.91-231.25-231.91h0Zm0,393.67c-89,0-161.21-72.38-161.21-161.68s72.18-161.68,161.21-161.68,161.22,72.38,161.22,161.68C964.27,1456.65,892.18,1529,803.2,1529.11Zm493.86-888.36c-127.71,0-231.25,103.83-231.25,231.91s103.54,231.91,231.25,231.91,231.25-103.83,231.25-231.91S1424.79,640.74,1297.07,640.74Zm0,393.67c-89,0-161.21-72.38-161.21-161.68S1208,711.06,1297.07,711.06s161.22,72.38,161.22,161.68C1458.14,962,1386,1034.26,1297.07,1034.41ZM803.2,640.74c-110.09-.07-205,77.69-226.88,185.9S611.63,1043.53,713,1086.5A231.86,231.86,0,0,0,968.82,710.89h65.57V640.74H803.2ZM964.43,872.65c0,89.29-72.18,161.68-161.22,161.68S642,961.94,642,872.65,714.17,711,803.2,711s161.15,72.41,161.31,161.68h-0.08Z" fill="#fff"/></svg>