<svg width="8" height="14" viewBox="0 0 8 14" fill="none" xmlns="http://www.w3.org/2000/svg">
<path d="M6.70312 7.58542C6.10729 6.9625 5.525 6.75937 4.11667 6.13646C3.62917 5.91979 3.19583 5.73021 3.00625 5.37812C2.91146 5.21562 2.89792 5.0125 2.89792 4.87708C2.89792 4.61979 2.97917 4.37604 3.15521 4.2C3.37188 3.94271 3.72396 3.79375 4.07604 3.79375C4.55 3.79375 4.88854 4.06458 5.11875 4.40312C5.25417 4.67396 5.29479 4.87708 5.29479 5.09375L7.24479 5.08021C7.21771 4.41667 7.04167 3.88854 6.67604 3.34687C6.28333 2.77812 5.70104 2.38542 5.0375 2.18229V0.909375H3.19583V2.15521C2.68125 2.27708 2.22083 2.50729 1.84167 2.84583C1.3 3.34687 0.947917 4.15937 0.947917 4.90417C0.947917 5.44583 1.15104 6.04167 1.40833 6.40729C1.7875 6.9625 2.28854 7.30104 2.73542 7.54479C3.42604 7.95104 4.29271 8.11354 4.98333 8.57396C5.38958 8.84479 5.47083 9.06146 5.47083 9.37292C5.47083 9.73854 5.34896 9.98229 5.05104 10.1854C4.78021 10.3885 4.37396 10.4562 4.08958 10.4562C3.58854 10.4562 3.16875 10.1719 2.88438 9.725C2.74896 9.52187 2.68125 9.16979 2.68125 8.99375H0.8125C0.8125 9.61667 0.975 10.1854 1.3 10.7C1.70625 11.4042 2.39688 11.8781 3.19583 12.0813V13.3542H5.0375V12.1083C5.37604 12.0406 5.71458 11.9323 5.97188 11.7969C6.89271 11.3229 7.42083 10.3208 7.42083 9.42708C7.42083 8.70937 7.20417 8.1 6.70312 7.58542Z" fill="#8E9AA3"/>
</svg>
