<?xml version="1.0" standalone="no"?>
<!DOCTYPE svg PUBLIC "-//W3C//DTD SVG 1.1//EN" "http://www.w3.org/Graphics/SVG/1.1/DTD/svg11.dtd" >
<svg xmlns="http://www.w3.org/2000/svg" xmlns:xlink="http://www.w3.org/1999/xlink" version="1.1">
<metadata>
Created by FontForge 20161013 at Sun Jul 23 14:12:04 2017
 By ,,,
Copyright (c)2016. Cerebri Sans is a trademark of Alfredo Marco Pradil. All rights reserved.
</metadata>
<defs>
<font id="CerebriSans-BoldItalic" horiz-adv-x="0" >
  <font-face 
    font-family="Cerebri Sans"
    font-weight="700"
    font-style="italic"
    font-stretch="normal"
    units-per-em="2048"
    panose-1="0 0 8 0 0 0 0 0 0 0"
    ascent="1536"
    descent="-512"
    x-height="1023"
    cap-height="1439"
    bbox="-1664 -603 2911 2386"
    underline-thickness="82"
    underline-position="-348"
    slope="-10"
    unicode-range="U+0020-FB02"
  />
<missing-glyph horiz-adv-x="1336" 
d="M249 0v1536h927v-1536h-927zM468 219h490v1098h-490v-1098z" />
    <glyph glyph-name="fi" unicode="fi" horiz-adv-x="1288" 
d="M794 1023l-37 -210h-222l-144 -813h-269l143 813h-200l38 210h199l32 183q32 179 122 264.5t243 85.5q85 0 175 -30l-16 -190q-43 8 -88 8q-63 0 -109 -38.5t-58 -107.5l-31 -175h222zM1170 1526q67 0 110 -48t36 -116q-7 -69 -61 -117.5t-121 -48.5q-69 0 -112.5 48.5
t-37.5 117.5q7 68 62 116t124 48zM764 0l182 1028h290l-183 -1028h-289z" />
    <glyph glyph-name="fl" unicode="fl" horiz-adv-x="1272" 
d="M794 1023l-37 -210h-222l-144 -813h-269l143 813h-200l38 210h199l32 183q32 179 122 264.5t243 85.5q85 0 175 -30l-16 -190q-43 8 -88 8q-63 0 -109 -38.5t-58 -107.5l-31 -175h222zM1035 1536h275l-272 -1536h-275z" />
    <glyph glyph-name="f_f" unicode="ff" horiz-adv-x="1413" 
d="M123 0l144 807h-202l39 221h202l30 168q31 186 122.5 273t251.5 87q89 0 182 -32l-18 -198q-43 7 -90 7q-62 0 -106.5 -37t-56.5 -106l-28 -162h396l30 168q31 186 122.5 273t252.5 87q88 0 181 -32l-18 -198q-46 7 -90 7q-62 0 -106.5 -37t-56.5 -106l-28 -162h225
l-39 -221h-225l-143 -807h-288l144 807h-396l-144 -807h-287z" />
    <glyph glyph-name=".notdef" horiz-adv-x="1336" 
d="M249 0v1536h927v-1536h-927zM468 219h490v1098h-490v-1098z" />
    <glyph glyph-name=".null" 
 />
    <glyph glyph-name="nonmarkingreturn" horiz-adv-x="682" 
 />
    <glyph glyph-name="space" unicode=" " horiz-adv-x="532" 
 />
    <glyph glyph-name="exclam" unicode="!" horiz-adv-x="653" 
d="M200 461l144 984h290l-202 -984h-232zM249 -20q-75 0 -119.5 54.5t-30.5 130.5q10 61 60 103t110 42q77 0 121.5 -55t30.5 -132q-11 -59 -61 -101t-111 -42z" />
    <glyph glyph-name="quotedbl" unicode="&#x22;" horiz-adv-x="1056" 
d="M269 793l77 652h273l-143 -652h-207zM681 793l85 652h272l-151 -652h-206z" />
    <glyph glyph-name="numbersign" unicode="#" horiz-adv-x="1557" 
d="M216 0l102 327h-279l63 202h280l125 384h-284l69 200h275l109 334h203l-104 -334h330l106 334h205l-106 -334h282l-67 -200h-278l-121 -384h278l-65 -202h-277l-108 -327h-201l104 327h-337l-102 -327h-202zM588 529h331l123 384h-334z" />
    <glyph glyph-name="dollar" unicode="$" horiz-adv-x="1353" 
d="M803 845q78 -22 132.5 -42t119.5 -57.5t101.5 -82t55.5 -114t4 -155.5q-19 -103 -72 -182.5t-131 -128t-168.5 -74t-193.5 -29.5l-25 -140h-111l25 142q-210 18 -334.5 130.5t-122.5 295.5l317 52q-6 -104 43 -162.5t140 -70.5l71 403l-26 9q-95 28 -157 55t-127.5 75
t-89.5 121.5t-7 172.5q33 187 186 293t368 108l23 129h111l-24 -135q86 -10 158 -37.5t129 -73t90.5 -115.5t36.5 -157l-295 -54q-4 174 -161 195zM544 1028q-10 -52 30 -84t125 -62l58 332q-83 -13 -141 -60.5t-72 -125.5zM909 420q11 62 -28 100.5t-122 71.5l-64 -363
q85 13 142.5 61.5t71.5 129.5z" />
    <glyph glyph-name="percent" unicode="%" horiz-adv-x="1689" 
d="M483 791q-130 0 -214 85t-84 212q0 92 49.5 179t138.5 143t192 56q130 0 214 -85.5t84 -211.5q0 -93 -49 -179.5t-138 -142.5t-193 -56zM248 -1l1012 1447h247l-1013 -1447h-246zM493 983q73 0 126 52.5t53 125.5q0 48 -33.5 80.5t-83.5 32.5q-71 0 -124.5 -53.5
t-53.5 -127.5q0 -48 33 -79t83 -31zM1201 -17q-130 0 -214.5 84t-84.5 211q0 94 49.5 181t138.5 142.5t193 55.5q128 0 211.5 -84t83.5 -209q0 -94 -48 -181t-136 -143.5t-193 -56.5zM1211 176q72 0 125.5 52.5t53.5 124.5q0 47 -33.5 80t-82.5 33q-73 0 -127 -52t-54 -126
q0 -48 33.5 -80t84.5 -32z" />
    <glyph glyph-name="ampersand" unicode="&#x26;" horiz-adv-x="1568" 
d="M523 -20q-209 0 -334.5 95t-125.5 267q0 64 10 111t37 98t79 99.5t133.5 105.5t202.5 126q-51 83 -73 139.5t-22 112.5q0 150 116.5 241t304.5 91q170 0 266 -74t96 -194q0 -109 -77 -199.5t-266 -192.5l195 -314q155 181 189 370l257 -20q-27 -153 -107 -298t-200 -264
l180 -280h-321l-72 120q-224 -140 -468 -140zM755 983q207 117 207 223q0 34 -25.5 53.5t-72.5 19.5q-73 0 -120 -45t-47 -111q0 -8 0.5 -14.5t2 -14t2.5 -12t5 -13t5.5 -12.5t8 -15t9.5 -16.5t11.5 -20t13.5 -22.5zM541 216q165 0 325 106l-222 368q-182 -101 -249.5 -168
t-67.5 -164q0 -71 55.5 -106.5t158.5 -35.5z" />
    <glyph glyph-name="quotesingle" unicode="'" horiz-adv-x="641" 
d="M265 793l86 652h271l-151 -652h-206z" />
    <glyph glyph-name="parenleft" unicode="(" horiz-adv-x="692" 
d="M322 -590q-176 147 -240 447.5t3 691.5q66 374 229.5 669.5t386.5 440.5l145 -208q-170 -104 -310 -360t-197 -584q-57 -320 -11 -566t180 -348z" />
    <glyph glyph-name="parenright" unicode=")" horiz-adv-x="692" 
d="M-4 -603l-146 209q171 104 311 358.5t198 584.5q56 318 10.5 565.5t-179.5 349.5l185 183q176 -148 240 -448.5t-3 -691.5q-67 -374 -230.5 -669.5t-385.5 -440.5z" />
    <glyph glyph-name="asterisk" unicode="*" horiz-adv-x="989" 
d="M421 808l-128 82l192 205q19 19 25 31.5t-2.5 17.5t-32.5 1l-269 -37l26 158l239 -40q34 -6 57 18t8 52l-135 191l145 79l51 -248q7 -36 34 -24q22 11 37 43l135 229l131 -79l-195 -207q-29 -28 -27.5 -42.5t38.5 -8.5l268 37l-26 -158l-239 40q-36 6 -58 -17.5t-6 -51.5
l137 -189l-148 -82l-51 248q-6 35 -33 24q-23 -11 -39 -43z" />
    <glyph glyph-name="plus" unicode="+" horiz-adv-x="1200" 
d="M523 205v386h-385v219h385v385h219v-385h385v-219h-385v-386h-219z" />
    <glyph glyph-name="comma" unicode="," horiz-adv-x="662" 
d="M-18 -368l241 654h300l-331 -654h-210z" />
    <glyph glyph-name="hyphen" unicode="-" horiz-adv-x="998" 
d="M122 412l42 241h717l-42 -241h-717z" />
    <glyph glyph-name="period" unicode="." horiz-adv-x="646" 
d="M247 -20q-74 0 -118.5 54.5t-31.5 130.5q11 59 61 102t109 43q76 0 121 -55.5t31 -131.5q-10 -59 -60.5 -101t-111.5 -42z" />
    <glyph glyph-name="slash" unicode="/" horiz-adv-x="886" 
d="M-182 -407l996 1943h272l-996 -1943h-272z" />
    <glyph glyph-name="zero" unicode="0" horiz-adv-x="1223" 
d="M537 -20q-261 0 -367.5 193t-40.5 571q64 362 224.5 541.5t407.5 179.5q261 0 367.5 -192.5t39.5 -570.5q-64 -361 -225 -541.5t-406 -180.5zM545 240q120 0 209 125t134 379q81 462 -135 462q-120 0 -209 -124t-134 -380q-81 -462 135 -462z" />
    <glyph glyph-name="one" unicode="1" horiz-adv-x="1223" 
d="M733 1445h278l-256 -1445h-287l203 1146l-383 -306l46 296z" />
    <glyph glyph-name="two" unicode="2" horiz-adv-x="1223" 
d="M1176 1030q-19 -101 -78 -189t-171 -189l-462 -395h608l-45 -257h-1017l34 217l676 595q171 150 179 276q7 70 -33 109t-118 39q-101 0 -173.5 -61.5t-92.5 -180.5q-11 -55 -8 -137l-282 48q0 67 10 125q36 205 183 321t365 116q220 0 339.5 -117.5t85.5 -319.5z" />
    <glyph glyph-name="three" unicode="3" horiz-adv-x="1223" 
d="M533 -20q-88 0 -163 17.5t-138 54t-102.5 92.5t-55 133.5t3.5 176.5q4 31 16 71l301 -5q-25 -61 -33 -107q-17 -94 35 -138t143 -44q119 0 195.5 64.5t93.5 166.5q17 95 -27 142t-140 47h-64l38 224h44q73 0 134.5 57.5t77.5 143.5q11 69 -29 105t-117 36
q-90 0 -155 -49.5t-80 -139.5q-6 -19 -4 -55l-284 34q0 36 6 63q21 121 97.5 212t186 137t235.5 46q208 0 323.5 -117t85.5 -289q-18 -102 -85 -176t-147 -106q43 -12 80 -39t69 -73t41.5 -109t-2.5 -148q-34 -196 -192 -312t-388 -116z" />
    <glyph glyph-name="four" unicode="4" horiz-adv-x="1223" 
d="M1174 531l-44 -257h-175l-49 -274h-288l49 274h-664l40 258l674 913h445l-162 -914h174zM318 531h394l131 737z" />
    <glyph glyph-name="five" unicode="5" horiz-adv-x="1223" 
d="M1188 1188h-595l-60 -251h115q280 0 401 -122t80 -354q-40 -221 -196.5 -351.5t-378.5 -130.5q-147 0 -258.5 56.5t-165.5 166.5t-28 254l15 60l288 -5q-18 -49 -22 -76q-18 -98 33 -145t140 -47q115 0 192 66t96 168q20 112 -38.5 166.5t-227.5 54.5h-389l192 747h853z
" />
    <glyph glyph-name="six" unicode="6" horiz-adv-x="1223" 
d="M764 987q96 -11 172 -50.5t128 -105.5t70.5 -158t-0.5 -209q-24 -138 -115.5 -250t-220 -172.5t-266.5 -60.5q-152 0 -266 68.5t-165.5 189t-25.5 266.5q29 165 179 340l562 600h333l-426 -455q5 0 41 -3zM861 513q20 106 -34.5 172t-163.5 66q-119 0 -209.5 -79
t-113.5 -197q-21 -107 30.5 -171t161.5 -64q122 0 214.5 76.5t114.5 196.5z" />
    <glyph glyph-name="seven" unicode="7" horiz-adv-x="1223" 
d="M275 1445h1018l-37 -222l-869 -1223h-333l862 1189h-687z" />
    <glyph glyph-name="eight" unicode="8" horiz-adv-x="1223" 
d="M538 -20q-210 0 -339.5 102t-129.5 278q0 146 77 260t221 183q-53 39 -84 100t-31 137q0 117 65.5 214t183 154t261.5 57q185 0 297.5 -91t112.5 -241q0 -109 -56.5 -199.5t-157.5 -153.5q78 -39 123.5 -115t45.5 -177q0 -141 -74.5 -256.5t-210 -183.5t-304.5 -68z
M671 875q100 0 167.5 66t67.5 154q0 62 -45 102.5t-114 40.5q-97 0 -166.5 -61.5t-69.5 -160.5q0 -62 44.5 -101.5t115.5 -39.5zM550 238q136 0 217 84.5t81 196.5q0 77 -52.5 121t-137.5 44q-127 0 -212.5 -79.5t-85.5 -200.5q0 -78 52 -122t138 -44z" />
    <glyph glyph-name="nine" unicode="9" horiz-adv-x="1223" 
d="M764 1464q114 0 209 -40.5t157 -109.5t87.5 -166.5t4.5 -207.5q-35 -172 -182 -339l-561 -601h-337l427 455q-26 2 -37 4q-192 22 -300 169t-71 354q25 138 116 249.5t219.5 172t267.5 60.5zM953 970q22 107 -29 171t-162 64q-120 0 -213 -77t-113 -196
q-20 -106 33.5 -172t163.5 -66q119 0 208.5 79t111.5 197z" />
    <glyph glyph-name="colon" unicode=":" horiz-adv-x="626" 
d="M352 635q-74 0 -118.5 55t-31.5 132q11 59 61 101t110 42q75 0 120.5 -55t32.5 -130q-12 -60 -62.5 -102.5t-111.5 -42.5zM237 -20q-74 0 -118.5 54.5t-31.5 130.5q11 59 61 102t109 43q76 0 121 -55.5t31 -131.5q-10 -59 -61 -101t-111 -42z" />
    <glyph glyph-name="semicolon" unicode=";" horiz-adv-x="653" 
d="M396 635q-74 0 -119 55.5t-32 131.5q11 59 61.5 101t110.5 42q74 0 120 -55t33 -130q-12 -60 -63 -102.5t-111 -42.5zM-54 -368l242 654h299l-330 -654h-211z" />
    <glyph glyph-name="less" unicode="&#x3c;" horiz-adv-x="1410" 
d="M1268 1455v-242l-904 -457l904 -457v-246l-1130 572v263z" />
    <glyph glyph-name="equal" unicode="=" horiz-adv-x="1278" 
d="M213 814v219h883v-219h-883zM213 375v219h883v-219h-883z" />
    <glyph glyph-name="greater" unicode="&#x3e;" horiz-adv-x="1409" 
d="M227 1455l1130 -567v-263l-1130 -572v246l904 457l-904 457v242z" />
    <glyph glyph-name="question" unicode="?" horiz-adv-x="1057" 
d="M396 446l21 118q17 94 67 145.5t156 105.5q149 56 181 222q16 95 -27 143t-130 48q-100 0 -174 -63t-92 -162q-6 -31 -4 -77l-245 51q2 40 10 87q32 179 171 290.5t335 111.5q211 0 325.5 -126.5t77.5 -337.5q-48 -268 -304 -372q-107 -29 -124 -116l-11 -68h-233z
M453 -20q-76 0 -120 54.5t-31 130.5q10 60 60.5 101.5t110.5 41.5q75 0 118.5 -54t30.5 -131q-10 -60 -59.5 -101.5t-109.5 -41.5z" />
    <glyph glyph-name="at" unicode="@" horiz-adv-x="1759" 
d="M774 -219q-193 0 -346 85t-237.5 235t-84.5 336q0 103 29.5 209.5t83.5 206t135.5 187.5t179.5 153t221.5 103t256.5 38q147 0 272.5 -50t211.5 -137t134.5 -207t48.5 -257q0 -79 -15.5 -154t-47.5 -142t-77 -117.5t-108.5 -80t-137.5 -29.5q-198 0 -256 124h-20
q-99 -125 -262 -125q-101 0 -169 50t-68 141q0 58 23.5 103.5t67 75.5t94.5 49.5t116 32.5l219 45q2 13 5.5 33t4.5 28q4 47 -26 71.5t-79 24.5q-62 0 -112.5 -34.5t-58.5 -96.5l-165 60q28 99 115.5 151t221.5 52q60 0 111.5 -12t95.5 -37t69.5 -71.5t25.5 -109.5
q0 -35 -25.5 -167.5t-25.5 -158.5q0 -41 22 -60t70 -19q64 0 111 35.5t70.5 94t34 118.5t10.5 124q0 216 -135.5 350.5t-357.5 134.5q-122 0 -231 -36t-189.5 -96t-145 -136t-104.5 -158.5t-61 -161t-21 -145.5q0 -211 140.5 -349t359.5 -138q175 0 353 101l68 -159
q-188 -108 -415 -108zM822 302q69 0 128.5 50.5t76.5 134.5l9 51l-157 -43q-78 -18 -117 -54.5t-39 -76.5q0 -62 99 -62z" />
    <glyph glyph-name="A" unicode="A" horiz-adv-x="1453" 
d="M1052 0l-53 304h-612l-161 -304h-294l783 1439h346l278 -1439h-287zM513 542h444l-111 629z" />
    <glyph glyph-name="B" unicode="B" horiz-adv-x="1276" 
d="M995 748q190 -73 190 -285q0 -62 -12.5 -120t-49.5 -122.5t-96 -111.5t-161 -78t-235 -31h-542l254 1439h405q447 0 447 -325q0 -262 -200 -366zM940 1057q0 71 -44.5 108.5t-168.5 37.5h-155l-61 -356h165q134 0 199 61t65 149zM617 242q85 0 146.5 19t94.5 52t48 69.5
t15 78.5q0 80 -49 123.5t-167 43.5h-231l-66 -386h209z" />
    <glyph glyph-name="C" unicode="C" horiz-adv-x="1546" 
d="M740 -20q-286 0 -458.5 162t-172.5 438q0 134 37.5 263t111.5 240t176 195.5t239 132.5t292 48q242 0 406 -118t208 -320l-274 -79q-27 124 -120 191t-231 67q-125 0 -233 -52t-180 -137.5t-113 -193.5t-41 -220q0 -167 100 -261.5t264 -94.5q147 0 274 74t199 201
l250 -115q-113 -200 -308 -310.5t-426 -110.5z" />
    <glyph glyph-name="D" unicode="D" horiz-adv-x="1465" 
d="M89 0l254 1439h504q284 0 432 -147.5t148 -404.5q0 -90 -14 -178.5t-44.5 -177t-76 -166.5t-112 -145.5t-148.5 -116t-189.5 -76t-230.5 -27.5h-523zM416 251h208q108 0 196.5 39t145.5 102.5t95.5 147.5t55 169t16.5 173q0 308 -325 308h-227z" />
    <glyph glyph-name="E" unicode="E" horiz-adv-x="1119" 
d="M1125 1190h-540l-61 -347h479l-43 -247h-480l-61 -345h540l-44 -251h-826l254 1439h826z" />
    <glyph glyph-name="F" unicode="F" horiz-adv-x="1081" 
d="M1138 1190h-553l-62 -347h480l-43 -247h-481l-106 -596h-284l254 1439h839z" />
    <glyph glyph-name="G" unicode="G" horiz-adv-x="1616" 
d="M724 -20q-280 0 -449 160.5t-169 433.5q0 135 37.5 264t111 241t175.5 197t239.5 134t293.5 49q212 0 365.5 -91.5t219.5 -254.5l-262 -116q-38 110 -124 163t-207 53q-105 0 -197.5 -36.5t-159.5 -99t-116 -145t-73 -175t-24 -187.5q0 -165 96 -253.5t275 -88.5
q169 0 296 83.5t184 244.5l-406 -9l42 228h674l-138 -775h-222l42 203q-183 -223 -504 -223z" />
    <glyph glyph-name="H" unicode="H" horiz-adv-x="1552" 
d="M1253 1439h282l-255 -1439h-283l106 598h-625l-106 -598h-283l254 1439h285l-106 -594h625z" />
    <glyph glyph-name="I" unicode="I" horiz-adv-x="643" 
d="M89 0l254 1439h283l-254 -1439h-283z" />
    <glyph glyph-name="J" unicode="J" horiz-adv-x="980" 
d="M308 -20q-183 0 -367 102l148 223q87 -69 196 -69q100 0 163.5 65t85.5 192l166 946h284l-181 -1018q-37 -213 -170 -327t-325 -114z" />
    <glyph glyph-name="K" unicode="K" horiz-adv-x="1407" 
d="M843 747l-2 -13l435 -734h-334l-357 630h-102l-111 -630h-283l254 1439h283l-99 -561h113l546 561h353z" />
    <glyph glyph-name="L" unicode="L" horiz-adv-x="956" 
d="M419 251h456l-44 -251h-742l254 1439h283z" />
    <glyph glyph-name="M" unicode="M" horiz-adv-x="1934" 
d="M1453 1439h405l-138 -1439h-279l98 1095l-570 -1095h-181l-184 1105l-291 -1105h-283l372 1439h399l160 -935z" />
    <glyph glyph-name="N" unicode="N" horiz-adv-x="1623" 
d="M1324 1439h282l-254 -1439h-320l-475 1054l-187 -1054h-281l254 1439h318l479 -1048z" />
    <glyph glyph-name="O" unicode="O" horiz-adv-x="1631" 
d="M740 -20q-286 0 -458.5 162t-172.5 438q0 134 37.5 263t111.5 240t176 195.5t239 132.5t292 48q285 0 458 -161.5t173 -436.5q0 -134 -37.5 -263.5t-112 -240.5t-176.5 -195.5t-239 -133t-291 -48.5zM751 241q126 0 234.5 52.5t180 138t111.5 193.5t40 220
q0 166 -99 260.5t-264 94.5q-125 0 -233.5 -52.5t-180 -137.5t-112.5 -193.5t-41 -220.5q0 -167 99.5 -261t264.5 -94z" />
    <glyph glyph-name="P" unicode="P" horiz-adv-x="1288" 
d="M877 1439q212 0 323.5 -112.5t111.5 -299.5q0 -102 -34 -191.5t-99.5 -160.5t-173 -112t-244.5 -41h-298l-91 -522h-283l254 1439h534zM739 760q87 0 149 21.5t94.5 59t46.5 78.5t14 90q0 90 -49.5 142t-157.5 52h-254l-77 -443h234z" />
    <glyph glyph-name="Q" unicode="Q" horiz-adv-x="1662" 
d="M1613 860q0 -191 -76.5 -367t-216.5 -301l179 -254l-247 -88l-147 203q-165 -73 -357 -73q-290 0 -465 162.5t-175 439.5q0 134 38 263t113.5 239.5t178 194.5t241 132t293.5 48q289 0 465 -161.5t176 -437.5zM386 589q0 -171 101.5 -266t267.5 -95q104 0 197 35
t161.5 95t118.5 138.5t75.5 168t25.5 180.5q0 166 -101.5 260.5t-269.5 94.5q-129 0 -239 -52.5t-182.5 -139t-113.5 -195.5t-41 -224z" />
    <glyph glyph-name="R" unicode="R" horiz-adv-x="1304" 
d="M1249 1090q0 -77 -21.5 -148t-65 -133t-116.5 -105.5t-168 -59.5l305 -644h-313l-276 636h-111l-111 -636h-283l254 1439h507q200 0 299.5 -95t99.5 -254zM583 1203l-68 -387h182q79 0 137.5 24t88 62t43 75t13.5 73q0 153 -196 153h-200z" />
    <glyph glyph-name="S" unicode="S" horiz-adv-x="1274" 
d="M600 -20q-159 0 -283.5 49.5t-196.5 146t-72 226.5l298 49q5 -112 76 -175.5t195 -63.5q117 0 192 57.5t75 143.5q0 39 -15.5 70.5t-39.5 53t-62 40t-74.5 31t-85.5 27.5q-3 1 -5 1.5t-4.5 1t-4.5 1.5q-58 18 -96 32t-88 37.5t-82 50.5t-62 64t-44.5 86t-14.5 109
q0 129 71.5 230.5t194.5 156t276 54.5q102 0 192.5 -22.5t166 -67t121.5 -120t49 -173.5l-278 -50q-2 104 -68.5 153t-171.5 49q-114 0 -191.5 -53.5t-77.5 -132.5q0 -26 8 -48t18 -37.5t33 -31.5t39 -25t51 -21.5t53 -18t61 -18.5q51 -15 86.5 -27t83.5 -32t81 -40.5
t68 -51.5t56 -66.5t35 -83t14 -102.5q0 -141 -76.5 -246t-206.5 -159t-294 -54z" />
    <glyph glyph-name="T" unicode="T" horiz-adv-x="1039" 
d="M1170 1439l-44 -249h-346l-210 -1190h-280l210 1190h-348l44 249h974z" />
    <glyph glyph-name="U" unicode="U" horiz-adv-x="1420" 
d="M632 -20q-224 0 -359.5 107t-135.5 309q0 53 11 114l165 929h282l-159 -909q-10 -57 -10 -92q0 -108 57.5 -157.5t156.5 -49.5q130 0 225.5 79.5t124.5 237.5l158 891h283l-167 -949q-23 -130 -82.5 -229.5t-144.5 -160t-187 -90.5t-218 -30z" />
    <glyph glyph-name="V" unicode="V" horiz-adv-x="1417" 
d="M1250 1439h306l-786 -1439h-310l-274 1439h293l191 -1108z" />
    <glyph glyph-name="W" unicode="W" horiz-adv-x="2135" 
d="M328 0l-128 1439h287l92 -1103l525 1103h240l128 -1103l489 1103h299l-634 -1439h-361l-124 921l-451 -921h-362z" />
    <glyph glyph-name="X" unicode="X" horiz-adv-x="1501" 
d="M-70 0l697 751l-419 688h337l280 -484l456 484h350l-670 -688l426 -751h-351l-273 522l-465 -522h-368z" />
    <glyph glyph-name="Y" unicode="Y" horiz-adv-x="1254" 
d="M1406 1439l-611 -758l-120 -681h-284l122 690l-340 749h300l214 -504l393 504h326z" />
    <glyph glyph-name="Z" unicode="Z" horiz-adv-x="1214" 
d="M1283 1439l-36 -224l-866 -964h706l-44 -251h-1051l37 224l869 966h-696l45 249h1036z" />
    <glyph glyph-name="bracketleft" unicode="[" horiz-adv-x="697" 
d="M-38 -512l362 2048h516l-35 -204h-264l-290 -1640h264l-37 -204h-516z" />
    <glyph glyph-name="backslash" unicode="\" horiz-adv-x="1543" 
d="M1143 -407l-997 1943h272l997 -1943h-272z" />
    <glyph glyph-name="bracketright" unicode="]" horiz-adv-x="696" 
d="M-144 -512l36 204h264l290 1640h-264l36 204h516l-362 -2048h-516z" />
    <glyph glyph-name="asciicircum" unicode="^" horiz-adv-x="1409" 
d="M1313 315h-236l-246 882l-555 -882h-249l711 1130h262z" />
    <glyph glyph-name="underscore" unicode="_" horiz-adv-x="1305" 
d="M7 -242l42 242h1024l-42 -242h-1024z" />
    <glyph glyph-name="grave" unicode="`" horiz-adv-x="477" 
d="M388 1200l-178 268l158 100l198 -368h-178z" />
    <glyph glyph-name="a" unicode="a" horiz-adv-x="1288" 
d="M962 1023h271l-181 -1023h-244l9 139q-54 -79 -145.5 -121t-196.5 -42q-187 0 -304.5 117t-117.5 320q0 117 42 229.5t115 201.5t182 143t234 54q112 0 195 -44.5t116 -121.5zM553 203q77 0 143.5 34.5t110 89t68.5 119.5t25 128q0 105 -61 173t-170 68
q-100 0 -180 -56.5t-120.5 -141.5t-40.5 -178q0 -110 61 -173t164 -63z" />
    <glyph glyph-name="b" unicode="b" horiz-adv-x="1287" 
d="M811 1041q185 0 302.5 -116t117.5 -314q0 -119 -41.5 -233t-114 -203.5t-181.5 -144t-235 -54.5q-114 0 -198.5 47t-116.5 129l-32 -152h-260l272 1536h271l-108 -631q56 66 141 101t183 35zM606 203q104 0 187 59t124.5 145.5t41.5 178.5q0 107 -60.5 168t-160.5 61
q-102 0 -185 -59t-126 -146t-43 -178q0 -105 61.5 -167t160.5 -62z" />
    <glyph glyph-name="c" unicode="c" horiz-adv-x="1149" 
d="M525 -19q-216 0 -345 119.5t-129 319.5q0 95 27 185.5t81 169t128.5 138.5t174.5 94t214 34q199 0 319 -101t127 -278l-251 -10q-16 175 -200 175q-80 0 -148 -37.5t-111.5 -97.5t-67.5 -132t-24 -144q0 -101 55 -160t150 -59q99 0 177.5 50.5t119.5 142.5l246 -47
q-68 -174 -214 -268t-329 -94z" />
    <glyph glyph-name="d" unicode="d" horiz-adv-x="1286" 
d="M1052 1536h272l-272 -1536h-257l14 128q-55 -73 -144 -112.5t-190 -39.5q-186 0 -304 116.5t-118 315.5q0 120 42 234t115 202.5t182.5 142.5t234.5 54q110 0 193.5 -45t117.5 -123zM559 203q100 0 179.5 57t119 140t39.5 171q0 113 -63.5 178.5t-167.5 65.5
q-100 0 -179 -55t-119 -138.5t-40 -174.5q0 -114 63.5 -179t167.5 -65z" />
    <glyph glyph-name="e" unicode="e" horiz-adv-x="1158" 
d="M670 1042q201 0 319.5 -101.5t118.5 -298.5q0 -58 -12 -124l-13 -58h-767q-2 -40 -2 -59q0 -101 59 -153.5t155 -52.5q83 0 154.5 41t116.5 112l243 -55q-76 -150 -213 -231.5t-302 -81.5q-222 0 -347.5 112t-125.5 314q0 99 25.5 192t77.5 173.5t124.5 141t172.5 95
t216 34.5zM667 852q-110 0 -187.5 -56.5t-119.5 -153.5h493q2 24 2 33q0 88 -51.5 132.5t-136.5 44.5z" />
    <glyph glyph-name="f" unicode="f" horiz-adv-x="711" 
d="M770 1344q-63 0 -109 -38.5t-58 -107.5l-31 -175h222l-37 -210h-222l-144 -813h-269l143 813h-200l38 210h199l32 183q32 179 122 264.5t243 85.5q85 0 175 -30l-16 -190q-43 8 -88 8z" />
    <glyph glyph-name="g" unicode="g" horiz-adv-x="1256" 
d="M941 1023h260l-169 -959q-50 -282 -208.5 -414t-404.5 -132q-413 0 -481 325l234 79q25 -101 81.5 -146t156.5 -45q143 0 233 88t116 244l18 105q-55 -62 -140.5 -98t-181.5 -36q-174 0 -287 114.5t-113 302.5q0 158 73 294t198.5 216t273.5 80q112 0 194.5 -47.5
t114.5 -124.5zM540 256q132 0 233 103t101 241q0 98 -61 162t-160 64q-137 0 -236 -106t-99 -241q0 -99 61.5 -161t160.5 -62z" />
    <glyph glyph-name="h" unicode="h" horiz-adv-x="1193" 
d="M814 1041q137 0 215 -73t78 -202q0 -26 -8 -88l-121 -678h-271l115 652q5 30 5 50q0 121 -130 121q-86 0 -161 -53t-107 -165l-107 -605h-270l272 1536h270l-115 -650q137 155 335 155z" />
    <glyph glyph-name="i" unicode="i" horiz-adv-x="577" 
d="M423 1196q-69 0 -112.5 48.5t-37.5 117.5q7 68 62 116t124 48q67 0 110 -48t36 -116q-7 -69 -61 -117.5t-121 -48.5zM53 0l182 1028h290l-183 -1028h-289z" />
    <glyph glyph-name="j" unicode="j" horiz-adv-x="580" 
d="M424 1196q-69 0 -112.5 48.5t-37.5 117.5q7 68 62 116t124 48q67 0 110 -48t36 -116q-7 -69 -61 -117.5t-121 -48.5zM-231 -482l36 225q53 0 91.5 11.5t64.5 32t45 60t31 84t24 114.5l174 983h293l-177 -1003q-48 -269 -182 -388t-400 -119z" />
    <glyph glyph-name="k" unicode="k" horiz-adv-x="1139" 
d="M1202 1023l-495 -479l347 -544h-320l-271 445h-57l-79 -445h-275l272 1536h275l-159 -900h65l381 387h316z" />
    <glyph glyph-name="l" unicode="l" horiz-adv-x="561" 
d="M52 0l272 1536h275l-272 -1536h-275z" />
    <glyph glyph-name="m" unicode="m" horiz-adv-x="1780" 
d="M1396 1041q138 0 218.5 -68t80.5 -190q0 -37 -6 -74l-125 -709h-271l115 651q4 38 4 52q0 120 -129 120q-79 0 -146 -60.5t-86 -175.5h-1l-104 -587h-273l113 648q5 33 5 53q0 122 -130 122q-79 0 -146.5 -60.5t-86.5 -175.5h-1l-104 -587h-270l181 1023h270l-25 -140
q132 158 310 158q107 0 180 -43.5t98 -123.5q141 167 329 167z" />
    <glyph glyph-name="n" unicode="n" horiz-adv-x="1194" 
d="M815 1041q137 0 215 -72.5t78 -202.5q0 -26 -8 -88l-122 -678h-271l116 652q5 30 5 48q0 123 -142 123q-81 0 -153 -54t-103 -163l-107 -606h-270l181 1023h270l-24 -137q137 155 335 155z" />
    <glyph glyph-name="o" unicode="o" horiz-adv-x="1230" 
d="M537 -20q-220 0 -352 116t-132 319q0 124 43.5 237t123 199.5t201.5 138t269 51.5q222 0 353.5 -116t131.5 -318q0 -124 -44 -237t-124 -200t-202 -138.5t-268 -51.5zM544 197q83 0 153 36t114.5 94t69.5 128t25 140q0 106 -61.5 169t-167.5 63q-65 0 -123 -24
t-99.5 -64.5t-71.5 -92t-45 -107t-15 -110.5q0 -108 59 -170t162 -62z" />
    <glyph glyph-name="p" unicode="p" horiz-adv-x="1286" 
d="M810 1041q186 0 303 -115.5t117 -313.5q0 -120 -41.5 -234.5t-114 -203.5t-182 -143.5t-235.5 -54.5q-110 0 -193.5 44.5t-117.5 122.5l-110 -642h-272l268 1522h257l-15 -133q55 73 144 112t192 39zM611 203q78 0 144.5 33.5t109.5 87.5t67 120.5t24 134.5
q0 111 -62 173.5t-164 62.5q-100 0 -181.5 -57.5t-123 -142t-41.5 -174.5q0 -109 62.5 -173.5t164.5 -64.5z" />
    <glyph glyph-name="q" unicode="q" horiz-adv-x="1288" 
d="M974 1023h260l-268 -1522h-272l106 614q-56 -67 -141.5 -103t-181.5 -36q-186 0 -304 115.5t-118 315.5q0 162 70 306t203.5 236t300.5 92q113 0 197 -46.5t115 -126.5zM552 203q103 0 185 58t122.5 141.5t40.5 172.5q0 109 -63 174.5t-164 65.5q-102 0 -182 -56
t-120.5 -140.5t-40.5 -178.5q0 -113 60.5 -175t161.5 -62z" />
    <glyph glyph-name="r" unicode="r" horiz-adv-x="744" 
d="M466 856q53 73 151 124.5t203 52.5l-48 -262q-309 0 -361 -294l-84 -477h-274l181 1023h261z" />
    <glyph glyph-name="s" unicode="s" horiz-adv-x="964" 
d="M409 -20q-184 0 -287 77t-105 216l250 47q-2 -75 41.5 -115.5t117.5 -40.5q70 0 119 37t49 107q0 25 -9.5 44t-22.5 31t-43 24.5t-52 19t-69 19.5q-63 17 -105.5 34t-85 46t-64 74.5t-21.5 107.5q0 158 120 245t302 87q161 0 267 -69.5t110 -208.5l-226 -33
q1 69 -41 99.5t-105 30.5q-74 0 -122.5 -35.5t-48.5 -95.5q0 -13 3 -24t10 -20t13.5 -16t19.5 -13.5t22.5 -11t27.5 -9.5t29 -8t33 -8.5t33 -8.5q66 -17 112.5 -36t90.5 -50.5t66.5 -80t22.5 -112.5q0 -112 -61 -192.5t-161.5 -119t-229.5 -38.5z" />
    <glyph glyph-name="t" unicode="t" horiz-adv-x="766" 
d="M435 0q-126 0 -196 65.5t-70 182.5q0 38 8 74l88 491h-204l38 210h57q77 0 131.5 44t69.5 127l28 159h248l-58 -330h214l-37 -210h-215l-84 -479q-4 -17 -4 -43q0 -45 23.5 -64.5t71.5 -19.5h101l-37 -207h-173z" />
    <glyph glyph-name="u" unicode="u" horiz-adv-x="1194" 
d="M869 1023h271l-182 -1023h-255l18 147q-65 -78 -152.5 -122.5t-188.5 -44.5q-140 0 -218 73t-78 204q0 36 8 86l122 680h270l-110 -626q-7 -39 -7 -58q0 -69 36.5 -100.5t97.5 -31.5q100 0 172 60.5t91 167.5h2z" />
    <glyph glyph-name="v" unicode="v" horiz-adv-x="1092" 
d="M891 1023h293l-613 -1023h-235l-248 1023h280l135 -717z" />
    <glyph glyph-name="w" unicode="w" horiz-adv-x="1714" 
d="M1511 1023h286l-537 -1024h-252l-120 689l-365 -689h-254l-171 1024h276l97 -681l365 681h210l125 -682z" />
    <glyph glyph-name="x" unicode="x" horiz-adv-x="1171" 
d="M-90 0l510 512l-321 511h330l180 -333l305 333h343l-511 -512l323 -511h-329l-179 329l-304 -329h-347z" />
    <glyph glyph-name="y" unicode="y" horiz-adv-x="1085" 
d="M892 1023h284l-890 -1504h-281l325 533l-241 971h290l127 -686z" />
    <glyph glyph-name="z" unicode="z" horiz-adv-x="928" 
d="M976 1023l-597 -813h437l-36 -210h-841l594 812h-412l38 211h817z" />
    <glyph glyph-name="braceleft" unicode="{" horiz-adv-x="676" 
d="M332 -493q-144 0 -217 83t-52 203l71 405q9 50 13 81.5t1 57.5t-8 39.5t-22.5 27t-34 20.5t-51.5 20l11 160q74 24 108 46t59 71t42 144l71 405q21 120 113 193t236 73h134l-37 -202h-59q-46 0 -83 -33.5t-46 -89.5l-65 -366q-13 -72 -28 -115.5t-46.5 -88t-86 -74
t-138.5 -49.5q92 -26 138.5 -75t51.5 -114.5t-9 -149.5l-65 -370q-11 -59 4 -79.5t68 -20.5h78l-35 -202h-116z" />
    <glyph glyph-name="bar" unicode="|" horiz-adv-x="612" 
d="M71 -307l325 1843h180l-325 -1843h-180z" />
    <glyph glyph-name="braceright" unicode="}" horiz-adv-x="676" 
d="M-127 -493l35 202h60q109 0 129 120l65 370q13 71 28 114.5t46.5 88t86 74t138.5 50.5q-92 25 -138.5 73.5t-51.5 114.5t8 151l66 366q10 56 -8.5 79.5t-64.5 23.5h-78l37 202h115q144 0 217.5 -83t52.5 -203l-72 -404q-9 -51 -13 -82.5t-1 -57.5t8 -40t22 -27.5t34 -21
t51 -20.5l-11 -160q-45 -15 -70 -25.5t-50 -28.5t-39 -44t-26 -64.5t-22 -96.5l-72 -405q-21 -119 -113.5 -192.5t-236.5 -73.5h-132z" />
    <glyph glyph-name="asciitilde" unicode="~" horiz-adv-x="1362" 
d="M890 317q-33 0 -63.5 5.5t-57.5 18t-47 23t-43 30t-33 28.5t-29.5 29.5t-22.5 23.5q-54 53 -100 53q-65 0 -99.5 -57t-36.5 -138h-204q-8 179 85.5 289.5t260.5 110.5q88 0 147 -35.5t116 -111.5q18 -23 29.5 -34.5t33 -23.5t46.5 -12q58 0 96.5 53t34.5 140h202
q15 -167 -75.5 -279.5t-239.5 -112.5z" />
    <glyph glyph-name="exclamdown" unicode="&#xa1;" horiz-adv-x="653" 
d="M379 716q-74 0 -119 55t-32 132q12 60 61.5 102t111.5 42q75 0 119.5 -54.5t31.5 -131.5q-11 -61 -61 -103t-112 -42zM14 -419l204 984h231l-145 -984h-290z" />
    <glyph glyph-name="cent" unicode="&#xa2;" horiz-adv-x="1132" 
d="M612 463q69 0 132 36t108 95l177 -191q-157 -161 -373 -180l-40 -223h-169l41 234q-184 39 -275 190.5t-53 366.5q37 210 180.5 352t339.5 170l39 223h169l-39 -224q97 -15 173.5 -65.5t124.5 -125.5l-216 -156q-52 112 -174 112q-114 0 -209 -91.5t-121 -236.5
q-23 -128 30.5 -207t154.5 -79z" />
    <glyph glyph-name="sterling" unicode="&#xa3;" horiz-adv-x="1318" 
d="M39 0l31 173l53 15q48 11 81.5 45t42.5 84l48 277h-150l36 208h150l30 164q39 224 194.5 363.5t368.5 139.5q58 0 111 -11.5t100.5 -37t82 -62t55 -90t20.5 -118.5q0 -63 -23 -145l-258 -37q38 90 38 146q0 58 -37.5 86.5t-100.5 28.5q-112 0 -189 -74.5t-102 -208.5
l-25 -144h285l-37 -208h-285l-61 -348h621l-44 -246h-1036z" />
    <glyph glyph-name="currency" unicode="&#xa4;" horiz-adv-x="1378" 
d="M272 217l-132 160l133 116q-39 86 -39 181q0 189 124 338l-86 96l173 160l91 -106q124 72 261 72q150 0 253 -81l133 114l134 -155l-132 -117q39 -81 39 -180q0 -193 -125 -342l87 -96l-172 -160l-92 106q-120 -70 -261 -70q-148 0 -255 80zM681 468q97 0 173 50.5
t113 124t37 151.5q0 95 -58 159t-168 64q-74 0 -137 -29.5t-103 -77.5t-62.5 -105.5t-22.5 -114.5q0 -96 58.5 -159t169.5 -63z" />
    <glyph glyph-name="yen" unicode="&#xa5;" horiz-adv-x="1424" 
d="M470 0l38 209h-344l31 173h343l33 192h-343l30 173h310l-324 698h325l211 -492l394 492h337l-569 -698h299l-30 -173h-340l-33 -192h340l-31 -173h-340l-37 -209h-300z" />
    <glyph glyph-name="brokenbar" unicode="&#xa6;" horiz-adv-x="612" 
d="M266 799l130 737h180l-130 -737h-180zM71 -307l129 737h180l-129 -737h-180z" />
    <glyph glyph-name="section" unicode="&#xa7;" horiz-adv-x="1286" 
d="M748 870q76 -21 126 -38.5t112.5 -52t96.5 -75t52 -105.5t4 -145q-27 -156 -144 -252q82 -97 56 -249q-17 -98 -69 -172t-127.5 -117.5t-164 -65t-187.5 -21.5q-219 0 -353 104t-133 284l257 39q-3 -111 61.5 -168t175.5 -57q73 0 133.5 21t104.5 68.5t55 115.5
q6 34 -4.5 62t-30 47t-55.5 37t-68 30.5t-81 28.5l-36 12q-71 19 -120 37t-104.5 50t-86.5 70.5t-46 98.5t-2 134q28 157 155 248q-94 96 -67 252q20 116 94.5 199.5t181.5 124t235 40.5q75 0 142.5 -13t127 -41t103 -68.5t70 -99.5t28.5 -131l-240 -41q-5 191 -216 191
q-106 0 -186.5 -50t-98.5 -147q-6 -35 5.5 -60.5t49.5 -47t64.5 -32t91.5 -32.5q25 -9 38 -13zM413 555q-7 -35 4 -60.5t49.5 -47.5t64 -32t91.5 -32q25 -9 38 -13q68 -18 126 -39q88 48 106 153q7 41 -5.5 71.5t-54.5 56t-71 37.5t-99 36q-10 4 -15.5 6t-14 4.5t-15.5 5.5
q-25 7 -58 17q-56 -19 -95.5 -61t-50.5 -102z" />
    <glyph glyph-name="dieresis" unicode="&#xa8;" horiz-adv-x="910" 
d="M396 1196q-69 0 -113.5 48.5t-36.5 117.5q7 68 62 116t124 48q66 0 109 -48t37 -116q-7 -69 -61.5 -117.5t-120.5 -48.5zM826 1196q-69 0 -113 48.5t-36 117.5q7 68 61.5 116t123.5 48q67 0 110 -48t36 -116q-7 -69 -61 -117.5t-121 -48.5z" />
    <glyph glyph-name="copyright" unicode="&#xa9;" horiz-adv-x="1725" 
d="M899 -20q-151 0 -289 59t-238 159t-159 238t-59 289t59 289t159 238t238 159t289 59q121 0 235 -37.5t205.5 -107t161 -161t107 -205t37.5 -234.5t-37.5 -234.5t-107 -205t-161 -161t-205.5 -107t-235 -37.5zM899 132q163 0 299.5 78.5t215 215t78.5 299.5t-78.5 299
t-215 214.5t-299.5 78.5t-299 -78.5t-214.5 -214.5t-78.5 -299t78.5 -299.5t214.5 -215t299 -78.5zM903 305q-173 0 -295.5 122.5t-122.5 295.5q0 174 122 295.5t296 121.5q97 0 183 -41.5t144 -114.5l-130 -102q-34 47 -85.5 72.5t-111.5 25.5q-106 0 -178 -73.5
t-72 -183.5q0 -109 72 -182t178 -73q127 0 197 97l130 -102q-58 -74 -144 -116t-183 -42z" />
    <glyph glyph-name="ordfeminine" unicode="&#xaa;" horiz-adv-x="966" 
d="M804 1536h165l-109 -614h-164l13 74q-89 -87 -208 -87q-118 0 -193 78.5t-75 197.5q0 140 102 251.5t249 111.5t204 -102zM535 1052q86 0 151.5 64.5t65.5 148.5q0 66 -38.5 102.5t-100.5 36.5q-99 0 -159 -66.5t-60 -145.5q0 -69 39 -104.5t102 -35.5z" />
    <glyph glyph-name="guillemotleft" unicode="&#xab;" horiz-adv-x="1097" 
d="M310 275l-249 377l373 376h240l-382 -376l242 -377h-224zM774 275l-249 377l374 376h241l-382 -376l242 -377h-226z" />
    <glyph glyph-name="logicalnot" unicode="&#xac;" horiz-adv-x="1718" 
d="M1293 270v525h-1112v233h1344v-758h-232z" />
    <glyph glyph-name="uni00AD" unicode="&#xad;" horiz-adv-x="999" 
d="M125 420l42 243h717l-43 -243h-716z" />
    <glyph glyph-name="registered" unicode="&#xae;" horiz-adv-x="1725" 
d="M899 1470q121 0 235 -37.5t205.5 -107t161 -161t107 -205t37.5 -234.5t-37.5 -234.5t-107 -205t-161 -161t-205.5 -107t-235 -37.5q-151 0 -289 59t-238 159t-159 238t-59 289t59 289t159 238t238 159t289 59zM899 132q163 0 299.5 78.5t215 215t78.5 299.5t-78.5 299
t-215 214.5t-299.5 78.5t-299 -78.5t-214.5 -214.5t-78.5 -299t78.5 -299.5t214.5 -215t299 -78.5zM1208 885q0 -68 -33.5 -122t-90.5 -82l148 -348h-169l-128 323h-125v-323h-153v783h319q97 0 164.5 -67.5t67.5 -163.5zM810 979v-194h144q45 0 74.5 28t29.5 69
q0 43 -29.5 70t-74.5 27h-144z" />
    <glyph glyph-name="macron" unicode="&#xaf;" horiz-adv-x="944" 
d="M267 1228l29 170h665l-30 -170h-664z" />
    <glyph glyph-name="degree" unicode="&#xb0;" horiz-adv-x="911" 
d="M569 853q-128 0 -217 89t-89 217t89 217.5t217 89.5t217.5 -89.5t89.5 -217.5t-89.5 -217t-217.5 -89zM569 1012q62 0 104 42.5t42 104.5t-42 104.5t-104 42.5t-104 -42.5t-42 -104.5t42 -104.5t104 -42.5z" />
    <glyph glyph-name="plusminus" unicode="&#xb1;" horiz-adv-x="1306" 
d="M547 368v385h-385v219h385v386h220v-386h385v-219h-385v-385h-220zM151 0v219h995v-219h-995z" />
    <glyph glyph-name="acute" unicode="&#xb4;" horiz-adv-x="475" 
d="M147 1200l328 368l124 -100l-274 -268h-178z" />
    <glyph glyph-name="uni00B5" unicode="&#xb5;" horiz-adv-x="1335" 
d="M1017 1028h249l-183 -1028h-249l21 116q-139 -136 -314 -136q-101 0 -183 46l-95 -538h-228l272 1540h249l-109 -617q-16 -92 31.5 -152t135.5 -60q102 0 188 65.5t107 155.5z" />
    <glyph glyph-name="paragraph" unicode="&#xb6;" horiz-adv-x="1180" 
d="M334 -307l188 1066h-30q-171 0 -255.5 96t-54.5 269q27 157 133.5 239t277.5 82h196l-309 -1752h-146zM671 -307l309 1752h148l-309 -1752h-148z" />
    <glyph glyph-name="periodcentered" unicode="&#xb7;" horiz-adv-x="576" 
d="M324 615q-57 0 -91.5 42t-24.5 101q8 42 44 71.5t79 29.5q54 0 89.5 -42.5t25.5 -99.5q-7 -43 -43.5 -72.5t-78.5 -29.5z" />
    <glyph glyph-name="cedilla" unicode="&#xb8;" horiz-adv-x="581" 
d="M104 -532q-85 0 -142.5 43t-70.5 108l135 44q9 -29 36 -46.5t59 -17.5q38 0 70.5 25.5t39.5 66.5q8 43 -15.5 67t-64.5 24q-46 0 -80 -31l-94 62l161 223h137l-117 -159q30 6 46 6q84 0 130 -54t31 -138q-17 -94 -92 -158.5t-169 -64.5z" />
    <glyph glyph-name="ordmasculine" unicode="&#xba;" horiz-adv-x="890" 
d="M532 909q-133 0 -217.5 80.5t-84.5 202.5q0 140 110.5 248t266.5 108q134 0 219.5 -81t85.5 -203q0 -144 -114.5 -249.5t-265.5 -105.5zM535 1052q84 0 149.5 66t65.5 145q0 61 -41.5 101t-103.5 40q-65 0 -115.5 -35.5t-74 -83t-23.5 -94.5q0 -58 41.5 -98.5
t101.5 -40.5z" />
    <glyph glyph-name="guillemotright" unicode="&#xbb;" horiz-adv-x="1095" 
d="M4 275l381 377l-240 376h222l249 -376l-373 -377h-239zM469 275l381 377l-241 376h224l250 -376l-374 -377h-240z" />
    <glyph glyph-name="onequarter" unicode="&#xbc;" horiz-adv-x="1736" 
d="M1296 1536h190l-1137 -1536h-192zM254 614l137 761l-218 -149l23 162l231 148h161l-163 -922h-171zM1637 922l-106 -599h97l-22 -128h-98l-34 -195h-164l34 195h-423l23 146l468 581h225zM1089 323h278l81 462z" />
    <glyph glyph-name="onehalf" unicode="&#xbd;" horiz-adv-x="1770" 
d="M1293 1536h190l-1136 -1536h-193zM252 614l137 761l-219 -149l28 162l227 148h161l-164 -922h-170zM1697 639q-43 -263 -507 -505h435l-24 -134h-630l21 166q161 98 269 175.5t164 136t79.5 99.5t31.5 85q13 76 -14.5 102.5t-78.5 26.5q-75 0 -121.5 -49t-56.5 -116
l-172 19q21 130 119 210.5t230 80.5q135 0 206 -83t49 -214z" />
    <glyph glyph-name="threequarters" unicode="&#xbe;" horiz-adv-x="1941" 
d="M643 1113q52 -34 80.5 -86t31 -108t-20 -113t-65 -102t-110.5 -73.5t-151 -28.5q-138 0 -219 81.5t-60 198.5l172 -19q-19 -119 95 -119q96 0 154 73q48 62 35 127q-12 66 -86 83q-21 5 -46 5h-52l23 131h23q87 0 141 74q42 59 32 117q-16 56 -76 59q-58 0 -99.5 -35.5
t-53.5 -102.5l-169 20q21 118 106 185.5t202 67.5q72 0 126.5 -23.5t82.5 -61.5t37 -86t-3.5 -96t-46 -93t-83.5 -75zM1502 1536h190l-1137 -1536h-192zM1843 922l-106 -599h97l-22 -128h-98l-34 -195h-164l34 195h-422l22 146l469 581h224zM1295 323h278l81 462z" />
    <glyph glyph-name="questiondown" unicode="&#xbf;" horiz-adv-x="1057" 
d="M570 720q-74 0 -118 54.5t-30 130.5q10 60 59.5 102t108.5 42q76 0 121 -54.5t31 -130.5q-10 -60 -61 -102t-111 -42zM379 -437q-138 0 -238 55.5t-145 161.5t-21 246q48 269 304 373q108 29 125 115l11 68h232l-20 -118q-17 -94 -67 -145t-156 -106q-151 -55 -181 -221
q-17 -95 26.5 -143.5t129.5 -48.5q100 0 174.5 63.5t92.5 162.5q5 42 4 76l245 -51q-4 -55 -10 -87q-32 -179 -171 -290t-335 -111z" />
    <glyph glyph-name="Agrave" unicode="&#xc0;" horiz-adv-x="1453" 
d="M1004 1574h-178l-180 267l160 101zM1052 0l-53 304h-612l-161 -304h-294l783 1439h346l278 -1439h-287zM513 542h444l-111 629z" />
    <glyph glyph-name="Aacute" unicode="&#xc1;" horiz-adv-x="1453" 
d="M1276 1841l-273 -267h-178l328 368zM1052 0l-53 304h-612l-161 -304h-294l783 1439h346l278 -1439h-287zM513 542h444l-111 629z" />
    <glyph glyph-name="Acircumflex" unicode="&#xc2;" horiz-adv-x="1453" 
d="M948 1769l-171 -195h-177l280 299h174l174 -299h-178zM1052 0l-53 304h-612l-161 -304h-294l783 1439h346l278 -1439h-287zM513 542h444l-111 629z" />
    <glyph glyph-name="Atilde" unicode="&#xc3;" horiz-adv-x="1453" 
d="M825 1732q-40 0 -68.5 -41t-40.5 -107h-150q24 131 100 213t180 82q122 0 177 -117q22 -46 64 -46q40 0 67.5 39t39.5 108h151q-23 -129 -98 -211.5t-182 -82.5q-123 0 -178 117q-21 46 -62 46zM715 1439h346l278 -1439h-287l-53 304h-612l-161 -304h-294zM513 542h444
l-111 629z" />
    <glyph glyph-name="Adieresis" unicode="&#xc4;" horiz-adv-x="1453" 
d="M707 1574q-58 0 -93 42t-25 100q11 59 60.5 100t107.5 41t93 -41.5t24 -99.5q-10 -58 -59.5 -100t-107.5 -42zM1123 1574q-58 0 -93 41.5t-25 100.5q11 59 60 100t108 41q58 0 92 -41.5t24 -99.5t-59 -100t-107 -42zM1052 0l-53 304h-612l-161 -304h-294l783 1439h346
l278 -1439h-287zM513 542h444l-111 629z" />
    <glyph glyph-name="Aring" unicode="&#xc5;" horiz-adv-x="1453" 
d="M926 1574q-92 0 -150.5 55.5t-61.5 144.5q-5 109 75.5 193t198.5 84q93 0 148.5 -55t59.5 -142q4 -109 -75 -194.5t-195 -85.5zM975 1934q-60 0 -98.5 -43.5t-38.5 -98.5q0 -45 26.5 -71t74.5 -26q62 0 99.5 41.5t37.5 95.5q0 44 -27 73t-74 29zM1052 0l-53 304h-612
l-161 -304h-294l783 1439h346l278 -1439h-287zM513 542h444l-111 629z" />
    <glyph glyph-name="AE" unicode="&#xc6;" horiz-adv-x="1870" 
d="M-68 0l752 1445h1237l-47 -264h-563l-57 -327h487l-48 -264h-486l-57 -325h562l-47 -265h-862l53 298h-457l-148 -298h-319zM525 549h376l110 632h-174z" />
    <glyph glyph-name="Ccedilla" unicode="&#xc7;" horiz-adv-x="1546" 
d="M751 241q147 0 274 74t199 201l250 -115q-108 -190 -290.5 -300t-400.5 -120l-77 -104q30 6 46 6q84 0 130 -54t31 -138q-17 -94 -92 -158.5t-169 -64.5q-85 0 -142.5 43t-70.5 108l135 44q9 -29 36 -46.5t59 -17.5q38 0 70.5 25.5t39.5 66.5q8 43 -15.5 67t-64.5 24
q-46 0 -80 -31l-94 62l124 172q-248 26 -394 184.5t-146 410.5q0 134 37.5 263t111.5 240t176 195.5t239 132.5t292 48q242 0 406 -118t208 -320l-274 -79q-27 124 -120 191t-231 67q-125 0 -233 -52t-180 -137.5t-113 -193.5t-41 -220q0 -167 100 -261.5t264 -94.5z" />
    <glyph glyph-name="Egrave" unicode="&#xc8;" horiz-adv-x="1119" 
d="M876 1574h-178l-180 267l160 101zM1125 1190h-540l-61 -347h479l-43 -247h-480l-61 -345h540l-44 -251h-826l254 1439h826z" />
    <glyph glyph-name="Eacute" unicode="&#xc9;" horiz-adv-x="1119" 
d="M1148 1841l-273 -267h-178l328 368zM1125 1190h-540l-61 -347h479l-43 -247h-480l-61 -345h540l-44 -251h-826l254 1439h826z" />
    <glyph glyph-name="Ecircumflex" unicode="&#xca;" horiz-adv-x="1119" 
d="M820 1769l-171 -195h-177l280 299h174l174 -299h-178zM1125 1190h-540l-61 -347h479l-43 -247h-480l-61 -345h540l-44 -251h-826l254 1439h826z" />
    <glyph glyph-name="Edieresis" unicode="&#xcb;" horiz-adv-x="1119" 
d="M579 1574q-58 0 -93 42t-25 100q11 59 60.5 100t107.5 41t93 -41.5t24 -99.5q-10 -58 -59.5 -100t-107.5 -42zM995 1574q-58 0 -93 41.5t-25 100.5q11 59 60 100t108 41q58 0 92 -41.5t24 -99.5t-59 -100t-107 -42zM1125 1190h-540l-61 -347h479l-43 -247h-480l-61 -345
h540l-44 -251h-826l254 1439h826z" />
    <glyph glyph-name="Igrave" unicode="&#xcc;" horiz-adv-x="643" 
d="M418 1574l-180 267l160 101l198 -368h-178zM89 0l254 1439h283l-254 -1439h-283z" />
    <glyph glyph-name="Iacute" unicode="&#xcd;" horiz-adv-x="643" 
d="M417 1574l328 368l123 -101l-273 -267h-178zM89 0l254 1439h283l-254 -1439h-283z" />
    <glyph glyph-name="Icircumflex" unicode="&#xce;" horiz-adv-x="643" 
d="M369 1574h-177l280 299h174l174 -299h-178l-102 195zM89 0l254 1439h283l-254 -1439h-283z" />
    <glyph glyph-name="Idieresis" unicode="&#xcf;" horiz-adv-x="643" 
d="M299 1574q-58 0 -93 42t-25 100q11 59 60.5 100t107.5 41t93 -41.5t24 -99.5q-10 -58 -59.5 -100t-107.5 -42zM715 1574q-58 0 -93 41.5t-25 100.5q11 59 60 100t108 41q58 0 92 -41.5t24 -99.5t-59 -100t-107 -42zM89 0l254 1439h283l-254 -1439h-283z" />
    <glyph glyph-name="Eth" unicode="&#xd0;" horiz-adv-x="1465" 
d="M847 1439q284 0 432 -147.5t148 -404.5q0 -90 -14 -178.5t-44.5 -177t-76 -166.5t-112 -145.5t-148.5 -116t-189.5 -76t-230.5 -27.5h-523l112 632h-161l30 176h162l111 631h504zM624 251q108 0 196.5 39t145.5 102.5t95.5 147.5t55 169t16.5 173q0 308 -325 308h-227
l-67 -382h246l-30 -176h-247l-67 -381h208z" />
    <glyph glyph-name="Ntilde" unicode="&#xd1;" horiz-adv-x="1623" 
d="M909 1732q-40 0 -68.5 -41t-40.5 -107h-150q24 131 100 213t180 82q122 0 177 -117q22 -46 64 -46q40 0 67.5 39t39.5 108h151q-23 -129 -98 -211.5t-182 -82.5q-123 0 -178 117q-21 46 -62 46zM1324 1439h282l-254 -1439h-320l-475 1054l-187 -1054h-281l254 1439h318
l479 -1048z" />
    <glyph glyph-name="Ograve" unicode="&#xd2;" horiz-adv-x="1631" 
d="M915 1574l-180 267l160 101l198 -368h-178zM740 -20q-286 0 -458.5 162t-172.5 438q0 134 37.5 263t111.5 240t176 195.5t239 132.5t292 48q285 0 458 -161.5t173 -436.5q0 -134 -37.5 -263.5t-112 -240.5t-176.5 -195.5t-239 -133t-291 -48.5zM751 241q126 0 234.5 52.5
t180 138t111.5 193.5t40 220q0 166 -99 260.5t-264 94.5q-125 0 -233.5 -52.5t-180 -137.5t-112.5 -193.5t-41 -220.5q0 -167 99.5 -261t264.5 -94z" />
    <glyph glyph-name="Oacute" unicode="&#xd3;" horiz-adv-x="1631" 
d="M914 1574l328 368l123 -101l-273 -267h-178zM740 -20q-286 0 -458.5 162t-172.5 438q0 134 37.5 263t111.5 240t176 195.5t239 132.5t292 48q285 0 458 -161.5t173 -436.5q0 -134 -37.5 -263.5t-112 -240.5t-176.5 -195.5t-239 -133t-291 -48.5zM751 241
q126 0 234.5 52.5t180 138t111.5 193.5t40 220q0 166 -99 260.5t-264 94.5q-125 0 -233.5 -52.5t-180 -137.5t-112.5 -193.5t-41 -220.5q0 -167 99.5 -261t264.5 -94z" />
    <glyph glyph-name="Ocircumflex" unicode="&#xd4;" horiz-adv-x="1631" 
d="M866 1574h-177l280 299h174l174 -299h-178l-102 195zM740 -20q-286 0 -458.5 162t-172.5 438q0 134 37.5 263t111.5 240t176 195.5t239 132.5t292 48q285 0 458 -161.5t173 -436.5q0 -134 -37.5 -263.5t-112 -240.5t-176.5 -195.5t-239 -133t-291 -48.5zM751 241
q126 0 234.5 52.5t180 138t111.5 193.5t40 220q0 166 -99 260.5t-264 94.5q-125 0 -233.5 -52.5t-180 -137.5t-112.5 -193.5t-41 -220.5q0 -167 99.5 -261t264.5 -94z" />
    <glyph glyph-name="Otilde" unicode="&#xd5;" horiz-adv-x="1631" 
d="M1154 1569q-123 0 -178 117q-21 46 -62 46q-40 0 -68.5 -41t-40.5 -107h-150q24 131 100 213t180 82q122 0 177 -117q22 -46 64 -46q40 0 67.5 39t39.5 108h151q-23 -129 -98 -211.5t-182 -82.5zM740 -20q-286 0 -458.5 162t-172.5 438q0 134 37.5 263t111.5 240
t176 195.5t239 132.5t292 48q285 0 458 -161.5t173 -436.5q0 -134 -37.5 -263.5t-112 -240.5t-176.5 -195.5t-239 -133t-291 -48.5zM751 241q126 0 234.5 52.5t180 138t111.5 193.5t40 220q0 166 -99 260.5t-264 94.5q-125 0 -233.5 -52.5t-180 -137.5t-112.5 -193.5
t-41 -220.5q0 -167 99.5 -261t264.5 -94z" />
    <glyph glyph-name="Odieresis" unicode="&#xd6;" horiz-adv-x="1631" 
d="M796 1574q-58 0 -93 42t-25 100q11 59 60.5 100t107.5 41t93 -41.5t24 -99.5q-10 -58 -59.5 -100t-107.5 -42zM1212 1574q-58 0 -93 41.5t-25 100.5q11 59 60 100t108 41q58 0 92 -41.5t24 -99.5t-59 -100t-107 -42zM740 -20q-286 0 -458.5 162t-172.5 438
q0 134 37.5 263t111.5 240t176 195.5t239 132.5t292 48q285 0 458 -161.5t173 -436.5q0 -134 -37.5 -263.5t-112 -240.5t-176.5 -195.5t-239 -133t-291 -48.5zM751 241q126 0 234.5 52.5t180 138t111.5 193.5t40 220q0 166 -99 260.5t-264 94.5q-125 0 -233.5 -52.5
t-180 -137.5t-112.5 -193.5t-41 -220.5q0 -167 99.5 -261t264.5 -94z" />
    <glyph glyph-name="multiply" unicode="&#xd7;" horiz-adv-x="1101" 
d="M311 266l-156 156l271 271l-271 270l156 156l271 -270l269 270l156 -156l-271 -270l271 -271l-156 -155l-269 270z" />
    <glyph glyph-name="Oslash" unicode="&#xd8;" horiz-adv-x="1631" 
d="M1369 1342q109 -78 168 -200.5t59 -280.5q0 -134 -37.5 -263.5t-112 -240.5t-176.5 -195.5t-239 -133t-291 -48.5q-156 0 -284 51l-99 -142l-118 69l97 139q-109 78 -168 201.5t-59 281.5q0 134 37.5 263t111.5 240t176 195.5t239 132.5t292 48t283 -51l100 143l117 -70z
M387 596q0 -174 109 -269l594 853q-63 20 -136 20q-125 0 -233.5 -52.5t-180 -137.5t-112.5 -193.5t-41 -220.5zM751 241q126 0 234.5 52.5t180 138t111.5 193.5t40 220q0 172 -108 269l-593 -853q63 -20 135 -20z" />
    <glyph glyph-name="Ugrave" unicode="&#xd9;" horiz-adv-x="1420" 
d="M806 1574l-180 267l160 101l198 -368h-178zM632 -20q-224 0 -359.5 107t-135.5 309q0 53 11 114l165 929h282l-159 -909q-10 -57 -10 -92q0 -108 57.5 -157.5t156.5 -49.5q130 0 225.5 79.5t124.5 237.5l158 891h283l-167 -949q-23 -130 -82.5 -229.5t-144.5 -160
t-187 -90.5t-218 -30z" />
    <glyph glyph-name="Uacute" unicode="&#xda;" horiz-adv-x="1420" 
d="M805 1574l328 368l123 -101l-273 -267h-178zM632 -20q-224 0 -359.5 107t-135.5 309q0 53 11 114l165 929h282l-159 -909q-10 -57 -10 -92q0 -108 57.5 -157.5t156.5 -49.5q130 0 225.5 79.5t124.5 237.5l158 891h283l-167 -949q-23 -130 -82.5 -229.5t-144.5 -160
t-187 -90.5t-218 -30z" />
    <glyph glyph-name="Ucircumflex" unicode="&#xdb;" horiz-adv-x="1420" 
d="M757 1574h-177l280 299h174l174 -299h-178l-102 195zM632 -20q-224 0 -359.5 107t-135.5 309q0 53 11 114l165 929h282l-159 -909q-10 -57 -10 -92q0 -108 57.5 -157.5t156.5 -49.5q130 0 225.5 79.5t124.5 237.5l158 891h283l-167 -949q-23 -130 -82.5 -229.5
t-144.5 -160t-187 -90.5t-218 -30z" />
    <glyph glyph-name="Udieresis" unicode="&#xdc;" horiz-adv-x="1420" 
d="M687 1574q-58 0 -93 42t-25 100q11 59 60.5 100t107.5 41t93 -41.5t24 -99.5q-10 -58 -59.5 -100t-107.5 -42zM1103 1574q-58 0 -93 41.5t-25 100.5q11 59 60 100t108 41q58 0 92 -41.5t24 -99.5t-59 -100t-107 -42zM632 -20q-224 0 -359.5 107t-135.5 309q0 53 11 114
l165 929h282l-159 -909q-10 -57 -10 -92q0 -108 57.5 -157.5t156.5 -49.5q130 0 225.5 79.5t124.5 237.5l158 891h283l-167 -949q-23 -130 -82.5 -229.5t-144.5 -160t-187 -90.5t-218 -30z" />
    <glyph glyph-name="Yacute" unicode="&#xdd;" horiz-adv-x="1254" 
d="M1171 1841l-273 -267h-178l328 368zM1406 1439l-611 -758l-120 -681h-284l122 690l-340 749h300l214 -504l393 504h326z" />
    <glyph glyph-name="Thorn" unicode="&#xde;" horiz-adv-x="1228" 
d="M784 1314q240 0 346.5 -96.5t106.5 -284.5q0 -74 -21 -146t-66 -139.5t-109.5 -119t-159 -82.5t-205.5 -31h-223l-74 -415h-290l73 415l126 710l33 189l39 220h290l-39 -220h173zM710 672q130 0 196.5 69.5t66.5 165.5q0 73 -44 111t-157 38h-206l-68 -384h212z" />
    <glyph glyph-name="germandbls" unicode="&#xdf;" horiz-adv-x="1280" 
d="M52 0l172 972q24 135 70.5 239t104 168t131 105t145 56.5t151.5 15.5q200 0 318.5 -95.5t118.5 -248.5q0 -90 -34.5 -156t-102.5 -123q-7 -6 -26 -22.5t-26.5 -23t-21 -20.5t-19 -24t-10.5 -24t-5 -28q0 -26 20 -48.5t48.5 -44.5t57 -50t48.5 -78t20 -116
q0 -203 -128 -328.5t-335 -125.5h-209l38 212h106q107 0 176 71.5t69 173.5q0 41 -18 74t-44.5 55.5t-52.5 46t-44 59.5t-18 82q0 35 6.5 65t15 49.5t27 42t30.5 34t39.5 35t40.5 35.5q83 73 83 171q0 58 -43 90.5t-124 32.5q-254 0 -311 -319l-178 -1010h-286z" />
    <glyph glyph-name="agrave" unicode="&#xe0;" horiz-adv-x="1288" 
d="M849 1169h-178l-178 268l158 100zM962 1023h271l-181 -1023h-244l9 139q-54 -79 -145.5 -121t-196.5 -42q-187 0 -304.5 117t-117.5 320q0 117 42 229.5t115 201.5t182 143t234 54q112 0 195 -44.5t116 -121.5zM553 203q77 0 143.5 34.5t110 89t68.5 119.5t25 128
q0 105 -61 173t-170 68q-100 0 -180 -56.5t-120.5 -141.5t-40.5 -178q0 -110 61 -173t164 -63z" />
    <glyph glyph-name="aacute" unicode="&#xe1;" horiz-adv-x="1288" 
d="M1123 1437l-274 -268h-178l328 368zM962 1023h271l-181 -1023h-244l9 139q-54 -79 -145.5 -121t-196.5 -42q-187 0 -304.5 117t-117.5 320q0 117 42 229.5t115 201.5t182 143t234 54q112 0 195 -44.5t116 -121.5zM553 203q77 0 143.5 34.5t110 89t68.5 119.5t25 128
q0 105 -61 173t-170 68q-100 0 -180 -56.5t-120.5 -141.5t-40.5 -178q0 -110 61 -173t164 -63z" />
    <glyph glyph-name="acircumflex" unicode="&#xe2;" horiz-adv-x="1288" 
d="M801 1402l-171 -196h-177l280 299h174l174 -299h-178zM962 1023h271l-181 -1023h-244l9 139q-54 -79 -145.5 -121t-196.5 -42q-187 0 -304.5 117t-117.5 320q0 117 42 229.5t115 201.5t182 143t234 54q112 0 195 -44.5t116 -121.5zM553 203q77 0 143.5 34.5t110 89
t68.5 119.5t25 128q0 105 -61 173t-170 68q-100 0 -180 -56.5t-120.5 -141.5t-40.5 -178q0 -110 61 -173t164 -63z" />
    <glyph glyph-name="atilde" unicode="&#xe3;" horiz-adv-x="1288" 
d="M684 1303q-34 0 -58 -35t-34 -93h-136q20 116 87 189t160 73q57 0 96.5 -28t60.5 -75q16 -38 53 -38q66 0 89 128h138q-20 -115 -86.5 -188.5t-161.5 -73.5q-111 0 -157 102q-18 39 -51 39zM962 1023h271l-181 -1023h-244l9 139q-54 -79 -145.5 -121t-196.5 -42
q-187 0 -304.5 117t-117.5 320q0 117 42 229.5t115 201.5t182 143t234 54q112 0 195 -44.5t116 -121.5zM553 203q77 0 143.5 34.5t110 89t68.5 119.5t25 128q0 105 -61 173t-170 68q-100 0 -180 -56.5t-120.5 -141.5t-40.5 -178q0 -110 61 -173t164 -63z" />
    <glyph glyph-name="adieresis" unicode="&#xe4;" horiz-adv-x="1288" 
d="M563 1196q-69 0 -113.5 48.5t-36.5 117.5q7 68 62 116t124 48q66 0 109 -48t37 -116q-7 -69 -61.5 -117.5t-120.5 -48.5zM993 1196q-69 0 -113 48.5t-36 117.5q7 68 61.5 116t123.5 48q67 0 110 -48t36 -116q-7 -69 -61 -117.5t-121 -48.5zM962 1023h271l-181 -1023h-244
l9 139q-54 -79 -145.5 -121t-196.5 -42q-187 0 -304.5 117t-117.5 320q0 117 42 229.5t115 201.5t182 143t234 54q112 0 195 -44.5t116 -121.5zM553 203q77 0 143.5 34.5t110 89t68.5 119.5t25 128q0 105 -61 173t-170 68q-100 0 -180 -56.5t-120.5 -141.5t-40.5 -178
q0 -110 61 -173t164 -63z" />
    <glyph glyph-name="aring" unicode="&#xe5;" horiz-adv-x="1288" 
d="M772 1140q-99 0 -162.5 71t-53.5 170q11 97 89.5 167t177.5 70q98 0 160 -70t50 -167q-10 -99 -87 -170t-174 -71zM680 1381q-5 -53 24.5 -86t79.5 -33t87.5 33.5t42.5 85.5q5 48 -25.5 84t-78.5 36q-49 0 -87 -36t-43 -84zM962 1023h271l-181 -1023h-244l9 139
q-54 -79 -145.5 -121t-196.5 -42q-187 0 -304.5 117t-117.5 320q0 117 42 229.5t115 201.5t182 143t234 54q112 0 195 -44.5t116 -121.5zM553 203q77 0 143.5 34.5t110 89t68.5 119.5t25 128q0 105 -61 173t-170 68q-100 0 -180 -56.5t-120.5 -141.5t-40.5 -178
q0 -110 61 -173t164 -63z" />
    <glyph glyph-name="ae" unicode="&#xe6;" horiz-adv-x="1797" 
d="M1301 1050q204 0 324.5 -103t120.5 -302q0 -65 -12 -126l-15 -67h-763q-3 -26 -3 -48q0 -97 56.5 -147t151.5 -50q81 0 150 39.5t111 108.5l260 -58q-80 -156 -218 -236.5t-313 -80.5q-266 0 -391 162h-14q-189 -162 -427 -162q-136 0 -220 58.5t-84 176.5
q0 76 24.5 135.5t62.5 97t100.5 67.5t120.5 46t142 33l150 29q62 13 95 45.5t33 80.5q0 100 -138 100q-90 0 -157 -44.5t-91 -136.5l-249 62q58 167 182.5 242.5t330.5 75.5q229 0 319 -105q156 107 361 107zM1297 849q-96 0 -172 -49.5t-120 -148.5h471q2 22 2 30
q0 83 -47 125.5t-134 42.5zM413 190q68 0 141 38t128 103q-6 39 -6 81q0 31 1 46l-190 -45q-185 -37 -185 -144q0 -39 30.5 -59t80.5 -20z" />
    <glyph glyph-name="ccedilla" unicode="&#xe7;" horiz-adv-x="1149" 
d="M525 197q99 0 177.5 50.5t119.5 142.5l246 -47q-65 -167 -203 -260.5t-313 -100.5l-77 -105q30 6 46 6q84 0 130 -54t31 -138q-17 -94 -92 -158.5t-169 -64.5q-85 0 -142.5 43t-70.5 108l135 44q9 -29 36 -46.5t59 -17.5q38 0 70.5 25.5t39.5 66.5q8 43 -15.5 67
t-64.5 24q-46 0 -80 -31l-94 62l127 176q-172 28 -271 142.5t-99 288.5q0 95 27 185.5t81 169t128.5 138.5t174.5 94t214 34q199 0 319 -101t127 -278l-251 -10q-16 175 -200 175q-80 0 -148 -37.5t-111.5 -97.5t-67.5 -132t-24 -144q0 -101 55 -160t150 -59z" />
    <glyph glyph-name="egrave" unicode="&#xe8;" horiz-adv-x="1158" 
d="M806 1166h-178l-178 268l158 100zM670 1042q201 0 319.5 -101.5t118.5 -298.5q0 -58 -12 -124l-13 -58h-767q-2 -40 -2 -59q0 -101 59 -153.5t155 -52.5q83 0 154.5 41t116.5 112l243 -55q-76 -150 -213 -231.5t-302 -81.5q-222 0 -347.5 112t-125.5 314q0 99 25.5 192
t77.5 173.5t124.5 141t172.5 95t216 34.5zM667 852q-110 0 -187.5 -56.5t-119.5 -153.5h493q2 24 2 33q0 88 -51.5 132.5t-136.5 44.5z" />
    <glyph glyph-name="eacute" unicode="&#xe9;" horiz-adv-x="1158" 
d="M1080 1434l-274 -268h-178l328 368zM670 1042q201 0 319.5 -101.5t118.5 -298.5q0 -58 -12 -124l-13 -58h-767q-2 -40 -2 -59q0 -101 59 -153.5t155 -52.5q83 0 154.5 41t116.5 112l243 -55q-76 -150 -213 -231.5t-302 -81.5q-222 0 -347.5 112t-125.5 314q0 99 25.5 192
t77.5 173.5t124.5 141t172.5 95t216 34.5zM667 852q-110 0 -187.5 -56.5t-119.5 -153.5h493q2 24 2 33q0 88 -51.5 132.5t-136.5 44.5z" />
    <glyph glyph-name="ecircumflex" unicode="&#xea;" horiz-adv-x="1158" 
d="M758 1399l-171 -196h-177l280 299h174l174 -299h-178zM670 1042q201 0 319.5 -101.5t118.5 -298.5q0 -58 -12 -124l-13 -58h-767q-2 -40 -2 -59q0 -101 59 -153.5t155 -52.5q83 0 154.5 41t116.5 112l243 -55q-76 -150 -213 -231.5t-302 -81.5q-222 0 -347.5 112
t-125.5 314q0 99 25.5 192t77.5 173.5t124.5 141t172.5 95t216 34.5zM667 852q-110 0 -187.5 -56.5t-119.5 -153.5h493q2 24 2 33q0 88 -51.5 132.5t-136.5 44.5z" />
    <glyph glyph-name="edieresis" unicode="&#xeb;" horiz-adv-x="1158" 
d="M520 1193q-69 0 -113.5 48.5t-36.5 117.5q7 68 62 116t124 48q66 0 109 -48t37 -116q-7 -69 -61.5 -117.5t-120.5 -48.5zM986 1523q67 0 110 -48t36 -116q-7 -69 -61 -117.5t-121 -48.5q-69 0 -113 48.5t-36 117.5q7 68 61.5 116t123.5 48zM670 1042q201 0 319.5 -101.5
t118.5 -298.5q0 -58 -12 -124l-13 -58h-767q-2 -40 -2 -59q0 -101 59 -153.5t155 -52.5q83 0 154.5 41t116.5 112l243 -55q-76 -150 -213 -231.5t-302 -81.5q-222 0 -347.5 112t-125.5 314q0 99 25.5 192t77.5 173.5t124.5 141t172.5 95t216 34.5zM667 852
q-110 0 -187.5 -56.5t-119.5 -153.5h493q2 24 2 33q0 88 -51.5 132.5t-136.5 44.5z" />
    <glyph glyph-name="igrave" unicode="&#xec;" horiz-adv-x="577" 
d="M316 1169l-178 268l158 100l198 -368h-178zM53 0l182 1028h290l-183 -1028h-289z" />
    <glyph glyph-name="iacute" unicode="&#xed;" horiz-adv-x="577" 
d="M316 1169l328 368l124 -100l-274 -268h-178zM53 0l182 1028h290l-183 -1028h-289z" />
    <glyph glyph-name="icircumflex" unicode="&#xee;" horiz-adv-x="577" 
d="M275 1206h-177l280 299h174l174 -299h-178l-102 196zM53 0l182 1028h290l-183 -1028h-289z" />
    <glyph glyph-name="idieresis" unicode="&#xef;" horiz-adv-x="577" 
d="M208 1196q-69 0 -113.5 48.5t-36.5 117.5q7 68 62 116t124 48q66 0 109 -48t37 -116q-7 -69 -61.5 -117.5t-120.5 -48.5zM638 1196q-69 0 -113 48.5t-36 117.5q7 68 61.5 116t123.5 48q67 0 110 -48t36 -116q-7 -69 -61 -117.5t-121 -48.5zM53 0l182 1028h290l-183 -1028
h-289z" />
    <glyph glyph-name="eth" unicode="&#xf0;" horiz-adv-x="1190" 
d="M1054 866q72 -142 72 -311q0 -157 -69 -286t-206 -208.5t-318 -79.5q-226 0 -352.5 121.5t-126.5 324.5q0 124 46 238t121 195.5t174.5 130t203.5 48.5q37 0 71 -6l-109 195l-251 -62l-8 85l217 53l-130 232h318l85 -165l228 56l8 -85l-196 -48zM554 238q79 0 140.5 33
t95.5 85t51.5 108t17.5 111q0 99 -55.5 161.5t-151.5 62.5q-65 0 -118.5 -23t-88.5 -60t-59.5 -83.5t-35 -92.5t-10.5 -89q0 -97 59 -155t155 -58z" />
    <glyph glyph-name="ntilde" unicode="&#xf1;" horiz-adv-x="1194" 
d="M631 1298q-34 0 -58 -35t-34 -93h-136q20 116 87 189t160 73q57 0 96.5 -28t60.5 -75q16 -38 53 -38q66 0 89 128h138q-20 -115 -86.5 -188.5t-161.5 -73.5q-111 0 -157 102q-18 39 -51 39zM815 1041q137 0 215 -72.5t78 -202.5q0 -26 -8 -88l-122 -678h-271l116 652
q5 30 5 48q0 123 -142 123q-81 0 -153 -54t-103 -163l-107 -606h-270l181 1023h270l-24 -137q137 155 335 155z" />
    <glyph glyph-name="ograve" unicode="&#xf2;" horiz-adv-x="1230" 
d="M637 1162l-178 268l158 100l198 -368h-178zM537 -20q-220 0 -352 116t-132 319q0 124 43.5 237t123 199.5t201.5 138t269 51.5q222 0 353.5 -116t131.5 -318q0 -124 -44 -237t-124 -200t-202 -138.5t-268 -51.5zM544 197q83 0 153 36t114.5 94t69.5 128t25 140
q0 106 -61.5 169t-167.5 63q-65 0 -123 -24t-99.5 -64.5t-71.5 -92t-45 -107t-15 -110.5q0 -108 59 -170t162 -62z" />
    <glyph glyph-name="oacute" unicode="&#xf3;" horiz-adv-x="1230" 
d="M637 1162l328 368l124 -100l-274 -268h-178zM537 -20q-220 0 -352 116t-132 319q0 124 43.5 237t123 199.5t201.5 138t269 51.5q222 0 353.5 -116t131.5 -318q0 -124 -44 -237t-124 -200t-202 -138.5t-268 -51.5zM544 197q83 0 153 36t114.5 94t69.5 128t25 140
q0 106 -61.5 169t-167.5 63q-65 0 -123 -24t-99.5 -64.5t-71.5 -92t-45 -107t-15 -110.5q0 -108 59 -170t162 -62z" />
    <glyph glyph-name="ocircumflex" unicode="&#xf4;" horiz-adv-x="1230" 
d="M596 1199h-177l280 299h174l174 -299h-178l-102 196zM537 -20q-220 0 -352 116t-132 319q0 124 43.5 237t123 199.5t201.5 138t269 51.5q222 0 353.5 -116t131.5 -318q0 -124 -44 -237t-124 -200t-202 -138.5t-268 -51.5zM544 197q83 0 153 36t114.5 94t69.5 128t25 140
q0 106 -61.5 169t-167.5 63q-65 0 -123 -24t-99.5 -64.5t-71.5 -92t-45 -107t-15 -110.5q0 -108 59 -170t162 -62z" />
    <glyph glyph-name="otilde" unicode="&#xf5;" horiz-adv-x="1230" 
d="M858 1155q-111 0 -157 102q-18 39 -51 39q-34 0 -58 -35t-34 -93h-136q20 116 87 189t160 73q57 0 96.5 -28t60.5 -75q16 -38 53 -38q66 0 89 128h138q-20 -115 -86.5 -188.5t-161.5 -73.5zM537 -20q-220 0 -352 116t-132 319q0 124 43.5 237t123 199.5t201.5 138
t269 51.5q222 0 353.5 -116t131.5 -318q0 -124 -44 -237t-124 -200t-202 -138.5t-268 -51.5zM544 197q83 0 153 36t114.5 94t69.5 128t25 140q0 106 -61.5 169t-167.5 63q-65 0 -123 -24t-99.5 -64.5t-71.5 -92t-45 -107t-15 -110.5q0 -108 59 -170t162 -62z" />
    <glyph glyph-name="odieresis" unicode="&#xf6;" horiz-adv-x="1230" 
d="M529 1189q-69 0 -113.5 48.5t-36.5 117.5q7 68 62 116t124 48q66 0 109 -48t37 -116q-7 -69 -61.5 -117.5t-120.5 -48.5zM959 1189q-69 0 -113 48.5t-36 117.5q7 68 61.5 116t123.5 48q67 0 110 -48t36 -116q-7 -69 -61 -117.5t-121 -48.5zM537 -20q-220 0 -352 116
t-132 319q0 124 43.5 237t123 199.5t201.5 138t269 51.5q222 0 353.5 -116t131.5 -318q0 -124 -44 -237t-124 -200t-202 -138.5t-268 -51.5zM544 197q83 0 153 36t114.5 94t69.5 128t25 140q0 106 -61.5 169t-167.5 63q-65 0 -123 -24t-99.5 -64.5t-71.5 -92t-45 -107
t-15 -110.5q0 -108 59 -170t162 -62z" />
    <glyph glyph-name="divide" unicode="&#xf7;" horiz-adv-x="1088" 
d="M568 930q-60 0 -104 43.5t-44 105.5q0 59 44.5 104t103.5 45t104.5 -45t45.5 -104q0 -62 -45 -105.5t-105 -43.5zM135 591v219h883v-219h-883zM568 173q-60 0 -104 43.5t-44 105.5q0 59 44.5 104t103.5 45t104.5 -45t45.5 -104q0 -62 -45 -105.5t-105 -43.5z" />
    <glyph glyph-name="oslash" unicode="&#xf8;" horiz-adv-x="1230" 
d="M1004 956q171 -117 171 -349q0 -124 -44 -237t-124 -200t-202 -138.5t-268 -51.5q-104 0 -194 28l-77 -110l-115 69l70 101q-168 117 -168 347q0 124 43.5 237t123 199.5t201.5 138t269 51.5q106 0 191 -27l76 110l116 -69zM323 429q0 -94 44 -152l378 542q-34 8 -68 8
q-65 0 -123 -24t-99.5 -64.5t-71.5 -92t-45 -107t-15 -110.5zM544 197q83 0 153 36t114.5 94t69.5 128t25 140q0 90 -47 153l-379 -544q27 -7 64 -7z" />
    <glyph glyph-name="ugrave" unicode="&#xf9;" horiz-adv-x="1194" 
d="M803 1164h-178l-178 268l158 100zM869 1023h271l-182 -1023h-255l18 147q-65 -78 -152.5 -122.5t-188.5 -44.5q-140 0 -218 73t-78 204q0 36 8 86l122 680h270l-110 -626q-7 -39 -7 -58q0 -69 36.5 -100.5t97.5 -31.5q100 0 172 60.5t91 167.5h2z" />
    <glyph glyph-name="uacute" unicode="&#xfa;" horiz-adv-x="1194" 
d="M1077 1432l-274 -268h-178l328 368zM869 1023h271l-182 -1023h-255l18 147q-65 -78 -152.5 -122.5t-188.5 -44.5q-140 0 -218 73t-78 204q0 36 8 86l122 680h270l-110 -626q-7 -39 -7 -58q0 -69 36.5 -100.5t97.5 -31.5q100 0 172 60.5t91 167.5h2z" />
    <glyph glyph-name="ucircumflex" unicode="&#xfb;" horiz-adv-x="1194" 
d="M755 1397l-171 -196h-177l280 299h174l174 -299h-178zM869 1023h271l-182 -1023h-255l18 147q-65 -78 -152.5 -122.5t-188.5 -44.5q-140 0 -218 73t-78 204q0 36 8 86l122 680h270l-110 -626q-7 -39 -7 -58q0 -69 36.5 -100.5t97.5 -31.5q100 0 172 60.5t91 167.5h2z" />
    <glyph glyph-name="udieresis" unicode="&#xfc;" horiz-adv-x="1194" 
d="M517 1191q-69 0 -113.5 48.5t-36.5 117.5q7 68 62 116t124 48q66 0 109 -48t37 -116q-7 -69 -61.5 -117.5t-120.5 -48.5zM947 1191q-69 0 -113 48.5t-36 117.5q7 68 61.5 116t123.5 48q67 0 110 -48t36 -116q-7 -69 -61 -117.5t-121 -48.5zM869 1023h271l-182 -1023h-255
l18 147q-65 -78 -152.5 -122.5t-188.5 -44.5q-140 0 -218 73t-78 204q0 36 8 86l122 680h270l-110 -626q-7 -39 -7 -58q0 -69 36.5 -100.5t97.5 -31.5q100 0 172 60.5t91 167.5h2z" />
    <glyph glyph-name="yacute" unicode="&#xfd;" horiz-adv-x="1085" 
d="M1017 1432l-274 -268h-178l328 368zM892 1023h284l-890 -1504h-281l325 533l-241 971h290l127 -686z" />
    <glyph glyph-name="thorn" unicode="&#xfe;" horiz-adv-x="1303" 
d="M839 1048q182 0 296.5 -111t114.5 -305q0 -125 -44 -243t-121 -210t-191 -147.5t-244 -55.5q-102 0 -179 38t-110 107l-110 -621h-288l359 2036h288l-111 -631q58 68 148 105.5t192 37.5zM627 215q100 0 177.5 55.5t115.5 138t38 171.5q0 107 -62 168t-164 61
q-99 0 -177 -56t-116.5 -137.5t-38.5 -168.5q0 -106 62.5 -169t164.5 -63z" />
    <glyph glyph-name="ydieresis" unicode="&#xff;" horiz-adv-x="1085" 
d="M457 1191q-69 0 -113.5 48.5t-36.5 117.5q7 68 62 116t124 48q66 0 109 -48t37 -116q-7 -69 -61.5 -117.5t-120.5 -48.5zM887 1191q-69 0 -113 48.5t-36 117.5q7 68 61.5 116t123.5 48q67 0 110 -48t36 -116q-7 -69 -61 -117.5t-121 -48.5zM892 1023h284l-890 -1504h-281
l325 533l-241 971h290l127 -686z" />
    <glyph glyph-name="Amacron" unicode="&#x100;" horiz-adv-x="1453" 
d="M1277 1744l-30 -170h-664l30 170h664zM1052 0l-53 304h-612l-161 -304h-294l783 1439h346l278 -1439h-287zM513 542h444l-111 629z" />
    <glyph glyph-name="amacron" unicode="&#x101;" horiz-adv-x="1288" 
d="M1129 1367l-30 -170h-664l29 170h665zM962 1023h271l-181 -1023h-244l9 139q-54 -79 -145.5 -121t-196.5 -42q-187 0 -304.5 117t-117.5 320q0 117 42 229.5t115 201.5t182 143t234 54q112 0 195 -44.5t116 -121.5zM553 203q77 0 143.5 34.5t110 89t68.5 119.5t25 128
q0 105 -61 173t-170 68q-100 0 -180 -56.5t-120.5 -141.5t-40.5 -178q0 -110 61 -173t164 -63z" />
    <glyph glyph-name="Abreve" unicode="&#x102;" horiz-adv-x="1453" 
d="M915 1574q-83 0 -145.5 16t-106 49.5t-59.5 91.5t-1 138h166q-15 -81 30.5 -121t139.5 -40q199 0 228 161h166q-54 -295 -418 -295zM1052 0l-53 304h-612l-161 -304h-294l783 1439h346l278 -1439h-287zM513 542h444l-111 629z" />
    <glyph glyph-name="abreve" unicode="&#x103;" horiz-adv-x="1288" 
d="M757 1154q-165 0 -248.5 91t-53.5 260h166q-17 -95 27 -155.5t133 -60.5q91 0 156 60t82 156h166q-30 -170 -145.5 -260.5t-282.5 -90.5zM962 1023h271l-181 -1023h-244l9 139q-54 -79 -145.5 -121t-196.5 -42q-187 0 -304.5 117t-117.5 320q0 117 42 229.5t115 201.5
t182 143t234 54q112 0 195 -44.5t116 -121.5zM553 203q77 0 143.5 34.5t110 89t68.5 119.5t25 128q0 105 -61 173t-170 68q-100 0 -180 -56.5t-120.5 -141.5t-40.5 -178q0 -110 61 -173t164 -63z" />
    <glyph glyph-name="Aogonek" unicode="&#x104;" horiz-adv-x="1453" 
d="M1129 -220q-4 -18 9.5 -27t43.5 -9q67 0 119 40l-33 -182q-67 -27 -147 -27q-87 0 -135 28t-39 81q18 113 273 316h-168l-53 304h-612l-161 -304h-294l783 1439h346l278 -1439q-199 -153 -210 -220zM513 542h444l-111 629z" />
    <glyph glyph-name="aogonek" unicode="&#x105;" horiz-adv-x="1288" 
d="M1052 0q-199 -153 -210 -220q-4 -18 9.5 -27t43.5 -9q67 0 119 40l-33 -182q-67 -27 -147 -27q-87 0 -135 28t-39 81q18 113 273 316h-125l9 139q-54 -79 -145.5 -121t-196.5 -42q-187 0 -304.5 117t-117.5 320q0 117 42 229.5t115 201.5t182 143t234 54q112 0 195 -44.5
t116 -121.5l25 148h271zM553 203q77 0 143.5 34.5t110 89t68.5 119.5t25 128q0 105 -61 173t-170 68q-100 0 -180 -56.5t-120.5 -141.5t-40.5 -178q0 -110 61 -173t164 -63z" />
    <glyph glyph-name="Cacute" unicode="&#x106;" horiz-adv-x="1546" 
d="M915 1574l328 368l123 -101l-273 -267h-178zM740 -20q-286 0 -458.5 162t-172.5 438q0 134 37.5 263t111.5 240t176 195.5t239 132.5t292 48q242 0 406 -118t208 -320l-274 -79q-27 124 -120 191t-231 67q-125 0 -233 -52t-180 -137.5t-113 -193.5t-41 -220
q0 -167 100 -261.5t264 -94.5q147 0 274 74t199 201l250 -115q-113 -200 -308 -310.5t-426 -110.5z" />
    <glyph glyph-name="cacute" unicode="&#x107;" horiz-adv-x="1149" 
d="M612 1164l328 368l124 -100l-274 -268h-178zM525 -19q-216 0 -345 119.5t-129 319.5q0 95 27 185.5t81 169t128.5 138.5t174.5 94t214 34q199 0 319 -101t127 -278l-251 -10q-16 175 -200 175q-80 0 -148 -37.5t-111.5 -97.5t-67.5 -132t-24 -144q0 -101 55 -160t150 -59
q99 0 177.5 50.5t119.5 142.5l246 -47q-68 -174 -214 -268t-329 -94z" />
    <glyph glyph-name="Cdotaccent" unicode="&#x10a;" horiz-adv-x="1546" 
d="M1006 1574q-69 0 -109 48.5t-29 117.5q12 68 69.5 116t126.5 48q67 0 107 -48t28 -116q-11 -68 -68.5 -117t-124.5 -49zM740 -20q-286 0 -458.5 162t-172.5 438q0 134 37.5 263t111.5 240t176 195.5t239 132.5t292 48q242 0 406 -118t208 -320l-274 -79q-27 124 -120 191
t-231 67q-125 0 -233 -52t-180 -137.5t-113 -193.5t-41 -220q0 -167 100 -261.5t264 -94.5q147 0 274 74t199 201l250 -115q-113 -200 -308 -310.5t-426 -110.5z" />
    <glyph glyph-name="cdotaccent" unicode="&#x10b;" horiz-adv-x="1149" 
d="M719 1191q-69 0 -112.5 48.5t-37.5 117.5q7 68 62 116t124 48q67 0 110 -48t36 -116q-7 -69 -61 -117.5t-121 -48.5zM525 -19q-216 0 -345 119.5t-129 319.5q0 95 27 185.5t81 169t128.5 138.5t174.5 94t214 34q199 0 319 -101t127 -278l-251 -10q-16 175 -200 175
q-80 0 -148 -37.5t-111.5 -97.5t-67.5 -132t-24 -144q0 -101 55 -160t150 -59q99 0 177.5 50.5t119.5 142.5l246 -47q-68 -174 -214 -268t-329 -94z" />
    <glyph glyph-name="Ccaron" unicode="&#x10c;" horiz-adv-x="1546" 
d="M918 1574l-175 299h178l102 -196l170 196h178l-279 -299h-174zM740 -20q-286 0 -458.5 162t-172.5 438q0 134 37.5 263t111.5 240t176 195.5t239 132.5t292 48q242 0 406 -118t208 -320l-274 -79q-27 124 -120 191t-231 67q-125 0 -233 -52t-180 -137.5t-113 -193.5
t-41 -220q0 -167 100 -261.5t264 -94.5q147 0 274 74t199 201l250 -115q-113 -200 -308 -310.5t-426 -110.5z" />
    <glyph glyph-name="ccaron" unicode="&#x10d;" horiz-adv-x="1149" 
d="M621 1201l-175 299h178l102 -196l170 196h178l-279 -299h-174zM525 -19q-216 0 -345 119.5t-129 319.5q0 95 27 185.5t81 169t128.5 138.5t174.5 94t214 34q199 0 319 -101t127 -278l-251 -10q-16 175 -200 175q-80 0 -148 -37.5t-111.5 -97.5t-67.5 -132t-24 -144
q0 -101 55 -160t150 -59q99 0 177.5 50.5t119.5 142.5l246 -47q-68 -174 -214 -268t-329 -94z" />
    <glyph glyph-name="Dcaron" unicode="&#x10e;" horiz-adv-x="1465" 
d="M719 1574l-175 299h178l102 -196l170 196h178l-279 -299h-174zM89 0l254 1439h504q284 0 432 -147.5t148 -404.5q0 -90 -14 -178.5t-44.5 -177t-76 -166.5t-112 -145.5t-148.5 -116t-189.5 -76t-230.5 -27.5h-523zM416 251h208q108 0 196.5 39t145.5 102.5t95.5 147.5
t55 169t16.5 173q0 308 -325 308h-227z" />
    <glyph glyph-name="dcaron" unicode="&#x10f;" horiz-adv-x="1531" 
d="M943 888l112 648h288l-272 -1536h-272l13 121q-54 -70 -141.5 -107.5t-187.5 -37.5q-188 0 -307.5 117t-119.5 318q0 121 42 235.5t116 203.5t184 143.5t236 54.5q110 0 192.5 -42.5t116.5 -117.5zM1497 1536h296l-216 -654h-206zM553 215q78 0 146.5 35.5t113 91
t70 122.5t25.5 131q0 98 -59 156.5t-154 58.5q-77 0 -144.5 -34t-112.5 -88.5t-70.5 -122t-25.5 -136.5q0 -101 57.5 -157.5t153.5 -56.5z" />
    <glyph glyph-name="Dcroat" unicode="&#x110;" horiz-adv-x="1465" 
d="M847 1439q284 0 432 -147.5t148 -404.5q0 -90 -14 -178.5t-44.5 -177t-76 -166.5t-112 -145.5t-148.5 -116t-189.5 -76t-230.5 -27.5h-523l112 632h-161l30 176h162l111 631h504zM624 251q108 0 196.5 39t145.5 102.5t95.5 147.5t55 169t16.5 173q0 308 -325 308h-227
l-67 -382h246l-30 -176h-247l-67 -381h208z" />
    <glyph glyph-name="dcroat" unicode="&#x111;" horiz-adv-x="1286" 
d="M1439 1360l-30 -176h-147l-210 -1184h-257l14 128q-55 -73 -144 -112.5t-190 -39.5q-186 0 -304 116.5t-118 315.5q0 120 42 234t115 202.5t182.5 142.5t234.5 54q110 0 193.5 -45t117.5 -123l53 311h-272l30 176h273l30 176h272l-31 -176h146zM559 203q100 0 179.5 57
t119 140t39.5 171q0 113 -63.5 178.5t-167.5 65.5q-100 0 -179 -55t-119 -138.5t-40 -174.5q0 -114 63.5 -179t167.5 -65z" />
    <glyph glyph-name="Emacron" unicode="&#x112;" horiz-adv-x="1119" 
d="M1149 1744l-30 -170h-664l30 170h664zM1125 1190h-540l-61 -347h479l-43 -247h-480l-61 -345h540l-44 -251h-826l254 1439h826z" />
    <glyph glyph-name="emacron" unicode="&#x113;" horiz-adv-x="1158" 
d="M1086 1364l-30 -170h-664l29 170h665zM670 1042q201 0 319.5 -101.5t118.5 -298.5q0 -58 -12 -124l-13 -58h-767q-2 -40 -2 -59q0 -101 59 -153.5t155 -52.5q83 0 154.5 41t116.5 112l243 -55q-76 -150 -213 -231.5t-302 -81.5q-222 0 -347.5 112t-125.5 314
q0 99 25.5 192t77.5 173.5t124.5 141t172.5 95t216 34.5zM667 852q-110 0 -187.5 -56.5t-119.5 -153.5h493q2 24 2 33q0 88 -51.5 132.5t-136.5 44.5z" />
    <glyph glyph-name="Edotaccent" unicode="&#x116;" horiz-adv-x="1119" 
d="M788 1574q-69 0 -109 48.5t-29 117.5q12 68 69.5 116t126.5 48q67 0 107 -48t28 -116q-11 -68 -68.5 -117t-124.5 -49zM1125 1190h-540l-61 -347h479l-43 -247h-480l-61 -345h540l-44 -251h-826l254 1439h826z" />
    <glyph glyph-name="edotaccent" unicode="&#x117;" horiz-adv-x="1158" 
d="M735 1193q-69 0 -112.5 48.5t-37.5 117.5q7 68 62 116t124 48q67 0 110 -48t36 -116q-7 -69 -61 -117.5t-121 -48.5zM670 1042q201 0 319.5 -101.5t118.5 -298.5q0 -58 -12 -124l-13 -58h-767q-2 -40 -2 -59q0 -101 59 -153.5t155 -52.5q83 0 154.5 41t116.5 112l243 -55
q-76 -150 -213 -231.5t-302 -81.5q-222 0 -347.5 112t-125.5 314q0 99 25.5 192t77.5 173.5t124.5 141t172.5 95t216 34.5zM667 852q-110 0 -187.5 -56.5t-119.5 -153.5h493q2 24 2 33q0 88 -51.5 132.5t-136.5 44.5z" />
    <glyph glyph-name="Eogonek" unicode="&#x118;" horiz-adv-x="1119" 
d="M1125 1190h-540l-61 -347h479l-43 -247h-480l-61 -345h540l-44 -251q-199 -153 -210 -220q-4 -18 9.5 -27t43.5 -9q67 0 119 40l-33 -182q-67 -27 -147 -27q-87 0 -135 28t-39 81q18 113 273 316h-707l254 1439h826z" />
    <glyph glyph-name="eogonek" unicode="&#x119;" horiz-adv-x="1158" 
d="M670 1042q201 0 319.5 -101.5t118.5 -298.5q0 -58 -12 -124l-13 -58h-767q-2 -40 -2 -59q0 -101 59 -153.5t155 -52.5q83 0 154.5 41t116.5 112l243 -55q-77 -151 -216 -234q-99 -88 -107 -134q-4 -18 9.5 -27t43.5 -9q67 0 119 40l-33 -182q-67 -27 -147 -27
q-87 0 -135 28t-39 81q10 63 101 161q-51 -10 -111 -10q-222 0 -347.5 112t-125.5 314q0 99 25.5 192t77.5 173.5t124.5 141t172.5 95t216 34.5zM667 852q-110 0 -187.5 -56.5t-119.5 -153.5h493q2 24 2 33q0 88 -51.5 132.5t-136.5 44.5z" />
    <glyph glyph-name="Ecaron" unicode="&#x11a;" horiz-adv-x="1119" 
d="M874 1574h-174l-175 299h178l102 -196l170 196h178zM1125 1190h-540l-61 -347h479l-43 -247h-480l-61 -345h540l-44 -251h-826l254 1439h826z" />
    <glyph glyph-name="ecaron" unicode="&#x11b;" horiz-adv-x="1158" 
d="M811 1203h-174l-175 299h178l102 -196l170 196h178zM670 1042q201 0 319.5 -101.5t118.5 -298.5q0 -58 -12 -124l-13 -58h-767q-2 -40 -2 -59q0 -101 59 -153.5t155 -52.5q83 0 154.5 41t116.5 112l243 -55q-76 -150 -213 -231.5t-302 -81.5q-222 0 -347.5 112
t-125.5 314q0 99 25.5 192t77.5 173.5t124.5 141t172.5 95t216 34.5zM667 852q-110 0 -187.5 -56.5t-119.5 -153.5h493q2 24 2 33q0 88 -51.5 132.5t-136.5 44.5z" />
    <glyph glyph-name="Gbreve" unicode="&#x11e;" horiz-adv-x="1616" 
d="M996 1574q-83 0 -145.5 16t-106 49.5t-59.5 91.5t-1 138h166q-15 -81 30.5 -121t139.5 -40q199 0 228 161h166q-54 -295 -418 -295zM724 -20q-280 0 -449 160.5t-169 433.5q0 135 37.5 264t111 241t175.5 197t239.5 134t293.5 49q212 0 365.5 -91.5t219.5 -254.5
l-262 -116q-38 110 -124 163t-207 53q-105 0 -197.5 -36.5t-159.5 -99t-116 -145t-73 -175t-24 -187.5q0 -165 96 -253.5t275 -88.5q169 0 296 83.5t184 244.5l-406 -9l42 228h674l-138 -775h-222l42 203q-183 -223 -504 -223z" />
    <glyph glyph-name="gbreve" unicode="&#x11f;" horiz-adv-x="1256" 
d="M721 1149q-165 0 -248.5 91t-53.5 260h166q-17 -95 27 -155.5t133 -60.5q91 0 156 60t82 156h166q-30 -170 -145.5 -260.5t-282.5 -90.5zM941 1023h260l-169 -959q-50 -282 -208.5 -414t-404.5 -132q-413 0 -481 325l234 79q25 -101 81.5 -146t156.5 -45q143 0 233 88
t116 244l18 105q-55 -62 -140.5 -98t-181.5 -36q-174 0 -287 114.5t-113 302.5q0 158 73 294t198.5 216t273.5 80q112 0 194.5 -47.5t114.5 -124.5zM540 256q132 0 233 103t101 241q0 98 -61 162t-160 64q-137 0 -236 -106t-99 -241q0 -99 61.5 -161t160.5 -62z" />
    <glyph glyph-name="Gdotaccent" unicode="&#x120;" horiz-adv-x="1616" 
d="M997 1574q-69 0 -109 48.5t-29 117.5q12 68 69.5 116t126.5 48q67 0 107 -48t28 -116q-11 -68 -68.5 -117t-124.5 -49zM724 -20q-280 0 -449 160.5t-169 433.5q0 135 37.5 264t111 241t175.5 197t239.5 134t293.5 49q212 0 365.5 -91.5t219.5 -254.5l-262 -116
q-38 110 -124 163t-207 53q-105 0 -197.5 -36.5t-159.5 -99t-116 -145t-73 -175t-24 -187.5q0 -165 96 -253.5t275 -88.5q169 0 296 83.5t184 244.5l-406 -9l42 228h674l-138 -775h-222l42 203q-183 -223 -504 -223z" />
    <glyph glyph-name="gdotaccent" unicode="&#x121;" horiz-adv-x="1256" 
d="M742 1191q-69 0 -112.5 48.5t-37.5 117.5q7 68 62 116t124 48q67 0 110 -48t36 -116q-7 -69 -61 -117.5t-121 -48.5zM941 1023h260l-169 -959q-50 -282 -208.5 -414t-404.5 -132q-413 0 -481 325l234 79q25 -101 81.5 -146t156.5 -45q143 0 233 88t116 244l18 105
q-55 -62 -140.5 -98t-181.5 -36q-174 0 -287 114.5t-113 302.5q0 158 73 294t198.5 216t273.5 80q112 0 194.5 -47.5t114.5 -124.5zM540 256q132 0 233 103t101 241q0 98 -61 162t-160 64q-137 0 -236 -106t-99 -241q0 -99 61.5 -161t160.5 -62z" />
    <glyph glyph-name="Gcommaaccent" unicode="&#x122;" horiz-adv-x="1616" 
d="M724 -20q-280 0 -449 160.5t-169 433.5q0 135 37.5 264t111 241t175.5 197t239.5 134t293.5 49q212 0 365.5 -91.5t219.5 -254.5l-262 -116q-38 110 -124 163t-207 53q-105 0 -197.5 -36.5t-159.5 -99t-116 -145t-73 -175t-24 -187.5q0 -165 96 -253.5t275 -88.5
q169 0 296 83.5t184 244.5l-406 -9l42 228h674l-138 -775h-222l42 203q-183 -223 -504 -223zM463 -574l-130 66l234 373h251z" />
    <glyph glyph-name="gcommaaccent" unicode="&#x123;" horiz-adv-x="1256" 
d="M1161 1497l-298 -327h-300l388 327h210zM941 1023h260l-169 -959q-50 -282 -208.5 -414t-404.5 -132q-413 0 -481 325l234 79q25 -101 81.5 -146t156.5 -45q143 0 233 88t116 244l18 105q-55 -62 -140.5 -98t-181.5 -36q-174 0 -287 114.5t-113 302.5q0 158 73 294
t198.5 216t273.5 80q112 0 194.5 -47.5t114.5 -124.5zM540 256q132 0 233 103t101 241q0 98 -61 162t-160 64q-137 0 -236 -106t-99 -241q0 -99 61.5 -161t160.5 -62z" />
    <glyph glyph-name="Hbar" unicode="&#x126;" horiz-adv-x="1552" 
d="M1631 1192l-20 -117h-141l-190 -1075h-283l106 598h-625l-106 -598h-283l190 1075h-139l20 117h139l44 247h285l-44 -247h625l44 247h282l-44 -247h140zM1147 845l41 230h-625l-41 -230h625z" />
    <glyph glyph-name="hbar" unicode="&#x127;" horiz-adv-x="1193" 
d="M814 1041q137 0 215 -73t78 -202q0 -26 -8 -88l-121 -678h-271l115 652q5 30 5 50q0 121 -130 121q-86 0 -161 -53t-107 -165l-107 -605h-270l210 1185h-137l30 176h138l31 175h270l-31 -175h282l-30 -176h-283l-53 -299q137 155 335 155z" />
    <glyph glyph-name="Itilde" unicode="&#x128;" horiz-adv-x="643" 
d="M657 1569q-123 0 -178 117q-21 46 -62 46q-40 0 -68.5 -41t-40.5 -107h-150q24 131 100 213t180 82q122 0 177 -117q22 -46 64 -46q40 0 67.5 39t39.5 108h151q-23 -129 -98 -211.5t-182 -82.5zM89 0l254 1439h283l-254 -1439h-283z" />
    <glyph glyph-name="itilde" unicode="&#x129;" horiz-adv-x="577" 
d="M537 1162q-111 0 -157 102q-18 39 -51 39q-34 0 -58 -35t-34 -93h-136q20 116 87 189t160 73q57 0 96.5 -28t60.5 -75q16 -38 53 -38q66 0 89 128h138q-20 -115 -86.5 -188.5t-161.5 -73.5zM53 0l182 1028h290l-183 -1028h-289z" />
    <glyph glyph-name="Imacron" unicode="&#x12a;" horiz-adv-x="643" 
d="M175 1574l30 170h664l-30 -170h-664zM89 0l254 1439h283l-254 -1439h-283z" />
    <glyph glyph-name="imacron" unicode="&#x12b;" horiz-adv-x="577" 
d="M80 1197l29 170h665l-30 -170h-664zM53 0l182 1028h290l-183 -1028h-289z" />
    <glyph glyph-name="Iogonek" unicode="&#x12e;" horiz-adv-x="643" 
d="M372 0q-199 -153 -210 -220q-4 -18 9.5 -27t43.5 -9q67 0 119 40l-33 -182q-67 -27 -147 -27q-87 0 -135 28t-39 81q18 113 273 316h-164l254 1439h283z" />
    <glyph glyph-name="iogonek" unicode="&#x12f;" horiz-adv-x="577" 
d="M459 1526q67 0 110 -48t36 -116q-7 -69 -61 -117.5t-121 -48.5q-69 0 -112.5 48.5t-37.5 117.5q7 68 62 116t124 48zM53 0l182 1028h290l-183 -1028q-199 -153 -210 -220q-4 -18 9.5 -27t43.5 -9q67 0 119 40l-33 -182q-67 -27 -147 -27q-87 0 -135 28t-39 81
q18 113 273 316h-170z" />
    <glyph glyph-name="Idotaccent" unicode="&#x130;" horiz-adv-x="643" 
d="M508 1574q-69 0 -109 48.5t-29 117.5q12 68 69.5 116t126.5 48q67 0 107 -48t28 -116q-11 -68 -68.5 -117t-124.5 -49zM89 0l254 1439h283l-254 -1439h-283z" />
    <glyph glyph-name="dotlessi" unicode="&#x131;" horiz-adv-x="577" 
d="M53 0l182 1028h290l-183 -1028h-289z" />
    <glyph glyph-name="Kcommaaccent" unicode="&#x136;" horiz-adv-x="1407" 
d="M843 747l-2 -13l435 -734h-334l-357 630h-102l-111 -630h-283l254 1439h283l-99 -561h113l546 561h353zM214 -508l234 373h251l-355 -439z" />
    <glyph glyph-name="kcommaaccent" unicode="&#x137;" horiz-adv-x="1139" 
d="M1202 1023l-495 -479l347 -544h-320l-271 445h-57l-79 -445h-275l272 1536h275l-159 -900h65l381 387h316zM95 -508l234 373h251l-355 -439z" />
    <glyph glyph-name="Lacute" unicode="&#x139;" horiz-adv-x="956" 
d="M869 1841l-273 -267h-178l328 368zM419 251h456l-44 -251h-742l254 1439h283z" />
    <glyph glyph-name="lacute" unicode="&#x13a;" horiz-adv-x="561" 
d="M396 1677l328 368l124 -100l-274 -268h-178zM52 0l272 1536h275l-272 -1536h-275z" />
    <glyph glyph-name="Lcommaaccent" unicode="&#x13b;" horiz-adv-x="956" 
d="M419 251h456l-44 -251h-742l254 1439h283zM78 -508l234 373h251l-355 -439z" />
    <glyph glyph-name="lcommaaccent" unicode="&#x13c;" horiz-adv-x="561" 
d="M52 0l272 1536h275l-272 -1536h-275zM-65 -574l-130 66l234 373h251z" />
    <glyph glyph-name="Lcaron" unicode="&#x13d;" horiz-adv-x="1106" 
d="M917 1446h300l-331 -654h-210zM626 1439l-207 -1188h456l-44 -251h-742l254 1439h283z" />
    <glyph glyph-name="lcaron" unicode="&#x13e;" horiz-adv-x="798" 
d="M52 0l272 1536h291l-272 -1536h-291zM641 882l126 654h296l-216 -654h-206z" />
    <glyph glyph-name="Lslash" unicode="&#x141;" horiz-adv-x="956" 
d="M419 251h456l-44 -251h-742l92 522l-196 -128l33 181l195 128l130 736h283l-91 -524l200 132l-32 -183l-200 -131z" />
    <glyph glyph-name="lslash" unicode="&#x142;" horiz-adv-x="561" 
d="M698 1099l-32 -183l-200 -131l-139 -785h-275l103 581l-207 -135l33 181l206 136l137 773h275l-101 -568z" />
    <glyph glyph-name="Nacute" unicode="&#x143;" horiz-adv-x="1623" 
d="M1360 1841l-273 -267h-178l328 368zM1324 1439h282l-254 -1439h-320l-475 1054l-187 -1054h-281l254 1439h318l479 -1048z" />
    <glyph glyph-name="nacute" unicode="&#x144;" horiz-adv-x="1194" 
d="M1070 1432l-274 -268h-178l328 368zM815 1041q137 0 215 -72.5t78 -202.5q0 -26 -8 -88l-122 -678h-271l116 652q5 30 5 48q0 123 -142 123q-81 0 -153 -54t-103 -163l-107 -606h-270l181 1023h270l-24 -137q137 155 335 155z" />
    <glyph glyph-name="Ncommaaccent" unicode="&#x145;" horiz-adv-x="1623" 
d="M1324 1439h282l-254 -1439h-320l-475 1054l-187 -1054h-281l254 1439h318l479 -1048zM338 -508l234 373h251l-355 -439z" />
    <glyph glyph-name="ncommaaccent" unicode="&#x146;" horiz-adv-x="1194" 
d="M815 1041q137 0 215 -72.5t78 -202.5q0 -26 -8 -88l-122 -678h-271l116 652q5 30 5 48q0 123 -142 123q-81 0 -153 -54t-103 -163l-107 -606h-270l181 1023h270l-24 -137q137 155 335 155zM119 -508l234 373h251l-355 -439z" />
    <glyph glyph-name="Ncaron" unicode="&#x147;" horiz-adv-x="1623" 
d="M1086 1574h-174l-175 299h178l102 -196l170 196h178zM1324 1439h282l-254 -1439h-320l-475 1054l-187 -1054h-281l254 1439h318l479 -1048z" />
    <glyph glyph-name="ncaron" unicode="&#x148;" horiz-adv-x="1194" 
d="M801 1201h-174l-175 299h178l102 -196l170 196h178zM815 1041q137 0 215 -72.5t78 -202.5q0 -26 -8 -88l-122 -678h-271l116 652q5 30 5 48q0 123 -142 123q-81 0 -153 -54t-103 -163l-107 -606h-270l181 1023h270l-24 -137q137 155 335 155z" />
    <glyph glyph-name="Eng" unicode="&#x14a;" horiz-adv-x="1660" 
d="M1644 1445l-217 -1227h1l-39 -218q-26 -147 -108 -253.5t-206 -161t-277 -54.5l37 223q99 0 161.5 65.5t46.5 180.5l-472 1042l-184 -1042h-298l255 1445h343l476 -1034l182 1034h299z" />
    <glyph glyph-name="eng" unicode="&#x14b;" horiz-adv-x="1216" 
d="M831 1048q169 0 246 -98t46 -272l-147 -830q-28 -156 -125.5 -244t-249.5 -88h-182l34 203h85q55 0 97 33.5t53 99.5l137 774q35 182 -125 182q-96 0 -166.5 -57t-88.5 -160h-1l-105 -591h-286l182 1028h287l-23 -131q140 151 332 151z" />
    <glyph glyph-name="Omacron" unicode="&#x14c;" horiz-adv-x="1631" 
d="M672 1574l30 170h664l-30 -170h-664zM740 -20q-286 0 -458.5 162t-172.5 438q0 134 37.5 263t111.5 240t176 195.5t239 132.5t292 48q285 0 458 -161.5t173 -436.5q0 -134 -37.5 -263.5t-112 -240.5t-176.5 -195.5t-239 -133t-291 -48.5zM751 241q126 0 234.5 52.5
t180 138t111.5 193.5t40 220q0 166 -99 260.5t-264 94.5q-125 0 -233.5 -52.5t-180 -137.5t-112.5 -193.5t-41 -220.5q0 -167 99.5 -261t264.5 -94z" />
    <glyph glyph-name="omacron" unicode="&#x14d;" horiz-adv-x="1230" 
d="M401 1190l29 170h665l-30 -170h-664zM537 -20q-220 0 -352 116t-132 319q0 124 43.5 237t123 199.5t201.5 138t269 51.5q222 0 353.5 -116t131.5 -318q0 -124 -44 -237t-124 -200t-202 -138.5t-268 -51.5zM544 197q83 0 153 36t114.5 94t69.5 128t25 140q0 106 -61.5 169
t-167.5 63q-65 0 -123 -24t-99.5 -64.5t-71.5 -92t-45 -107t-15 -110.5q0 -108 59 -170t162 -62z" />
    <glyph glyph-name="Ohungarumlaut" unicode="&#x150;" horiz-adv-x="1631" 
d="M726 1574l328 368l123 -101l-273 -267h-178zM1104 1574l327 368l123 -101l-273 -267h-177zM740 -20q-286 0 -458.5 162t-172.5 438q0 134 37.5 263t111.5 240t176 195.5t239 132.5t292 48q285 0 458 -161.5t173 -436.5q0 -134 -37.5 -263.5t-112 -240.5t-176.5 -195.5
t-239 -133t-291 -48.5zM751 241q126 0 234.5 52.5t180 138t111.5 193.5t40 220q0 166 -99 260.5t-264 94.5q-125 0 -233.5 -52.5t-180 -137.5t-112.5 -193.5t-41 -220.5q0 -167 99.5 -261t264.5 -94z" />
    <glyph glyph-name="ohungarumlaut" unicode="&#x151;" horiz-adv-x="1230" 
d="M448 1162l328 368l124 -100l-274 -268h-178zM825 1162l328 368l124 -100l-274 -268h-178zM537 -20q-220 0 -352 116t-132 319q0 124 43.5 237t123 199.5t201.5 138t269 51.5q222 0 353.5 -116t131.5 -318q0 -124 -44 -237t-124 -200t-202 -138.5t-268 -51.5zM544 197
q83 0 153 36t114.5 94t69.5 128t25 140q0 106 -61.5 169t-167.5 63q-65 0 -123 -24t-99.5 -64.5t-71.5 -92t-45 -107t-15 -110.5q0 -108 59 -170t162 -62z" />
    <glyph glyph-name="OE" unicode="&#x152;" horiz-adv-x="1988" 
d="M715 0q-313 0 -462 136t-149 388q0 96 13.5 187t44.5 183t77.5 171.5t116 148.5t157 118.5t204 77.5t252.5 28h1068l-47 -265h-571l-56 -322h485l-47 -265h-485l-56 -321h571l-47 -265h-1069zM778 265h182l160 908h-183q-121 0 -214 -37t-149.5 -96t-92.5 -141
t-49.5 -163.5t-13.5 -172.5q0 -149 85.5 -223.5t274.5 -74.5z" />
    <glyph glyph-name="oe" unicode="&#x153;" horiz-adv-x="2006" 
d="M1518 1042q201 0 319.5 -101.5t118.5 -298.5q0 -58 -12 -124l-13 -58h-767q-2 -40 -2 -59q0 -101 59 -153.5t155 -52.5q83 0 154.5 41t116.5 112l243 -55q-76 -150 -213 -231.5t-302 -81.5q-273 0 -395 164q-175 -164 -443 -164q-220 0 -352 116t-132 319q0 124 43.5 237
t123 199.5t201.5 138t269 51.5q132 0 234.5 -42.5t164.5 -122.5q169 166 429 166zM1515 852q-110 0 -187.5 -56.5t-119.5 -153.5h493q2 24 2 33q0 88 -51.5 132.5t-136.5 44.5zM544 197q83 0 153 36t114.5 94t69.5 128t25 140q0 106 -61.5 169t-167.5 63q-65 0 -123 -24
t-99.5 -64.5t-71.5 -92t-45 -107t-15 -110.5q0 -108 59 -170t162 -62z" />
    <glyph glyph-name="Racute" unicode="&#x154;" horiz-adv-x="1304" 
d="M1194 1841l-273 -267h-178l328 368zM1249 1090q0 -77 -21.5 -148t-65 -133t-116.5 -105.5t-168 -59.5l305 -644h-313l-276 636h-111l-111 -636h-283l254 1439h507q200 0 299.5 -95t99.5 -254zM583 1203l-68 -387h182q79 0 137.5 24t88 62t43 75t13.5 73q0 153 -196 153
h-200z" />
    <glyph glyph-name="racute" unicode="&#x155;" horiz-adv-x="744" 
d="M832 1432l-274 -268h-178l328 368zM466 856q53 73 151 124.5t203 52.5l-48 -262q-309 0 -361 -294l-84 -477h-274l181 1023h261z" />
    <glyph glyph-name="Rcommaaccent" unicode="&#x156;" horiz-adv-x="1304" 
d="M1249 1090q0 -77 -21.5 -148t-65 -133t-116.5 -105.5t-168 -59.5l305 -644h-313l-276 636h-111l-111 -636h-283l254 1439h507q200 0 299.5 -95t99.5 -254zM583 1203l-68 -387h182q79 0 137.5 24t88 62t43 75t13.5 73q0 153 -196 153h-200zM171 -508l234 373h251
l-355 -439z" />
    <glyph glyph-name="rcommaaccent" unicode="&#x157;" horiz-adv-x="744" 
d="M466 856q53 73 151 124.5t203 52.5l-48 -262q-309 0 -361 -294l-84 -477h-274l181 1023h261zM-195 -508l234 373h251l-355 -439z" />
    <glyph glyph-name="Rcaron" unicode="&#x158;" horiz-adv-x="1304" 
d="M920 1574h-174l-175 299h178l102 -196l170 196h178zM1249 1090q0 -77 -21.5 -148t-65 -133t-116.5 -105.5t-168 -59.5l305 -644h-313l-276 636h-111l-111 -636h-283l254 1439h507q200 0 299.5 -95t99.5 -254zM583 1203l-68 -387h182q79 0 137.5 24t88 62t43 75t13.5 73
q0 153 -196 153h-200z" />
    <glyph glyph-name="rcaron" unicode="&#x159;" horiz-adv-x="744" 
d="M563 1201h-174l-175 299h178l102 -196l170 196h178zM466 856q53 73 151 124.5t203 52.5l-48 -262q-309 0 -361 -294l-84 -477h-274l181 1023h261z" />
    <glyph glyph-name="Sacute" unicode="&#x15a;" horiz-adv-x="1274" 
d="M737 1574l328 368l123 -101l-273 -267h-178zM600 -20q-159 0 -283.5 49.5t-196.5 146t-72 226.5l298 49q5 -112 76 -175.5t195 -63.5q117 0 192 57.5t75 143.5q0 39 -15.5 70.5t-39.5 53t-62 40t-74.5 31t-85.5 27.5q-3 1 -5 1.5t-4.5 1t-4.5 1.5q-58 18 -96 32t-88 37.5
t-82 50.5t-62 64t-44.5 86t-14.5 109q0 129 71.5 230.5t194.5 156t276 54.5q102 0 192.5 -22.5t166 -67t121.5 -120t49 -173.5l-278 -50q-2 104 -68.5 153t-171.5 49q-114 0 -191.5 -53.5t-77.5 -132.5q0 -26 8 -48t18 -37.5t33 -31.5t39 -25t51 -21.5t53 -18t61 -18.5
q51 -15 86.5 -27t83.5 -32t81 -40.5t68 -51.5t56 -66.5t35 -83t14 -102.5q0 -141 -76.5 -246t-206.5 -159t-294 -54z" />
    <glyph glyph-name="sacute" unicode="&#x15b;" horiz-adv-x="964" 
d="M510 1164l328 368l124 -100l-274 -268h-178zM409 -20q-184 0 -287 77t-105 216l250 47q-2 -75 41.5 -115.5t117.5 -40.5q70 0 119 37t49 107q0 25 -9.5 44t-22.5 31t-43 24.5t-52 19t-69 19.5q-63 17 -105.5 34t-85 46t-64 74.5t-21.5 107.5q0 158 120 245t302 87
q161 0 267 -69.5t110 -208.5l-226 -33q1 69 -41 99.5t-105 30.5q-74 0 -122.5 -35.5t-48.5 -95.5q0 -13 3 -24t10 -20t13.5 -16t19.5 -13.5t22.5 -11t27.5 -9.5t29 -8t33 -8.5t33 -8.5q66 -17 112.5 -36t90.5 -50.5t66.5 -80t22.5 -112.5q0 -112 -61 -192.5t-161.5 -119
t-229.5 -38.5z" />
    <glyph glyph-name="Scedilla" unicode="&#x15e;" horiz-adv-x="1274" 
d="M753 842q51 -15 86.5 -27t83.5 -32t81 -40.5t68 -51.5t56 -66.5t35 -83t14 -102.5q0 -210 -161.5 -334t-411.5 -125l-76 -103q30 6 46 6q84 0 130 -54t31 -138q-17 -94 -92 -158.5t-169 -64.5q-85 0 -142.5 43t-70.5 108l135 44q9 -29 36 -46.5t59 -17.5q38 0 70.5 25.5
t39.5 66.5q8 43 -15.5 67t-64.5 24q-46 0 -80 -31l-94 62l127 176q-194 28 -310.5 137t-115.5 276l298 49q5 -112 76 -175.5t195 -63.5q117 0 192 57.5t75 143.5q0 39 -15.5 70.5t-39.5 53t-62 40t-74.5 31t-85.5 27.5q-3 1 -5 1.5t-4.5 1t-4.5 1.5q-58 18 -96 32t-88 37.5
t-82 50.5t-62 64t-44.5 86t-14.5 109q0 129 71.5 230.5t194.5 156t276 54.5q102 0 192.5 -22.5t166 -67t121.5 -120t49 -173.5l-278 -50q-2 104 -68.5 153t-171.5 49q-114 0 -191.5 -53.5t-77.5 -132.5q0 -26 8 -48t18 -37.5t33 -31.5t39 -25t51 -21.5t53 -18t61 -18.5z" />
    <glyph glyph-name="scedilla" unicode="&#x15f;" horiz-adv-x="964" 
d="M569 609q66 -17 112.5 -36t90.5 -50.5t66.5 -80t22.5 -112.5q0 -158 -113.5 -248.5t-296.5 -100.5l-76 -103q30 6 46 6q84 0 130 -54t31 -138q-17 -94 -92 -158.5t-169 -64.5q-85 0 -142.5 43t-70.5 108l135 44q9 -29 36 -46.5t59 -17.5q38 0 70.5 25.5t39.5 66.5
q8 43 -15.5 67t-64.5 24q-46 0 -80 -31l-94 62l124 172q-142 18 -220.5 92.5t-80.5 194.5l250 47q-2 -75 41.5 -115.5t117.5 -40.5q70 0 119 37t49 107q0 25 -9.5 44t-22.5 31t-43 24.5t-52 19t-69 19.5q-63 17 -105.5 34t-85 46t-64 74.5t-21.5 107.5q0 158 120 245t302 87
q161 0 267 -69.5t110 -208.5l-226 -33q1 69 -41 99.5t-105 30.5q-74 0 -122.5 -35.5t-48.5 -95.5q0 -13 3 -24t10 -20t13.5 -16t19.5 -13.5t22.5 -11t27.5 -9.5t29 -8t33 -8.5t33 -8.5z" />
    <glyph glyph-name="Scaron" unicode="&#x160;" horiz-adv-x="1274" 
d="M740 1574l-175 299h178l102 -196l170 196h178l-279 -299h-174zM600 -20q-159 0 -283.5 49.5t-196.5 146t-72 226.5l298 49q5 -112 76 -175.5t195 -63.5q117 0 192 57.5t75 143.5q0 39 -15.5 70.5t-39.5 53t-62 40t-74.5 31t-85.5 27.5q-3 1 -5 1.5t-4.5 1t-4.5 1.5
q-58 18 -96 32t-88 37.5t-82 50.5t-62 64t-44.5 86t-14.5 109q0 129 71.5 230.5t194.5 156t276 54.5q102 0 192.5 -22.5t166 -67t121.5 -120t49 -173.5l-278 -50q-2 104 -68.5 153t-171.5 49q-114 0 -191.5 -53.5t-77.5 -132.5q0 -26 8 -48t18 -37.5t33 -31.5t39 -25
t51 -21.5t53 -18t61 -18.5q51 -15 86.5 -27t83.5 -32t81 -40.5t68 -51.5t56 -66.5t35 -83t14 -102.5q0 -141 -76.5 -246t-206.5 -159t-294 -54z" />
    <glyph glyph-name="scaron" unicode="&#x161;" horiz-adv-x="964" 
d="M519 1201l-175 299h178l102 -196l170 196h178l-279 -299h-174zM409 -20q-184 0 -287 77t-105 216l250 47q-2 -75 41.5 -115.5t117.5 -40.5q70 0 119 37t49 107q0 25 -9.5 44t-22.5 31t-43 24.5t-52 19t-69 19.5q-63 17 -105.5 34t-85 46t-64 74.5t-21.5 107.5
q0 158 120 245t302 87q161 0 267 -69.5t110 -208.5l-226 -33q1 69 -41 99.5t-105 30.5q-74 0 -122.5 -35.5t-48.5 -95.5q0 -13 3 -24t10 -20t13.5 -16t19.5 -13.5t22.5 -11t27.5 -9.5t29 -8t33 -8.5t33 -8.5q66 -17 112.5 -36t90.5 -50.5t66.5 -80t22.5 -112.5
q0 -112 -61 -192.5t-161.5 -119t-229.5 -38.5z" />
    <glyph glyph-name="uni0162" unicode="&#x162;" horiz-adv-x="1039" 
d="M570 0h-70l-91 -123q30 6 46 6q84 0 130 -54t31 -138q-17 -94 -92 -158.5t-169 -64.5q-85 0 -142.5 43t-70.5 108l135 44q9 -29 36 -46.5t59 -17.5q38 0 70.5 25.5t39.5 66.5q8 43 -15.5 67t-64.5 24q-46 0 -80 -31l-94 62l135 187h-73l210 1190h-348l44 249h974
l-44 -249h-346z" />
    <glyph glyph-name="uni0163" unicode="&#x163;" horiz-adv-x="766" 
d="M537 813l-84 -479q-4 -17 -4 -43q0 -45 23.5 -64.5t71.5 -19.5h101l-37 -207h-62l-91 -123q30 6 46 6q84 0 130 -54t31 -138q-17 -94 -92 -158.5t-169 -64.5q-85 0 -142.5 43t-70.5 108l135 44q9 -29 36 -46.5t59 -17.5q38 0 70.5 25.5t39.5 66.5q8 43 -15.5 67t-64.5 24
q-46 0 -80 -31l-94 62l136 188q-115 7 -178 71.5t-63 175.5q0 38 8 74l88 491h-204l38 210h57q77 0 131.5 44t69.5 127l28 159h248l-58 -330h214l-37 -210h-215z" />
    <glyph glyph-name="Tcaron" unicode="&#x164;" horiz-adv-x="1039" 
d="M795 1574h-174l-175 299h178l102 -196l170 196h178zM1170 1439l-44 -249h-346l-210 -1190h-280l210 1190h-348l44 249h974z" />
    <glyph glyph-name="tcaron" unicode="&#x165;" horiz-adv-x="785" 
d="M765 1200l126 653h296l-216 -653h-206zM445 0q-129 0 -200.5 67t-71.5 187q0 44 7 77l85 476h-202l39 221h55q80 0 136 45.5t72 131.5l26 155h262l-57 -332h212l-39 -221h-213l-83 -465q-3 -24 -3 -42q0 -44 22.5 -62.5t70.5 -18.5h101l-39 -219h-180z" />
    <glyph glyph-name="Tbar" unicode="&#x166;" horiz-adv-x="1039" 
d="M1126 1190h-346l-68 -382h205l-30 -176h-206l-111 -632h-280l111 632h-204l30 176h205l68 382h-348l44 249h974z" />
    <glyph glyph-name="tbar" unicode="&#x167;" horiz-adv-x="766" 
d="M752 813h-215l-37 -213h154l-25 -176h-160l-16 -90q-4 -17 -4 -43q0 -45 23.5 -64.5t71.5 -19.5h101l-37 -207h-173q-126 0 -196 65.5t-70 182.5q0 38 8 74l18 102h-149l25 176h156l38 213h-204l38 210h57q77 0 131.5 44t69.5 127l28 159h248l-58 -330h214z" />
    <glyph glyph-name="Utilde" unicode="&#x168;" horiz-adv-x="1420" 
d="M1045 1569q-123 0 -178 117q-21 46 -62 46q-40 0 -68.5 -41t-40.5 -107h-150q24 131 100 213t180 82q122 0 177 -117q22 -46 64 -46q40 0 67.5 39t39.5 108h151q-23 -129 -98 -211.5t-182 -82.5zM632 -20q-224 0 -359.5 107t-135.5 309q0 53 11 114l165 929h282
l-159 -909q-10 -57 -10 -92q0 -108 57.5 -157.5t156.5 -49.5q130 0 225.5 79.5t124.5 237.5l158 891h283l-167 -949q-23 -130 -82.5 -229.5t-144.5 -160t-187 -90.5t-218 -30z" />
    <glyph glyph-name="utilde" unicode="&#x169;" horiz-adv-x="1194" 
d="M638 1298q-34 0 -58 -35t-34 -93h-136q20 116 87 189t160 73q57 0 96.5 -28t60.5 -75q16 -38 53 -38q66 0 89 128h138q-20 -115 -86.5 -188.5t-161.5 -73.5q-111 0 -157 102q-18 39 -51 39zM869 1023h271l-182 -1023h-255l18 147q-65 -78 -152.5 -122.5t-188.5 -44.5
q-140 0 -218 73t-78 204q0 36 8 86l122 680h270l-110 -626q-7 -39 -7 -58q0 -69 36.5 -100.5t97.5 -31.5q100 0 172 60.5t91 167.5h2z" />
    <glyph glyph-name="Umacron" unicode="&#x16a;" horiz-adv-x="1420" 
d="M563 1574l30 170h664l-30 -170h-664zM632 -20q-224 0 -359.5 107t-135.5 309q0 53 11 114l165 929h282l-159 -909q-10 -57 -10 -92q0 -108 57.5 -157.5t156.5 -49.5q130 0 225.5 79.5t124.5 237.5l158 891h283l-167 -949q-23 -130 -82.5 -229.5t-144.5 -160t-187 -90.5
t-218 -30z" />
    <glyph glyph-name="umacron" unicode="&#x16b;" horiz-adv-x="1194" 
d="M1083 1362l-30 -170h-664l29 170h665zM869 1023h271l-182 -1023h-255l18 147q-65 -78 -152.5 -122.5t-188.5 -44.5q-140 0 -218 73t-78 204q0 36 8 86l122 680h270l-110 -626q-7 -39 -7 -58q0 -69 36.5 -100.5t97.5 -31.5q100 0 172 60.5t91 167.5h2z" />
    <glyph glyph-name="Uring" unicode="&#x16e;" horiz-adv-x="1420" 
d="M906 1574q-92 0 -150.5 55.5t-61.5 144.5q-5 109 75.5 193t198.5 84q93 0 148.5 -55t59.5 -142q4 -109 -75 -194.5t-195 -85.5zM919 1695q62 0 99.5 41.5t37.5 95.5q0 44 -27 73t-74 29q-60 0 -98.5 -43.5t-38.5 -98.5q0 -45 26.5 -71t74.5 -26zM632 -20
q-224 0 -359.5 107t-135.5 309q0 53 11 114l165 929h282l-159 -909q-10 -57 -10 -92q0 -108 57.5 -157.5t156.5 -49.5q130 0 225.5 79.5t124.5 237.5l158 891h283l-167 -949q-23 -130 -82.5 -229.5t-144.5 -160t-187 -90.5t-218 -30z" />
    <glyph glyph-name="uring" unicode="&#x16f;" horiz-adv-x="1194" 
d="M726 1135q-99 0 -162.5 71t-53.5 170q11 97 89.5 167t177.5 70q98 0 160 -70t50 -167q-10 -99 -87 -170t-174 -71zM634 1376q-5 -53 24.5 -86t79.5 -33t87.5 33.5t42.5 85.5q5 48 -25.5 84t-78.5 36q-49 0 -87 -36t-43 -84zM869 1023h271l-182 -1023h-255l18 147
q-65 -78 -152.5 -122.5t-188.5 -44.5q-140 0 -218 73t-78 204q0 36 8 86l122 680h270l-110 -626q-7 -39 -7 -58q0 -69 36.5 -100.5t97.5 -31.5q100 0 172 60.5t91 167.5h2z" />
    <glyph glyph-name="Uhungarumlaut" unicode="&#x170;" horiz-adv-x="1420" 
d="M617 1574l328 368l123 -101l-273 -267h-178zM995 1574l327 368l123 -101l-273 -267h-177zM632 -20q-224 0 -359.5 107t-135.5 309q0 53 11 114l165 929h282l-159 -909q-10 -57 -10 -92q0 -108 57.5 -157.5t156.5 -49.5q130 0 225.5 79.5t124.5 237.5l158 891h283
l-167 -949q-23 -130 -82.5 -229.5t-144.5 -160t-187 -90.5t-218 -30z" />
    <glyph glyph-name="uhungarumlaut" unicode="&#x171;" horiz-adv-x="1194" 
d="M888 1432l-274 -268h-178l328 368zM991 1164h-178l328 368l124 -100zM766 435l103 588h271l-182 -1023h-255l18 147q-65 -78 -152.5 -122.5t-188.5 -44.5q-140 0 -218 73t-78 204q0 36 8 86l122 680h270l-110 -626q-7 -39 -7 -58q0 -69 36.5 -100.5t97.5 -31.5
q100 0 172 60.5t91 167.5h2z" />
    <glyph glyph-name="Uogonek" unicode="&#x172;" horiz-adv-x="1420" 
d="M1148 1439h283l-167 -949q-32 -178 -127.5 -294t-238.5 -170q-158 -131 -168 -187q-4 -18 9.5 -27t43.5 -9q67 0 119 40l-33 -182q-67 -27 -147 -27q-87 0 -135 28t-39 81q15 91 186 243q-50 -6 -102 -6q-224 0 -359.5 107t-135.5 309q0 53 11 114l165 929h282l-159 -909
q-10 -57 -10 -92q0 -108 57.5 -157.5t156.5 -49.5q130 0 225.5 79.5t124.5 237.5z" />
    <glyph glyph-name="uogonek" unicode="&#x173;" horiz-adv-x="1194" 
d="M958 0q-199 -153 -210 -220q-4 -18 9.5 -27t43.5 -9q67 0 119 40l-33 -182q-67 -27 -147 -27q-87 0 -135 28t-39 81q18 113 273 316h-136l18 147q-65 -78 -152.5 -122.5t-188.5 -44.5q-140 0 -218 73t-78 204q0 36 8 86l122 680h270l-110 -626q-7 -39 -7 -58
q0 -69 36.5 -100.5t97.5 -31.5q100 0 172 60.5t91 167.5h2l103 588h271z" />
    <glyph glyph-name="Wcircumflex" unicode="&#x174;" horiz-adv-x="2135" 
d="M1114 1574h-177l280 299h174l174 -299h-178l-102 195zM328 0l-128 1439h287l92 -1103l525 1103h240l128 -1103l489 1103h299l-634 -1439h-361l-124 921l-451 -921h-362z" />
    <glyph glyph-name="wcircumflex" unicode="&#x175;" horiz-adv-x="1714" 
d="M1021 1397l-171 -196h-177l280 299h174l174 -299h-178zM1511 1023h286l-537 -1024h-252l-120 689l-365 -689h-254l-171 1024h276l97 -681l365 681h210l125 -682z" />
    <glyph glyph-name="Ycircumflex" unicode="&#x176;" horiz-adv-x="1254" 
d="M843 1769l-171 -195h-177l280 299h174l174 -299h-178zM1406 1439l-611 -758l-120 -681h-284l122 690l-340 749h300l214 -504l393 504h326z" />
    <glyph glyph-name="ycircumflex" unicode="&#x177;" horiz-adv-x="1085" 
d="M695 1397l-171 -196h-177l280 299h174l174 -299h-178zM892 1023h284l-890 -1504h-281l325 533l-241 971h290l127 -686z" />
    <glyph glyph-name="Ydieresis" unicode="&#x178;" horiz-adv-x="1254" 
d="M602 1574q-58 0 -93 42t-25 100q11 59 60.5 100t107.5 41t93 -41.5t24 -99.5q-10 -58 -59.5 -100t-107.5 -42zM1018 1574q-58 0 -93 41.5t-25 100.5q11 59 60 100t108 41q58 0 92 -41.5t24 -99.5t-59 -100t-107 -42zM1406 1439l-611 -758l-120 -681h-284l122 690
l-340 749h300l214 -504l393 504h326z" />
    <glyph glyph-name="Zacute" unicode="&#x179;" horiz-adv-x="1214" 
d="M1178 1841l-273 -267h-178l328 368zM1283 1439l-36 -224l-866 -964h706l-44 -251h-1051l37 224l869 966h-696l45 249h1036z" />
    <glyph glyph-name="zacute" unicode="&#x17a;" horiz-adv-x="928" 
d="M955 1432l-274 -268h-178l328 368zM976 1023l-597 -813h437l-36 -210h-841l594 812h-412l38 211h817z" />
    <glyph glyph-name="Zdotaccent" unicode="&#x17b;" horiz-adv-x="1214" 
d="M818 1574q-69 0 -109 48.5t-29 117.5q12 68 69.5 116t126.5 48q67 0 107 -48t28 -116q-11 -68 -68.5 -117t-124.5 -49zM1283 1439l-36 -224l-866 -964h706l-44 -251h-1051l37 224l869 966h-696l45 249h1036z" />
    <glyph glyph-name="zdotaccent" unicode="&#x17c;" horiz-adv-x="928" 
d="M610 1191q-69 0 -112.5 48.5t-37.5 117.5q7 68 62 116t124 48q67 0 110 -48t36 -116q-7 -69 -61 -117.5t-121 -48.5zM976 1023l-597 -813h437l-36 -210h-841l594 812h-412l38 211h817z" />
    <glyph glyph-name="Zcaron" unicode="&#x17d;" horiz-adv-x="1214" 
d="M904 1574h-174l-175 299h178l102 -196l170 196h178zM1283 1439l-36 -224l-866 -964h706l-44 -251h-1051l37 224l869 966h-696l45 249h1036z" />
    <glyph glyph-name="zcaron" unicode="&#x17e;" horiz-adv-x="928" 
d="M686 1201h-174l-175 299h178l102 -196l170 196h178zM976 1023l-597 -813h437l-36 -210h-841l594 812h-412l38 211h817z" />
    <glyph glyph-name="florin" unicode="&#x192;" horiz-adv-x="1042" 
d="M-41 -421l411 1227h-171l75 222h172l58 180q47 151 183.5 249.5t283.5 98.5q55 0 99.5 -14t60.5 -30l-42 -191q-27 26 -87 26q-84 0 -151.5 -54.5t-96.5 -142.5l-43 -122h277l-73 -222h-277l-413 -1227h-266z" />
    <glyph glyph-name="Ohorn" unicode="&#x1a0;" horiz-adv-x="1631" 
d="M1666 1540h140l-29 -166q-12 -65 -35 -111.5t-54.5 -72t-65 -36.5t-72.5 -11h-14q60 -125 60 -282q0 -134 -37.5 -263.5t-112 -240.5t-176.5 -195.5t-239 -133t-291 -48.5q-286 0 -458.5 162t-172.5 438q0 134 37.5 263t111.5 240t176 195.5t239 132.5t292 48
q288 0 460 -163l3 5q48 -28 94 -28q55 0 81.5 30.5t39.5 109.5zM751 241q126 0 234.5 52.5t180 138t111.5 193.5t40 220q0 166 -99 260.5t-264 94.5q-125 0 -233.5 -52.5t-180 -137.5t-112.5 -193.5t-41 -220.5q0 -167 99.5 -261t264.5 -94z" />
    <glyph glyph-name="ohorn" unicode="&#x1a1;" horiz-adv-x="1230" 
d="M1245 1189h140l-29 -166q-40 -223 -217 -231q36 -81 36 -185q0 -124 -44 -237t-124 -200t-202 -138.5t-268 -51.5q-220 0 -352 116t-132 319q0 124 43.5 237t123 199.5t201.5 138t269 51.5q206 0 335 -100q39 -19 76 -19q55 0 81.5 30.5t39.5 109.5zM544 197q83 0 153 36
t114.5 94t69.5 128t25 140q0 106 -61.5 169t-167.5 63q-65 0 -123 -24t-99.5 -64.5t-71.5 -92t-45 -107t-15 -110.5q0 -108 59 -170t162 -62z" />
    <glyph glyph-name="Uhorn" unicode="&#x1af;" horiz-adv-x="1420" 
d="M1613 1609h140l-29 -166q-12 -65 -35 -111.5t-54.5 -72t-65 -36.5t-72.5 -11q-46 0 -103 19l-130 -741q-23 -130 -82.5 -229.5t-144.5 -160t-187 -90.5t-218 -30q-224 0 -359.5 107t-135.5 309q0 53 11 114l165 929h282l-159 -909q-10 -57 -10 -92q0 -108 57.5 -157.5
t156.5 -49.5q130 0 225.5 79.5t124.5 237.5l158 891h283l-15 -88q30 -9 53 -9q55 0 81.5 30.5t39.5 109.5z" />
    <glyph glyph-name="uhorn" unicode="&#x1b0;" horiz-adv-x="1194" 
d="M1329 1193h140l-29 -166q-12 -65 -35 -111.5t-54.5 -72t-65 -36.5t-72.5 -11q-55 0 -109 22l-146 -818h-255l18 147q-65 -78 -152.5 -122.5t-188.5 -44.5q-140 0 -218 73t-78 204q0 36 8 86l122 680h270l-110 -626q-7 -39 -7 -58q0 -69 36.5 -100.5t97.5 -31.5
q100 0 172 60.5t91 167.5h2l103 588h271l-15 -85q31 -12 60 -12q55 0 81.5 30.5t39.5 109.5z" />
    <glyph glyph-name="uni01CD" unicode="&#x1cd;" horiz-adv-x="1453" 
d="M1002 1574h-174l-175 299h178l102 -196l170 196h178zM1052 0l-53 304h-612l-161 -304h-294l783 1439h346l278 -1439h-287zM513 542h444l-111 629z" />
    <glyph glyph-name="uni01CE" unicode="&#x1ce;" horiz-adv-x="1288" 
d="M854 1206h-174l-175 299h178l102 -196l170 196h178zM962 1023h271l-181 -1023h-244l9 139q-54 -79 -145.5 -121t-196.5 -42q-187 0 -304.5 117t-117.5 320q0 117 42 229.5t115 201.5t182 143t234 54q112 0 195 -44.5t116 -121.5zM553 203q77 0 143.5 34.5t110 89
t68.5 119.5t25 128q0 105 -61 173t-170 68q-100 0 -180 -56.5t-120.5 -141.5t-40.5 -178q0 -110 61 -173t164 -63z" />
    <glyph glyph-name="uni01CF" unicode="&#x1cf;" horiz-adv-x="643" 
d="M420 1574l-175 299h178l102 -196l170 196h178l-279 -299h-174zM89 0l254 1439h283l-254 -1439h-283z" />
    <glyph glyph-name="uni01D0" unicode="&#x1d0;" horiz-adv-x="577" 
d="M325 1206l-175 299h178l102 -196l170 196h178l-279 -299h-174zM53 0l182 1028h290l-183 -1028h-289z" />
    <glyph glyph-name="uni01D1" unicode="&#x1d1;" horiz-adv-x="1631" 
d="M917 1574l-175 299h178l102 -196l170 196h178l-279 -299h-174zM740 -20q-286 0 -458.5 162t-172.5 438q0 134 37.5 263t111.5 240t176 195.5t239 132.5t292 48q285 0 458 -161.5t173 -436.5q0 -134 -37.5 -263.5t-112 -240.5t-176.5 -195.5t-239 -133t-291 -48.5z
M751 241q126 0 234.5 52.5t180 138t111.5 193.5t40 220q0 166 -99 260.5t-264 94.5q-125 0 -233.5 -52.5t-180 -137.5t-112.5 -193.5t-41 -220.5q0 -167 99.5 -261t264.5 -94z" />
    <glyph glyph-name="uni01D2" unicode="&#x1d2;" horiz-adv-x="1230" 
d="M646 1199l-175 299h178l102 -196l170 196h178l-279 -299h-174zM537 -20q-220 0 -352 116t-132 319q0 124 43.5 237t123 199.5t201.5 138t269 51.5q222 0 353.5 -116t131.5 -318q0 -124 -44 -237t-124 -200t-202 -138.5t-268 -51.5zM544 197q83 0 153 36t114.5 94
t69.5 128t25 140q0 106 -61.5 169t-167.5 63q-65 0 -123 -24t-99.5 -64.5t-71.5 -92t-45 -107t-15 -110.5q0 -108 59 -170t162 -62z" />
    <glyph glyph-name="uni01D3" unicode="&#x1d3;" horiz-adv-x="1420" 
d="M808 1574l-175 299h178l102 -196l170 196h178l-279 -299h-174zM632 -20q-224 0 -359.5 107t-135.5 309q0 53 11 114l165 929h282l-159 -909q-10 -57 -10 -92q0 -108 57.5 -157.5t156.5 -49.5q130 0 225.5 79.5t124.5 237.5l158 891h283l-167 -949q-23 -130 -82.5 -229.5
t-144.5 -160t-187 -90.5t-218 -30z" />
    <glyph glyph-name="uni01D4" unicode="&#x1d4;" horiz-adv-x="1194" 
d="M808 1201h-174l-175 299h178l102 -196l170 196h178zM869 1023h271l-182 -1023h-255l18 147q-65 -78 -152.5 -122.5t-188.5 -44.5q-140 0 -218 73t-78 204q0 36 8 86l122 680h270l-110 -626q-7 -39 -7 -58q0 -69 36.5 -100.5t97.5 -31.5q100 0 172 60.5t91 167.5h2z" />
    <glyph glyph-name="uni01D5" unicode="&#x1d5;" horiz-adv-x="1420" 
d="M636 1992l30 170h664l-30 -170h-664zM687 1574q-58 0 -93 42t-25 100q11 59 60.5 100t107.5 41t93 -41.5t24 -99.5q-10 -58 -59.5 -100t-107.5 -42zM1103 1574q-58 0 -93 41.5t-25 100.5q11 59 60 100t108 41q58 0 92 -41.5t24 -99.5t-59 -100t-107 -42zM632 -20
q-224 0 -359.5 107t-135.5 309q0 53 11 114l165 929h282l-159 -909q-10 -57 -10 -92q0 -108 57.5 -157.5t156.5 -49.5q130 0 225.5 79.5t124.5 237.5l158 891h283l-167 -949q-23 -130 -82.5 -229.5t-144.5 -160t-187 -90.5t-218 -30z" />
    <glyph glyph-name="uni01D6" unicode="&#x1d6;" horiz-adv-x="1194" 
d="M1168 1845l-30 -170h-664l29 170h665zM517 1191q-69 0 -113.5 48.5t-36.5 117.5q7 68 62 116t124 48q66 0 109 -48t37 -116q-7 -69 -61.5 -117.5t-120.5 -48.5zM798 1357q7 68 61.5 116t123.5 48q67 0 110 -48t36 -116q-7 -69 -61 -117.5t-121 -48.5q-69 0 -113 48.5
t-36 117.5zM766 435l103 588h271l-182 -1023h-255l18 147q-65 -78 -152.5 -122.5t-188.5 -44.5q-140 0 -218 73t-78 204q0 36 8 86l122 680h270l-110 -626q-7 -39 -7 -58q0 -69 36.5 -100.5t97.5 -31.5q100 0 172 60.5t91 167.5h2z" />
    <glyph glyph-name="uni01D7" unicode="&#x1d7;" horiz-adv-x="1420" 
d="M878 1992l328 368l123 -101l-273 -267h-178zM687 1574q-58 0 -93 42t-25 100q11 59 60.5 100t107.5 41t93 -41.5t24 -99.5q-10 -58 -59.5 -100t-107.5 -42zM1103 1574q-58 0 -93 41.5t-25 100.5q11 59 60 100t108 41q58 0 92 -41.5t24 -99.5t-59 -100t-107 -42zM632 -20
q-224 0 -359.5 107t-135.5 309q0 53 11 114l165 929h282l-159 -909q-10 -57 -10 -92q0 -108 57.5 -157.5t156.5 -49.5q130 0 225.5 79.5t124.5 237.5l158 891h283l-167 -949q-23 -130 -82.5 -229.5t-144.5 -160t-187 -90.5t-218 -30z" />
    <glyph glyph-name="uni01D8" unicode="&#x1d8;" horiz-adv-x="1194" 
d="M1162 1915l-274 -268h-178l328 368zM517 1191q-69 0 -113.5 48.5t-36.5 117.5q7 68 62 116t124 48q66 0 109 -48t37 -116q-7 -69 -61.5 -117.5t-120.5 -48.5zM798 1357q7 68 61.5 116t123.5 48q67 0 110 -48t36 -116q-7 -69 -61 -117.5t-121 -48.5q-69 0 -113 48.5
t-36 117.5zM766 435l103 588h271l-182 -1023h-255l18 147q-65 -78 -152.5 -122.5t-188.5 -44.5q-140 0 -218 73t-78 204q0 36 8 86l122 680h270l-110 -626q-7 -39 -7 -58q0 -69 36.5 -100.5t97.5 -31.5q100 0 172 60.5t91 167.5h2z" />
    <glyph glyph-name="uni01D9" unicode="&#x1d9;" horiz-adv-x="1420" 
d="M881 1992l-175 299h178l102 -196l170 196h178l-279 -299h-174zM687 1574q-58 0 -93 42t-25 100q11 59 60.5 100t107.5 41t93 -41.5t24 -99.5q-10 -58 -59.5 -100t-107.5 -42zM1103 1574q-58 0 -93 41.5t-25 100.5q11 59 60 100t108 41q58 0 92 -41.5t24 -99.5t-59 -100
t-107 -42zM632 -20q-224 0 -359.5 107t-135.5 309q0 53 11 114l165 929h282l-159 -909q-10 -57 -10 -92q0 -108 57.5 -157.5t156.5 -49.5q130 0 225.5 79.5t124.5 237.5l158 891h283l-167 -949q-23 -130 -82.5 -229.5t-144.5 -160t-187 -90.5t-218 -30z" />
    <glyph glyph-name="uni01DA" unicode="&#x1da;" horiz-adv-x="1194" 
d="M893 1684h-174l-175 299h178l102 -196l170 196h178zM517 1191q-69 0 -113.5 48.5t-36.5 117.5q7 68 62 116t124 48q66 0 109 -48t37 -116q-7 -69 -61.5 -117.5t-120.5 -48.5zM798 1357q7 68 61.5 116t123.5 48q67 0 110 -48t36 -116q-7 -69 -61 -117.5t-121 -48.5
q-69 0 -113 48.5t-36 117.5zM766 435l103 588h271l-182 -1023h-255l18 147q-65 -78 -152.5 -122.5t-188.5 -44.5q-140 0 -218 73t-78 204q0 36 8 86l122 680h270l-110 -626q-7 -39 -7 -58q0 -69 36.5 -100.5t97.5 -31.5q100 0 172 60.5t91 167.5h2z" />
    <glyph glyph-name="uni01DB" unicode="&#x1db;" horiz-adv-x="1420" 
d="M879 1992l-180 267l160 101l198 -368h-178zM687 1574q-58 0 -93 42t-25 100q11 59 60.5 100t107.5 41t93 -41.5t24 -99.5q-10 -58 -59.5 -100t-107.5 -42zM1103 1574q-58 0 -93 41.5t-25 100.5q11 59 60 100t108 41q58 0 92 -41.5t24 -99.5t-59 -100t-107 -42zM632 -20
q-224 0 -359.5 107t-135.5 309q0 53 11 114l165 929h282l-159 -909q-10 -57 -10 -92q0 -108 57.5 -157.5t156.5 -49.5q130 0 225.5 79.5t124.5 237.5l158 891h283l-167 -949q-23 -130 -82.5 -229.5t-144.5 -160t-187 -90.5t-218 -30z" />
    <glyph glyph-name="uni01DC" unicode="&#x1dc;" horiz-adv-x="1194" 
d="M888 1647h-178l-178 268l158 100zM517 1191q-69 0 -113.5 48.5t-36.5 117.5q7 68 62 116t124 48q66 0 109 -48t37 -116q-7 -69 -61.5 -117.5t-120.5 -48.5zM798 1357q7 68 61.5 116t123.5 48q67 0 110 -48t36 -116q-7 -69 -61 -117.5t-121 -48.5q-69 0 -113 48.5
t-36 117.5zM869 1023h271l-182 -1023h-255l18 147q-65 -78 -152.5 -122.5t-188.5 -44.5q-140 0 -218 73t-78 204q0 36 8 86l122 680h270l-110 -626q-7 -39 -7 -58q0 -69 36.5 -100.5t97.5 -31.5q100 0 172 60.5t91 167.5h2z" />
    <glyph glyph-name="Scommaaccent" unicode="&#x218;" horiz-adv-x="1274" 
d="M600 -20q-159 0 -283.5 49.5t-196.5 146t-72 226.5l298 49q5 -112 76 -175.5t195 -63.5q117 0 192 57.5t75 143.5q0 39 -15.5 70.5t-39.5 53t-62 40t-74.5 31t-85.5 27.5q-3 1 -5 1.5t-4.5 1t-4.5 1.5q-58 18 -96 32t-88 37.5t-82 50.5t-62 64t-44.5 86t-14.5 109
q0 129 71.5 230.5t194.5 156t276 54.5q102 0 192.5 -22.5t166 -67t121.5 -120t49 -173.5l-278 -50q-2 104 -68.5 153t-171.5 49q-114 0 -191.5 -53.5t-77.5 -132.5q0 -26 8 -48t18 -37.5t33 -31.5t39 -25t51 -21.5t53 -18t61 -18.5q51 -15 86.5 -27t83.5 -32t81 -40.5
t68 -51.5t56 -66.5t35 -83t14 -102.5q0 -141 -76.5 -246t-206.5 -159t-294 -54zM296 -574l-130 66l234 373h251z" />
    <glyph glyph-name="scommaaccent" unicode="&#x219;" horiz-adv-x="964" 
d="M409 -20q-184 0 -287 77t-105 216l250 47q-2 -75 41.5 -115.5t117.5 -40.5q70 0 119 37t49 107q0 25 -9.5 44t-22.5 31t-43 24.5t-52 19t-69 19.5q-63 17 -105.5 34t-85 46t-64 74.5t-21.5 107.5q0 158 120 245t302 87q161 0 267 -69.5t110 -208.5l-226 -33
q1 69 -41 99.5t-105 30.5q-74 0 -122.5 -35.5t-48.5 -95.5q0 -13 3 -24t10 -20t13.5 -16t19.5 -13.5t22.5 -11t27.5 -9.5t29 -8t33 -8.5t33 -8.5q66 -17 112.5 -36t90.5 -50.5t66.5 -80t22.5 -112.5q0 -112 -61 -192.5t-161.5 -119t-229.5 -38.5zM143 -573l-130 66l234 373
h251z" />
    <glyph glyph-name="uni021A" unicode="&#x21a;" horiz-adv-x="1039" 
d="M1170 1439l-44 -249h-346l-210 -1190h-280l210 1190h-348l44 249h974zM47 -508l234 373h251l-355 -439z" />
    <glyph glyph-name="uni021B" unicode="&#x21b;" horiz-adv-x="766" 
d="M435 0q-126 0 -196 65.5t-70 182.5q0 38 8 74l88 491h-204l38 210h57q77 0 131.5 44t69.5 127l28 159h248l-58 -330h214l-37 -210h-215l-84 -479q-4 -17 -4 -43q0 -45 23.5 -64.5t71.5 -19.5h101l-37 -207h-173zM223 -574l-130 66l234 373h251z" />
    <glyph glyph-name="uni0237" unicode="&#x237;" horiz-adv-x="580" 
d="M-231 -482l36 225q53 0 91.5 11.5t64.5 32t45 60t31 84t24 114.5l174 983h293l-177 -1003q-48 -269 -182 -388t-400 -119z" />
    <glyph glyph-name="circumflex" unicode="&#x2c6;" horiz-adv-x="700" 
d="M341 1237h-177l280 299h174l174 -299h-178l-102 196z" />
    <glyph glyph-name="caron" unicode="&#x2c7;" horiz-adv-x="706" 
d="M394 1237l-175 299h178l102 -196l170 196h178l-279 -299h-174z" />
    <glyph glyph-name="breve" unicode="&#x2d8;" horiz-adv-x="889" 
d="M561 1185q-165 0 -248.5 91t-53.5 260h166q-17 -95 27 -155.5t133 -60.5q91 0 156 60t82 156h166q-30 -170 -145.5 -260.5t-282.5 -90.5z" />
    <glyph glyph-name="dotaccent" unicode="&#x2d9;" horiz-adv-x="535" 
d="M400 1196q-69 0 -112.5 48.5t-37.5 117.5q7 68 62 116t124 48q67 0 110 -48t36 -116q-7 -69 -61 -117.5t-121 -48.5z" />
    <glyph glyph-name="ring" unicode="&#x2da;" horiz-adv-x="651" 
d="M450 1136q-99 0 -162.5 71t-53.5 170q11 97 89.5 167t177.5 70q98 0 160 -70t50 -167q-10 -99 -87 -170t-174 -71zM462 1258q50 0 87.5 33.5t42.5 85.5q5 48 -25.5 84t-78.5 36q-49 0 -87 -36t-43 -84q-5 -53 24.5 -86t79.5 -33z" />
    <glyph glyph-name="ogonek" unicode="&#x2db;" horiz-adv-x="511" 
d="M84 -425q-87 0 -135 28t-39 81q10 66 99.5 159.5t215.5 189.5l77 -33q-199 -153 -210 -220q-4 -18 9.5 -27t43.5 -9q67 0 119 40l-33 -182q-67 -27 -147 -27z" />
    <glyph glyph-name="tilde" unicode="&#x2dc;" horiz-adv-x="843" 
d="M655 1162q-111 0 -157 102q-18 39 -51 39q-34 0 -58 -35t-34 -93h-136q20 116 87 189t160 73q57 0 96.5 -28t60.5 -75q16 -38 53 -38q66 0 89 128h138q-20 -115 -86.5 -188.5t-161.5 -73.5z" />
    <glyph glyph-name="hungarumlaut" unicode="&#x2dd;" horiz-adv-x="853" 
d="M142 1200l328 368l124 -100l-274 -268h-178zM519 1200l328 368l124 -100l-274 -268h-178z" />
    <glyph glyph-name="gravecomb" unicode="&#x300;" 
d="M-84 1200l-178 268l158 100l198 -368h-178z" />
    <glyph glyph-name="acutecomb" unicode="&#x301;" 
d="M-328 1200l328 368l124 -100l-274 -268h-178z" />
    <glyph glyph-name="uni0302" unicode="&#x302;" 
d="M-359 1237h-177l280 299h174l174 -299h-178l-102 196z" />
    <glyph glyph-name="tildecomb" unicode="&#x303;" 
d="M-188 1162q-111 0 -157 102q-18 39 -51 39q-34 0 -58 -35t-34 -93h-136q20 116 87 189t160 73q57 0 96.5 -28t60.5 -75q16 -38 53 -38q66 0 89 128h138q-20 -115 -86.5 -188.5t-161.5 -73.5z" />
    <glyph glyph-name="uni0304" unicode="&#x304;" 
d="M-677 1228l29 170h665l-30 -170h-664z" />
    <glyph glyph-name="uni0306" unicode="&#x306;" 
d="M-328 1185q-165 0 -248.5 91t-53.5 260h166q-17 -95 27 -155.5t133 -60.5q91 0 156 60t82 156h166q-30 -170 -145.5 -260.5t-282.5 -90.5z" />
    <glyph glyph-name="uni0307" unicode="&#x307;" 
d="M-134 1196q-69 0 -112.5 48.5t-37.5 117.5q7 68 62 116t124 48q67 0 110 -48t36 -116q-7 -69 -61 -117.5t-121 -48.5z" />
    <glyph glyph-name="uni0308" unicode="&#x308;" 
d="M-565 1196q-69 0 -113.5 48.5t-36.5 117.5q7 68 62 116t124 48q66 0 109 -48t37 -116q-7 -69 -61.5 -117.5t-120.5 -48.5zM-135 1196q-69 0 -113 48.5t-36 117.5q7 68 61.5 116t123.5 48q67 0 110 -48t36 -116q-7 -69 -61 -117.5t-121 -48.5z" />
    <glyph glyph-name="hookabovecomb" unicode="&#x309;" 
d="M-230 1140l23 135q114 21 129 97q5 31 -9 50t-48 19q-48 0 -93 -39l-51 97q80 57 179 57q92 0 136 -48t30 -127q-12 -67 -52.5 -103t-102.5 -54l-14 -84h-127z" />
    <glyph glyph-name="uni030A" unicode="&#x30a;" 
d="M-197 1136q-99 0 -162.5 71t-53.5 170q11 97 89.5 167t177.5 70q98 0 160 -70t50 -167q-10 -99 -87 -170t-174 -71zM-185 1258q50 0 87.5 33.5t42.5 85.5q5 48 -25.5 84t-78.5 36q-49 0 -87 -36t-43 -84q-5 -53 24.5 -86t79.5 -33z" />
    <glyph glyph-name="uni030B" unicode="&#x30b;" 
d="M-706 1200l328 368l124 -100l-274 -268h-178zM-329 1200l328 368l124 -100l-274 -268h-178z" />
    <glyph glyph-name="uni030C" unicode="&#x30c;" 
d="M-312 1237l-175 299h178l102 -196l170 196h178l-279 -299h-174z" />
    <glyph glyph-name="uni0312" unicode="&#x312;" 
d="M145 1533l-298 -327h-300l388 327h210z" />
    <glyph glyph-name="uni031B" unicode="&#x31b;" 
d="M-265 755q-97 0 -188 63l66 95q48 -28 94 -28q55 0 81.5 30.5t39.5 109.5l23 127h140l-29 -166q-12 -65 -35 -111.5t-54.5 -72t-65 -36.5t-72.5 -11z" />
    <glyph glyph-name="dotbelowcomb" unicode="&#x323;" 
d="M-447 -512q-69 0 -109.5 48t-29.5 118q13 68 70.5 116t126.5 48q67 0 107.5 -48.5t27.5 -115.5q-11 -69 -68.5 -117.5t-124.5 -48.5z" />
    <glyph glyph-name="uni0326" unicode="&#x326;" 
d="M-496 -574l-130 66l234 373h251z" />
    <glyph glyph-name="uni0327" unicode="&#x327;" 
d="M-472 -532q-85 0 -142.5 43t-70.5 108l135 44q9 -29 36 -46.5t59 -17.5q38 0 70.5 25.5t39.5 66.5q8 43 -15.5 67t-64.5 24q-46 0 -80 -31l-94 62l161 223h137l-117 -159q30 6 46 6q84 0 130 -54t31 -138q-17 -94 -92 -158.5t-169 -64.5z" />
    <glyph glyph-name="uni0328" unicode="&#x328;" 
d="M-422 -425q-87 0 -135 28t-39 81q10 66 99.5 159.5t215.5 189.5l77 -33q-199 -153 -210 -220q-4 -18 9.5 -27t43.5 -9q67 0 119 40l-33 -182q-67 -27 -147 -27z" />
    <glyph glyph-name="uni0335" unicode="&#x335;" 
d="M-845 428l30 176h690l-30 -176h-690z" />
    <glyph glyph-name="uni0336" unicode="&#x336;" 
d="M-1664 474l21 117h1517l-21 -117h-1517z" />
    <glyph glyph-name="uni0337" unicode="&#x337;" 
d="M-716 248l33 181l717 472l-32 -183z" />
    <glyph glyph-name="uni0338" unicode="&#x338;" 
d="M-775 208l806 1157l116 -69l-807 -1157z" />
    <glyph glyph-name="uni0394" unicode="&#x394;" horiz-adv-x="1586" 
d="M1128 1536l345 -1536h-1543l887 1536h311zM386 269h736l-199 957z" />
    <glyph glyph-name="uni03A9" unicode="&#x3a9;" horiz-adv-x="1762" 
d="M1691 947q0 -178 -93.5 -375.5t-247.5 -323.5h266l-43 -248h-669l25 195q134 70 235 197.5t151 271t50 282.5q0 160 -82.5 254.5t-239.5 94.5q-104 0 -195 -40.5t-155 -108.5t-110 -156t-68 -184t-22 -192q0 -153 58 -264.5t154 -164.5l-25 -185h-673l43 248h272l9 11
q-61 69 -104.5 186t-43.5 255q0 124 36.5 245.5t110.5 230t175.5 191.5t242.5 131.5t301 48.5q157 0 282 -48.5t202 -132.5t117.5 -191t40.5 -228z" />
    <glyph glyph-name="uni03BC" unicode="&#x3bc;" horiz-adv-x="1235" 
d="M892 1028h289l-182 -1028h-288l17 95q-127 -113 -280 -113q-100 0 -179 48l-87 -495h-210l263 1493h290l-110 -627q-3 -21 -3 -36q0 -59 36 -95t93 -36q82 0 151 49.5t90 119.5z" />
    <glyph glyph-name="pi" unicode="&#x3c0;" horiz-adv-x="1289" 
d="M45 1q71 144 152 393t124 426q-150 -1 -219 -13l-17 165q85 56 357 56h916l-58 -209h-154l-84 -538q-33 -216 -26 -282l-250 2q-13 30 -13 89q0 63 21 196l82 533h-302q-45 -210 -120.5 -460.5t-143.5 -359.5z" />
    <glyph glyph-name="Wgrave" unicode="&#x1e80;" horiz-adv-x="2135" 
d="M1163 1574l-180 267l160 101l198 -368h-178zM328 0l-128 1439h287l92 -1103l525 1103h240l128 -1103l489 1103h299l-634 -1439h-361l-124 921l-451 -921h-362z" />
    <glyph glyph-name="wgrave" unicode="&#x1e81;" horiz-adv-x="1714" 
d="M1069 1164h-178l-178 268l158 100zM1511 1023h286l-537 -1024h-252l-120 689l-365 -689h-254l-171 1024h276l97 -681l365 681h210l125 -682z" />
    <glyph glyph-name="Wacute" unicode="&#x1e82;" horiz-adv-x="2135" 
d="M1162 1574l328 368l123 -101l-273 -267h-178zM328 0l-128 1439h287l92 -1103l525 1103h240l128 -1103l489 1103h299l-634 -1439h-361l-124 921l-451 -921h-362z" />
    <glyph glyph-name="wacute" unicode="&#x1e83;" horiz-adv-x="1714" 
d="M1343 1432l-274 -268h-178l328 368zM1511 1023h286l-537 -1024h-252l-120 689l-365 -689h-254l-171 1024h276l97 -681l365 681h210l125 -682z" />
    <glyph glyph-name="Wdieresis" unicode="&#x1e84;" horiz-adv-x="2135" 
d="M1044 1574q-58 0 -93 42t-25 100q11 59 60.5 100t107.5 41t93 -41.5t24 -99.5q-10 -58 -59.5 -100t-107.5 -42zM1460 1574q-58 0 -93 41.5t-25 100.5q11 59 60 100t108 41q58 0 92 -41.5t24 -99.5t-59 -100t-107 -42zM328 0l-128 1439h287l92 -1103l525 1103h240
l128 -1103l489 1103h299l-634 -1439h-361l-124 921l-451 -921h-362z" />
    <glyph glyph-name="wdieresis" unicode="&#x1e85;" horiz-adv-x="1714" 
d="M783 1191q-69 0 -113.5 48.5t-36.5 117.5q7 68 62 116t124 48q66 0 109 -48t37 -116q-7 -69 -61.5 -117.5t-120.5 -48.5zM1213 1191q-69 0 -113 48.5t-36 117.5q7 68 61.5 116t123.5 48q67 0 110 -48t36 -116q-7 -69 -61 -117.5t-121 -48.5zM1511 1023h286l-537 -1024
h-252l-120 689l-365 -689h-254l-171 1024h276l97 -681l365 681h210l125 -682z" />
    <glyph glyph-name="uni1EA0" unicode="&#x1ea0;" horiz-adv-x="1453" 
d="M1339 0h-287l-53 304h-612l-161 -304h-294l783 1439h346zM513 542h444l-111 629zM607 -182q67 0 107.5 -48.5t27.5 -115.5q-11 -69 -68.5 -117.5t-124.5 -48.5q-69 0 -109.5 48t-29.5 118q13 68 70.5 116t126.5 48z" />
    <glyph glyph-name="uni1EA1" unicode="&#x1ea1;" horiz-adv-x="1288" 
d="M962 1023h271l-181 -1023h-244l9 139q-54 -79 -145.5 -121t-196.5 -42q-187 0 -304.5 117t-117.5 320q0 117 42 229.5t115 201.5t182 143t234 54q112 0 195 -44.5t116 -121.5zM553 203q77 0 143.5 34.5t110 89t68.5 119.5t25 128q0 105 -61 173t-170 68
q-100 0 -180 -56.5t-120.5 -141.5t-40.5 -178q0 -110 61 -173t164 -63zM521 -182q67 0 107.5 -48.5t27.5 -115.5q-11 -69 -68.5 -117.5t-124.5 -48.5q-69 0 -109.5 48t-29.5 118q13 68 70.5 116t126.5 48z" />
    <glyph glyph-name="uni1EA2" unicode="&#x1ea2;" horiz-adv-x="1453" 
d="M943 1830q-48 0 -93 -38l-51 96q80 58 178 58q92 0 136.5 -48t30.5 -128q-21 -117 -155 -157l-14 -83h-127l23 135q114 19 129 97q5 30 -9.5 49t-47.5 19zM1052 0l-53 304h-612l-161 -304h-294l783 1439h346l278 -1439h-287zM513 542h444l-111 629z" />
    <glyph glyph-name="uni1EA3" unicode="&#x1ea3;" horiz-adv-x="1288" 
d="M785 1410q-48 0 -93 -39l-51 97q80 57 179 57q92 0 136 -48t30 -127q-12 -67 -52.5 -103t-102.5 -54l-14 -84h-127l23 135q114 21 129 97q5 31 -9 50t-48 19zM962 1023h271l-181 -1023h-244l9 139q-54 -79 -145.5 -121t-196.5 -42q-187 0 -304.5 117t-117.5 320
q0 117 42 229.5t115 201.5t182 143t234 54q112 0 195 -44.5t116 -121.5zM553 203q77 0 143.5 34.5t110 89t68.5 119.5t25 128q0 105 -61 173t-170 68q-100 0 -180 -56.5t-120.5 -141.5t-40.5 -178q0 -110 61 -173t164 -63z" />
    <glyph glyph-name="uni1EA4" unicode="&#x1ea4;" horiz-adv-x="1453" 
d="M1352 2275l-273 -267h-178l328 368zM948 1769l-171 -195h-177l280 299h174l174 -299h-178zM715 1439h346l278 -1439h-287l-53 304h-612l-161 -304h-294zM513 542h444l-111 629z" />
    <glyph glyph-name="uni1EA5" unicode="&#x1ea5;" horiz-adv-x="1288" 
d="M1206 1914l-274 -268h-178l328 368zM801 1402l-171 -196h-177l280 299h174l174 -299h-178zM962 1023h271l-181 -1023h-244l9 139q-54 -79 -145.5 -121t-196.5 -42q-187 0 -304.5 117t-117.5 320q0 117 42 229.5t115 201.5t182 143t234 54q112 0 195 -44.5t116 -121.5z
M553 203q77 0 143.5 34.5t110 89t68.5 119.5t25 128q0 105 -61 173t-170 68q-100 0 -180 -56.5t-120.5 -141.5t-40.5 -178q0 -110 61 -173t164 -63z" />
    <glyph glyph-name="uni1EA6" unicode="&#x1ea6;" horiz-adv-x="1453" 
d="M1080 2008h-178l-180 267l160 101zM948 1769l-171 -195h-177l280 299h174l174 -299h-178zM1052 0l-53 304h-612l-161 -304h-294l783 1439h346l278 -1439h-287zM513 542h444l-111 629z" />
    <glyph glyph-name="uni1EA7" unicode="&#x1ea7;" horiz-adv-x="1288" 
d="M932 1646h-178l-178 268l158 100zM801 1402l-171 -196h-177l280 299h174l174 -299h-178zM962 1023h271l-181 -1023h-244l9 139q-54 -79 -145.5 -121t-196.5 -42q-187 0 -304.5 117t-117.5 320q0 117 42 229.5t115 201.5t182 143t234 54q112 0 195 -44.5t116 -121.5z
M553 203q77 0 143.5 34.5t110 89t68.5 119.5t25 128q0 105 -61 173t-170 68q-100 0 -180 -56.5t-120.5 -141.5t-40.5 -178q0 -110 61 -173t164 -63z" />
    <glyph glyph-name="uni1EA8" unicode="&#x1ea8;" horiz-adv-x="1453" 
d="M1019 2264q-48 0 -93 -38l-51 96q80 58 178 58q92 0 136.5 -48t30.5 -128q-21 -117 -155 -157l-14 -83h-127l23 135q114 19 129 97q5 30 -9.5 49t-47.5 19zM948 1769l-171 -195h-177l280 299h174l174 -299h-178zM1052 0l-53 304h-612l-161 -304h-294l783 1439h346
l278 -1439h-287zM513 542h444l-111 629z" />
    <glyph glyph-name="uni1EA9" unicode="&#x1ea9;" horiz-adv-x="1288" 
d="M868 1887q-48 0 -93 -39l-51 97q80 57 179 57q92 0 136 -48t30 -127q-12 -67 -52.5 -103t-102.5 -54l-14 -84h-127l23 135q114 21 129 97q5 31 -9 50t-48 19zM801 1402l-171 -196h-177l280 299h174l174 -299h-178zM962 1023h271l-181 -1023h-244l9 139
q-54 -79 -145.5 -121t-196.5 -42q-187 0 -304.5 117t-117.5 320q0 117 42 229.5t115 201.5t182 143t234 54q112 0 195 -44.5t116 -121.5zM553 203q77 0 143.5 34.5t110 89t68.5 119.5t25 128q0 105 -61 173t-170 68q-100 0 -180 -56.5t-120.5 -141.5t-40.5 -178
q0 -110 61 -173t164 -63z" />
    <glyph glyph-name="uni1EAA" unicode="&#x1eaa;" horiz-adv-x="1453" 
d="M901 2166q-40 0 -68.5 -41t-40.5 -107h-150q24 131 100 213t180 82q122 0 177 -117q22 -46 64 -46q40 0 67.5 39t39.5 108h151q-23 -129 -98 -211.5t-182 -82.5q-123 0 -178 117q-21 46 -62 46zM948 1769l-171 -195h-177l280 299h174l174 -299h-178zM715 1439h346
l278 -1439h-287l-53 304h-612l-161 -304h-294zM513 542h444l-111 629z" />
    <glyph glyph-name="uni1EAB" unicode="&#x1eab;" horiz-adv-x="1288" 
d="M767 1780q-34 0 -58 -35t-34 -93h-136q20 116 87 189t160 73q57 0 96.5 -28t60.5 -75q16 -38 53 -38q66 0 89 128h138q-20 -115 -86.5 -188.5t-161.5 -73.5q-111 0 -157 102q-18 39 -51 39zM801 1402l-171 -196h-177l280 299h174l174 -299h-178zM962 1023h271l-181 -1023
h-244l9 139q-54 -79 -145.5 -121t-196.5 -42q-187 0 -304.5 117t-117.5 320q0 117 42 229.5t115 201.5t182 143t234 54q112 0 195 -44.5t116 -121.5zM553 203q77 0 143.5 34.5t110 89t68.5 119.5t25 128q0 105 -61 173t-170 68q-100 0 -180 -56.5t-120.5 -141.5t-40.5 -178
q0 -110 61 -173t164 -63z" />
    <glyph glyph-name="uni1EAC" unicode="&#x1eac;" horiz-adv-x="1453" 
d="M948 1769l-171 -195h-177l280 299h174l174 -299h-178zM1339 0h-287l-53 304h-612l-161 -304h-294l783 1439h346zM513 542h444l-111 629zM607 -182q67 0 107.5 -48.5t27.5 -115.5q-11 -69 -68.5 -117.5t-124.5 -48.5q-69 0 -109.5 48t-29.5 118q13 68 70.5 116t126.5 48z
" />
    <glyph glyph-name="uni1EAD" unicode="&#x1ead;" horiz-adv-x="1288" 
d="M801 1402l-171 -196h-177l280 299h174l174 -299h-178zM962 1023h271l-181 -1023h-244l9 139q-54 -79 -145.5 -121t-196.5 -42q-187 0 -304.5 117t-117.5 320q0 117 42 229.5t115 201.5t182 143t234 54q112 0 195 -44.5t116 -121.5zM553 203q77 0 143.5 34.5t110 89
t68.5 119.5t25 128q0 105 -61 173t-170 68q-100 0 -180 -56.5t-120.5 -141.5t-40.5 -178q0 -110 61 -173t164 -63zM521 -182q67 0 107.5 -48.5t27.5 -115.5q-11 -69 -68.5 -117.5t-124.5 -48.5q-69 0 -109.5 48t-29.5 118q13 68 70.5 116t126.5 48z" />
    <glyph glyph-name="uni1EAE" unicode="&#x1eae;" horiz-adv-x="1453" 
d="M1354 2271l-273 -267h-178l328 368zM915 1574q-83 0 -145.5 16t-106 49.5t-59.5 91.5t-1 138h166q-15 -81 30.5 -121t139.5 -40q199 0 228 161h166q-54 -295 -418 -295zM715 1439h346l278 -1439h-287l-53 304h-612l-161 -304h-294zM513 542h444l-111 629z" />
    <glyph glyph-name="uni1EAF" unicode="&#x1eaf;" horiz-adv-x="1288" 
d="M1206 1914l-274 -268h-178l328 368zM757 1154q-165 0 -248.5 91t-53.5 260h166q-17 -95 27 -155.5t133 -60.5q91 0 156 60t82 156h166q-30 -170 -145.5 -260.5t-282.5 -90.5zM962 1023h271l-181 -1023h-244l9 139q-54 -79 -145.5 -121t-196.5 -42q-187 0 -304.5 117
t-117.5 320q0 117 42 229.5t115 201.5t182 143t234 54q112 0 195 -44.5t116 -121.5zM553 203q77 0 143.5 34.5t110 89t68.5 119.5t25 128q0 105 -61 173t-170 68q-100 0 -180 -56.5t-120.5 -141.5t-40.5 -178q0 -110 61 -173t164 -63z" />
    <glyph glyph-name="uni1EB0" unicode="&#x1eb0;" horiz-adv-x="1453" 
d="M1082 2004h-178l-180 267l160 101zM915 1574q-83 0 -145.5 16t-106 49.5t-59.5 91.5t-1 138h166q-15 -81 30.5 -121t139.5 -40q199 0 228 161h166q-54 -295 -418 -295zM1052 0l-53 304h-612l-161 -304h-294l783 1439h346l278 -1439h-287zM513 542h444l-111 629z" />
    <glyph glyph-name="uni1EB1" unicode="&#x1eb1;" horiz-adv-x="1288" 
d="M932 1646h-178l-178 268l158 100zM757 1154q-165 0 -248.5 91t-53.5 260h166q-17 -95 27 -155.5t133 -60.5q91 0 156 60t82 156h166q-30 -170 -145.5 -260.5t-282.5 -90.5zM962 1023h271l-181 -1023h-244l9 139q-54 -79 -145.5 -121t-196.5 -42q-187 0 -304.5 117
t-117.5 320q0 117 42 229.5t115 201.5t182 143t234 54q112 0 195 -44.5t116 -121.5zM553 203q77 0 143.5 34.5t110 89t68.5 119.5t25 128q0 105 -61 173t-170 68q-100 0 -180 -56.5t-120.5 -141.5t-40.5 -178q0 -110 61 -173t164 -63z" />
    <glyph glyph-name="uni1EB2" unicode="&#x1eb2;" horiz-adv-x="1453" 
d="M1021 2260q-48 0 -93 -38l-51 96q80 58 178 58q92 0 136.5 -48t30.5 -128q-21 -117 -155 -157l-14 -83h-127l23 135q114 19 129 97q5 30 -9.5 49t-47.5 19zM915 1574q-83 0 -145.5 16t-106 49.5t-59.5 91.5t-1 138h166q-15 -81 30.5 -121t139.5 -40q199 0 228 161h166
q-54 -295 -418 -295zM1052 0l-53 304h-612l-161 -304h-294l783 1439h346l278 -1439h-287zM513 542h444l-111 629z" />
    <glyph glyph-name="uni1EB3" unicode="&#x1eb3;" horiz-adv-x="1288" 
d="M868 1887q-48 0 -93 -39l-51 97q80 57 179 57q92 0 136 -48t30 -127q-12 -67 -52.5 -103t-102.5 -54l-14 -84h-127l23 135q114 21 129 97q5 31 -9 50t-48 19zM757 1154q-165 0 -248.5 91t-53.5 260h166q-17 -95 27 -155.5t133 -60.5q91 0 156 60t82 156h166
q-30 -170 -145.5 -260.5t-282.5 -90.5zM962 1023h271l-181 -1023h-244l9 139q-54 -79 -145.5 -121t-196.5 -42q-187 0 -304.5 117t-117.5 320q0 117 42 229.5t115 201.5t182 143t234 54q112 0 195 -44.5t116 -121.5zM553 203q77 0 143.5 34.5t110 89t68.5 119.5t25 128
q0 105 -61 173t-170 68q-100 0 -180 -56.5t-120.5 -141.5t-40.5 -178q0 -110 61 -173t164 -63z" />
    <glyph glyph-name="uni1EB4" unicode="&#x1eb4;" horiz-adv-x="1453" 
d="M903 2162q-40 0 -68.5 -41t-40.5 -107h-150q24 131 100 213t180 82q122 0 177 -117q22 -46 64 -46q40 0 67.5 39t39.5 108h151q-23 -129 -98 -211.5t-182 -82.5q-123 0 -178 117q-21 46 -62 46zM915 1574q-83 0 -145.5 16t-106 49.5t-59.5 91.5t-1 138h166
q-15 -81 30.5 -121t139.5 -40q199 0 228 161h166q-54 -295 -418 -295zM715 1439h346l278 -1439h-287l-53 304h-612l-161 -304h-294zM513 542h444l-111 629z" />
    <glyph glyph-name="uni1EB5" unicode="&#x1eb5;" horiz-adv-x="1288" 
d="M767 1780q-34 0 -58 -35t-34 -93h-136q20 116 87 189t160 73q57 0 96.5 -28t60.5 -75q16 -38 53 -38q66 0 89 128h138q-20 -115 -86.5 -188.5t-161.5 -73.5q-111 0 -157 102q-18 39 -51 39zM757 1154q-165 0 -248.5 91t-53.5 260h166q-17 -95 27 -155.5t133 -60.5
q91 0 156 60t82 156h166q-30 -170 -145.5 -260.5t-282.5 -90.5zM962 1023h271l-181 -1023h-244l9 139q-54 -79 -145.5 -121t-196.5 -42q-187 0 -304.5 117t-117.5 320q0 117 42 229.5t115 201.5t182 143t234 54q112 0 195 -44.5t116 -121.5zM553 203q77 0 143.5 34.5t110 89
t68.5 119.5t25 128q0 105 -61 173t-170 68q-100 0 -180 -56.5t-120.5 -141.5t-40.5 -178q0 -110 61 -173t164 -63z" />
    <glyph glyph-name="uni1EB6" unicode="&#x1eb6;" horiz-adv-x="1453" 
d="M915 1574q-83 0 -145.5 16t-106 49.5t-59.5 91.5t-1 138h166q-15 -81 30.5 -121t139.5 -40q199 0 228 161h166q-54 -295 -418 -295zM1339 0h-287l-53 304h-612l-161 -304h-294l783 1439h346zM513 542h444l-111 629zM607 -182q67 0 107.5 -48.5t27.5 -115.5
q-11 -69 -68.5 -117.5t-124.5 -48.5q-69 0 -109.5 48t-29.5 118q13 68 70.5 116t126.5 48z" />
    <glyph glyph-name="uni1EB7" unicode="&#x1eb7;" horiz-adv-x="1288" 
d="M757 1154q-165 0 -248.5 91t-53.5 260h166q-17 -95 27 -155.5t133 -60.5q91 0 156 60t82 156h166q-30 -170 -145.5 -260.5t-282.5 -90.5zM962 1023h271l-181 -1023h-244l9 139q-54 -79 -145.5 -121t-196.5 -42q-187 0 -304.5 117t-117.5 320q0 117 42 229.5t115 201.5
t182 143t234 54q112 0 195 -44.5t116 -121.5zM553 203q77 0 143.5 34.5t110 89t68.5 119.5t25 128q0 105 -61 173t-170 68q-100 0 -180 -56.5t-120.5 -141.5t-40.5 -178q0 -110 61 -173t164 -63zM521 -182q67 0 107.5 -48.5t27.5 -115.5q-11 -69 -68.5 -117.5t-124.5 -48.5
q-69 0 -109.5 48t-29.5 118q13 68 70.5 116t126.5 48z" />
    <glyph glyph-name="uni1EB8" unicode="&#x1eb8;" horiz-adv-x="1119" 
d="M1125 1190h-540l-61 -347h479l-43 -247h-480l-61 -345h540l-44 -251h-826l254 1439h826zM479 -182q67 0 107.5 -48.5t27.5 -115.5q-11 -69 -68.5 -117.5t-124.5 -48.5q-69 0 -109.5 48t-29.5 118q13 68 70.5 116t126.5 48z" />
    <glyph glyph-name="uni1EB9" unicode="&#x1eb9;" horiz-adv-x="1158" 
d="M670 1042q201 0 319.5 -101.5t118.5 -298.5q0 -58 -12 -124l-13 -58h-767q-2 -40 -2 -59q0 -101 59 -153.5t155 -52.5q83 0 154.5 41t116.5 112l243 -55q-76 -150 -213 -231.5t-302 -81.5q-222 0 -347.5 112t-125.5 314q0 99 25.5 192t77.5 173.5t124.5 141t172.5 95
t216 34.5zM667 852q-110 0 -187.5 -56.5t-119.5 -153.5h493q2 24 2 33q0 88 -51.5 132.5t-136.5 44.5zM493 -183q67 0 107.5 -48.5t27.5 -115.5q-11 -69 -68.5 -117.5t-124.5 -48.5q-69 0 -109.5 48t-29.5 118q13 68 70.5 116t126.5 48z" />
    <glyph glyph-name="uni1EBA" unicode="&#x1eba;" horiz-adv-x="1119" 
d="M815 1830q-48 0 -93 -38l-51 96q80 58 178 58q92 0 136.5 -48t30.5 -128q-21 -117 -155 -157l-14 -83h-127l23 135q114 19 129 97q5 30 -9.5 49t-47.5 19zM1125 1190h-540l-61 -347h479l-43 -247h-480l-61 -345h540l-44 -251h-826l254 1439h826z" />
    <glyph glyph-name="uni1EBB" unicode="&#x1ebb;" horiz-adv-x="1158" 
d="M742 1407q-48 0 -93 -39l-51 97q80 57 179 57q92 0 136 -48t30 -127q-12 -67 -52.5 -103t-102.5 -54l-14 -84h-127l23 135q114 21 129 97q5 31 -9 50t-48 19zM670 1042q201 0 319.5 -101.5t118.5 -298.5q0 -58 -12 -124l-13 -58h-767q-2 -40 -2 -59q0 -101 59 -153.5
t155 -52.5q83 0 154.5 41t116.5 112l243 -55q-76 -150 -213 -231.5t-302 -81.5q-222 0 -347.5 112t-125.5 314q0 99 25.5 192t77.5 173.5t124.5 141t172.5 95t216 34.5zM667 852q-110 0 -187.5 -56.5t-119.5 -153.5h493q2 24 2 33q0 88 -51.5 132.5t-136.5 44.5z" />
    <glyph glyph-name="uni1EBC" unicode="&#x1ebc;" horiz-adv-x="1119" 
d="M697 1732q-40 0 -68.5 -41t-40.5 -107h-150q24 131 100 213t180 82q122 0 177 -117q22 -46 64 -46q40 0 67.5 39t39.5 108h151q-23 -129 -98 -211.5t-182 -82.5q-123 0 -178 117q-21 46 -62 46zM89 0l254 1439h826l-44 -249h-540l-61 -347h479l-43 -247h-480l-61 -345
h540l-44 -251h-826z" />
    <glyph glyph-name="uni1EBD" unicode="&#x1ebd;" horiz-adv-x="1158" 
d="M641 1300q-34 0 -58 -35t-34 -93h-136q20 116 87 189t160 73q57 0 96.5 -28t60.5 -75q16 -38 53 -38q66 0 89 128h138q-20 -115 -86.5 -188.5t-161.5 -73.5q-111 0 -157 102q-18 39 -51 39zM670 1042q201 0 319.5 -101.5t118.5 -298.5q0 -58 -12 -124l-13 -58h-767
q-2 -40 -2 -59q0 -101 59 -153.5t155 -52.5q83 0 154.5 41t116.5 112l243 -55q-76 -150 -213 -231.5t-302 -81.5q-222 0 -347.5 112t-125.5 314q0 99 25.5 192t77.5 173.5t124.5 141t172.5 95t216 34.5zM667 852q-110 0 -187.5 -56.5t-119.5 -153.5h493q2 24 2 33
q0 88 -51.5 132.5t-136.5 44.5z" />
    <glyph glyph-name="uni1EBE" unicode="&#x1ebe;" horiz-adv-x="1119" 
d="M1224 2275l-273 -267h-178l328 368zM820 1769l-171 -195h-177l280 299h174l174 -299h-178zM89 0l254 1439h826l-44 -249h-540l-61 -347h479l-43 -247h-480l-61 -345h540l-44 -251h-826z" />
    <glyph glyph-name="uni1EBF" unicode="&#x1ebf;" horiz-adv-x="1158" 
d="M1163 1911l-274 -268h-178l328 368zM758 1399l-171 -196h-177l280 299h174l174 -299h-178zM670 1042q201 0 319.5 -101.5t118.5 -298.5q0 -58 -12 -124l-13 -58h-767q-2 -40 -2 -59q0 -101 59 -153.5t155 -52.5q83 0 154.5 41t116.5 112l243 -55q-76 -150 -213 -231.5
t-302 -81.5q-222 0 -347.5 112t-125.5 314q0 99 25.5 192t77.5 173.5t124.5 141t172.5 95t216 34.5zM667 852q-110 0 -187.5 -56.5t-119.5 -153.5h493q2 24 2 33q0 88 -51.5 132.5t-136.5 44.5z" />
    <glyph glyph-name="uni1EC0" unicode="&#x1ec0;" horiz-adv-x="1119" 
d="M952 2008h-178l-180 267l160 101zM820 1769l-171 -195h-177l280 299h174l174 -299h-178zM1125 1190h-540l-61 -347h479l-43 -247h-480l-61 -345h540l-44 -251h-826l254 1439h826z" />
    <glyph glyph-name="uni1EC1" unicode="&#x1ec1;" horiz-adv-x="1158" 
d="M889 1643h-178l-178 268l158 100zM758 1399l-171 -196h-177l280 299h174l174 -299h-178zM670 1042q201 0 319.5 -101.5t118.5 -298.5q0 -58 -12 -124l-13 -58h-767q-2 -40 -2 -59q0 -101 59 -153.5t155 -52.5q83 0 154.5 41t116.5 112l243 -55q-76 -150 -213 -231.5
t-302 -81.5q-222 0 -347.5 112t-125.5 314q0 99 25.5 192t77.5 173.5t124.5 141t172.5 95t216 34.5zM667 852q-110 0 -187.5 -56.5t-119.5 -153.5h493q2 24 2 33q0 88 -51.5 132.5t-136.5 44.5z" />
    <glyph glyph-name="uni1EC2" unicode="&#x1ec2;" horiz-adv-x="1119" 
d="M891 2264q-48 0 -93 -38l-51 96q80 58 178 58q92 0 136.5 -48t30.5 -128q-21 -117 -155 -157l-14 -83h-127l23 135q114 19 129 97q5 30 -9.5 49t-47.5 19zM820 1769l-171 -195h-177l280 299h174l174 -299h-178zM1125 1190h-540l-61 -347h479l-43 -247h-480l-61 -345h540
l-44 -251h-826l254 1439h826z" />
    <glyph glyph-name="uni1EC3" unicode="&#x1ec3;" horiz-adv-x="1158" 
d="M825 1884q-48 0 -93 -39l-51 97q80 57 179 57q92 0 136 -48t30 -127q-12 -67 -52.5 -103t-102.5 -54l-14 -84h-127l23 135q114 21 129 97q5 31 -9 50t-48 19zM758 1399l-171 -196h-177l280 299h174l174 -299h-178zM670 1042q201 0 319.5 -101.5t118.5 -298.5
q0 -58 -12 -124l-13 -58h-767q-2 -40 -2 -59q0 -101 59 -153.5t155 -52.5q83 0 154.5 41t116.5 112l243 -55q-76 -150 -213 -231.5t-302 -81.5q-222 0 -347.5 112t-125.5 314q0 99 25.5 192t77.5 173.5t124.5 141t172.5 95t216 34.5zM667 852q-110 0 -187.5 -56.5
t-119.5 -153.5h493q2 24 2 33q0 88 -51.5 132.5t-136.5 44.5z" />
    <glyph glyph-name="uni1EC4" unicode="&#x1ec4;" horiz-adv-x="1119" 
d="M1142 2297h151q-23 -129 -98 -211.5t-182 -82.5q-123 0 -178 117q-21 46 -62 46q-40 0 -68.5 -41t-40.5 -107h-150q24 131 100 213t180 82q122 0 177 -117q22 -46 64 -46q40 0 67.5 39t39.5 108zM922 1574l-102 195l-171 -195h-177l280 299h174l174 -299h-178zM89 0
l254 1439h826l-44 -249h-540l-61 -347h479l-43 -247h-480l-61 -345h540l-44 -251h-826z" />
    <glyph glyph-name="uni1EC5" unicode="&#x1ec5;" horiz-adv-x="1158" 
d="M724 1777q-34 0 -58 -35t-34 -93h-136q20 116 87 189t160 73q57 0 96.5 -28t60.5 -75q16 -38 53 -38q66 0 89 128h138q-20 -115 -86.5 -188.5t-161.5 -73.5q-111 0 -157 102q-18 39 -51 39zM758 1399l-171 -196h-177l280 299h174l174 -299h-178zM670 1042
q201 0 319.5 -101.5t118.5 -298.5q0 -58 -12 -124l-13 -58h-767q-2 -40 -2 -59q0 -101 59 -153.5t155 -52.5q83 0 154.5 41t116.5 112l243 -55q-76 -150 -213 -231.5t-302 -81.5q-222 0 -347.5 112t-125.5 314q0 99 25.5 192t77.5 173.5t124.5 141t172.5 95t216 34.5z
M667 852q-110 0 -187.5 -56.5t-119.5 -153.5h493q2 24 2 33q0 88 -51.5 132.5t-136.5 44.5z" />
    <glyph glyph-name="uni1EC6" unicode="&#x1ec6;" horiz-adv-x="1119" 
d="M820 1769l-171 -195h-177l280 299h174l174 -299h-178zM1125 1190h-540l-61 -347h479l-43 -247h-480l-61 -345h540l-44 -251h-826l254 1439h826zM479 -182q67 0 107.5 -48.5t27.5 -115.5q-11 -69 -68.5 -117.5t-124.5 -48.5q-69 0 -109.5 48t-29.5 118q13 68 70.5 116
t126.5 48z" />
    <glyph glyph-name="uni1EC7" unicode="&#x1ec7;" horiz-adv-x="1158" 
d="M758 1399l-171 -196h-177l280 299h174l174 -299h-178zM670 1042q201 0 319.5 -101.5t118.5 -298.5q0 -58 -12 -124l-13 -58h-767q-2 -40 -2 -59q0 -101 59 -153.5t155 -52.5q83 0 154.5 41t116.5 112l243 -55q-76 -150 -213 -231.5t-302 -81.5q-222 0 -347.5 112
t-125.5 314q0 99 25.5 192t77.5 173.5t124.5 141t172.5 95t216 34.5zM667 852q-110 0 -187.5 -56.5t-119.5 -153.5h493q2 24 2 33q0 88 -51.5 132.5t-136.5 44.5zM493 -183q67 0 107.5 -48.5t27.5 -115.5q-11 -69 -68.5 -117.5t-124.5 -48.5q-69 0 -109.5 48t-29.5 118
q13 68 70.5 116t126.5 48z" />
    <glyph glyph-name="uni1EC8" unicode="&#x1ec8;" horiz-adv-x="643" 
d="M440 1530l23 135q114 19 129 97q5 30 -9.5 49t-47.5 19q-48 0 -93 -38l-51 96q80 58 178 58q92 0 136.5 -48t30.5 -128q-21 -117 -155 -157l-14 -83h-127zM89 0l254 1439h283l-254 -1439h-283z" />
    <glyph glyph-name="uni1EC9" unicode="&#x1ec9;" horiz-adv-x="577" 
d="M335 1109l23 135q114 21 129 97q5 31 -9 50t-48 19q-48 0 -93 -39l-51 97q80 57 179 57q92 0 136 -48t30 -127q-12 -67 -52.5 -103t-102.5 -54l-14 -84h-127zM53 0l182 1028h290l-183 -1028h-289z" />
    <glyph glyph-name="uni1ECA" unicode="&#x1eca;" horiz-adv-x="643" 
d="M89 0l254 1439h283l-254 -1439h-283zM141 -512q-69 0 -109.5 48t-29.5 118q13 68 70.5 116t126.5 48q67 0 107.5 -48.5t27.5 -115.5q-11 -69 -68.5 -117.5t-124.5 -48.5z" />
    <glyph glyph-name="uni1ECB" unicode="&#x1ecb;" horiz-adv-x="577" 
d="M423 1196q-69 0 -112.5 48.5t-37.5 117.5q7 68 62 116t124 48q67 0 110 -48t36 -116q-7 -69 -61 -117.5t-121 -48.5zM53 0l182 1028h290l-183 -1028h-289zM110 -512q-69 0 -109.5 48t-29.5 118q13 68 70.5 116t126.5 48q67 0 107.5 -48.5t27.5 -115.5
q-11 -69 -68.5 -117.5t-124.5 -48.5z" />
    <glyph glyph-name="uni1ECC" unicode="&#x1ecc;" horiz-adv-x="1631" 
d="M740 -20q-286 0 -458.5 162t-172.5 438q0 134 37.5 263t111.5 240t176 195.5t239 132.5t292 48q285 0 458 -161.5t173 -436.5q0 -134 -37.5 -263.5t-112 -240.5t-176.5 -195.5t-239 -133t-291 -48.5zM751 241q126 0 234.5 52.5t180 138t111.5 193.5t40 220
q0 166 -99 260.5t-264 94.5q-125 0 -233.5 -52.5t-180 -137.5t-112.5 -193.5t-41 -220.5q0 -167 99.5 -261t264.5 -94zM638 -512q-69 0 -109.5 48t-29.5 118q13 68 70.5 116t126.5 48q67 0 107.5 -48.5t27.5 -115.5q-11 -69 -68.5 -117.5t-124.5 -48.5z" />
    <glyph glyph-name="uni1ECD" unicode="&#x1ecd;" horiz-adv-x="1230" 
d="M537 -20q-220 0 -352 116t-132 319q0 124 43.5 237t123 199.5t201.5 138t269 51.5q222 0 353.5 -116t131.5 -318q0 -124 -44 -237t-124 -200t-202 -138.5t-268 -51.5zM544 197q83 0 153 36t114.5 94t69.5 128t25 140q0 106 -61.5 169t-167.5 63q-65 0 -123 -24
t-99.5 -64.5t-71.5 -92t-45 -107t-15 -110.5q0 -108 59 -170t162 -62zM435 -512q-69 0 -109.5 48t-29.5 118q13 68 70.5 116t126.5 48q67 0 107.5 -48.5t27.5 -115.5q-11 -69 -68.5 -117.5t-124.5 -48.5z" />
    <glyph glyph-name="uni1ECE" unicode="&#x1ece;" horiz-adv-x="1631" 
d="M937 1530l23 135q114 19 129 97q5 30 -9.5 49t-47.5 19q-48 0 -93 -38l-51 96q80 58 178 58q92 0 136.5 -48t30.5 -128q-21 -117 -155 -157l-14 -83h-127zM740 -20q-286 0 -458.5 162t-172.5 438q0 134 37.5 263t111.5 240t176 195.5t239 132.5t292 48q285 0 458 -161.5
t173 -436.5q0 -134 -37.5 -263.5t-112 -240.5t-176.5 -195.5t-239 -133t-291 -48.5zM751 241q126 0 234.5 52.5t180 138t111.5 193.5t40 220q0 166 -99 260.5t-264 94.5q-125 0 -233.5 -52.5t-180 -137.5t-112.5 -193.5t-41 -220.5q0 -167 99.5 -261t264.5 -94z" />
    <glyph glyph-name="uni1ECF" unicode="&#x1ecf;" horiz-adv-x="1230" 
d="M656 1102l23 135q114 21 129 97q5 31 -9 50t-48 19q-48 0 -93 -39l-51 97q80 57 179 57q92 0 136 -48t30 -127q-12 -67 -52.5 -103t-102.5 -54l-14 -84h-127zM537 -20q-220 0 -352 116t-132 319q0 124 43.5 237t123 199.5t201.5 138t269 51.5q222 0 353.5 -116
t131.5 -318q0 -124 -44 -237t-124 -200t-202 -138.5t-268 -51.5zM544 197q83 0 153 36t114.5 94t69.5 128t25 140q0 106 -61.5 169t-167.5 63q-65 0 -123 -24t-99.5 -64.5t-71.5 -92t-45 -107t-15 -110.5q0 -108 59 -170t162 -62z" />
    <glyph glyph-name="uni1ED0" unicode="&#x1ed0;" horiz-adv-x="1631" 
d="M990 2008l328 368l123 -101l-273 -267h-178zM866 1574h-177l280 299h174l174 -299h-178l-102 195zM740 -20q-286 0 -458.5 162t-172.5 438q0 134 37.5 263t111.5 240t176 195.5t239 132.5t292 48q285 0 458 -161.5t173 -436.5q0 -134 -37.5 -263.5t-112 -240.5
t-176.5 -195.5t-239 -133t-291 -48.5zM751 241q126 0 234.5 52.5t180 138t111.5 193.5t40 220q0 166 -99 260.5t-264 94.5q-125 0 -233.5 -52.5t-180 -137.5t-112.5 -193.5t-41 -220.5q0 -167 99.5 -261t264.5 -94z" />
    <glyph glyph-name="uni1ED1" unicode="&#x1ed1;" horiz-adv-x="1230" 
d="M720 1639l328 368l124 -100l-274 -268h-178zM596 1199h-177l280 299h174l174 -299h-178l-102 196zM537 -20q-220 0 -352 116t-132 319q0 124 43.5 237t123 199.5t201.5 138t269 51.5q222 0 353.5 -116t131.5 -318q0 -124 -44 -237t-124 -200t-202 -138.5t-268 -51.5z
M544 197q83 0 153 36t114.5 94t69.5 128t25 140q0 106 -61.5 169t-167.5 63q-65 0 -123 -24t-99.5 -64.5t-71.5 -92t-45 -107t-15 -110.5q0 -108 59 -170t162 -62z" />
    <glyph glyph-name="uni1ED2" unicode="&#x1ed2;" horiz-adv-x="1631" 
d="M991 2008l-180 267l160 101l198 -368h-178zM866 1574h-177l280 299h174l174 -299h-178l-102 195zM740 -20q-286 0 -458.5 162t-172.5 438q0 134 37.5 263t111.5 240t176 195.5t239 132.5t292 48q285 0 458 -161.5t173 -436.5q0 -134 -37.5 -263.5t-112 -240.5
t-176.5 -195.5t-239 -133t-291 -48.5zM751 241q126 0 234.5 52.5t180 138t111.5 193.5t40 220q0 166 -99 260.5t-264 94.5q-125 0 -233.5 -52.5t-180 -137.5t-112.5 -193.5t-41 -220.5q0 -167 99.5 -261t264.5 -94z" />
    <glyph glyph-name="uni1ED3" unicode="&#x1ed3;" horiz-adv-x="1230" 
d="M720 1639l-178 268l158 100l198 -368h-178zM596 1199h-177l280 299h174l174 -299h-178l-102 196zM537 -20q-220 0 -352 116t-132 319q0 124 43.5 237t123 199.5t201.5 138t269 51.5q222 0 353.5 -116t131.5 -318q0 -124 -44 -237t-124 -200t-202 -138.5t-268 -51.5z
M544 197q83 0 153 36t114.5 94t69.5 128t25 140q0 106 -61.5 169t-167.5 63q-65 0 -123 -24t-99.5 -64.5t-71.5 -92t-45 -107t-15 -110.5q0 -108 59 -170t162 -62z" />
    <glyph glyph-name="uni1ED4" unicode="&#x1ed4;" horiz-adv-x="1631" 
d="M1013 1964l23 135q114 19 129 97q5 30 -9.5 49t-47.5 19q-48 0 -93 -38l-51 96q80 58 178 58q92 0 136.5 -48t30.5 -128q-21 -117 -155 -157l-14 -83h-127zM866 1574h-177l280 299h174l174 -299h-178l-102 195zM740 -20q-286 0 -458.5 162t-172.5 438q0 134 37.5 263
t111.5 240t176 195.5t239 132.5t292 48q285 0 458 -161.5t173 -436.5q0 -134 -37.5 -263.5t-112 -240.5t-176.5 -195.5t-239 -133t-291 -48.5zM751 241q126 0 234.5 52.5t180 138t111.5 193.5t40 220q0 166 -99 260.5t-264 94.5q-125 0 -233.5 -52.5t-180 -137.5
t-112.5 -193.5t-41 -220.5q0 -167 99.5 -261t264.5 -94z" />
    <glyph glyph-name="uni1ED5" unicode="&#x1ed5;" horiz-adv-x="1230" 
d="M739 1579l23 135q114 21 129 97q5 31 -9 50t-48 19q-48 0 -93 -39l-51 97q80 57 179 57q92 0 136 -48t30 -127q-12 -67 -52.5 -103t-102.5 -54l-14 -84h-127zM596 1199h-177l280 299h174l174 -299h-178l-102 196zM537 -20q-220 0 -352 116t-132 319q0 124 43.5 237
t123 199.5t201.5 138t269 51.5q222 0 353.5 -116t131.5 -318q0 -124 -44 -237t-124 -200t-202 -138.5t-268 -51.5zM544 197q83 0 153 36t114.5 94t69.5 128t25 140q0 106 -61.5 169t-167.5 63q-65 0 -123 -24t-99.5 -64.5t-71.5 -92t-45 -107t-15 -110.5q0 -108 59 -170
t162 -62z" />
    <glyph glyph-name="uni1ED6" unicode="&#x1ed6;" horiz-adv-x="1631" 
d="M1230 2003q-123 0 -178 117q-21 46 -62 46q-40 0 -68.5 -41t-40.5 -107h-150q24 131 100 213t180 82q122 0 177 -117q22 -46 64 -46q40 0 67.5 39t39.5 108h151q-23 -129 -98 -211.5t-182 -82.5zM866 1574h-177l280 299h174l174 -299h-178l-102 195zM740 -20
q-286 0 -458.5 162t-172.5 438q0 134 37.5 263t111.5 240t176 195.5t239 132.5t292 48q285 0 458 -161.5t173 -436.5q0 -134 -37.5 -263.5t-112 -240.5t-176.5 -195.5t-239 -133t-291 -48.5zM751 241q126 0 234.5 52.5t180 138t111.5 193.5t40 220q0 166 -99 260.5
t-264 94.5q-125 0 -233.5 -52.5t-180 -137.5t-112.5 -193.5t-41 -220.5q0 -167 99.5 -261t264.5 -94z" />
    <glyph glyph-name="uni1ED7" unicode="&#x1ed7;" horiz-adv-x="1230" 
d="M941 1632q-111 0 -157 102q-18 39 -51 39q-34 0 -58 -35t-34 -93h-136q20 116 87 189t160 73q57 0 96.5 -28t60.5 -75q16 -38 53 -38q66 0 89 128h138q-20 -115 -86.5 -188.5t-161.5 -73.5zM596 1199h-177l280 299h174l174 -299h-178l-102 196zM537 -20q-220 0 -352 116
t-132 319q0 124 43.5 237t123 199.5t201.5 138t269 51.5q222 0 353.5 -116t131.5 -318q0 -124 -44 -237t-124 -200t-202 -138.5t-268 -51.5zM544 197q83 0 153 36t114.5 94t69.5 128t25 140q0 106 -61.5 169t-167.5 63q-65 0 -123 -24t-99.5 -64.5t-71.5 -92t-45 -107
t-15 -110.5q0 -108 59 -170t162 -62z" />
    <glyph glyph-name="uni1ED8" unicode="&#x1ed8;" horiz-adv-x="1631" 
d="M866 1574h-177l280 299h174l174 -299h-178l-102 195zM740 -20q-286 0 -458.5 162t-172.5 438q0 134 37.5 263t111.5 240t176 195.5t239 132.5t292 48q285 0 458 -161.5t173 -436.5q0 -134 -37.5 -263.5t-112 -240.5t-176.5 -195.5t-239 -133t-291 -48.5zM751 241
q126 0 234.5 52.5t180 138t111.5 193.5t40 220q0 166 -99 260.5t-264 94.5q-125 0 -233.5 -52.5t-180 -137.5t-112.5 -193.5t-41 -220.5q0 -167 99.5 -261t264.5 -94zM638 -512q-69 0 -109.5 48t-29.5 118q13 68 70.5 116t126.5 48q67 0 107.5 -48.5t27.5 -115.5
q-11 -69 -68.5 -117.5t-124.5 -48.5z" />
    <glyph glyph-name="uni1ED9" unicode="&#x1ed9;" horiz-adv-x="1230" 
d="M596 1199h-177l280 299h174l174 -299h-178l-102 196zM537 -20q-220 0 -352 116t-132 319q0 124 43.5 237t123 199.5t201.5 138t269 51.5q222 0 353.5 -116t131.5 -318q0 -124 -44 -237t-124 -200t-202 -138.5t-268 -51.5zM544 197q83 0 153 36t114.5 94t69.5 128t25 140
q0 106 -61.5 169t-167.5 63q-65 0 -123 -24t-99.5 -64.5t-71.5 -92t-45 -107t-15 -110.5q0 -108 59 -170t162 -62zM435 -512q-69 0 -109.5 48t-29.5 118q13 68 70.5 116t126.5 48q67 0 107.5 -48.5t27.5 -115.5q-11 -69 -68.5 -117.5t-124.5 -48.5z" />
    <glyph glyph-name="uni1EDA" unicode="&#x1eda;" horiz-adv-x="1631" 
d="M1365 1841l-273 -267h-178l328 368zM1666 1540h140l-29 -166q-12 -65 -35 -111.5t-54.5 -72t-65 -36.5t-72.5 -11h-14q60 -125 60 -282q0 -134 -37.5 -263.5t-112 -240.5t-176.5 -195.5t-239 -133t-291 -48.5q-286 0 -458.5 162t-172.5 438q0 134 37.5 263t111.5 240
t176 195.5t239 132.5t292 48q288 0 460 -163l3 5q48 -28 94 -28q55 0 81.5 30.5t39.5 109.5zM751 241q126 0 234.5 52.5t180 138t111.5 193.5t40 220q0 166 -99 260.5t-264 94.5q-125 0 -233.5 -52.5t-180 -137.5t-112.5 -193.5t-41 -220.5q0 -167 99.5 -261t264.5 -94z" />
    <glyph glyph-name="uni1EDB" unicode="&#x1edb;" horiz-adv-x="1230" 
d="M1089 1430l-274 -268h-178l328 368zM1245 1189h140l-29 -166q-40 -223 -217 -231q36 -81 36 -185q0 -124 -44 -237t-124 -200t-202 -138.5t-268 -51.5q-220 0 -352 116t-132 319q0 124 43.5 237t123 199.5t201.5 138t269 51.5q206 0 335 -100q39 -19 76 -19
q55 0 81.5 30.5t39.5 109.5zM544 197q83 0 153 36t114.5 94t69.5 128t25 140q0 106 -61.5 169t-167.5 63q-65 0 -123 -24t-99.5 -64.5t-71.5 -92t-45 -107t-15 -110.5q0 -108 59 -170t162 -62z" />
    <glyph glyph-name="uni1EDC" unicode="&#x1edc;" horiz-adv-x="1631" 
d="M1093 1574h-178l-180 267l160 101zM1666 1540h140l-29 -166q-12 -65 -35 -111.5t-54.5 -72t-65 -36.5t-72.5 -11h-14q60 -125 60 -282q0 -134 -37.5 -263.5t-112 -240.5t-176.5 -195.5t-239 -133t-291 -48.5q-286 0 -458.5 162t-172.5 438q0 134 37.5 263t111.5 240
t176 195.5t239 132.5t292 48q288 0 460 -163l3 5q48 -28 94 -28q55 0 81.5 30.5t39.5 109.5zM751 241q126 0 234.5 52.5t180 138t111.5 193.5t40 220q0 166 -99 260.5t-264 94.5q-125 0 -233.5 -52.5t-180 -137.5t-112.5 -193.5t-41 -220.5q0 -167 99.5 -261t264.5 -94z" />
    <glyph glyph-name="uni1EDD" unicode="&#x1edd;" horiz-adv-x="1230" 
d="M815 1162h-178l-178 268l158 100zM1245 1189h140l-29 -166q-40 -223 -217 -231q36 -81 36 -185q0 -124 -44 -237t-124 -200t-202 -138.5t-268 -51.5q-220 0 -352 116t-132 319q0 124 43.5 237t123 199.5t201.5 138t269 51.5q206 0 335 -100q39 -19 76 -19q55 0 81.5 30.5
t39.5 109.5zM544 197q83 0 153 36t114.5 94t69.5 128t25 140q0 106 -61.5 169t-167.5 63q-65 0 -123 -24t-99.5 -64.5t-71.5 -92t-45 -107t-15 -110.5q0 -108 59 -170t162 -62z" />
    <glyph glyph-name="uni1EDE" unicode="&#x1ede;" horiz-adv-x="1631" 
d="M1032 1830q-48 0 -93 -38l-51 96q80 58 178 58q92 0 136.5 -48t30.5 -128q-21 -117 -155 -157l-14 -83h-127l23 135q114 19 129 97q5 30 -9.5 49t-47.5 19zM1666 1540h140l-29 -166q-12 -65 -35 -111.5t-54.5 -72t-65 -36.5t-72.5 -11h-14q60 -125 60 -282
q0 -134 -37.5 -263.5t-112 -240.5t-176.5 -195.5t-239 -133t-291 -48.5q-286 0 -458.5 162t-172.5 438q0 134 37.5 263t111.5 240t176 195.5t239 132.5t292 48q288 0 460 -163l3 5q48 -28 94 -28q55 0 81.5 30.5t39.5 109.5zM751 241q126 0 234.5 52.5t180 138t111.5 193.5
t40 220q0 166 -99 260.5t-264 94.5q-125 0 -233.5 -52.5t-180 -137.5t-112.5 -193.5t-41 -220.5q0 -167 99.5 -261t264.5 -94z" />
    <glyph glyph-name="uni1EDF" unicode="&#x1edf;" horiz-adv-x="1230" 
d="M751 1403q-48 0 -93 -39l-51 97q80 57 179 57q92 0 136 -48t30 -127q-12 -67 -52.5 -103t-102.5 -54l-14 -84h-127l23 135q114 21 129 97q5 31 -9 50t-48 19zM1245 1189h140l-29 -166q-40 -223 -217 -231q36 -81 36 -185q0 -124 -44 -237t-124 -200t-202 -138.5
t-268 -51.5q-220 0 -352 116t-132 319q0 124 43.5 237t123 199.5t201.5 138t269 51.5q206 0 335 -100q39 -19 76 -19q55 0 81.5 30.5t39.5 109.5zM544 197q83 0 153 36t114.5 94t69.5 128t25 140q0 106 -61.5 169t-167.5 63q-65 0 -123 -24t-99.5 -64.5t-71.5 -92t-45 -107
t-15 -110.5q0 -108 59 -170t162 -62z" />
    <glyph glyph-name="uni1EE0" unicode="&#x1ee0;" horiz-adv-x="1631" 
d="M914 1732q-40 0 -68.5 -41t-40.5 -107h-150q24 131 100 213t180 82q122 0 177 -117q22 -46 64 -46q40 0 67.5 39t39.5 108h151q-23 -129 -98 -211.5t-182 -82.5q-123 0 -178 117q-21 46 -62 46zM1666 1540h140l-29 -166q-12 -65 -35 -111.5t-54.5 -72t-65 -36.5
t-72.5 -11h-14q60 -125 60 -282q0 -134 -37.5 -263.5t-112 -240.5t-176.5 -195.5t-239 -133t-291 -48.5q-286 0 -458.5 162t-172.5 438q0 134 37.5 263t111.5 240t176 195.5t239 132.5t292 48q288 0 460 -163l3 5q48 -28 94 -28q55 0 81.5 30.5t39.5 109.5zM751 241
q126 0 234.5 52.5t180 138t111.5 193.5t40 220q0 166 -99 260.5t-264 94.5q-125 0 -233.5 -52.5t-180 -137.5t-112.5 -193.5t-41 -220.5q0 -167 99.5 -261t264.5 -94z" />
    <glyph glyph-name="uni1EE1" unicode="&#x1ee1;" horiz-adv-x="1230" 
d="M650 1296q-34 0 -58 -35t-34 -93h-136q20 116 87 189t160 73q57 0 96.5 -28t60.5 -75q16 -38 53 -38q66 0 89 128h138q-20 -115 -86.5 -188.5t-161.5 -73.5q-111 0 -157 102q-18 39 -51 39zM1245 1189h140l-29 -166q-40 -223 -217 -231q36 -81 36 -185q0 -124 -44 -237
t-124 -200t-202 -138.5t-268 -51.5q-220 0 -352 116t-132 319q0 124 43.5 237t123 199.5t201.5 138t269 51.5q206 0 335 -100q39 -19 76 -19q55 0 81.5 30.5t39.5 109.5zM544 197q83 0 153 36t114.5 94t69.5 128t25 140q0 106 -61.5 169t-167.5 63q-65 0 -123 -24
t-99.5 -64.5t-71.5 -92t-45 -107t-15 -110.5q0 -108 59 -170t162 -62z" />
    <glyph glyph-name="uni1EE2" unicode="&#x1ee2;" horiz-adv-x="1631" 
d="M1666 1540h140l-29 -166q-12 -65 -35 -111.5t-54.5 -72t-65 -36.5t-72.5 -11h-14q60 -125 60 -282q0 -134 -37.5 -263.5t-112 -240.5t-176.5 -195.5t-239 -133t-291 -48.5q-286 0 -458.5 162t-172.5 438q0 134 37.5 263t111.5 240t176 195.5t239 132.5t292 48
q288 0 460 -163l3 5q48 -28 94 -28q55 0 81.5 30.5t39.5 109.5zM751 241q126 0 234.5 52.5t180 138t111.5 193.5t40 220q0 166 -99 260.5t-264 94.5q-125 0 -233.5 -52.5t-180 -137.5t-112.5 -193.5t-41 -220.5q0 -167 99.5 -261t264.5 -94zM696 -182q67 0 107.5 -48.5
t27.5 -115.5q-11 -69 -68.5 -117.5t-124.5 -48.5q-69 0 -109.5 48t-29.5 118q13 68 70.5 116t126.5 48z" />
    <glyph glyph-name="uni1EE3" unicode="&#x1ee3;" horiz-adv-x="1230" 
d="M1245 1189h140l-29 -166q-40 -223 -217 -231q36 -81 36 -185q0 -124 -44 -237t-124 -200t-202 -138.5t-268 -51.5q-220 0 -352 116t-132 319q0 124 43.5 237t123 199.5t201.5 138t269 51.5q206 0 335 -100q39 -19 76 -19q55 0 81.5 30.5t39.5 109.5zM544 197q83 0 153 36
t114.5 94t69.5 128t25 140q0 106 -61.5 169t-167.5 63q-65 0 -123 -24t-99.5 -64.5t-71.5 -92t-45 -107t-15 -110.5q0 -108 59 -170t162 -62zM493 -182q67 0 107.5 -48.5t27.5 -115.5q-11 -69 -68.5 -117.5t-124.5 -48.5q-69 0 -109.5 48t-29.5 118q13 68 70.5 116t126.5 48
z" />
    <glyph glyph-name="uni1EE4" unicode="&#x1ee4;" horiz-adv-x="1420" 
d="M632 -20q-224 0 -359.5 107t-135.5 309q0 53 11 114l165 929h282l-159 -909q-10 -57 -10 -92q0 -108 57.5 -157.5t156.5 -49.5q130 0 225.5 79.5t124.5 237.5l158 891h283l-167 -949q-23 -130 -82.5 -229.5t-144.5 -160t-187 -90.5t-218 -30zM528 -512q-69 0 -109.5 48
t-29.5 118q13 68 70.5 116t126.5 48q67 0 107.5 -48.5t27.5 -115.5q-11 -69 -68.5 -117.5t-124.5 -48.5z" />
    <glyph glyph-name="uni1EE5" unicode="&#x1ee5;" horiz-adv-x="1194" 
d="M869 1023h271l-182 -1023h-255l18 147q-65 -78 -152.5 -122.5t-188.5 -44.5q-140 0 -218 73t-78 204q0 36 8 86l122 680h270l-110 -626q-7 -39 -7 -58q0 -69 36.5 -100.5t97.5 -31.5q100 0 172 60.5t91 167.5h2zM478 -182q67 0 107.5 -48.5t27.5 -115.5
q-11 -69 -68.5 -117.5t-124.5 -48.5q-69 0 -109.5 48t-29.5 118q13 68 70.5 116t126.5 48z" />
    <glyph glyph-name="uni1EE6" unicode="&#x1ee6;" horiz-adv-x="1420" 
d="M828 1530l23 135q114 19 129 97q5 30 -9.5 49t-47.5 19q-48 0 -93 -38l-51 96q80 58 178 58q92 0 136.5 -48t30.5 -128q-21 -117 -155 -157l-14 -83h-127zM632 -20q-224 0 -359.5 107t-135.5 309q0 53 11 114l165 929h282l-159 -909q-10 -57 -10 -92q0 -108 57.5 -157.5
t156.5 -49.5q130 0 225.5 79.5t124.5 237.5l158 891h283l-167 -949q-23 -130 -82.5 -229.5t-144.5 -160t-187 -90.5t-218 -30z" />
    <glyph glyph-name="uni1EE7" unicode="&#x1ee7;" horiz-adv-x="1194" 
d="M739 1405q-48 0 -93 -39l-51 97q80 57 179 57q92 0 136 -48t30 -127q-12 -67 -52.5 -103t-102.5 -54l-14 -84h-127l23 135q114 21 129 97q5 31 -9 50t-48 19zM869 1023h271l-182 -1023h-255l18 147q-65 -78 -152.5 -122.5t-188.5 -44.5q-140 0 -218 73t-78 204q0 36 8 86
l122 680h270l-110 -626q-7 -39 -7 -58q0 -69 36.5 -100.5t97.5 -31.5q100 0 172 60.5t91 167.5h2z" />
    <glyph glyph-name="uni1EE8" unicode="&#x1ee8;" horiz-adv-x="1420" 
d="M1256 1841l-273 -267h-178l328 368zM1613 1609h140l-29 -166q-12 -65 -35 -111.5t-54.5 -72t-65 -36.5t-72.5 -11q-46 0 -103 19l-130 -741q-23 -130 -82.5 -229.5t-144.5 -160t-187 -90.5t-218 -30q-224 0 -359.5 107t-135.5 309q0 53 11 114l165 929h282l-159 -909
q-10 -57 -10 -92q0 -108 57.5 -157.5t156.5 -49.5q130 0 225.5 79.5t124.5 237.5l158 891h283l-15 -88q30 -9 53 -9q55 0 81.5 30.5t39.5 109.5z" />
    <glyph glyph-name="uni1EE9" unicode="&#x1ee9;" horiz-adv-x="1194" 
d="M1077 1432l-274 -268h-178l328 368zM1329 1193h140l-29 -166q-12 -65 -35 -111.5t-54.5 -72t-65 -36.5t-72.5 -11q-55 0 -109 22l-146 -818h-255l18 147q-65 -78 -152.5 -122.5t-188.5 -44.5q-140 0 -218 73t-78 204q0 36 8 86l122 680h270l-110 -626q-7 -39 -7 -58
q0 -69 36.5 -100.5t97.5 -31.5q100 0 172 60.5t91 167.5h2l103 588h271l-15 -85q31 -12 60 -12q55 0 81.5 30.5t39.5 109.5z" />
    <glyph glyph-name="uni1EEA" unicode="&#x1eea;" horiz-adv-x="1420" 
d="M984 1574h-178l-180 267l160 101zM1613 1609h140l-29 -166q-12 -65 -35 -111.5t-54.5 -72t-65 -36.5t-72.5 -11q-46 0 -103 19l-130 -741q-23 -130 -82.5 -229.5t-144.5 -160t-187 -90.5t-218 -30q-224 0 -359.5 107t-135.5 309q0 53 11 114l165 929h282l-159 -909
q-10 -57 -10 -92q0 -108 57.5 -157.5t156.5 -49.5q130 0 225.5 79.5t124.5 237.5l158 891h283l-15 -88q30 -9 53 -9q55 0 81.5 30.5t39.5 109.5z" />
    <glyph glyph-name="uni1EEB" unicode="&#x1eeb;" horiz-adv-x="1194" 
d="M803 1164h-178l-178 268l158 100zM1329 1193h140l-29 -166q-12 -65 -35 -111.5t-54.5 -72t-65 -36.5t-72.5 -11q-55 0 -109 22l-146 -818h-255l18 147q-65 -78 -152.5 -122.5t-188.5 -44.5q-140 0 -218 73t-78 204q0 36 8 86l122 680h270l-110 -626q-7 -39 -7 -58
q0 -69 36.5 -100.5t97.5 -31.5q100 0 172 60.5t91 167.5h2l103 588h271l-15 -85q31 -12 60 -12q55 0 81.5 30.5t39.5 109.5z" />
    <glyph glyph-name="uni1EEC" unicode="&#x1eec;" horiz-adv-x="1420" 
d="M923 1830q-48 0 -93 -38l-51 96q80 58 178 58q92 0 136.5 -48t30.5 -128q-21 -117 -155 -157l-14 -83h-127l23 135q114 19 129 97q5 30 -9.5 49t-47.5 19zM1613 1609h140l-29 -166q-12 -65 -35 -111.5t-54.5 -72t-65 -36.5t-72.5 -11q-46 0 -103 19l-130 -741
q-23 -130 -82.5 -229.5t-144.5 -160t-187 -90.5t-218 -30q-224 0 -359.5 107t-135.5 309q0 53 11 114l165 929h282l-159 -909q-10 -57 -10 -92q0 -108 57.5 -157.5t156.5 -49.5q130 0 225.5 79.5t124.5 237.5l158 891h283l-15 -88q30 -9 53 -9q55 0 81.5 30.5t39.5 109.5z
" />
    <glyph glyph-name="uni1EED" unicode="&#x1eed;" horiz-adv-x="1194" 
d="M739 1405q-48 0 -93 -39l-51 97q80 57 179 57q92 0 136 -48t30 -127q-12 -67 -52.5 -103t-102.5 -54l-14 -84h-127l23 135q114 21 129 97q5 31 -9 50t-48 19zM1329 1193h140l-29 -166q-12 -65 -35 -111.5t-54.5 -72t-65 -36.5t-72.5 -11q-55 0 -109 22l-146 -818h-255
l18 147q-65 -78 -152.5 -122.5t-188.5 -44.5q-140 0 -218 73t-78 204q0 36 8 86l122 680h270l-110 -626q-7 -39 -7 -58q0 -69 36.5 -100.5t97.5 -31.5q100 0 172 60.5t91 167.5h2l103 588h271l-15 -85q31 -12 60 -12q55 0 81.5 30.5t39.5 109.5z" />
    <glyph glyph-name="uni1EEE" unicode="&#x1eee;" horiz-adv-x="1420" 
d="M805 1732q-40 0 -68.5 -41t-40.5 -107h-150q24 131 100 213t180 82q122 0 177 -117q22 -46 64 -46q40 0 67.5 39t39.5 108h151q-23 -129 -98 -211.5t-182 -82.5q-123 0 -178 117q-21 46 -62 46zM1613 1609h140l-29 -166q-12 -65 -35 -111.5t-54.5 -72t-65 -36.5
t-72.5 -11q-46 0 -103 19l-130 -741q-23 -130 -82.5 -229.5t-144.5 -160t-187 -90.5t-218 -30q-224 0 -359.5 107t-135.5 309q0 53 11 114l165 929h282l-159 -909q-10 -57 -10 -92q0 -108 57.5 -157.5t156.5 -49.5q130 0 225.5 79.5t124.5 237.5l158 891h283l-15 -88
q30 -9 53 -9q55 0 81.5 30.5t39.5 109.5z" />
    <glyph glyph-name="uni1EEF" unicode="&#x1eef;" horiz-adv-x="1194" 
d="M638 1298q-34 0 -58 -35t-34 -93h-136q20 116 87 189t160 73q57 0 96.5 -28t60.5 -75q16 -38 53 -38q66 0 89 128h138q-20 -115 -86.5 -188.5t-161.5 -73.5q-111 0 -157 102q-18 39 -51 39zM1329 1193h140l-29 -166q-12 -65 -35 -111.5t-54.5 -72t-65 -36.5t-72.5 -11
q-55 0 -109 22l-146 -818h-255l18 147q-65 -78 -152.5 -122.5t-188.5 -44.5q-140 0 -218 73t-78 204q0 36 8 86l122 680h270l-110 -626q-7 -39 -7 -58q0 -69 36.5 -100.5t97.5 -31.5q100 0 172 60.5t91 167.5h2l103 588h271l-15 -85q31 -12 60 -12q55 0 81.5 30.5
t39.5 109.5z" />
    <glyph glyph-name="uni1EF0" unicode="&#x1ef0;" horiz-adv-x="1420" 
d="M1613 1609h140l-29 -166q-12 -65 -35 -111.5t-54.5 -72t-65 -36.5t-72.5 -11q-46 0 -103 19l-130 -741q-23 -130 -82.5 -229.5t-144.5 -160t-187 -90.5t-218 -30q-224 0 -359.5 107t-135.5 309q0 53 11 114l165 929h282l-159 -909q-10 -57 -10 -92q0 -108 57.5 -157.5
t156.5 -49.5q130 0 225.5 79.5t124.5 237.5l158 891h283l-15 -88q30 -9 53 -9q55 0 81.5 30.5t39.5 109.5zM586 -182q67 0 107.5 -48.5t27.5 -115.5q-11 -69 -68.5 -117.5t-124.5 -48.5q-69 0 -109.5 48t-29.5 118q13 68 70.5 116t126.5 48z" />
    <glyph glyph-name="uni1EF1" unicode="&#x1ef1;" horiz-adv-x="1194" 
d="M1329 1193h140l-29 -166q-12 -65 -35 -111.5t-54.5 -72t-65 -36.5t-72.5 -11q-55 0 -109 22l-146 -818h-255l18 147q-65 -78 -152.5 -122.5t-188.5 -44.5q-140 0 -218 73t-78 204q0 36 8 86l122 680h270l-110 -626q-7 -39 -7 -58q0 -69 36.5 -100.5t97.5 -31.5
q100 0 172 60.5t91 167.5h2l103 588h271l-15 -85q31 -12 60 -12q55 0 81.5 30.5t39.5 109.5zM478 -182q67 0 107.5 -48.5t27.5 -115.5q-11 -69 -68.5 -117.5t-124.5 -48.5q-69 0 -109.5 48t-29.5 118q13 68 70.5 116t126.5 48z" />
    <glyph glyph-name="Ygrave" unicode="&#x1ef2;" horiz-adv-x="1254" 
d="M899 1574h-178l-180 267l160 101zM1406 1439l-611 -758l-120 -681h-284l122 690l-340 749h300l214 -504l393 504h326z" />
    <glyph glyph-name="ygrave" unicode="&#x1ef3;" horiz-adv-x="1085" 
d="M743 1164h-178l-178 268l158 100zM892 1023h284l-890 -1504h-281l325 533l-241 971h290l127 -686z" />
    <glyph glyph-name="uni1EF4" unicode="&#x1ef4;" horiz-adv-x="1254" 
d="M1406 1439l-611 -758l-120 -681h-284l122 690l-340 749h300l214 -504l393 504h326zM504 -182q67 0 107.5 -48.5t27.5 -115.5q-11 -69 -68.5 -117.5t-124.5 -48.5q-69 0 -109.5 48t-29.5 118q13 68 70.5 116t126.5 48z" />
    <glyph glyph-name="uni1EF5" unicode="&#x1ef5;" horiz-adv-x="1085" 
d="M892 1023h284l-890 -1504h-281l325 533l-241 971h290l127 -686zM802 -182q67 0 107.5 -48.5t27.5 -115.5q-11 -69 -68.5 -117.5t-124.5 -48.5q-69 0 -109.5 48t-29.5 118q13 68 70.5 116t126.5 48z" />
    <glyph glyph-name="uni1EF6" unicode="&#x1ef6;" horiz-adv-x="1254" 
d="M838 1830q-48 0 -93 -38l-51 96q80 58 178 58q92 0 136.5 -48t30.5 -128q-21 -117 -155 -157l-14 -83h-127l23 135q114 19 129 97q5 30 -9.5 49t-47.5 19zM1406 1439l-611 -758l-120 -681h-284l122 690l-340 749h300l214 -504l393 504h326z" />
    <glyph glyph-name="uni1EF7" unicode="&#x1ef7;" horiz-adv-x="1085" 
d="M679 1405q-48 0 -93 -39l-51 97q80 57 179 57q92 0 136 -48t30 -127q-12 -67 -52.5 -103t-102.5 -54l-14 -84h-127l23 135q114 21 129 97q5 31 -9 50t-48 19zM892 1023h284l-890 -1504h-281l325 533l-241 971h290l127 -686z" />
    <glyph glyph-name="uni1EF8" unicode="&#x1ef8;" horiz-adv-x="1254" 
d="M720 1732q-40 0 -68.5 -41t-40.5 -107h-150q24 131 100 213t180 82q122 0 177 -117q22 -46 64 -46q40 0 67.5 39t39.5 108h151q-23 -129 -98 -211.5t-182 -82.5q-123 0 -178 117q-21 46 -62 46zM1406 1439l-611 -758l-120 -681h-284l122 690l-340 749h300l214 -504
l393 504h326z" />
    <glyph glyph-name="uni1EF9" unicode="&#x1ef9;" horiz-adv-x="1085" 
d="M578 1298q-34 0 -58 -35t-34 -93h-136q20 116 87 189t160 73q57 0 96.5 -28t60.5 -75q16 -38 53 -38q66 0 89 128h138q-20 -115 -86.5 -188.5t-161.5 -73.5q-111 0 -157 102q-18 39 -51 39zM892 1023h284l-890 -1504h-281l325 533l-241 971h290l127 -686z" />
    <glyph glyph-name="endash" unicode="&#x2013;" horiz-adv-x="1305" 
d="M122 412l42 241h1024l-42 -241h-1024z" />
    <glyph glyph-name="emdash" unicode="&#x2014;" horiz-adv-x="2329" 
d="M122 412l42 241h2048l-42 -241h-2048z" />
    <glyph glyph-name="quoteleft" unicode="&#x2018;" horiz-adv-x="607" 
d="M119 792l331 653h210l-240 -653h-301z" />
    <glyph glyph-name="quoteright" unicode="&#x2019;" horiz-adv-x="606" 
d="M159 792l241 653h300l-330 -653h-211z" />
    <glyph glyph-name="quotesinglbase" unicode="&#x201a;" horiz-adv-x="603" 
d="M-47 -368l241 654h300l-331 -654h-210z" />
    <glyph glyph-name="quotedblleft" unicode="&#x201c;" horiz-adv-x="1069" 
d="M119 792l331 653h210l-240 -653h-301zM581 792l331 653h210l-240 -653h-301z" />
    <glyph glyph-name="quotedblright" unicode="&#x201d;" horiz-adv-x="1068" 
d="M159 792l241 653h300l-330 -653h-211zM621 792l241 653h300l-330 -653h-211z" />
    <glyph glyph-name="quotedblbase" unicode="&#x201e;" horiz-adv-x="1062" 
d="M-47 -368l241 654h300l-331 -654h-210zM412 -368l241 654h300l-331 -654h-210z" />
    <glyph glyph-name="dagger" unicode="&#x2020;" horiz-adv-x="980" 
d="M1019 1084l-31 -183h-342l-207 -1176h-185l207 1176h-331l31 183h332l64 361h185l-64 -361h341z" />
    <glyph glyph-name="daggerdbl" unicode="&#x2021;" horiz-adv-x="1059" 
d="M1028 901h-343l-108 -616h341l-33 -183h-341l-66 -377h-185l67 377h-333l33 183h332l109 616h-332l31 183h333l64 361h184l-64 -361h342z" />
    <glyph glyph-name="bullet" unicode="&#x2022;" horiz-adv-x="906" 
d="M444 352q-139 0 -223 99.5t-59 241.5q22 122 128 212t230 90q136 0 219.5 -102.5t58.5 -240.5q-21 -126 -126 -213t-228 -87z" />
    <glyph glyph-name="ellipsis" unicode="&#x2026;" horiz-adv-x="2000" 
d="M246 -20q-74 0 -119 54.5t-32 130.5q10 59 61 102t110 43q75 0 120 -55.5t32 -131.5q-10 -59 -61 -101t-111 -42zM926 -20q-74 0 -118.5 54.5t-31.5 130.5q11 59 61 102t109 43q76 0 121 -55.5t31 -131.5q-10 -59 -61 -101t-111 -42zM1601 -20q-74 0 -119 54.5t-32 130.5
q10 59 61 102t110 43q75 0 120 -55.5t32 -131.5q-10 -59 -61 -101t-111 -42z" />
    <glyph glyph-name="perthousand" unicode="&#x2030;" horiz-adv-x="2461" 
d="M483 791q-133 0 -215 84.5t-82 211.5q0 91 47 177t136 144t196 58q133 0 215 -85t82 -211q0 -68 -28 -135.5t-76.5 -121.5t-121 -88t-153.5 -34zM248 -1l1012 1447h247l-1013 -1447h-246zM497 983q75 0 124.5 52t49.5 124q0 48 -33.5 81.5t-85.5 33.5q-74 0 -124 -52.5
t-50 -123.5q0 -50 32.5 -82.5t86.5 -32.5zM1201 -17q-133 0 -215.5 84t-82.5 210q0 92 47 178.5t136 144t197 57.5q131 0 212.5 -83.5t81.5 -208.5q0 -68 -27.5 -136t-75 -123t-119.5 -89t-154 -34zM1975 -17q-133 0 -215.5 84t-82.5 210q0 92 47 178.5t136 144t197 57.5
q131 0 212.5 -83.5t81.5 -208.5q0 -68 -27.5 -136t-75 -123t-119.5 -89t-154 -34zM1214 176q74 0 124.5 52.5t50.5 122.5q0 48 -33.5 81.5t-86.5 33.5q-74 0 -124 -52.5t-50 -123.5q0 -49 32.5 -81.5t86.5 -32.5zM1988 176q74 0 124.5 52.5t50.5 122.5q0 48 -33.5 81.5
t-86.5 33.5q-74 0 -124 -52.5t-50 -123.5q0 -49 32.5 -81.5t86.5 -32.5z" />
    <glyph glyph-name="guilsinglleft" unicode="&#x2039;" horiz-adv-x="631" 
d="M310 275l-249 377l373 376h240l-382 -376l242 -377h-224z" />
    <glyph glyph-name="guilsinglright" unicode="&#x203a;" horiz-adv-x="629" 
d="M4 275l381 377l-240 376h222l249 -376l-373 -377h-239z" />
    <glyph glyph-name="fraction" unicode="&#x2044;" horiz-adv-x="500" 
d="M-370 0l1139 1536h190l-1137 -1536h-192z" />
    <glyph glyph-name="Euro" unicode="&#x20ac;" horiz-adv-x="1542" 
d="M820 252q111 0 203 58t153 155l234 -177q-114 -145 -270 -226.5t-330 -81.5q-238 0 -387 134t-164 384h-150l28 156h125q6 71 21 138h-122l29 157h139q43 112 108.5 204t152.5 163t201 110.5t244 39.5q184 0 318.5 -88t201.5 -236l-276 -140q-55 193 -256 193
q-128 0 -224 -66t-157 -180h398l-29 -157h-430q-19 -71 -26 -138h432l-28 -156h-408q22 -246 269 -246z" />
    <glyph glyph-name="uni2113" unicode="&#x2113;" horiz-adv-x="1159" 
d="M560 -13q-168 0 -256.5 88t-87.5 242q-25 -31 -114 -85l-65 155q179 117 196 129l91 467q46 258 168.5 381t289.5 123q138 0 207.5 -78t69.5 -203q0 -79 -24 -155t-83 -168t-169.5 -199t-272.5 -228q-15 -65 -18 -89q-4 -78 33 -118.5t105 -40.5q85 0 171 56.5t150 135.5
l106 -138q-202 -275 -497 -275zM543 713q331 286 331 504q0 82 -73 82q-62 0 -117.5 -72t-83.5 -230z" />
    <glyph glyph-name="uni2116" unicode="&#x2116;" horiz-adv-x="2947" 
d="M1235 462l190 1074h300l-272 -1536h-303l-536 1081l-191 -1081h-298l271 1536h303zM2437 1465q118 0 211 -37.5t149 -102t85 -145.5t29 -174q0 -91 -26.5 -182t-80.5 -173.5t-128 -146.5t-177 -101.5t-219 -37.5q-118 0 -211 37.5t-149.5 102t-85.5 146t-29 174.5
q0 91 26.5 182t80.5 173.5t128.5 146t177 101t219.5 37.5zM2284 608q76 0 142.5 37t109 94.5t67 126.5t24.5 136q0 96 -50 158t-148 62q-75 0 -140.5 -37t-107.5 -95t-66 -127t-24 -136q0 -96 49 -157.5t144 -61.5zM1735 0l34 185h923l-33 -185h-924z" />
    <glyph glyph-name="trademark" unicode="&#x2122;" horiz-adv-x="1625" 
d="M256 1413v123h463v-123h-163v-594h-137v594h-163zM1382 1536h144v-717h-135v490l-217 -360l-219 359v-489h-138v717h149l207 -348z" />
    <glyph glyph-name="estimated" unicode="&#x212e;" horiz-adv-x="1935" 
d="M1032 -18q-178 0 -340 62t-279.5 167.5t-186.5 250.5t-69 304q0 215 117 397t318.5 287.5t439.5 105.5q179 0 341 -62.5t279.5 -168t186.5 -252t69 -307.5v-21h-1417q-12 0 -12 -8v-430q0 -24 18 -49q106 -109 245 -171t292 -62q167 0 313.5 69.5t251.5 192.5h125
q-119 -141 -301.5 -223t-390.5 -82zM491 788h1087q9 0 9 15v430q0 33 -21 51q-107 105 -243.5 165t-288.5 60q-151 0 -289 -61.5t-246 -169.5q-20 -23 -20 -53v-422q0 -15 12 -15z" />
    <glyph glyph-name="partialdiff" unicode="&#x2202;" horiz-adv-x="1198" 
d="M493 1458q90 20 173.5 12.5t151.5 -40t125.5 -86.5t95.5 -127t60.5 -162t21.5 -190.5t-22 -213.5q-58 -291 -237.5 -469.5t-413.5 -178.5q-127 0 -216.5 49.5t-129.5 134.5t-26.5 206t85.5 256q64 113 150 195.5t178.5 124t191.5 48.5t189 -30q-19 158 -119.5 230
t-276.5 32zM849 693q12 50 18 100q-124 71 -254 3t-219 -251q-37 -68 -53.5 -127t-13.5 -100.5t20.5 -71t45.5 -44t64 -14.5q52 0 108.5 32t110.5 92t100.5 159t72.5 222z" />
    <glyph glyph-name="emptyset" unicode="&#x2205;" horiz-adv-x="1475" 
d="M752 -16q-223 0 -392 142l-90 -89l-77 78l89 89q-143 170 -143 392q0 166 82 307t223.5 223t307.5 82q222 0 391 -142l90 89l78 -78l-90 -89q143 -170 143 -392q0 -166 -82 -307t-223 -223t-307 -82zM445 367l536 536q-100 75 -229 75q-160 0 -271 -111.5t-111 -270.5
q0 -131 75 -229zM752 214q159 0 270.5 111.5t111.5 270.5q0 131 -75 229l-536 -536q98 -75 229 -75z" />
    <glyph glyph-name="product" unicode="&#x220f;" horiz-adv-x="1679" 
d="M148 0l210 1190h-113l46 255h1426l-46 -255h-113l-210 -1190h-253l210 1190h-691l-209 -1190h-257z" />
    <glyph glyph-name="summation" unicode="&#x2211;" horiz-adv-x="1398" 
d="M8 1l29 181l699 585l-487 585l30 184h1197l-40 -222h-817l445 -547l-630 -547h810l-40 -219h-1196z" />
    <glyph glyph-name="minus" unicode="&#x2212;" horiz-adv-x="1309" 
d="M246 591v219h883v-219h-883z" />
    <glyph glyph-name="radical" unicode="&#x221a;" horiz-adv-x="1452" 
d="M353 0l-98 662h-155l42 240h320l80 -542l773 1176h269l-1009 -1536h-222z" />
    <glyph glyph-name="infinity" unicode="&#x221e;" horiz-adv-x="1688" 
d="M482 263q-136 0 -225 93t-94 240q5 147 94 240t225 93q182 0 375 -196q191 196 375 196q143 0 228 -89t89 -244q-4 -155 -89 -244t-228 -89q-183 0 -375 195q-193 -195 -375 -195zM482 450q52 0 117 37.5t132 108.5q-67 71 -132 108.5t-117 37.5q-55 0 -93.5 -41.5
t-39.5 -104.5q1 -63 39.5 -104.5t93.5 -41.5zM1232 450q56 0 93 39.5t38 106.5q-1 67 -38 106.5t-93 39.5q-106 0 -252 -146q146 -146 252 -146z" />
    <glyph glyph-name="integral" unicode="&#x222b;" horiz-adv-x="930" 
d="M-96 -457l30 271q147 0 213.5 55t90.5 188l190 1085q26 145 132 234.5t244 89.5q66 0 129.5 -23t102.5 -67l-130 -200q-33 39 -79 39q-51 0 -88 -38.5t-51 -110.5l-185 -1052q-39 -223 -201.5 -347t-397.5 -124z" />
    <glyph glyph-name="approxequal" unicode="&#x2248;" horiz-adv-x="1368" 
d="M919 687q-53 0 -100 14.5t-83.5 40.5t-57.5 45.5t-46 46.5q-2 2 -3 3.5t-3 3.5l-3 3q-50 53 -101 53q-62 0 -96.5 -53t-38.5 -142h-204q5 184 94.5 292.5t247.5 108.5q81 0 143 -35t124 -114q20 -23 29 -32.5t32.5 -22.5t48.5 -13q55 0 90 50.5t40 140.5h201
q-5 -173 -87.5 -281.5t-226.5 -108.5zM919 193q-147 0 -269 129q-7 7 -19 21l-8 8q-27 29 -48.5 41t-52.5 11q-64 -3 -97.5 -54.5t-37.5 -139.5h-204q5 185 95.5 293.5t246.5 108.5q77 0 138.5 -34.5t128.5 -113.5q36 -42 55 -54q27 -16 55 -16q56 0 90.5 50t39.5 143h201
q-5 -173 -87.5 -283t-226.5 -110z" />
    <glyph glyph-name="notequal" unicode="&#x2260;" horiz-adv-x="1239" 
d="M166 0l193 375h-176v219h287l113 220h-400v219h512l166 323h214l-166 -323h215v-219h-327l-113 -220h440v-219h-551l-193 -375h-214z" />
    <glyph glyph-name="lessequal" unicode="&#x2264;" horiz-adv-x="1456" 
d="M1290 1500v-242l-887 -383l887 -386v-244l-1131 498v263zM159 0v185h1131v-185h-1131z" />
    <glyph glyph-name="greaterequal" unicode="&#x2265;" horiz-adv-x="1515" 
d="M233 1500l1130 -494v-263l-1130 -498v244l887 386l-887 383v242zM233 0v185h1130v-185h-1130z" />
    <glyph glyph-name="lozenge" unicode="&#x25ca;" horiz-adv-x="1343" 
d="M708 106l-618 617l618 618l617 -616zM709 424l298 301l-298 298l-301 -300z" />
    <glyph glyph-name="uniF8FF" unicode="&#xf8ff;" horiz-adv-x="1788" 
d="M941 0q-158 0 -302 62t-248.5 166t-166.5 248t-62 302t62 302.5t166.5 248.5t248.5 165.5t302 61.5t302.5 -61.5t248.5 -165.5t165.5 -248.5t61.5 -302.5t-61.5 -302t-165.5 -248t-248.5 -166t-302.5 -62zM941 74q143 0 273.5 56t225 150.5t150 224.5t55.5 273
t-55.5 273.5t-150 225t-225 150.5t-273.5 56q-190 0 -352.5 -94.5t-257.5 -257t-95 -353.5q0 -190 95 -352.5t257.5 -257t352.5 -94.5zM1348 444q-14 0 -24 13l-297 295q-11 12 -11 27t11 26l297 297q10 10 25 10t26 -10q11 -11 11 -26.5t-11 -26.5l-271 -271l271 -270
q22 -22 0 -51q-10 -13 -27 -13zM533 444q-15 0 -26 11t-11 26v594q0 16 11 26.5t26 10.5q16 0 26.5 -10.5t10.5 -26.5v-594q0 -15 -10.5 -26t-26.5 -11zM941 444q-16 0 -26.5 11t-10.5 26v594q0 16 10.5 26.5t26.5 10.5q15 0 25.5 -10.5t10.5 -26.5v-594q0 -15 -10.5 -26
t-25.5 -11zM644 741q-16 0 -26.5 11t-10.5 26q0 16 10.5 26.5t26.5 10.5h186q16 0 26.5 -10.5t10.5 -26.5q0 -15 -10.5 -26t-26.5 -11h-186z" />
    <glyph glyph-name="G.ss02" horiz-adv-x="1594" 
d="M750 -20q-223 0 -379 93t-222.5 266t-26.5 401q29 164 107 301t190 229.5t253.5 143.5t296.5 51q215 0 369.5 -92.5t221.5 -256.5l-278 -122q-70 210 -321 210q-201 0 -352.5 -133.5t-191.5 -364.5q-38 -215 58 -340t302 -125q163 0 290.5 84.5t165.5 228.5l-395 -10
l42 241l678 -10q-7 -83 -25 -179q-27 -127 -84 -230.5t-132.5 -174.5t-169 -119t-192.5 -70t-205 -22z" />
    <glyph glyph-name="Gbreve.ss02" horiz-adv-x="1594" 
d="M1003 1580q-83 0 -145.5 16t-106 49.5t-59.5 91.5t-1 138h166q-15 -81 30.5 -121t139.5 -40q199 0 228 161h166q-54 -295 -418 -295zM750 -20q-223 0 -379 93t-222.5 266t-26.5 401q29 164 107 301t190 229.5t253.5 143.5t296.5 51q215 0 369.5 -92.5t221.5 -256.5
l-278 -122q-70 210 -321 210q-201 0 -352.5 -133.5t-191.5 -364.5q-38 -215 58 -340t302 -125q163 0 290.5 84.5t165.5 228.5l-395 -10l42 241l678 -10q-7 -83 -25 -179q-27 -127 -84 -230.5t-132.5 -174.5t-169 -119t-192.5 -70t-205 -22z" />
    <glyph glyph-name="Gcommaaccent.ss02" horiz-adv-x="1594" 
d="M750 -20q-223 0 -379 93t-222.5 266t-26.5 401q29 164 107 301t190 229.5t253.5 143.5t296.5 51q215 0 369.5 -92.5t221.5 -256.5l-278 -122q-70 210 -321 210q-201 0 -352.5 -133.5t-191.5 -364.5q-38 -215 58 -340t302 -125q163 0 290.5 84.5t165.5 228.5l-395 -10
l42 241l678 -10q-7 -83 -25 -179q-27 -127 -84 -230.5t-132.5 -174.5t-169 -119t-192.5 -70t-205 -22zM470 -574l-130 66l234 373h251z" />
    <glyph glyph-name="Gdotaccent.ss02" horiz-adv-x="1594" 
d="M1004 1580q-69 0 -109 48.5t-29 117.5q12 68 69.5 116t126.5 48q67 0 107 -48t28 -116q-11 -68 -68.5 -117t-124.5 -49zM750 -20q-223 0 -379 93t-222.5 266t-26.5 401q29 164 107 301t190 229.5t253.5 143.5t296.5 51q215 0 369.5 -92.5t221.5 -256.5l-278 -122
q-70 210 -321 210q-201 0 -352.5 -133.5t-191.5 -364.5q-38 -215 58 -340t302 -125q163 0 290.5 84.5t165.5 228.5l-395 -10l42 241l678 -10q-7 -83 -25 -179q-27 -127 -84 -230.5t-132.5 -174.5t-169 -119t-192.5 -70t-205 -22z" />
    <glyph glyph-name="i.loclTRK" horiz-adv-x="577" 
d="M423 1196q-69 0 -112.5 48.5t-37.5 117.5q7 68 62 116t124 48q67 0 110 -48t36 -116q-7 -69 -61 -117.5t-121 -48.5zM53 0l182 1028h290l-183 -1028h-289z" />
    <glyph glyph-name="f_t" horiz-adv-x="1432" 
d="M123 0l144 807h-202l39 221h202l30 168q31 185 122.5 272.5t250.5 87.5q90 0 183 -32l-18 -198q-48 6 -88 6q-63 0 -108.5 -37.5t-56.5 -104.5l-28 -162h214q79 0 135 45.5t72 131.5l26 155h263l-58 -332h212l-39 -221h-212l-83 -465q-11 -67 10.5 -95t78.5 -28h98
l-40 -219h-175q-150 0 -221 88.5t-45 242.5l85 476h-360l-144 -807h-287z" />
    <glyph glyph-name="t_t" horiz-adv-x="1476" 
d="M444 0q-150 0 -221 88.5t-45 242.5l85 476h-202l39 221h70q66 0 113.5 40.5t59.5 106.5l24 138h277l-50 -285h272q66 0 113.5 40.5t58.5 106.5l25 138h277l-50 -285h212l-39 -221h-212l-84 -465q-11 -67 10.5 -95t79.5 -28h97l-39 -219h-176q-149 0 -220 88.5t-45 242.5
l85 476h-404l-83 -465q-11 -67 10.5 -95t78.5 -28h98l-40 -219h-175z" />
    <glyph glyph-name="uni0308.case" 
d="M-476 1580q-58 0 -93 42t-25 100q11 59 60.5 100t107.5 41t93 -41.5t24 -99.5q-10 -58 -59.5 -100t-107.5 -42zM-60 1580q-58 0 -93 41.5t-25 100.5q11 59 60 100t108 41q58 0 92 -41.5t24 -99.5t-59 -100t-107 -42z" />
    <glyph glyph-name="uni0307.case" 
d="M-78 1580q-69 0 -109 48.5t-29 117.5q12 68 69.5 116t126.5 48q67 0 107 -48t28 -116q-11 -68 -68.5 -117t-124.5 -49z" />
    <glyph glyph-name="gravecomb.case" 
d="M-16 1580l-180 267l160 101l198 -368h-178z" />
    <glyph glyph-name="acutecomb.case" 
d="M-263 1580l328 368l123 -101l-273 -267h-178z" />
    <glyph glyph-name="uni030B.case" 
d="M-640 1580l328 368l123 -101l-273 -267h-178zM-262 1580l327 368l123 -101l-273 -267h-177z" />
    <glyph glyph-name="uni0302.case" 
d="M-299 1580h-177l280 299h174l174 -299h-178l-102 195z" />
    <glyph glyph-name="uni030C.case" 
d="M-252 1580l-175 299h178l102 -196l170 196h178l-279 -299h-174z" />
    <glyph glyph-name="uni0306.case" 
d="M-264 1580q-83 0 -145.5 16t-106 49.5t-59.5 91.5t-1 138h166q-15 -81 30.5 -121t139.5 -40q199 0 228 161h166q-54 -295 -418 -295z" />
    <glyph glyph-name="uni030A.case" 
d="M-125 1580q-92 0 -150.5 55.5t-61.5 144.5q-5 109 75.5 193t198.5 84q93 0 148.5 -55t59.5 -142q4 -109 -75 -194.5t-195 -85.5zM-112 1701q62 0 99.5 41.5t37.5 95.5q0 44 -27 73t-74 29q-60 0 -98.5 -43.5t-38.5 -98.5q0 -45 26.5 -71t74.5 -26z" />
    <glyph glyph-name="tildecomb.case" 
d="M-138 1575q-123 0 -178 117q-21 46 -62 46q-40 0 -68.5 -41t-40.5 -107h-150q24 131 100 213t180 82q122 0 177 -117q22 -46 64 -46q40 0 67.5 39t39.5 108h151q-23 -129 -98 -211.5t-182 -82.5z" />
    <glyph glyph-name="uni0304.case" 
d="M-616 1580l30 170h664l-30 -170h-664z" />
    <glyph glyph-name="hookabovecomb.case" 
d="M-160 1536l23 135q114 19 129 97q5 30 -9.5 49t-47.5 19q-48 0 -93 -38l-51 96q80 58 178 58q92 0 136.5 -48t30.5 -128q-21 -117 -155 -157l-14 -83h-127z" />
    <glyph glyph-name="uni0312.case" 
d="M-43 1908h205l-182 -328h-296z" />
    <glyph glyph-name="uni0338.case" 
d="M-1030 -18l1109 1593l117 -70l-1108 -1592z" />
    <glyph glyph-name="uni03060301" 
d="M-331 1677l328 368l124 -100l-274 -268h-178zM-328 1185q-165 0 -248.5 91t-53.5 260h166q-17 -95 27 -155.5t133 -60.5q91 0 156 60t82 156h166q-30 -170 -145.5 -260.5t-282.5 -90.5z" />
    <glyph glyph-name="uni03060300" 
d="M-331 1677l-178 268l158 100l198 -368h-178zM-328 1185q-165 0 -248.5 91t-53.5 260h166q-17 -95 27 -155.5t133 -60.5q91 0 156 60t82 156h166q-30 -170 -145.5 -260.5t-282.5 -90.5z" />
    <glyph glyph-name="uni03060309" 
d="M-312 1617l23 135q114 21 129 97q5 31 -9 50t-48 19q-48 0 -93 -39l-51 97q80 57 179 57q92 0 136 -48t30 -127q-12 -67 -52.5 -103t-102.5 -54l-14 -84h-127zM-328 1185q-165 0 -248.5 91t-53.5 260h166q-17 -95 27 -155.5t133 -60.5q91 0 156 60t82 156h166
q-30 -170 -145.5 -260.5t-282.5 -90.5z" />
    <glyph glyph-name="uni03060303" 
d="M-110 1670q-111 0 -157 102q-18 39 -51 39q-34 0 -58 -35t-34 -93h-136q20 116 87 189t160 73q57 0 96.5 -28t60.5 -75q16 -38 53 -38q66 0 89 128h138q-20 -115 -86.5 -188.5t-161.5 -73.5zM-328 1185q-165 0 -248.5 91t-53.5 260h166q-17 -95 27 -155.5t133 -60.5
q91 0 156 60t82 156h166q-30 -170 -145.5 -260.5t-282.5 -90.5z" />
    <glyph glyph-name="uni03020301" 
d="M-235 1677l328 368l124 -100l-274 -268h-178zM-359 1237h-177l280 299h174l174 -299h-178l-102 196z" />
    <glyph glyph-name="uni03020300" 
d="M-235 1677l-178 268l158 100l198 -368h-178zM-359 1237h-177l280 299h174l174 -299h-178l-102 196z" />
    <glyph glyph-name="uni03020309" 
d="M-216 1617l23 135q114 21 129 97q5 31 -9 50t-48 19q-48 0 -93 -39l-51 97q80 57 179 57q92 0 136 -48t30 -127q-12 -67 -52.5 -103t-102.5 -54l-14 -84h-127zM-359 1237h-177l280 299h174l174 -299h-178l-102 196z" />
    <glyph glyph-name="uni03020303" 
d="M-14 1670q-111 0 -157 102q-18 39 -51 39q-34 0 -58 -35t-34 -93h-136q20 116 87 189t160 73q57 0 96.5 -28t60.5 -75q16 -38 53 -38q66 0 89 128h138q-20 -115 -86.5 -188.5t-161.5 -73.5zM-359 1237h-177l280 299h174l174 -299h-178l-102 196z" />
    <glyph glyph-name="uni03060301.case" 
d="M-276 2010l328 368l123 -101l-273 -267h-178zM-264 1580q-83 0 -145.5 16t-106 49.5t-59.5 91.5t-1 138h166q-15 -81 30.5 -121t139.5 -40q199 0 228 161h166q-54 -295 -418 -295z" />
    <glyph glyph-name="uni03060300.case" 
d="M-275 2010l-180 267l160 101l198 -368h-178zM-264 1580q-83 0 -145.5 16t-106 49.5t-59.5 91.5t-1 138h166q-15 -81 30.5 -121t139.5 -40q199 0 228 161h166q-54 -295 -418 -295z" />
    <glyph glyph-name="uni03060309.case" 
d="M-253 1966l23 135q114 19 129 97q5 30 -9.5 49t-47.5 19q-48 0 -93 -38l-51 96q80 58 178 58q92 0 136.5 -48t30.5 -128q-21 -117 -155 -157l-14 -83h-127zM-264 1580q-83 0 -145.5 16t-106 49.5t-59.5 91.5t-1 138h166q-15 -81 30.5 -121t139.5 -40q199 0 228 161h166
q-54 -295 -418 -295z" />
    <glyph glyph-name="uni03060303.case" 
d="M-36 2005q-123 0 -178 117q-21 46 -62 46q-40 0 -68.5 -41t-40.5 -107h-150q24 131 100 213t180 82q122 0 177 -117q22 -46 64 -46q40 0 67.5 39t39.5 108h151q-23 -129 -98 -211.5t-182 -82.5zM-264 1580q-83 0 -145.5 16t-106 49.5t-59.5 91.5t-1 138h166
q-15 -81 30.5 -121t139.5 -40q199 0 228 161h166q-54 -295 -418 -295z" />
    <glyph glyph-name="uni03020301.case" 
d="M-175 2014l328 368l123 -101l-273 -267h-178zM-299 1580h-177l280 299h174l174 -299h-178l-102 195z" />
    <glyph glyph-name="uni03020300.case" 
d="M-174 2014l-180 267l160 101l198 -368h-178zM-299 1580h-177l280 299h174l174 -299h-178l-102 195z" />
    <glyph glyph-name="uni03020309.case" 
d="M-152 1970l23 135q114 19 129 97q5 30 -9.5 49t-47.5 19q-48 0 -93 -38l-51 96q80 58 178 58q92 0 136.5 -48t30.5 -128q-21 -117 -155 -157l-14 -83h-127zM-299 1580h-177l280 299h174l174 -299h-178l-102 195z" />
    <glyph glyph-name="uni03020303.case" 
d="M65 2009q-123 0 -178 117q-21 46 -62 46q-40 0 -68.5 -41t-40.5 -107h-150q24 131 100 213t180 82q122 0 177 -117q22 -46 64 -46q40 0 67.5 39t39.5 108h151q-23 -129 -98 -211.5t-182 -82.5zM-299 1580h-177l280 299h174l174 -299h-178l-102 195z" />
    </font>
</defs>
</svg>
