<svg width="37" height="22" viewBox="0 0 37 22" fill="none" xmlns="http://www.w3.org/2000/svg">
<path d="M36.2725 3.63039C36.235 3.00294 36.0508 2.39303 35.7349 1.84959C35.4549 1.28959 34.9565 0.852788 34.3741 0.628788C33.7802 0.332794 33.1222 0.188498 32.4589 0.208788H7.60614L5.82534 5.54559H28.3429L24.7869 16.4544H2.27494L0.494141 21.7912H25.4645C26.2086 21.7697 26.9442 21.6278 27.6429 21.3712C28.3429 20.9736 29.1437 20.5704 29.8213 20.0104C30.4829 19.4889 31.0806 18.8911 31.6021 18.2296C32.0333 17.5814 32.4008 16.8932 32.6997 16.1744L35.9981 5.80319C36.2982 5.12081 36.3935 4.36594 36.2725 3.63039Z" fill="#2573C2"/>
</svg>
