<?xml version="1.0" encoding="utf-8"?>
<!-- Generator: Adobe Illustrator 22.0.1, SVG Export Plug-In . SVG Version: 6.00 Build 0)  -->
<svg version="1.1" id="Calque_1" xmlns="http://www.w3.org/2000/svg" xmlns:xlink="http://www.w3.org/1999/xlink" x="0px" y="0px"
	 viewBox="0 0 123 122" style="enable-background:new 0 0 623.3 122.9;" xml:space="preserve">
<style type="text/css">
	.st0{fill:#FFFFFF;}
	.st1{fill:#FFFFFF;}
	.st2{fill:#FFFFFF;}
</style>
<g>
	<linearGradient id="SVGID_1_" gradientUnits="userSpaceOnUse" x1="18.0028" y1="-321.6167" x2="104.3368" y2="-407.9507">
		<stop  offset="0" style="stop-color:#EB5E57"/>
		<stop  offset="1" style="stop-color:#F4CC54"/>
	</linearGradient>
	<path class="st0" d="M104.9-408.5c-24-24-62.9-24-86.9,0c-24,24-24,62.9,0,86.9c24,24,62.9,24,86.9,0
		C128.9-345.6,128.9-384.5,104.9-408.5"/>
</g>
<path class="st1" d="M59-355.1l0.4,0.1c0.6,0.1,1.3,0.2,2,0.2c0.6,0,1.3-0.1,1.9-0.2c0.8-0.2,1.6-0.4,2.4-0.8
	c0.1-0.1,0.2-0.1,0.3-0.2c0.1,0,0.2-0.1,0.2-0.1l0.2-0.1c0.1,0,0.1-0.1,0.2-0.1l0.1,0l0.2-0.2c2.6-1.8,4.1-4.8,4.1-7.9
	c0-5-3.9-9.2-8.9-9.6l-0.3,0c-0.3,0-0.5,0-0.7,0l0,0c-0.1,0-0.1,0-0.2,0c-2.6,0.1-4.9,1.2-6.7,3.1l0,0c-0.9,0.9-1.5,2-1.9,3.2
	c-0.4,1-0.6,2.1-0.6,3.3C51.8-360,54.8-356.2,59-355.1 M51.5-324L51.5-324c-0.3,0-0.6,0-0.8-0.1c-10.7-2.9-19.7-9.8-25.3-19.4
	c-5.6-9.6-7.1-20.9-4.2-31.6c0.4-1.4,1.7-2.4,3.1-2.4c0.3,0,0.6,0,0.8,0.1c1.7,0.5,2.7,2.2,2.3,3.9l-0.1,0.2
	c-0.3,1.6,0.7,3.3,2.3,3.7c0.3,0.1,0.5,0.1,0.8,0.1c1.4,0,2.6-0.9,3-2.2l0.1-0.2c0.4-1.4,1.7-2.4,3.1-2.4c0.3,0,0.6,0,0.8,0.1
	c1.7,0.5,2.7,2.2,2.3,4c-1.1,4.1-1,8.4,0.3,12.5c1.2,3.9,3.5,7.4,6.6,10.2c0,0,0,0,0,0l0,0c0,0,0.1,0.1,0.1,0.1l0.1,0.1
	c0.6,0.4,1.2,0.7,1.9,0.7c0.9,0,1.8-0.4,2.4-1.1c1-1.2,1-2.9,0.1-4.1l-0.1-0.1l-0.1-0.1c-3.8-3.1-5.9-7.6-5.9-12.5
	c0-4.3,1.7-8.3,4.7-11.4l0.5-0.5c0.8-1.3,0.7-2.9-0.4-4c-0.6-0.6-1.4-0.9-2.2-0.9c-0.8,0-1.5,0.3-2.1,0.8l-0.1,0
	c0,0-0.1,0.1-0.1,0.1c-0.6,0.6-1.4,0.9-2.3,0.9c-0.9,0-1.7-0.3-2.3-0.9c-0.6-0.6-0.9-1.4-0.9-2.3c0-0.9,0.3-1.7,0.9-2.3
	c5.4-5.4,12.7-8.4,20.4-8.4c5,0,9.9,1.3,14.2,3.7l0.1,0c0,0,0,0,0,0l0.1,0c0,0,0.1,0,0.1,0l0.1,0c0.4,0.2,0.9,0.3,1.4,0.3
	c1.1,0,2.2-0.6,2.8-1.6c0.9-1.5,0.3-3.5-1.2-4.3c-5.3-3-11.3-4.6-17.4-4.6c-9.4,0-18.3,3.7-24.9,10.3c-0.6,0.6-1.4,0.9-2.3,0.9
	s-1.7-0.3-2.3-0.9c-0.6-0.6-0.9-1.4-0.9-2.3s0.3-1.7,0.9-2.3c7.9-7.9,18.3-12.2,29.5-12.2c11.1,0,21.6,4.3,29.5,12.2
	c0.6,0.6,0.9,1.4,0.9,2.3s-0.3,1.7-0.9,2.3c-0.6,0.6-1.4,0.9-2.3,0.9c-0.9,0-1.7-0.3-2.3-0.9l-0.1-0.1c-0.6-0.5-1.3-0.8-2.1-0.8
	c-0.8,0-1.6,0.3-2.2,0.9c-1.2,1.2-1.2,3.1-0.1,4.4l0.1,0.1c1.2,1.3,1.2,3.3,0,4.5c-0.6,0.6-1.4,0.9-2.3,0.9c-0.9,0-1.7-0.3-2.3-0.9
	c-4.2-4.2-9.8-6.5-15.8-6.5c-2.5,0-4.9,0.4-7.2,1.2c0,0-0.1,0-0.1,0c-0.1,0-0.1,0-0.2,0.1c0,0-0.1,0-0.1,0c-1.6,0.6-2.3,2.4-1.8,4
	c0.4,1.3,1.6,2.1,3,2.1c0.2,0,0.4,0,0.5,0l0.1,0l0.1,0c1.8-0.7,3.7-1,5.6-1c3.6,0,7,1.1,9.8,3.3c2.7,2.1,4.8,5.1,5.7,8.4l0,0.1
	c0,0,0,0.1,0,0.1c0,0.1,0.1,0.2,0.1,0.3c0.5,1.2,1.7,2,3,2c0.3,0,0.6,0,0.8-0.1c1.6-0.4,2.6-2,2.3-3.7c0,0,0,0,0,0l0,0l0-0.2
	c-0.5-1.7,0.6-3.5,2.3-4c0.3-0.1,0.6-0.1,0.8-0.1c1.5,0,2.7,1,3.1,2.4c1.7,6.2,1.2,12.6-1.2,18.5c-2.4,5.7-6.6,10.6-11.9,13.7l0,0
	l-0.1,0.1c0,0,0,0,0,0l0,0c0,0,0,0-0.1,0l-0.1,0c-1.4,0.9-1.9,2.8-1,4.3c0.6,1,1.6,1.6,2.7,1.6c0.6,0,1.1-0.1,1.6-0.4
	c13.7-8,20.3-24.2,16.2-39.5c-0.2-0.8-0.1-1.7,0.3-2.5c0.4-0.7,1.1-1.3,2-1.5c0.3-0.1,0.6-0.1,0.8-0.1c1.5,0,2.7,1,3.1,2.4
	c2.9,10.7,1.4,22-4.2,31.6C92-334,83-327.1,72.3-324.2c-0.3,0.1-0.6,0.1-0.8,0.1c-1.5,0-2.7-1-3.1-2.4c-0.5-1.7,0.6-3.5,2.3-3.9
	c0,0,0,0,0.1,0l0.2,0c1.6-0.5,2.5-2.2,2.1-3.8c-0.4-1.4-1.6-2.4-3.1-2.4c-0.2,0-0.4,0-0.7,0.1l-0.2,0c-0.3,0.1-0.5,0.1-0.8,0.1
	c-1.5,0-2.7-1-3.1-2.4c-0.2-0.8-0.1-1.7,0.3-2.5c0.4-0.7,1.1-1.3,2-1.5c4.1-1.1,7.8-3.3,10.7-6.5c2.8-3,4.7-6.8,5.5-10.8
	c0,0,0-0.1,0-0.1c0,0,0-0.1,0-0.1l0,0c0,0,0-0.1,0-0.1c0.2-1.7-0.9-3.2-2.5-3.5c-0.2,0-0.4-0.1-0.6-0.1c-1.4,0-2.6,0.9-3,2.2
	c0,0.1-0.1,0.2-0.1,0.3l0,0.1c0,0,0,0,0,0c0,0,0,0.1,0,0.1l0,0.1c0,0.1-0.1,0.3-0.1,0.4l0,0c0,0.1,0,0.1,0,0.2l0,0c0,0,0,0.1,0,0.1
	c0,0,0,0.1,0,0.1c0,0.1,0,0.1-0.1,0.2l0,0.1c-1.9,6.9-8.3,11.8-15.5,11.8c-1.4,0-2.8-0.2-4.2-0.5l-0.5-0.1c-0.1,0-0.2,0-0.3,0
	c-1.4,0-2.7,1-3.1,2.3c-0.4,1.6,0.5,3.3,2,3.8l0.1,0c0,0,0.1,0,0.1,0c1.7,0.5,2.7,2.2,2.3,4c-0.4,1.4-1.7,2.4-3.1,2.4
	c-0.3,0-0.6,0-0.8-0.1c-6.2-1.7-11.5-5.2-15.4-10.3c-3.8-4.9-5.9-11-6-17.2c0,0,0-0.1,0-0.1c0,0,0-0.1,0-0.1c0,0,0-0.1,0-0.1l0,0
	c-0.1-1.7-1.5-3-3.2-3h0c-1.8,0-3.2,1.4-3.2,3.2c0.1,15.8,10.8,29.7,26.1,33.8c0.8,0.2,1.5,0.8,2,1.5c0.4,0.7,0.5,1.6,0.3,2.5
	C54.2-325,52.9-324,51.5-324"/>
<path class="st2" d="M193.9-365.3c0,3.6-1.2,6.6-3.7,9.1c-2.5,2.5-5.5,3.7-9,3.7H171v-25.5h10.2c3.5,0,6.5,1.2,9,3.7
	C192.7-371.7,193.9-368.7,193.9-365.3 M195.8-350.7c4-4,6-8.9,6-14.6c0-5.6-2-10.5-6-14.5c-4-4-8.9-6-14.6-6h-18v41.1h18
	C186.9-344.6,191.7-346.7,195.8-350.7 M250.4-365.4c0,3.7-1.3,6.9-4,9.6c-2.7,2.7-5.9,4-9.7,4c-3.8,0-7-1.3-9.7-4
	c-2.7-2.7-4-5.8-4-9.6c0-3.7,1.3-6.8,4-9.3c2.7-2.5,5.9-3.8,9.7-3.8c3.8,0,7,1.3,9.7,3.9C249.1-372.1,250.4-369,250.4-365.4
	 M251.9-350.3c4.2-4.2,6.4-9.3,6.4-15.2c0-5.7-2.1-10.6-6.4-14.8c-4.3-4.2-9.3-6.3-15-6.3c-6.1,0-11.1,2-15.3,6.1
	c-4.1,4.1-6.2,9.1-6.2,15.1c0,5.8,2.1,10.8,6.3,15c4.2,4.2,9.3,6.3,15.1,6.3C242.6-343.9,247.6-346,251.9-350.3 M308.5-344.6h7.8
	v-41.1h-7.4l-14.8,25.9l-15-25.9h-7.2v41.1h7.7V-369l14.5,24.4l14.4-24.4V-344.6z M366.6-369.3c-1,1-2.2,1.5-3.7,1.5h-17.3v-10.1
	h17.3c1.4,0,2.6,0.5,3.7,1.5c1,1,1.5,2.2,1.5,3.5C368.1-371.5,367.6-370.3,366.6-369.3 M376.5-344.6l-9.4-16.1
	c2.7-0.9,4.8-2.5,6.4-4.7c1.6-2.2,2.4-4.7,2.4-7.4c0-3.5-1.3-6.5-3.8-9c-2.5-2.5-5.6-3.8-9.2-3.8h-25.1v41.1h7.8V-360h12.7l9.1,15.4
	H376.5z M419.5-361.5H406l6.8-14.3L419.5-361.5z M427.4-344.6h8.7l-19.4-41.1h-7.8l-19.4,41.1h8.6l4.3-9h20.9L427.4-344.6z
	 M448.7-344.6h7.8v-41.1h-7.8V-344.6z M508.6-365.3c0,3.6-1.2,6.6-3.7,9.1c-2.5,2.5-5.5,3.7-9,3.7h-10.2v-25.5h10.2
	c3.5,0,6.5,1.2,9,3.7C507.4-371.7,508.6-368.7,508.6-365.3 M510.5-350.7c4-4,6-8.9,6-14.6c0-5.6-2-10.5-6-14.5c-4-4-8.9-6-14.6-6
	h-18v41.1h18C501.6-344.6,506.4-346.7,510.5-350.7 M530.4-344.6h33.3v-7.8h-25.5v-10.1h14.4v-8h-14.4v-7.5h24.9v-7.8h-32.7V-344.6z
	 M614.9-372.9c0,1.4-0.5,2.6-1.5,3.6c-1,1-2.2,1.5-3.6,1.5h-17.3v-10.1h17.3c1.4,0,2.6,0.5,3.6,1.5
	C614.4-375.4,614.9-374.3,614.9-372.9 M620.3-365.5c1.6-2.2,2.4-4.7,2.4-7.4c0-3.5-1.3-6.5-3.8-9c-2.5-2.5-5.6-3.8-9.2-3.8h-25.1
	v41.1h7.8V-360h12.7l9.1,15.4h9.1l-9.4-16.1C616.6-361.7,618.7-363.3,620.3-365.5"/>
<g>
	<path class="st1" d="M62.2,52.5l-0.3,0c-0.3,0-0.5,0-0.7,0l0,0c-0.1,0-0.1,0-0.2,0c-2.6,0.1-4.9,1.2-6.7,3.1l0,0
		c-0.9,0.9-1.5,2-1.9,3.2c-0.4,1-0.6,2.1-0.6,3.3c0,4.4,3,8.3,7.3,9.4l0.4,0.1c0.6,0.1,1.3,0.2,2,0.2c0.6,0,1.3-0.1,1.9-0.2
		c0.8-0.2,1.6-0.4,2.4-0.8c0.1-0.1,0.2-0.1,0.3-0.2c0.1,0,0.2-0.1,0.2-0.1l0.2-0.1c0.1,0,0.1-0.1,0.2-0.1l0.1,0l0.2-0.2
		c2.6-1.8,4.1-4.8,4.1-7.9C71.1,57.1,67.2,52.9,62.2,52.5z"/>
	<path class="st1" d="M104.9,18C80.9-6,42-6,18,18c-24,24-24,62.9,0,86.9c24,24,62.9,24,86.9,0S128.9,42,104.9,18z M97.6,82.9
		C92,92.6,83,99.5,72.3,102.3c-0.3,0.1-0.6,0.1-0.8,0.1c-1.5,0-2.7-1-3.1-2.4c-0.5-1.7,0.6-3.5,2.3-3.9c0,0,0,0,0.1,0l0.2,0
		c1.6-0.5,2.5-2.2,2.1-3.8c-0.4-1.4-1.6-2.4-3.1-2.4c-0.2,0-0.4,0-0.7,0.1l-0.2,0c-0.3,0.1-0.5,0.1-0.8,0.1c-1.5,0-2.7-1-3.1-2.4
		c-0.2-0.8-0.1-1.7,0.3-2.5c0.4-0.7,1.1-1.3,2-1.5c4.1-1.1,7.8-3.3,10.7-6.5c2.8-3,4.7-6.8,5.5-10.8c0,0,0-0.1,0-0.1
		c0,0,0-0.1,0-0.1l0,0c0,0,0-0.1,0-0.1c0.2-1.7-0.9-3.2-2.5-3.5c-0.2,0-0.4-0.1-0.6-0.1c-1.4,0-2.6,0.9-3,2.2c0,0.1-0.1,0.2-0.1,0.3
		l0,0.1c0,0,0,0,0,0c0,0,0,0.1,0,0.1l0,0.1c0,0.1-0.1,0.3-0.1,0.4l0,0c0,0.1,0,0.1,0,0.2l0,0c0,0,0,0.1,0,0.1c0,0,0,0.1,0,0.1
		c0,0.1,0,0.1-0.1,0.2l0,0.1c-1.9,6.9-8.3,11.8-15.5,11.8c-1.4,0-2.8-0.2-4.2-0.5l-0.5-0.1c-0.1,0-0.2,0-0.3,0c-1.4,0-2.7,1-3.1,2.3
		c-0.4,1.6,0.5,3.3,2,3.8l0.1,0c0,0,0.1,0,0.1,0c1.7,0.5,2.7,2.2,2.3,4c-0.4,1.4-1.7,2.4-3.1,2.4c-0.3,0-0.6,0-0.8-0.1
		c-6.2-1.7-11.5-5.2-15.4-10.3c-3.8-4.9-5.9-11-6-17.2c0,0,0-0.1,0-0.1c0,0,0-0.1,0-0.1c0,0,0-0.1,0-0.1l0,0c-0.1-1.7-1.5-3-3.2-3h0
		c-1.8,0-3.2,1.4-3.2,3.2C26.3,78.2,37,92.1,52.3,96.2c0.8,0.2,1.5,0.8,2,1.5c0.4,0.7,0.5,1.6,0.3,2.5c-0.4,1.4-1.7,2.4-3.1,2.4
		c-0.3,0-0.6,0-0.8-0.1C39.9,99.5,30.9,92.6,25.4,83c-5.6-9.6-7.1-20.9-4.2-31.6c0.4-1.4,1.7-2.4,3.1-2.4c0.3,0,0.6,0,0.8,0.1
		c1.7,0.5,2.7,2.2,2.3,3.9l-0.1,0.2c-0.3,1.6,0.7,3.3,2.3,3.7c0.3,0.1,0.5,0.1,0.8,0.1c1.4,0,2.6-0.9,3-2.2l0.1-0.2
		c0.4-1.4,1.7-2.4,3.1-2.4c0.3,0,0.6,0,0.8,0.1c1.7,0.5,2.7,2.2,2.3,4c-1.1,4.1-1,8.4,0.3,12.5c1.2,3.9,3.5,7.4,6.6,10.2
		c0,0,0,0,0,0l0,0c0,0,0.1,0.1,0.1,0.1l0.1,0.1c0.6,0.4,1.2,0.7,1.9,0.7c0.9,0,1.8-0.4,2.4-1.1c1-1.2,1-2.9,0.1-4.1l-0.1-0.1
		l-0.1-0.1c-3.8-3.1-5.9-7.6-5.9-12.5c0-4.3,1.7-8.3,4.7-11.4l0.5-0.5c0.8-1.3,0.7-2.9-0.4-4c-0.6-0.6-1.4-0.9-2.2-0.9
		c-0.8,0-1.5,0.3-2.1,0.8l-0.1,0c0,0-0.1,0.1-0.1,0.1c-0.6,0.6-1.4,0.9-2.3,0.9c-0.9,0-1.7-0.3-2.3-0.9c-0.6-0.6-0.9-1.4-0.9-2.3
		c0-0.9,0.3-1.7,0.9-2.3c5.4-5.4,12.7-8.4,20.4-8.4c5,0,9.9,1.3,14.2,3.7l0.1,0c0,0,0,0,0,0l0.1,0c0,0,0.1,0,0.1,0l0.1,0
		c0.4,0.2,0.9,0.3,1.4,0.3c1.1,0,2.2-0.6,2.8-1.6c0.9-1.5,0.3-3.5-1.2-4.3c-5.3-3-11.3-4.6-17.4-4.6c-9.4,0-18.3,3.7-24.9,10.3
		c-0.6,0.6-1.4,0.9-2.3,0.9s-1.7-0.3-2.3-0.9S31,35.7,31,34.9s0.3-1.7,0.9-2.3c7.9-7.9,18.3-12.2,29.5-12.2
		c11.1,0,21.6,4.3,29.5,12.2c0.6,0.6,0.9,1.4,0.9,2.3s-0.3,1.7-0.9,2.3c-0.6,0.6-1.4,0.9-2.3,0.9c-0.9,0-1.7-0.3-2.3-0.9L86.2,37
		c-0.6-0.5-1.3-0.8-2.1-0.8c-0.8,0-1.6,0.3-2.2,0.9c-1.2,1.2-1.2,3.1-0.1,4.4l0.1,0.1c1.2,1.3,1.2,3.3,0,4.5
		c-0.6,0.6-1.4,0.9-2.3,0.9c-0.9,0-1.7-0.3-2.3-0.9c-4.2-4.2-9.8-6.5-15.8-6.5c-2.5,0-4.9,0.4-7.2,1.2c0,0-0.1,0-0.1,0
		c-0.1,0-0.1,0-0.2,0.1c0,0-0.1,0-0.1,0c-1.6,0.6-2.3,2.4-1.8,4c0.4,1.3,1.6,2.1,3,2.1c0.2,0,0.4,0,0.5,0l0.1,0l0.1,0
		c1.8-0.7,3.7-1,5.6-1c3.6,0,7,1.1,9.8,3.3c2.7,2.1,4.8,5.1,5.7,8.4l0,0.1c0,0,0,0.1,0,0.1c0,0.1,0.1,0.2,0.1,0.3c0.5,1.2,1.7,2,3,2
		c0.3,0,0.6,0,0.8-0.1c1.6-0.4,2.6-2,2.3-3.7c0,0,0,0,0,0l0,0l0-0.2c-0.5-1.7,0.6-3.5,2.3-4c0.3-0.1,0.6-0.1,0.8-0.1
		c1.5,0,2.7,1,3.1,2.4c1.7,6.2,1.2,12.6-1.2,18.5c-2.4,5.7-6.6,10.6-11.9,13.7l0,0L76.1,87c0,0,0,0,0,0l0,0c0,0,0,0-0.1,0l-0.1,0
		c-1.4,0.9-1.9,2.8-1,4.3c0.6,1,1.6,1.6,2.7,1.6c0.6,0,1.1-0.1,1.6-0.4c13.7-8,20.3-24.2,16.2-39.5c-0.2-0.8-0.1-1.7,0.3-2.5
		c0.4-0.7,1.1-1.3,2-1.5c0.3-0.1,0.6-0.1,0.8-0.1c1.5,0,2.7,1,3.1,2.4C104.6,62,103.1,73.3,97.6,82.9z"/>
</g>
</svg>
