<?xml version="1.0" encoding="utf-8"?>
<!-- Generator: Adobe Illustrator 21.0.0, SVG Export Plug-In . SVG Version: 6.00 Build 0)  -->
<svg version="1.1" id="Layer_1" xmlns="http://www.w3.org/2000/svg" xmlns:xlink="http://www.w3.org/1999/xlink" x="0px" y="0px"
	 viewBox="105 -50 680 680" style="enable-background:new 0 0 900 682.5;" xml:space="preserve">
<style type="text/css">
	.st0{fill:#FFFFFF;}
</style>
<g>
	<path class="st0" d="M435.6,412.3c-1,0-2.1-0.1-3.1-0.4l-312.3-89.1c-5-1.4-8.4-6-8.4-11.2c0-5.1,3.5-9.7,8.4-11.1l152.7-43.9
		c5.8-1.7,11.9,1.7,13.6,7.5c1.7,5.8-1.7,11.9-7.5,13.6l-117.7,33.8l274.5,78.3l290.6-78.2c-31.2-8.2-78-20.5-126.1-33.4
		c-5.9-1.6-9.4-7.6-7.8-13.5c1.6-5.9,7.6-9.4,13.5-7.8c83.8,22.4,163.2,43.1,164,43.3l0.2,0.1c5,1.4,8.5,6,8.4,11.2
		c0,5.2-3.6,9.8-8.6,11.1l-331.4,89.1C437.6,412.2,436.6,412.3,435.6,412.3z"/>
</g>
<g>
	<path class="st0" d="M435.6,323.2c-1.1,0-2.1-0.1-3.2-0.4l-312.3-89c-5-1.4-8.4-6-8.4-11.2c0-5.1,3.5-9.7,8.4-11.1l312.1-89.1
		c2.9-0.8,4-0.5,9.5,1l10.6,2.8c9.1,2.4,22.1,5.9,37.6,10.1c31.1,8.3,72.6,19.5,114.1,30.6c83,22.3,166,44.5,166,44.5l0.2,0
		c5,1.4,8.4,6,8.4,11.2c0,5.2-3.6,9.7-8.6,11.1l-331.4,89.1C437.6,323,436.6,323.2,435.6,323.2z M161.3,222.5l274.4,78.2l291.1-78.3
		C646,200.8,460.5,151,435.3,144.3L161.3,222.5z M764.3,212.4C764.3,212.4,764.3,212.4,764.3,212.4L764.3,212.4z"/>
</g>
</svg>
