<?xml version="1.0" encoding="utf-8"?>
<!-- Generator: Adobe Illustrator 22.1.0, SVG Export Plug-In . SVG Version: 6.00 Build 0)  -->
<svg version="1.1" id="Layer_1" xmlns="http://www.w3.org/2000/svg" xmlns:xlink="http://www.w3.org/1999/xlink" x="0px" y="0px"
	 viewBox="0 0 21 21" style="enable-background:new 0 0 21 21;" xml:space="preserve">
<style type="text/css">
	.st0{fill:#FFFFFF;}
</style>
<path class="st0" d="M15.7,1.6H5.2l-5.1,8.9l5.1,8.9h10.5l5.1-8.9L15.7,1.6z M11.4,15.6v1.9H9.8v-1.7c-0.9,0-2.1-0.5-2.9-1.3L8,13
	c0.8,0.6,1.6,0.9,2.3,0.9c0.9,0,1.3-0.4,1.3-1.1c0-1.7-4.3-1.7-4.3-4.5c0-1.7,1-2.8,2.5-3.1V3.6h1.6v1.7c1,0.1,1.8,0.6,2.4,1.3
	L12.7,8c-0.5-0.6-1-0.8-1.7-0.8c-0.8,0-1.3,0.3-1.3,1c0.1,1.5,4.5,1.4,4.5,4.5c0,1.6-0.9,2.8-2.5,3.1L11.4,15.6z"/>
</svg>
