<svg xmlns="http://www.w3.org/2000/svg" width="17" height="19" viewBox="0 0 17 19">
    <path fill="#FFF" fill-rule="nonzero" d="M11.238.494a3.88 3.88 0 0 0-1.923 3.342c0 .71.285 1.424.642 2.062.285.57.424 1.564-.57 2.062-.71.425-1.638.142-2.062-.57-.425-.57-.923-1.14-1.564-1.564a3.73 3.73 0 0 0-3.84 0A3.884 3.884 0 0 0 0 9.171c0 1.352.71 2.632 1.92 3.343a3.73 3.73 0 0 0 3.84 0c.642-.356 1.14-.922 1.493-1.564.285-.498 1.068-1.14 2.062-.57.71.425.923 1.353.57 2.063-.357.641-.57 1.353-.57 2.062 0 1.353.71 2.632 1.923 3.341a3.73 3.73 0 0 0 3.84 0A3.88 3.88 0 0 0 17 14.505c0-1.351-.711-2.632-1.923-3.343-.641-.357-1.352-.498-2.134-.498-.641 0-1.492-.425-1.492-1.493 0-.854.641-1.492 1.492-1.492.71 0 1.493-.142 2.134-.498A3.88 3.88 0 0 0 17 3.84c0-1.351-.711-2.632-1.923-3.342C14.507.142 13.798 0 13.157 0c-.638-.004-1.353.142-1.919.494"/>
</svg>
