<?xml version="1.0" encoding="UTF-8"?>
<svg xmlns="http://www.w3.org/2000/svg" xmlns:xlink="http://www.w3.org/1999/xlink" width="30pt" height="30pt" viewBox="0 0 30 30" version="1.1">
<g id="surface1">
<path style="fill-rule:nonzero;fill:rgb(100%,100%,100%);fill-opacity:1;stroke-width:5;stroke-linecap:butt;stroke-linejoin:miter;stroke:rgb(56.862745%,56.862745%,56.862745%);stroke-opacity:1;stroke-miterlimit:4;" d="M 289.973958 82.03125 C 332.03125 82.03125 360.026042 110.026042 360.026042 151.953125 L 360.026042 361.979167 L 150 361.979167 C 107.942708 361.979167 79.947917 333.984375 79.947917 292.057292 L 79.947917 82.03125 L 289.973958 82.03125 M 289.973958 11.979167 L 10.026042 11.979167 L 10.026042 292.057292 C 10.026042 369.010417 73.046875 432.03125 150 432.03125 L 429.947917 432.03125 L 429.947917 151.953125 C 429.947917 75 367.057292 11.979167 289.973958 11.979167 Z M 289.973958 11.979167 " transform="matrix(0.03,0,0,0.03,0,0)"/>
<path style="fill-rule:nonzero;fill:rgb(100%,100%,100%);fill-opacity:1;stroke-width:5;stroke-linecap:butt;stroke-linejoin:miter;stroke:rgb(56.862745%,56.862745%,56.862745%);stroke-opacity:1;stroke-miterlimit:4;" d="M 920.052083 82.03125 L 920.052083 292.057292 C 920.052083 333.984375 892.057292 361.979167 850 361.979167 L 639.973958 361.979167 L 639.973958 151.953125 C 639.973958 110.026042 667.96875 82.03125 710.026042 82.03125 L 920.052083 82.03125 M 989.973958 11.979167 L 710.026042 11.979167 C 632.942708 11.979167 570.052083 75 570.052083 151.953125 L 570.052083 432.03125 L 850 432.03125 C 926.953125 432.03125 989.973958 369.010417 989.973958 292.057292 Z M 989.973958 11.979167 " transform="matrix(0.03,0,0,0.03,0,0)"/>
<path style="fill-rule:nonzero;fill:rgb(100%,100%,100%);fill-opacity:1;stroke-width:5;stroke-linecap:butt;stroke-linejoin:miter;stroke:rgb(56.862745%,56.862745%,56.862745%);stroke-opacity:1;stroke-miterlimit:4;" d="M 360.026042 642.057292 L 360.026042 851.953125 C 360.026042 894.010417 332.03125 922.005208 289.973958 922.005208 L 79.947917 922.005208 L 79.947917 711.979167 C 79.947917 670.052083 107.942708 642.057292 150 642.057292 L 360.026042 642.057292 M 429.947917 572.005208 L 150 572.005208 C 73.046875 572.005208 10.026042 635.026042 10.026042 711.979167 L 10.026042 992.057292 L 289.973958 992.057292 C 367.057292 992.057292 429.947917 929.036458 429.947917 851.953125 Z M 429.947917 572.005208 " transform="matrix(0.03,0,0,0.03,0,0)"/>
<path style="fill-rule:nonzero;fill:rgb(100%,100%,100%);fill-opacity:1;stroke-width:5;stroke-linecap:butt;stroke-linejoin:miter;stroke:rgb(56.862745%,56.862745%,56.862745%);stroke-opacity:1;stroke-miterlimit:4;" d="M 850 572.005208 L 570.052083 572.005208 L 570.052083 851.953125 C 570.052083 929.036458 632.942708 992.057292 710.026042 992.057292 L 989.973958 992.057292 L 989.973958 711.979167 C 989.973958 635.026042 926.953125 572.005208 850 572.005208 Z M 850 572.005208 " transform="matrix(0.03,0,0,0.03,0,0)"/>
</g>
</svg>
