<?xml version="1.0" encoding="UTF-8"?>
<svg xmlns="http://www.w3.org/2000/svg" xmlns:xlink="http://www.w3.org/1999/xlink" width="30pt" height="30pt" viewBox="0 0 30 30" version="1.1">
<g id="surface1">
<path style="fill-rule:nonzero;fill:rgb(40.392157%,23.137255%,71.764706%);fill-opacity:1;stroke-width:5;stroke-linecap:butt;stroke-linejoin:miter;stroke:rgb(56.862745%,56.862745%,56.862745%);stroke-opacity:1;stroke-miterlimit:4;" d="M 289.973958 79.947917 C 332.03125 79.947917 360.026042 107.942708 360.026042 150 L 360.026042 360.026042 L 150 360.026042 C 107.942708 360.026042 79.947917 332.03125 79.947917 289.973958 L 79.947917 79.947917 L 289.973958 79.947917 M 289.973958 10.026042 L 10.026042 10.026042 L 10.026042 289.973958 C 10.026042 367.057292 73.046875 429.947917 150 429.947917 L 429.947917 429.947917 L 429.947917 150 C 429.947917 73.046875 367.057292 10.026042 289.973958 10.026042 Z M 289.973958 10.026042 " transform="matrix(0.03,0,0,0.03,0,0)"/>
<path style="fill-rule:nonzero;fill:rgb(40.392157%,23.137255%,71.764706%);fill-opacity:1;stroke-width:5;stroke-linecap:butt;stroke-linejoin:miter;stroke:rgb(56.862745%,56.862745%,56.862745%);stroke-opacity:1;stroke-miterlimit:4;" d="M 920.052083 79.947917 L 920.052083 289.973958 C 920.052083 332.03125 892.057292 360.026042 850 360.026042 L 639.973958 360.026042 L 639.973958 150 C 639.973958 107.942708 667.96875 79.947917 710.026042 79.947917 L 920.052083 79.947917 M 989.973958 10.026042 L 710.026042 10.026042 C 632.942708 10.026042 570.052083 73.046875 570.052083 150 L 570.052083 429.947917 L 850 429.947917 C 926.953125 429.947917 989.973958 367.057292 989.973958 289.973958 Z M 989.973958 10.026042 " transform="matrix(0.03,0,0,0.03,0,0)"/>
<path style="fill-rule:nonzero;fill:rgb(40.392157%,23.137255%,71.764706%);fill-opacity:1;stroke-width:5;stroke-linecap:butt;stroke-linejoin:miter;stroke:rgb(56.862745%,56.862745%,56.862745%);stroke-opacity:1;stroke-miterlimit:4;" d="M 360.026042 639.973958 L 360.026042 850 C 360.026042 892.057292 332.03125 920.052083 289.973958 920.052083 L 79.947917 920.052083 L 79.947917 710.026042 C 79.947917 667.96875 107.942708 639.973958 150 639.973958 L 360.026042 639.973958 M 429.947917 570.052083 L 150 570.052083 C 73.046875 570.052083 10.026042 632.942708 10.026042 710.026042 L 10.026042 989.973958 L 289.973958 989.973958 C 367.057292 989.973958 429.947917 926.953125 429.947917 850 Z M 429.947917 570.052083 " transform="matrix(0.03,0,0,0.03,0,0)"/>
<path style="fill-rule:nonzero;fill:rgb(40.392157%,23.137255%,71.764706%);fill-opacity:1;stroke-width:5;stroke-linecap:butt;stroke-linejoin:miter;stroke:rgb(56.862745%,56.862745%,56.862745%);stroke-opacity:1;stroke-miterlimit:4;" d="M 850 570.052083 L 570.052083 570.052083 L 570.052083 850 C 570.052083 926.953125 632.942708 989.973958 710.026042 989.973958 L 989.973958 989.973958 L 989.973958 710.026042 C 989.973958 632.942708 926.953125 570.052083 850 570.052083 Z M 850 570.052083 " transform="matrix(0.03,0,0,0.03,0,0)"/>
</g>
</svg>
