<svg width="28" height="37" viewBox="0 0 28 37" fill="none" xmlns="http://www.w3.org/2000/svg">
<path d="M27.3476 15.0108C27.9042 11.2848 25.0672 9.28169 21.1875 7.94553L22.4475 2.89854L19.3743 2.13302L18.1467 7.04729C17.3398 6.84625 16.5104 6.65529 15.6861 6.46825L16.9181 1.5215L13.8479 0.755981L12.5915 5.80101L6.39455 4.26606L5.57695 7.54793C5.57695 7.54793 7.85671 8.07041 7.80855 8.10289C9.05288 8.41369 9.27856 9.23689 9.24048 9.88985L5.79255 23.7162C5.64023 24.0942 5.25439 24.6609 4.38471 24.4442C4.41551 24.489 2.15142 23.8842 2.15142 23.8842L0.625977 27.4063L6.81399 28.9687L5.54223 34.0745L8.61104 34.84L9.87104 29.7891C10.711 30.0165 11.523 30.2265 12.3188 30.4242L11.0638 35.4516L14.1366 36.2171L15.4083 31.1211C20.648 32.1123 24.5882 31.7125 26.2444 26.9771C27.5805 23.1621 26.1788 20.9613 23.422 19.5255C25.4296 19.0607 26.9416 17.7408 27.345 15.0127L27.3476 15.0108ZM20.3251 24.8553C19.3731 28.6703 12.9513 26.6086 10.8676 26.0906L12.5548 19.3272C14.6375 19.8469 21.3158 20.8762 20.3263 24.8547L20.3251 24.8553ZM21.2783 14.9567C20.4119 18.4287 15.0648 16.6647 13.3293 16.2318L14.857 10.0959C16.593 10.5294 22.1793 11.3363 21.276 14.9564" fill="#F7931A"/>
</svg>
