<svg width="34" height="40" viewBox="0 0 34 40" fill="none" xmlns="http://www.w3.org/2000/svg">
<path d="M33.3974 10.7101C31.8092 9.59926 30.1109 8.415 28.4492 7.23991C28.4125 7.21237 28.3758 7.18483 28.3299 7.15729C28.1463 7.01958 27.9351 6.8727 27.6781 6.79007L27.6597 6.78089C23.2165 5.70679 18.6997 4.60515 14.3299 3.54023C10.364 2.57629 6.40727 1.61235 2.44137 0.648417C2.34039 0.620876 2.23941 0.593335 2.12924 0.565794C1.77121 0.46481 1.35809 0.354646 0.917438 0.409728C0.788914 0.428089 0.678749 0.473991 0.577765 0.538253L0.467602 0.630057C0.293175 0.795303 0.201373 1.00645 0.155471 1.1258L0.12793 1.19924V1.62153L0.14629 1.6858C2.65252 8.70877 5.22301 15.8327 7.7017 22.7272C9.61121 28.0334 11.5942 33.5324 13.5312 38.9305C13.6506 39.2977 13.9902 39.5364 14.4125 39.5731H14.5043C14.8991 39.5731 15.2479 39.3803 15.4224 39.0682L22.6932 28.4649C24.465 25.8852 26.2368 23.2964 28.0086 20.7167C28.7338 19.6609 29.4591 18.596 30.1843 17.5403C31.3778 15.796 32.6079 13.9967 33.8289 12.2432L33.8932 12.1514V12.0412C33.9207 11.7199 33.9299 11.0589 33.3974 10.7101ZM24.8781 14.575C23.1706 15.4655 21.4263 16.3835 19.6728 17.2924C20.6919 16.1999 21.7201 15.0983 22.7391 14.0058C24.0151 12.6288 25.3463 11.2058 26.6499 9.81041L26.6774 9.78287C26.7876 9.63598 26.9253 9.49828 27.0722 9.35139C27.1732 9.25041 27.2833 9.14942 27.3843 9.03008C28.0637 9.49828 28.7522 9.97566 29.4132 10.4439C29.8906 10.7835 30.3771 11.1232 30.8728 11.4629C28.8532 12.4911 26.8335 13.5468 24.8781 14.575ZM20.4899 14.1344C19.1771 15.5573 17.8184 17.017 16.4689 18.4583C13.8525 15.2819 11.181 12.0596 8.59219 8.94746C7.41711 7.53368 6.23285 6.11073 5.05777 4.69695L5.04859 4.68777C4.78236 4.38482 4.52531 4.05433 4.26826 3.7422C4.10301 3.53105 3.92859 3.32908 3.75416 3.11793C4.81908 3.39334 5.89318 3.65039 6.94891 3.89826C7.87613 4.11859 8.84006 4.3481 9.78563 4.58679C15.1102 5.88122 20.444 7.17565 25.7686 8.47008C23.9968 10.3612 22.2158 12.2799 20.4899 14.1344ZM15.8722 32.0269C15.9732 31.0629 16.0833 30.0715 16.1751 29.0983C16.2578 28.318 16.3404 27.5193 16.423 26.7573C16.5515 25.5364 16.6892 24.2695 16.7994 23.0301L16.8269 22.8098C16.9187 22.0203 17.0106 21.2032 17.0656 20.3862C17.1666 20.3311 17.2768 20.276 17.3961 20.2301C17.5338 20.1658 17.6715 20.1108 17.8092 20.0281C19.9299 18.9173 22.0506 17.8065 24.1804 16.7049C26.301 15.6032 28.4768 14.4649 30.6342 13.3357C28.6696 16.1816 26.6958 19.055 24.7863 21.855C23.143 24.2511 21.4538 26.7206 19.7738 29.1534C19.1128 30.1265 18.4243 31.118 17.7725 32.0728C17.0381 33.1377 16.2853 34.2302 15.5509 35.3226C15.6427 34.221 15.7528 33.1101 15.8722 32.0269ZM3.07482 5.2845C2.95547 4.954 2.82695 4.61433 2.71678 4.29302C5.19547 7.28581 7.69252 10.297 10.1253 13.2163C11.383 14.7311 12.6407 16.2367 13.8984 17.7606C14.1463 18.0452 14.3942 18.3481 14.6328 18.6419C14.945 19.0183 15.2571 19.4131 15.5968 19.7895C15.4866 20.735 15.3948 21.6898 15.2938 22.6078C15.2296 23.2504 15.1653 23.8931 15.0919 24.5449V24.5541C15.0643 24.9672 15.0092 25.3803 14.9633 25.7842C14.8991 26.3442 14.7522 27.6111 14.7522 27.6111L14.743 27.6754C14.5778 29.5298 14.3758 31.4026 14.183 33.2203C14.1004 33.9731 14.0269 34.7443 13.9443 35.5154C13.8984 35.3777 13.8433 35.24 13.7974 35.1115C13.6597 34.7443 13.522 34.3587 13.3935 33.9823L12.4112 31.2557C9.29908 22.5986 6.18695 13.9508 3.07482 5.2845Z" fill="black"/>
</svg>
