<svg width="17" version="1.1" xmlns="http://www.w3.org/2000/svg" viewBox="0 0 512 512" xmlns:xlink="http://www.w3.org/1999/xlink" enable-background="new 0 0 512 512">
    <path fill="#7c1de9" id="svg_1" d="m454.628,375.626l-35.882,-35.882c-12.002,-12.003 -18.745,-28.281 -18.745,-45.255l0,-112.558c0,-69.119 -47.071,-130.174 -112.376,-145.224c0.145,-1.231 0.375,-2.438 0.375,-3.707c0,-17.649 -14.352,-32 -32,-32s-32,14.352 -32,32c0,1.247 0.229,2.432 0.368,3.643c-64.287,14.435 -112.369,71.712 -112.369,140.355l0,117.491c0,16.974 -6.743,33.252 -18.745,45.255l-35.882,35.882c-6.002,6.001 -9.373,14.141 -9.373,22.628l0,0.024c0,19.176 15.545,34.721 34.72,34.721l109.281,0l0,16c0,35.346 28.654,64 64,64s64,-28.655 64,-64l0,-16l109.281,0c19.175,0 34.72,-15.545 34.72,-34.721l0,-0.024c0,-8.487 -3.371,-16.627 -9.373,-22.628z"/>
</svg>