<svg id="svg" version="1.1" xmlns="http://www.w3.org/2000/svg" xmlns:xlink="http://www.w3.org/1999/xlink" width="400" height="438.7596899224806" viewBox="0, 0, 400,438.7596899224806"><g id="svgg"><path id="path0" d="M194.419 9.518 C 185.514 10.471,188.549 8.948,142.946 35.355 C 122.395 47.255,89.186 66.480,69.147 78.078 C 49.109 89.675,31.591 99.870,30.220 100.733 C 23.250 105.117,17.305 112.983,14.745 121.207 C 12.906 127.119,12.999 121.522,13.093 219.826 L 13.178 309.884 26.150 289.950 L 39.122 270.015 39.018 199.877 L 38.915 129.739 40.059 127.428 C 42.174 123.156,31.000 129.958,130.698 72.253 C 160.543 54.978,186.845 39.754,189.147 38.420 C 195.251 34.885,199.033 34.206,202.958 35.943 C 203.744 36.290,237.826 55.799,278.697 79.295 C 358.703 125.289,354.938 123.001,356.953 126.860 L 357.984 128.837 358.075 215.969 C 358.173 309.458,358.241 305.358,356.539 308.565 C 355.103 311.273,354.518 311.679,339.845 320.154 C 332.256 324.537,325.349 328.586,324.496 329.152 C 322.821 330.263,311.953 336.546,309.922 337.578 C 308.020 338.545,257.583 367.782,257.054 368.225 C 256.658 368.557,205.495 398.277,203.471 399.351 C 202.144 400.055,199.206 400.344,196.983 399.989 C 195.016 399.674,192.987 398.559,162.821 381.207 C 136.872 366.280,130.679 362.836,130.373 363.163 C 129.852 363.717,117.441 384.835,117.570 384.945 C 117.802 385.143,179.862 420.788,182.047 421.978 C 189.894 426.251,201.086 427.159,210.388 424.276 C 212.449 423.637,226.132 415.831,291.439 378.033 L 370.010 332.558 372.702 329.922 C 378.214 324.527,381.757 317.973,383.483 309.982 C 384.231 306.515,384.345 129.182,383.601 125.426 C 381.717 115.913,375.839 106.622,368.372 101.351 C 365.141 99.070,215.334 13.061,212.903 12.090 C 207.374 9.884,200.254 8.893,194.419 9.518 " stroke="none" fill="#69b2e5" fill-rule="evenodd"></path><path id="path1" d="M157.255 130.877 C 139.960 132.204,126.105 138.070,118.679 147.210 C 117.744 148.361,98.842 177.419,76.674 211.783 C 54.506 246.147,31.116 282.330,24.696 292.190 L 13.023 310.116 13.034 317.461 L 13.046 324.806 33.136 336.357 C 44.185 342.709,53.372 347.907,53.551 347.907 C 53.861 347.907,188.976 131.499,188.778 131.319 C 188.646 131.200,164.286 130.527,162.171 130.585 C 161.233 130.610,159.020 130.742,157.255 130.877 M223.757 131.469 L 206.428 131.628 138.212 244.186 C 100.693 306.093,69.979 356.915,69.959 357.125 C 69.913 357.602,117.242 384.899,117.557 384.577 C 117.716 384.413,254.179 153.073,266.262 132.481 L 267.036 131.163 254.060 131.236 C 246.924 131.277,233.287 131.382,223.757 131.469 " stroke="none" fill="#fbfbfb" fill-rule="evenodd"></path><path id="path2" d="M194.264 35.900 C 193.078 36.332,99.768 90.179,50.773 118.705 C 41.940 123.847,41.231 124.481,39.695 128.585 C 39.072 130.249,39.069 130.693,39.147 199.915 L 39.225 269.571 77.810 209.747 C 99.032 176.843,116.979 149.155,117.691 148.217 C 124.281 139.542,135.459 133.872,150.853 131.396 C 155.325 130.677,182.976 130.445,187.500 131.089 L 189.108 131.318 121.531 239.688 C 84.363 299.291,53.956 348.128,53.959 348.215 C 53.972 348.551,69.583 357.302,69.688 357.031 C 69.750 356.873,100.545 306.023,138.123 244.031 L 206.445 131.318 236.745 131.239 C 261.570 131.174,267.016 131.233,266.889 131.565 C 266.803 131.787,236.149 183.847,198.769 247.252 C 161.388 310.658,130.857 362.588,130.922 362.653 C 131.730 363.461,194.644 399.274,195.804 399.586 C 197.554 400.056,200.224 400.113,201.933 399.716 C 204.556 399.107,257.053 368.275,256.623 367.597 C 256.406 367.256,243.496 346.987,227.933 322.554 L 199.637 278.132 216.923 248.756 C 226.431 232.599,234.363 219.209,234.550 219.000 C 234.806 218.714,243.910 232.837,271.321 276.045 C 291.358 307.628,308.314 334.343,309.000 335.411 L 310.248 337.353 317.578 333.100 C 321.694 330.712,324.823 328.709,324.714 328.532 C 324.608 328.359,306.759 299.492,285.051 264.385 C 263.343 229.277,245.581 200.415,245.581 200.248 C 245.581 199.922,276.022 148.158,276.135 148.292 C 276.172 148.336,294.513 176.907,316.894 211.783 C 339.274 246.659,357.711 275.328,357.865 275.492 C 358.033 275.669,358.113 246.276,358.065 202.607 L 357.984 129.425 356.840 127.116 C 356.210 125.845,355.094 124.223,354.359 123.511 C 353.254 122.439,210.785 40.082,203.566 36.342 C 201.475 35.259,196.653 35.030,194.264 35.900 " stroke="none" fill="#2c344c" fill-rule="evenodd"></path><path id="path3" d="M260.775 174.137 C 252.504 188.204,245.736 199.953,245.736 200.246 C 245.736 201.241,324.760 328.700,325.260 328.512 C 326.676 327.978,353.808 312.028,354.629 311.247 C 357.835 308.196,358.140 306.335,358.140 289.784 L 358.140 276.032 317.273 212.378 C 294.796 177.369,276.273 148.687,276.110 148.642 C 275.947 148.597,269.047 160.070,260.775 174.137 M232.791 221.913 C 231.696 223.760,223.792 237.167,215.225 251.705 L 199.650 278.139 228.275 323.095 C 246.375 351.521,257.044 367.998,257.293 367.909 C 257.952 367.671,309.273 337.924,309.700 337.532 C 310.007 337.251,236.326 220.187,234.879 218.657 C 234.825 218.600,233.886 220.066,232.791 221.913 " stroke="none" fill="#3288c5" fill-rule="evenodd"></path><path id="path4" d="M197.442 35.263 C 197.996 35.332,198.903 35.332,199.457 35.263 C 200.012 35.194,199.558 35.138,198.450 35.138 C 197.341 35.138,196.888 35.194,197.442 35.263 M353.488 122.578 C 353.488 122.631,353.942 123.084,354.496 123.585 L 355.504 124.496 354.593 123.488 C 353.744 122.549,353.488 122.338,353.488 122.578 M158.062 130.761 C 158.446 130.835,159.074 130.835,159.457 130.761 C 159.841 130.688,159.527 130.627,158.760 130.627 C 157.992 130.627,157.678 130.688,158.062 130.761 M170.620 130.771 C 171.430 130.834,172.756 130.834,173.566 130.771 C 174.376 130.707,173.713 130.654,172.093 130.654 C 170.473 130.654,169.810 130.707,170.620 130.771 M38.910 168.837 C 38.910 189.814,38.947 198.441,38.992 188.009 C 39.037 177.576,39.037 160.413,38.992 149.869 C 38.947 139.325,38.910 147.860,38.910 168.837 M182.403 131.081 C 183.213 131.145,184.539 131.145,185.349 131.081 C 186.159 131.017,185.496 130.964,183.876 130.964 C 182.256 130.964,181.593 131.017,182.403 131.081 M206.404 131.395 C 206.274 131.606,219.182 131.603,234.729 131.388 C 238.054 131.342,233.074 131.272,223.662 131.233 C 214.249 131.195,206.483 131.267,206.404 131.395 M198.527 400.214 C 198.826 400.292,199.314 400.292,199.612 400.214 C 199.911 400.136,199.667 400.072,199.070 400.072 C 198.473 400.072,198.229 400.136,198.527 400.214 " stroke="none" fill="#6c7788" fill-rule="evenodd"></path></g></svg>