<?xml version="1.0" standalone="no"?>
<svg version="1.0" xmlns="http://www.w3.org/2000/svg"
 width="64.000000pt" height="64.000000pt" viewBox="0 0 64.000000 64.000000"
 preserveAspectRatio="xMidYMid meet">

<g transform="translate(0.000000,64.000000) scale(0.100000,-0.100000)"
fill="#000000" stroke="none">
<path d="M0 320 l0 -320 320 0 320 0 0 320 0 320 -320 0 -320 0 0 -320z m430
189 c49 -28 94 -57 100 -64 7 -8 10 -57 8 -131 l-3 -119 -95 -57 c-52 -32
-105 -58 -118 -58 -24 0 -154 70 -150 81 2 3 37 63 78 132 74 125 75 126 112
127 l38 0 -49 -82 c-27 -46 -63 -107 -80 -136 l-31 -52 33 -20 c39 -24 49 -25
88 -5 l29 16 -35 55 -36 55 21 30 c12 16 23 29 25 29 2 0 22 -29 44 -65 23
-36 46 -63 51 -60 5 3 -11 38 -36 77 -24 40 -44 76 -44 80 0 5 7 20 16 34 l17
24 45 -72 c24 -40 46 -75 48 -77 2 -2 4 36 4 86 l0 91 -89 51 c-49 28 -94 51
-101 51 -7 0 -52 -23 -101 -51 l-89 -51 0 -87 0 -86 53 80 c45 70 56 80 85 83
17 2 32 0 32 -3 0 -6 -130 -222 -147 -244 -2 -2 -14 2 -28 9 -25 13 -25 15
-25 135 0 101 3 125 16 136 37 31 181 108 202 108 12 1 62 -22 112 -50z"/>
</g>
</svg>
