<svg width="69" height="69" viewBox="0 0 69 69" fill="none" xmlns="http://www.w3.org/2000/svg">
<path d="M34.494 0.300999L34.035 1.86V47.086L34.494 47.544L55.487 35.134L34.494 0.300999Z" fill="#403F3C"/>
<path d="M34.494 0.300999L13.5 35.134L34.494 47.544V25.592V0.300999Z" fill="#8B8D8C"/>
<path d="M34.494 51.518L34.235 51.833V67.944L34.494 68.699L55.5 39.116L34.494 51.518Z" fill="#403F3C"/>
<path d="M34.494 68.699V51.518L13.5 39.115L34.494 68.699Z" fill="#8B8D8C"/>
<path d="M34.494 47.543L55.487 35.134L34.494 25.592V47.543Z" fill="#262322"/>
<path d="M13.501 35.134L34.494 47.543V25.592L13.501 35.134Z" fill="#444341"/>
<path d="M51.5006 30.674C52.223 30.6717 52.9316 30.8717 53.5462 31.2513C54.1608 31.6308 54.657 32.1749 54.9784 32.8218L65.9159 54.6968C66.2127 55.2897 66.3529 55.9487 66.3233 56.611C66.2938 57.2734 66.0953 57.9172 65.7468 58.4813C65.3983 59.0454 64.9114 59.511 64.3322 59.8338C63.7531 60.1567 63.1011 60.3261 62.438 60.326H40.5631C39.9002 60.3259 39.2483 60.1563 38.6693 59.8334C38.0904 59.5104 37.6036 59.0448 37.2552 58.4808C36.9069 57.9168 36.7085 57.273 36.679 56.6108C36.6494 55.9485 36.7897 55.2896 37.0865 54.6968L48.0228 32.8218C48.3442 32.1749 48.8403 31.6308 49.455 31.2513C50.0696 30.8717 50.7782 30.6717 51.5006 30.674V30.674ZM51.5006 28C50.2821 27.9999 49.0876 28.339 48.0509 28.9794C47.0142 29.6199 46.1764 30.5363 45.6311 31.626L34.6937 53.501C34.193 54.5016 33.9565 55.6135 34.0066 56.7312C34.0567 57.849 34.3917 58.9353 34.9798 59.8871C35.5679 60.8389 36.3896 61.6245 37.3668 62.1693C38.344 62.7142 39.4443 63.0001 40.5631 63H62.438C63.5568 62.9999 64.6569 62.7138 65.634 62.1689C66.611 61.624 67.4325 60.8384 68.0205 59.8866C68.6085 58.9348 68.9434 57.8486 68.9934 56.731C69.0435 55.6133 68.8069 54.5015 68.3064 53.501L57.3701 31.626C56.8248 30.5363 55.9869 29.6199 54.9503 28.9794C53.9136 28.339 52.7191 27.9999 51.5006 28V28Z" fill="#78D64B"/>
</svg>
