<svg width="85" height="85" viewBox="0 0 85 85" fill="none" xmlns="http://www.w3.org/2000/svg">
<path d="M42.494 8.301L42.035 9.86V55.086L42.494 55.544L63.487 43.134L42.494 8.301Z" fill="#403F3C"/>
<path d="M42.494 8.301L21.5 43.134L42.494 55.544V33.592V8.301Z" fill="#8B8D8C"/>
<path d="M42.494 59.518L42.235 59.833V75.944L42.494 76.699L63.5 47.116L42.494 59.518Z" fill="#403F3C"/>
<path d="M42.494 76.699V59.518L21.5 47.115L42.494 76.699Z" fill="#8B8D8C"/>
<path d="M42.494 55.543L63.487 43.134L42.494 33.592V55.543Z" fill="#262322"/>
<path d="M21.501 43.134L42.494 55.543V33.592L21.501 43.134Z" fill="#444341"/>
<path d="M58.0006 43.292C58.6198 43.29 59.2271 43.4614 59.754 43.7868C60.2808 44.1122 60.706 44.5785 60.9816 45.133L70.3566 63.883C70.611 64.3912 70.7312 64.956 70.7058 65.5238C70.6805 66.0915 70.5103 66.6433 70.2116 67.1268C69.9129 67.6103 69.4956 68.0094 68.9992 68.2861C68.5028 68.5629 67.9439 68.7081 67.3756 68.708H48.6256C48.0573 68.7079 47.4985 68.5626 47.0023 68.2858C46.506 68.009 46.0888 67.6099 45.7902 67.1264C45.4916 66.6429 45.3216 66.0912 45.2963 65.5235C45.271 64.9558 45.3912 64.3911 45.6456 63.883L55.0196 45.133C55.2951 44.5785 55.7203 44.1122 56.2472 43.7868C56.774 43.4614 57.3814 43.29 58.0006 43.292ZM58.0006 41C56.9561 40.9999 55.9322 41.2906 55.0437 41.8395C54.1551 42.3885 53.4369 43.1739 52.9696 44.108L43.5946 62.858C43.1654 63.7156 42.9627 64.6687 43.0056 65.6268C43.0486 66.5848 43.3357 67.516 43.8398 68.3318C44.3439 69.1476 45.0482 69.821 45.8858 70.288C46.7235 70.755 47.6666 71.0001 48.6256 71H67.3756C68.3345 70.9999 69.2775 70.7547 70.1149 70.2876C70.9524 69.8206 71.6566 69.1472 72.1606 68.3314C72.6645 67.5156 72.9516 66.5845 72.9945 65.6265C73.0374 64.6686 72.8346 63.7156 72.4056 62.858L63.0316 44.108C62.5642 43.1739 61.846 42.3885 60.9574 41.8395C60.0689 41.2906 59.045 40.9999 58.0006 41Z" fill="#78D64B"/>
</svg>
