<svg xmlns="http://www.w3.org/2000/svg" xmlns:xlink="http://www.w3.org/1999/xlink" version="1.1" enable-background="new 0 0 1000 1000" xml:space="preserve" width="1000" height="1000" style=""><rect id="backgroundrect" width="100%" height="100%" x="0" y="0" fill="none" stroke="none"/>
<metadata> Svg Vector Icons : http://www.onlinewebfonts.com/icon </metadata>

<g class="currentLayer" style=""><title>Layer 1</title><g id="svg_1" class="selected" fill="#ffffff" fill-opacity="1" stroke-width="5" stroke="#919191" stroke-opacity="1"><path d="M290,82 c42,0 70,28 70,70 v210 H150 c-42,0 -70,-28 -70,-70 V82 H290 M290,12 H10 v280 c0,77 63,140 140,140 h280 V152 C430,75 367,12 290,12 L290,12 z" id="svg_2" fill="#ffffff" fill-opacity="1" stroke-width="5" stroke="#919191" stroke-opacity="1"/><path d="M920,82 v210 c0,42 -28,70 -70,70 H640 V152 c0,-42 28,-70 70,-70 H920 M990,12 H710 c-77,0 -140,63 -140,140 v280 h280 c77,0 140,-63 140,-140 V12 L990,12 z" id="svg_3" fill="#ffffff" fill-opacity="1" stroke-width="5" stroke="#919191" stroke-opacity="1"/><path d="M360,642 v210 c0,42 -28,70 -70,70 H80 V712 c0,-42 28,-70 70,-70 H360 M430,572 H150 c-77,0 -140,63 -140,140 v280 h280 c77,0 140,-63 140,-140 V572 L430,572 z" id="svg_4" fill="#ffffff" fill-opacity="1" stroke-width="5" stroke="#919191" stroke-opacity="1"/><path d="M850,572 H570 v280 c0,77 63,140 140,140 h280 V712 C990,635 927,572 850,572 z" id="svg_5" fill="#ffffff" fill-opacity="1" stroke-width="5" stroke="#919191" stroke-opacity="1"/></g></g></svg>