<svg xmlns="http://www.w3.org/2000/svg" xmlns:xlink="http://www.w3.org/1999/xlink" viewBox="0 0 512 512" width="150" height="150">
<path fill="#fff" d="M244.219,0.164c7.917,0,15.834,0,23.751,0c1.103,0.152,2.202,0.389,3.311,0.443c15.744,0.769,31.265,3.133,46.524,6.995
	c49.701,12.578,92.143,37.577,126.769,75.395c38.346,41.882,60.401,91.215,66.134,147.77c2.196,21.665,1.587,43.274-1.764,64.772
	c-4.219,27.074-12.449,52.903-25.206,77.176c-30.215,57.494-75.597,98.22-136.031,121.994
	c-23.306,9.168-47.561,14.495-72.583,16.151c-5.823,0.385-11.653,0.653-17.48,0.975c-1.033,0-2.065,0-3.098,0
	c-0.849-0.09-1.697-0.248-2.547-0.259c-15.405-0.204-30.658-1.788-45.776-4.793c-47.922-9.527-89.691-31.088-125.399-64.337
	c-23.711-22.078-42.469-47.87-56.357-77.147c-11.063-23.323-18.519-47.764-21.924-73.376C1.469,283.852,0.835,275.721,0,267.617
	c0-7.917,0-15.834,0-23.751c0.151-1.013,0.338-2.023,0.446-3.041c0.872-8.196,1.443-16.436,2.643-24.583
	c3.983-27.046,12.329-52.748,24.97-76.968C56.068,85.609,97.762,46.345,153.032,21.64c23.906-10.685,48.967-17.288,75.032-19.977
	C233.443,1.108,238.833,0.661,244.219,0.164z M87.385,297.764c0,32.682,0,65.224,0,97.795c7.482,0,14.768,0,22.372,0
	c0-13.054,0-25.997,0-38.976c12.812,0,25.303,0,37.978,0c0,13.094,0,25.971,0,38.932c7.614,0,15.042,0,22.522,0
	c0-32.644,0-65.129,0-97.713c-7.563,0-14.988,0-22.686,0c0,12.862,0,25.548,0,38.241c-12.707,0-25.139,0-37.905,0
	c0-12.865,0-25.557,0-38.278C102.048,297.764,94.767,297.764,87.385,297.764z M296.901,363.855c3.382,0,6.395,0.219,9.358-0.07
	c2.291-0.224,3.501,0.339,4.582,2.481c4.678,9.267,9.61,18.405,14.358,27.637c0.692,1.345,1.461,1.819,2.951,1.804
	c7.227-0.074,14.456-0.029,21.684-0.042c0.539-0.001,1.079-0.127,1.833-0.221c-7.7-12.674-15.248-25.098-22.811-37.547
	c0.791-0.518,1.299-0.835,1.791-1.175c9.625-6.649,15.162-15.735,15.134-27.505c-0.034-14.331-7.796-24.586-21.524-29.071
	c-16.441-5.371-33.146-2.68-49.851-1.634c0,32.558,0,64.772,0,97.035c7.547,0,14.911,0,22.494,0
	C296.901,384.96,296.901,374.499,296.901,363.855z M364.166,395.461c20.773,0,41.27,0,61.663,0c0-6.878,0-13.541,0-20.505
	c-13.127,0-26.054,0-38.899,0c0-6.537,0-12.768,0-19.229c11.938,0,23.679,0,35.55,0c0-6.566,0-12.895,0-19.54
	c-11.945,0-23.757,0-35.588,0c0-6.04,0-11.763,0-17.793c13.094,0,26.031,0,38.953,0c0-7.06,0-13.807,0-20.529
	c-20.672,0-41.158,0-61.68,0C364.166,330.51,364.166,362.913,364.166,395.461z M192.181,297.765c0,32.672,0,65.202,0,97.691
	c20.672,0,41.164,0,61.577,0c0-6.878,0-13.537,0-20.48c-13.151,0-26.094,0-38.99,0c0-6.512,0-12.733,0-19.204
	c11.964,0,23.705,0,35.461,0c0-6.65,0-13.042,0-19.676c-11.94,0-23.687,0-35.473,0c0-5.955,0-11.662,0-17.685
	c13.154,0,26.098,0,39.018,0c0-7.069,0-13.817,0-20.646C233.151,297.765,212.723,297.765,192.181,297.765z M200.235,271.3
	c22.243,0,38.174-15.757,38.244-37.828c0.07-22.182-15.701-38.17-37.61-38.127c-22.086,0.043-37.969,15.986-37.981,38.123
	C162.876,255.834,178.143,271.299,200.235,271.3z M365.045,271.3c22.225,0,38.155-15.831,38.14-37.903
	c-0.015-22.244-15.733-38.125-37.659-38.051c-22.053,0.075-38.043,16.178-37.932,38.199
	C327.706,255.947,342.935,271.3,365.045,271.3z M167.738,137.162c-0.06,22.185,15.299,37.988,36.974,38.043
	c22.109,0.056,38.41-15.649,38.483-37.077c0.079-23.016-14.899-38.819-36.869-38.899
	C183.678,99.146,167.798,114.756,167.738,137.162z M300.225,243.416c0,3.192-0.069,6.18,0.029,9.163
	c0.048,1.474-0.57,2.201-1.896,2.595c-5.146,1.532-10.359,1.733-15.498,0.258c-13.927-3.997-20.035-22.596-11.589-35.232
	c4.626-6.92,11.599-8.926,19.466-8.921c5.592,0.004,10.805,1.576,16.079,3.96c2.37-4.576,4.662-9.001,6.997-13.509
	c-7.846-4.186-15.887-6.324-24.454-6.377c-21.709-0.132-37.733,14.111-39.649,35.202c-1.452,15.991,7.107,31.175,21.701,37.29
	c14.955,6.266,29.568,4.2,43.598-3.289c0.701-0.374,1.185-1.792,1.193-2.729c0.086-9.633,0.053-19.267,0.053-28.901
	c0-1.271,0-2.543,0-3.886c-10.392,0-20.492,0-30.61,0c0,4.828,0,9.499,0,14.376C290.534,243.416,295.235,243.416,300.225,243.416z
	 M360.266,150.015c3.906,7.445,7.789,14.898,11.747,22.31c0.384,0.719,1.226,1.682,1.874,1.697c5.9,0.131,11.804,0.077,18.221,0.077
	c-5.916-9.749-11.588-19.096-17.279-28.474c0.906-0.643,1.683-1.174,2.44-1.733c11.273-8.336,13.729-23.917,5.227-34.374
	c-4.977-6.121-12.023-8.714-19.543-9.065c-8.718-0.408-17.483,0.27-26.228,0.315c-2.388,0.012-2.993,0.829-2.985,3.149
	c0.083,22.448,0.048,44.897,0.057,67.345c0,0.904,0.107,1.809,0.167,2.749c5.7,0,11.103,0,16.882,0c0-8.023,0-15.959,0-23.994
	C354.211,150.015,357.2,150.015,360.266,150.015z M256.084,100.443c0,8.352-0.067,16.512,0.018,24.669
	c0.09,8.595-0.041,17.215,0.587,25.776c0.815,11.102,7.976,19.702,18.163,22.661c7.584,2.203,15.277,2.302,22.921,0.382
	c8.915-2.239,15.558-7.444,18.47-16.295c1.424-4.328,2.138-9.056,2.232-13.623c0.282-13.762,0.104-27.533,0.096-41.301
	c0-0.743-0.092-1.486-0.139-2.199c-5.724,0-11.26,0-16.913,0c0,14.298,0.021,28.403-0.024,42.508
	c-0.006,1.964-0.143,3.97-0.558,5.884c-1.114,5.139-3.807,9.085-9.244,10.276c-5.746,1.259-11.219,0.819-15.258-4.168
	c-2.603-3.214-3.268-7.144-3.279-11.159c-0.037-13.509-0.014-27.019-0.014-40.529c0-0.922,0-1.843,0-2.883
	C267.407,100.443,261.932,100.443,256.084,100.443z M142.056,173.955c0-9.112-0.047-17.968,0.049-26.822
	c0.015-1.377,0.41-2.906,1.096-4.096c7.717-13.383,15.526-26.714,23.308-40.06c0.454-0.778,0.886-1.569,1.498-2.656
	c-6.2,0-11.95-0.051-17.697,0.065c-0.708,0.014-1.657,0.763-2.049,1.432c-1.518,2.588-2.844,5.287-4.262,7.934
	c-3.307,6.172-6.626,12.338-10.107,18.816c-0.622-1.034-1.082-1.729-1.474-2.46c-4.293-8.017-8.556-16.05-12.895-24.042
	c-0.388-0.714-1.242-1.654-1.898-1.668c-5.983-0.129-11.97-0.076-18.291-0.076c0.6,1.156,0.989,1.992,1.452,2.785
	c7.628,13.041,15.299,26.056,22.851,39.141c0.808,1.399,1.285,3.188,1.311,4.806c0.132,7.998,0.06,15.999,0.06,24
	c0,0.919,0,1.837,0,2.9C130.787,173.955,136.246,173.955,142.056,173.955z M128.197,254.714c0-19.531,0-38.738,0-57.945
	c-5.743,0-11.135,0-16.553,0c0,24.532,0,48.906,0,73.304c15.461,0,30.735,0,46.115,0c0-5.15,0-10.164,0-15.359
	C147.978,254.714,138.369,254.714,128.197,254.714z M313.999,343.65c5.646-2.531,8.625-7.808,8.152-14.441
	c-0.385-5.399-3.662-9.732-9.651-10.896c-4.62-0.899-9.505-0.478-14.273-0.514c-0.42-0.003-1.213,0.951-1.217,1.466
	c-0.077,8.494-0.054,16.989-0.054,25.62C303.723,346.067,309.63,345.609,313.999,343.65z M180.321,232.293
	c1.017,4.295,1.47,8.831,3.175,12.833c3.04,7.137,8.789,11.051,16.733,11.17c7.907,0.118,13.741-3.469,17.151-10.538
	c3.96-8.21,3.931-16.651-0.052-24.825c-5.495-11.276-20.245-14.002-29.444-5.502c-4.806,4.441-6.58,10.307-6.839,16.709
	C180.803,232.191,180.562,232.242,180.321,232.293z M381.451,219.702c-6.692-11.402-22.904-12.402-30.95-1.911
	c-6.063,7.905-6.435,21.471-0.827,30.147c7.223,11.175,23.718,11.292,31.127,0.221c2.756-4.118,3.909-8.718,4.074-13.615
	C384.992,229.31,384.144,224.291,381.451,219.702z M187.471,146.9c2.604,7.926,9.189,12.916,16.94,13.253
	c8.147,0.354,15.12-3.972,18.347-11.628c3.072-7.286,3.19-14.738,0.229-22.065c-5.078-12.567-20.325-16.274-30.154-7.328
	c-5.231,4.761-6.922,11.065-7.397,18.021C186.094,140.408,186.442,143.766,187.471,146.9z M360.661,135.82
	c5.551-0.784,8.911-4.811,9.076-10.168c0.168-5.469-2.357-9.039-7.862-10.052c-3.148-0.579-6.472-0.264-9.714-0.191
	c-0.443,0.01-1.233,0.947-1.24,1.463c-0.086,6.253-0.056,12.509-0.056,19.027C354.392,135.898,357.583,136.254,360.661,135.82z"/>
</svg>
