<?xml version="1.0" encoding="utf-8"?>
<!-- Generator: Adobe Illustrator 17.0.1, SVG Export Plug-In . SVG Version: 6.00 Build 0)  -->
<!DOCTYPE svg PUBLIC "-//W3C//DTD SVG 1.1//EN" "http://www.w3.org/Graphics/SVG/1.1/DTD/svg11.dtd">
<svg version="1.1" id="Layer_1" xmlns="http://www.w3.org/2000/svg" xmlns:xlink="http://www.w3.org/1999/xlink" x="0px" y="0px"
	 width="366.594px" height="400px" viewBox="0 0 366.594 400" enable-background="new 0 0 366.594 400" xml:space="preserve">
<g>
	<g>
		<path fill="#e91db4" d="M48.53,218.975c-0.21-3.089-0.354-6.202-0.354-9.344c0-47.45,24.2-89.348,60.905-114.03
			c2.671-8.58,6.985-16.629,12.767-23.712C69.865,96.02,33.712,148.67,33.712,209.631c0,5.503,0.313,10.933,0.887,16.295
			C38.799,222.909,43.477,220.52,48.53,218.975z M255.913,91.691c3.857,2.307,7.589,4.801,11.191,7.463l10.311-10.311
			c-10.896-8.291-22.939-15.151-35.849-20.289C247.85,75.377,252.706,83.228,255.913,91.691z M148.689,67.464
			c-16.718,10.153-27.22,26.818-28.181,45.406c-0.208,3.99,2.858,7.389,6.851,7.595c0.127,0.008,0.249,0.012,0.376,0.012
			c3.823,0,7.016-2.997,7.218-6.855c0.615-11.854,6.596-22.699,16.29-30.39c1.083,4.598,2.628,8.853,4.562,12.679
			c-6.727,8.355-10.758,19.589-11.195,31.528c-0.146,3.987,2.971,7.341,6.964,7.486c0.09,0,0.179,0,0.268,0
			c3.87,0,7.081-3.053,7.222-6.959c0.271-7.389,2.333-14.316,5.791-19.855c5.249,4.771,11.511,7.546,18.321,7.546
			c6.808,0,13.069-2.776,18.316-7.542c3.459,5.535,5.524,12.449,5.796,19.851c0.141,3.906,3.352,6.959,7.222,6.959
			c0.09,0,0.179,0,0.269,0c3.992-0.145,7.11-3.5,6.963-7.486c-0.437-11.951-4.473-23.165-11.201-31.516
			c1.937-3.829,3.484-8.089,4.568-12.691c9.689,7.699,15.675,18.552,16.291,30.39c0.202,3.862,3.395,6.855,7.218,6.855
			c0.127,0,0.254-0.004,0.381-0.012c3.988-0.205,7.053-3.604,6.846-7.595c-0.965-18.56-11.47-35.245-28.172-45.406
			c16.697-10.153,27.213-26.883,28.172-45.41c0.207-3.987-2.858-7.389-6.846-7.591c-4.143-0.285-7.392,2.852-7.599,6.843
			c-0.613,11.81-6.602,22.687-16.29,30.39c-1.083-4.602-2.629-8.862-4.565-12.683c6.724-8.363,10.76-19.602,11.198-31.524
			c0.147-3.99-2.971-7.341-6.963-7.486c-3.909-0.02-7.345,2.969-7.491,6.959c-0.272,7.377-2.333,14.308-5.79,19.855
			c-5.249-4.771-11.512-7.546-18.323-7.546c-6.813,0-13.077,2.78-18.327,7.555c-3.458-5.551-5.514-12.494-5.785-19.863
			c-0.146-3.995-3.611-7.063-7.491-6.959c-3.993,0.145-7.11,3.496-6.964,7.486c0.439,11.907,4.484,23.157,11.205,31.508
			c-1.94,3.833-3.489,8.093-4.572,12.699c-9.693-7.695-15.674-18.54-16.29-30.39c-0.207-3.982-3.489-7.084-7.599-6.843
			c-3.988,0.201-7.054,3.604-6.846,7.591C121.47,40.642,131.974,57.311,148.689,67.464z M183.176,33.731
			c3.439,0,6.726,1.79,9.591,4.815h-19.182C176.451,35.522,179.738,33.731,183.176,33.731z M165.927,52.967
			c0.127,0.008,0.246,0.04,0.375,0.04h33.75c0.129,0,0.248-0.032,0.375-0.04c1.285,4.453,2.036,9.377,2.036,14.497
			c0,17.968-9.012,33.732-19.286,33.732S163.89,85.433,163.89,67.464C163.89,62.344,164.642,57.42,165.927,52.967z M62.641,298.79
			c1.779,0,3.526-0.141,5.232-0.407l28.11-28.11c0.266-1.704,0.407-3.45,0.407-5.228c0-18.596-15.14-33.728-33.749-33.728
			c-18.61,0-33.75,15.132-33.75,33.728C28.891,283.653,44.03,298.79,62.641,298.79z M62.641,245.773
			c10.634,0,19.285,8.653,19.285,19.272c0,10.632-8.651,19.284-19.285,19.284c-10.634,0-19.286-8.653-19.286-19.284
			C43.355,254.426,52.006,245.773,62.641,245.773z M130.001,335.197c2.123,5.467,3.59,11.275,4.33,17.325
			c16.022,5.756,33.275,8.913,51.256,8.913c17.982,0,35.235-3.157,51.256-8.913c0.742-6.05,2.208-11.858,4.331-17.333
			c-17.008,7.555-35.808,11.786-55.587,11.786C165.808,346.975,147.01,342.744,130.001,335.197z M308.533,303.605
			c-30.911,0-56.271,24.195-57.725,55.08c-0.094,1.975,0.626,3.902,1.991,5.326c1.361,1.436,3.254,2.241,5.232,2.241h101.005
			c1.978,0,3.87-0.805,5.232-2.241c1.365-1.424,2.086-3.351,1.991-5.326C364.803,327.8,339.444,303.605,308.533,303.605z
			 M266.275,351.798c4.383-19.425,21.677-33.737,42.258-33.737c20.58,0,37.874,14.312,42.258,33.737H266.275z M95.912,333.624
			c4.309,5.163,7.447,11.351,8.987,18.174H77.395l-14.726,14.453h50.474c1.978,0,3.87-0.805,5.231-2.241
			c1.366-1.424,2.086-3.351,1.992-5.326c-0.637-13.511-5.848-25.741-14.097-35.226L95.912,333.624z M274.783,265.045
			c0,18.608,15.142,33.745,33.75,33.745c18.608,0,33.75-15.137,33.75-33.745c0-18.596-15.142-33.728-33.75-33.728
			C289.926,231.317,274.783,246.449,274.783,265.045z M308.533,245.773c10.636,0,19.286,8.653,19.286,19.272
			c0,10.632-8.649,19.284-19.286,19.284c-10.636,0-19.286-8.653-19.286-19.284C289.247,254.426,297.897,245.773,308.533,245.773z
			 M23.531,342.724c4.274-8.965,11.521-16.191,20.451-20.451l18.669-18.669c-0.003,0-0.007,0-0.01,0
			c-30.911,0-56.268,24.195-57.728,55.08c-0.038,0.808,0.067,1.606,0.29,2.367L23.531,342.724z M336.574,225.926
			c0.575-5.362,0.887-10.792,0.887-16.295c0-32.111-10.034-61.913-27.126-86.458l-10.474,10.28
			c14.608,21.811,23.136,48.014,23.136,76.177c0,3.141-0.145,6.255-0.354,9.344C327.697,220.52,332.375,222.909,336.574,225.926z
			 M364.476,35.759c-2.825-2.824-7.4-2.824-10.225,0L2.358,387.655c-2.825,2.824-2.825,7.393,0,10.225
			C3.77,399.292,5.62,400,7.47,400c1.851,0,3.701-0.708,5.113-2.12L364.476,45.984C367.299,43.16,367.299,38.583,364.476,35.759z"/>
	</g>
</g>
</svg>
