<?xml version="1.0" encoding="utf-8"?>
<!-- Generator: Adobe Illustrator 17.0.1, SVG Export Plug-In . SVG Version: 6.00 Build 0)  -->
<!DOCTYPE svg PUBLIC "-//W3C//DTD SVG 1.1//EN" "http://www.w3.org/Graphics/SVG/1.1/DTD/svg11.dtd">
<svg version="1.1" id="Layer_1" xmlns="http://www.w3.org/2000/svg" xmlns:xlink="http://www.w3.org/1999/xlink" x="0px" y="0px"
	 width="400px" height="304.772px" viewBox="0 0 400 304.772" enable-background="new 0 0 400 304.772" xml:space="preserve">
<g>
	<g>
		<path fill="#e91db4" d="M139.181,181.12c-0.176-0.833-0.539-1.621-1.059-2.298l-36.148-47.063
			c-2.159-2.81-6.889-2.81-9.049,0l-36.148,47.063c-0.52,0.677-0.882,1.466-1.059,2.298l-17.123,80.945
			c-0.505,2.384,0.558,4.829,2.646,6.082l53.27,32.003c0.905,0.544,1.921,0.814,2.938,0.814s2.032-0.27,2.938-0.814l53.27-32.003
			c2.088-1.253,3.151-3.697,2.646-6.082L139.181,181.12z M140.63,243.127l-14.7-25.76l5.638-17.078L140.63,243.127z M99.353,147.094
			l28.93,37.662l1.72,8.135l-6.611,20.028L99.353,170.8V147.094z M97.608,175.426l24.177,42.361l-14.883,45.082H88.885
			l-14.592-46.592L97.608,175.426z M66.618,184.757l28.93-37.662v24.262l-22.807,39.961l-7.008-22.374L66.618,184.757z
			 M64.126,196.541l6.04,19.287l-16.082,28.182L64.126,196.541z M50.607,260.446l0.896-4.241l20.216-35.418l13.178,42.081H54.639
			L50.607,260.446z M60.98,266.677h25.11l5.818,18.579L60.98,266.677z M98.651,287.862l-1.2,0.722l-0.63-0.381l-6.743-21.525h15.567
			L98.651,287.862z M103.648,284.862l6.003-18.184h24.269L103.648,284.862z M140.262,262.869h-29.353l13.415-40.641l18.887,33.097
			l1.083,5.121L140.262,262.869z M262.984,59.051c0-12.76-28.439-20.015-57.076-20.867V19.046h47.563
			c3.152,0,5.708-2.556,5.708-5.713c0-3.154-2.555-5.716-5.708-5.716H146.93c-3.153,0-5.708,2.562-5.708,5.716
			c0,3.157,2.555,5.713,5.708,5.713h47.563v19.138c-28.637,0.852-57.076,8.107-57.076,20.867s28.438,20.012,57.076,20.867v43.893
			c0,3.16,2.554,5.716,5.707,5.716c3.153,0,5.708-2.556,5.708-5.716V79.918C234.545,79.063,262.984,71.811,262.984,59.051z
			 M194.493,76.1c-31.665-0.922-53.271-9.394-53.271-17.049c0-7.662,21.605-16.131,53.271-17.056V76.1z M205.908,76.1V41.995
			c31.665,0.925,53.271,9.394,53.271,17.056C259.179,66.706,237.573,75.178,205.908,76.1z M357.933,213.89
			c-0.032-0.131-0.063-0.255-0.104-0.382c-0.03-0.095-0.041-0.197-0.077-0.289c-0.141-0.375-0.318-0.725-0.524-1.049l-53.267-83.803
			c-2.096-3.297-7.536-3.297-9.631,0l-53.265,83.803c-0.206,0.324-0.384,0.674-0.526,1.049c-0.037,0.092-0.047,0.194-0.078,0.289
			c-0.041,0.127-0.071,0.251-0.103,0.382c-0.095,0.388-0.151,0.776-0.164,1.163c-0.003,0.089-0.018,0.178-0.017,0.267
			c0.006,0.48,0.075,0.947,0.197,1.402c0.027,0.102,0.069,0.197,0.102,0.299c0.127,0.385,0.292,0.754,0.497,1.103
			c0.035,0.06,0.047,0.13,0.085,0.19l53.271,83.813c1.048,1.647,2.865,2.645,4.816,2.645c1.951,0,3.768-0.998,4.815-2.645
			l53.27-83.813c0.038-0.06,0.05-0.13,0.086-0.19c0.205-0.35,0.37-0.719,0.497-1.103c0.033-0.102,0.074-0.197,0.102-0.299
			c0.122-0.455,0.19-0.922,0.197-1.402c0.002-0.089-0.013-0.178-0.016-0.267C358.083,214.665,358.028,214.277,357.933,213.89z
			 M297.243,285.421l-37.32-58.717l37.195,14.156c0.04,0.016,0.084,0.006,0.124,0.025V285.421z M297.243,228.678l-42.791-16.28
			l1.066-1.682l41.725-15.876V228.678z M297.243,190.768l-38.309,14.576l38.309-60.271V190.768z M301.048,145.073l38.309,60.271
			l-38.309-14.576V145.073z M301.048,285.421v-44.535c0.04-0.019,0.085-0.01,0.125-0.025l37.195-14.156L301.048,285.421z
			 M301.048,228.678V194.84l41.725,15.876l1.067,1.682L301.048,228.678z M45.716,104.765v-5.713h5.715
			c13.653,0,24.763-11.107,24.763-24.765c0-8.59-4.399-16.166-11.059-20.607c4.477-4.482,7.249-10.669,7.249-17.491
			c0-13.651-11.109-24.762-24.763-24.762h-1.905V5.716C45.716,2.559,43.158,0,40.001,0c-3.156,0-5.714,2.559-5.714,5.716v5.713
			H22.858V5.716C22.858,2.559,20.3,0,17.143,0c-3.156,0-5.714,2.559-5.714,5.716v5.713H5.715C2.557,11.429,0,13.988,0,17.145
			c0,3.157,2.557,5.716,5.714,5.716h5.714v64.76H5.715C2.557,87.621,0,90.18,0,93.337c0,3.157,2.557,5.716,5.714,5.716h5.714v5.713
			c0,3.16,2.558,5.713,5.714,5.713c3.157,0,5.715-2.552,5.715-5.713v-5.713h11.429v5.713c0,3.16,2.558,5.713,5.714,5.713
			C43.158,110.478,45.716,107.926,45.716,104.765z M22.858,22.86h24.763c7.352,0,13.334,5.977,13.334,13.33
			c0,7.353-5.983,13.336-13.334,13.336H26.668h-3.81V22.86z M22.858,87.621V60.955h3.81h20.953h3.81
			c7.351,0,13.333,5.98,13.333,13.333c0,7.353-5.982,13.333-13.333,13.333H22.858z M394.301,87.538h-53.299l8.881-31.937
			l22.259-7.919c0.989-0.35,1.505-1.434,1.15-2.416c-0.352-0.983-1.445-1.501-2.427-1.144l-19.742,7.022l9.984-35.898
			c0.84-3.02-0.937-6.145-3.97-6.984c-3.023-0.852-6.174,0.932-7.013,3.951l-12.127,43.601l-20.325,7.232
			c-0.989,0.35-1.504,1.434-1.15,2.416c0.277,0.776,1.007,1.259,1.788,1.259c0.212,0,0.429-0.038,0.639-0.111l17.809-6.336
			L328.017,91.7c-0.477,1.713-0.123,3.541,0.955,4.953c1.077,1.411,2.755,2.241,4.535,2.241h60.793c3.148,0,5.699-2.543,5.699-5.681
			C400,90.078,397.449,87.538,394.301,87.538z"/>
	</g>
</g>
</svg>
