<?xml version="1.0" encoding="utf-8"?>
<!-- Generator: Adobe Illustrator 17.0.1, SVG Export Plug-In . SVG Version: 6.00 Build 0)  -->
<!DOCTYPE svg PUBLIC "-//W3C//DTD SVG 1.1//EN" "http://www.w3.org/Graphics/SVG/1.1/DTD/svg11.dtd">
<svg version="1.1" id="Layer_1" xmlns="http://www.w3.org/2000/svg" xmlns:xlink="http://www.w3.org/1999/xlink" x="0px" y="0px"
	 width="308.875px" height="400px" viewBox="0 0 308.875 400" enable-background="new 0 0 308.875 400" xml:space="preserve">
<path fill="#e91db4" d="M74.803,400c-1.3,0-2.611-0.368-3.784-1.12c-2.924-1.885-4.187-5.666-3.021-9.051l59.238-172.109
	H7.239c-2.402,0-4.647-1.251-5.995-3.338c-1.346-2.091-1.619-4.736-0.726-7.077L77.736,4.77C78.835,1.885,81.498,0,84.458,0H219.59
	c2.427,0,4.695,1.272,6.035,3.401c1.341,2.113,1.579,4.809,0.632,7.154L177.43,131.514h124.205c2.886,0,5.498,1.8,6.643,4.584
	c1.148,2.776,0.61,6.004-1.367,8.214L80.082,397.609C78.672,399.18,76.747,400,74.803,400z M17.93,202.531h119.615
	c2.359,0,4.57,1.209,5.924,3.232c1.355,2.02,1.686,4.614,0.884,6.942L93.509,360.431l191.392-213.723H166.503
	c-2.427,0-4.695-1.28-6.036-3.402c-1.34-2.125-1.579-4.812-0.631-7.157l48.827-120.968H89.359L17.93,202.531z"/>
</svg>
