<svg xmlns="http://www.w3.org/2000/svg" width="18" height="19" viewBox="0 0 18 19">
    <g fill="#FFF" fill-rule="nonzero">
        <path d="M7.884 1.868c1.89-.319 3.827.274 5.377 1.345-.638.66-1.299 1.321-1.96 1.982-1.526-.911-3.531-.889-4.967.205-1.891 1.344-2.37 4.124-1.207 6.106-.638.684-1.3 1.345-1.937 2.005-1.253-1.822-1.732-4.146-1.14-6.288.661-2.734 3.031-4.945 5.834-5.355M14.696 4.716c1.413 1.96 1.823 4.58 1.003 6.859-.73 2.096-2.461 3.85-4.603 4.511-2.187.752-4.602.228-6.47-1.07a81.32 81.32 0 0 1 1.959-2.006c1.048.57 2.324.889 3.486.501 2.028-.5 3.486-2.574 3.326-4.648 0-.774-.319-1.48-.638-2.164.661-.661 1.3-1.322 1.937-1.983"/>
        <circle cx="1.8" cy="16.428" r="1.8"/>
        <circle cx="16.109" cy="1.8" r="1.8"/>
    </g>
</svg>
