<svg xmlns="http://www.w3.org/2000/svg" x="0px" y="0px"
width="32" height="32"
viewBox="0 0 172 172"
style=" fill:#000000;"><g fill="none" fill-rule="nonzero" stroke="none" stroke-width="1" stroke-linecap="butt" stroke-linejoin="miter" stroke-miterlimit="10" stroke-dasharray="" stroke-dashoffset="0" font-family="none" font-weight="none" font-size="none" text-anchor="none" style="mix-blend-mode: normal"><path d="M0,172v-172h172v172z" fill="none"></path><g fill="#9b59b6"><path d="M86.02099,75.58594v22.5918h32.18702c-4.19922,13.68945 -15.64209,23.49463 -32.18702,23.49463c-19.69433,0 -35.67236,-15.97803 -35.67236,-35.67236c0,-19.69433 15.95703,-35.67236 35.67236,-35.67236c8.86035,0 16.94385,3.2544 23.17969,8.6084l16.62891,-16.6499c-10.49805,-9.57422 -24.48144,-15.41114 -39.80859,-15.41114c-32.66992,0 -59.14599,26.47607 -59.14599,59.125c0,32.64893 26.47607,59.125 59.14599,59.125c49.63477,0 60.59473,-46.42236 55.72364,-69.45508z"></path></g></g></svg>
