<svg xmlns="http://www.w3.org/2000/svg" x="0px" y="0px"
width="64" height="64"
viewBox="0 0 172 172"
style=" fill:#000000;"><g fill="none" fill-rule="nonzero" stroke="none" stroke-width="1" stroke-linecap="butt" stroke-linejoin="miter" stroke-miterlimit="10" stroke-dasharray="" stroke-dashoffset="0" font-family="none" font-weight="none" font-size="none" text-anchor="none" style="mix-blend-mode: normal"><path d="M0,172v-172h172v172z" fill="none"></path><g fill="#9b59b6"><path d="M43,14.33333c-7.91608,0 -14.33333,6.41725 -14.33333,14.33333c0,7.91608 6.41725,14.33333 14.33333,14.33333c7.91608,0 14.33333,-6.41725 14.33333,-14.33333c0,-7.91608 -6.41725,-14.33333 -14.33333,-14.33333zM129,14.33333c-7.91608,0 -14.33333,6.41725 -14.33333,14.33333c0,7.91608 6.41725,14.33333 14.33333,14.33333c7.91608,0 14.33333,-6.41725 14.33333,-14.33333c0,-7.91608 -6.41725,-14.33333 -14.33333,-14.33333zM35.83333,57.33333c-7.91917,0 -14.33333,6.41417 -14.33333,14.33333v43v43h14.33333v-43h14.33333v43h14.33333v-50.16667v-20.28223l21.5,21.514l21.5,-21.514v27.44889v43h14.33333v-43h14.33333v43h14.33333v-50.16667v-35.83333c0,-7.91917 -6.41417,-14.33333 -14.33333,-14.33333h-14.33333c-3.9848,0 -7.57886,1.63259 -10.17611,4.25521l-0.014,-0.014l-25.64323,25.65723l-25.69922,-25.69922l-0.18197,-0.19596l-0.028,0.02799c-2.57686,-2.48224 -6.06156,-4.03125 -9.92415,-4.03125z"></path></g></g></svg>
