<svg xmlns="http://www.w3.org/2000/svg" width="40" height="40" viewBox="0 0 40 40">
    <g fill="none" fill-rule="evenodd">
        <rect width="40" height="40" fill="#FF8C00" rx="20"/>
        <path fill="#FFF" fill-rule="nonzero" d="M27.18 18.098c.317-2.117-1.295-3.255-3.5-4.014l.717-2.867-1.746-.435-.698 2.792c-.458-.114-.93-.223-1.397-.329l.7-2.81L19.51 10l-.713 2.866-3.52-.872-.465 1.864s1.295.297 1.267.316c.707.176.835.644.814 1.015l-1.959 7.855c-.086.214-.306.536-.8.413.018.026-1.268-.318-1.268-.318l-.867 2 3.515.889-.722 2.9 1.743.435.716-2.87c.477.13.939.249 1.39.361l-.712 2.856 1.745.435.723-2.895c2.976.563 5.215.336 6.156-2.354.759-2.167-.038-3.417-1.604-4.233 1.14-.264 2-1.014 2.229-2.564m-3.988 5.592c-.54 2.167-4.19.996-5.373.701l.959-3.842c1.183.295 4.977.88 4.415 3.14m.54-5.623c-.492 1.973-3.53.97-4.515.725l.868-3.486c.986.246 4.16.705 3.646 2.761"/>
    </g>
</svg>
